<?xml version="1.0" encoding="UTF-8" standalone="no"?>
<!DOCTYPE svg PUBLIC "-//W3C//DTD SVG 1.1//EN" "http://www.w3.org/Graphics/SVG/1.1/DTD/svg11.dtd">
<svg width="100%" height="100%" viewBox="0 0 591 591" version="1.1" xmlns="http://www.w3.org/2000/svg" xmlns:xlink="http://www.w3.org/1999/xlink" xml:space="preserve" xmlns:serif="http://www.serif.com/" style="fill-rule:evenodd;clip-rule:evenodd;stroke-linejoin:round;stroke-miterlimit:2;">
    <g transform="matrix(1,0,0,1,-1457.78,-908.6)">
        <g id="Layer-1" serif:id="Layer 1" transform="matrix(4.16667,0,0,4.16667,0,0)">
            <g transform="matrix(141.732,0,0,-141.732,349.866,288.931)">
                <path d="M-0,0.5L-0,-0.5L1,-0.5L1,0.3C1,0.41 0.91,0.5 0.8,0.5L-0,0.5Z" style="fill:url(#_Linear1);fill-rule:nonzero;"/>
            </g>
            <g transform="matrix(1,0,0,1,360.605,296.089)">
                <path d="M0,0.338C0,-5.356 3.499,-8.542 9.122,-8.542C11.534,-8.542 13.199,-7.987 14.382,-7.19L14.382,-3.523L12.065,-3.523C11.559,-3.957 10.593,-4.512 9.29,-4.512C7.191,-4.512 5.864,-3.184 5.864,0.097C5.864,3.692 6.998,4.947 9.049,4.947C10.593,4.947 11.583,4.392 12.234,3.764L14.454,3.764L14.454,7.168C13.175,8.108 11.341,8.88 8.615,8.88C3.282,8.88 0,5.864 0,0.338" style="fill:white;fill-rule:nonzero;"/>
            </g>
            <g transform="matrix(1,0,0,1,376.336,287.813)">
                <path d="M0,16.891L0,0L3.547,0C5.067,0 5.381,0.41 5.381,2.654L5.381,16.891L0,16.891Z" style="fill:white;fill-rule:nonzero;"/>
            </g>
            <g transform="matrix(1,0,0,1,387.966,299.612)">
                <path d="M0,-2.582L2.944,-2.582C2.872,-4.174 2.413,-4.657 1.52,-4.657C0.772,-4.657 0.169,-4.295 0,-2.582M0.024,-0.121C0.242,1.473 1.038,1.906 2.533,1.906C3.958,1.906 4.947,1.544 5.622,1.134L7.336,1.134L7.336,4.054C6.081,4.73 4.488,5.309 1.689,5.309C-3.089,5.309 -5.357,2.823 -5.357,-1.207C-5.357,-5.284 -2.702,-7.891 1.52,-7.891C5.767,-7.891 7.867,-5.742 7.867,-1.303C7.867,-0.7 7.818,-0.29 7.818,-0.121L0.024,-0.121Z" style="fill:white;fill-rule:nonzero;"/>
            </g>
            <g transform="matrix(1,0,0,1,403.311,295.027)">
                <path d="M0,6.54L0,4.537C-0.314,4.488 -0.7,4.44 -0.989,4.44C-1.81,4.44 -2.268,4.826 -2.268,5.743C-2.268,6.612 -1.737,6.926 -1.11,6.926C-0.724,6.926 -0.314,6.757 0,6.54M0.266,8.543C-0.627,9.46 -1.786,9.846 -3.306,9.846C-5.405,9.846 -7.263,8.639 -7.263,6.081C-7.263,3.378 -5.309,2.172 -2.316,2.172C-1.424,2.172 -0.675,2.221 0,2.341L0,1.883C0,0.845 -0.531,0.458 -1.954,0.458C-3.089,0.458 -4.054,0.773 -4.633,1.11L-6.346,1.11L-6.346,-2.316C-5.188,-2.799 -3.185,-3.306 -0.748,-3.306C3.426,-3.306 5.357,-1.93 5.357,1.496L5.357,9.677L1.834,9.677C0.917,9.677 0.482,9.242 0.266,8.543" style="fill:white;fill-rule:nonzero;"/>
            </g>
            <g transform="matrix(1,0,0,1,410.042,291.722)">
                <path d="M0,12.982L0,0.241L3.813,0.241C4.609,0.241 5.067,0.506 5.26,2.027C6.322,0.965 7.771,0 9.797,0C11.775,0 13.296,0.869 13.296,3.692L13.296,12.982L7.939,12.982L7.939,5.116C7.939,4.199 7.505,4.005 6.515,4.005C6.105,4.005 5.695,4.078 5.381,4.15L5.381,12.982L0,12.982Z" style="fill:white;fill-rule:nonzero;"/>
            </g>
            <g transform="matrix(1,0,0,1,424.785,302.434)">
                <path d="M0,-13.246C0,-14.621 1.086,-15.515 2.654,-15.515C4.223,-15.515 5.309,-14.621 5.309,-13.246C5.309,-11.871 4.223,-11.003 2.654,-11.003C1.086,-11.003 0,-11.871 0,-13.246M-0.024,2.269L-0.024,-10.472L3.522,-10.472C5.043,-10.472 5.332,-10.038 5.332,-7.938L5.332,2.269L-0.024,2.269Z" style="fill:white;fill-rule:nonzero;"/>
            </g>
            <g transform="matrix(1,0,0,1,431.588,291.722)">
                <path d="M0,12.982L0,0.241L3.813,0.241C4.609,0.241 5.067,0.506 5.261,2.027C6.322,0.965 7.771,0 9.798,0C11.775,0 13.296,0.869 13.296,3.692L13.296,12.982L7.939,12.982L7.939,5.116C7.939,4.199 7.505,4.005 6.516,4.005C6.105,4.005 5.695,4.078 5.382,4.15L5.382,12.982L0,12.982Z" style="fill:white;fill-rule:nonzero;"/>
            </g>
            <g transform="matrix(1,0,0,1,454.173,300.095)">
                <path d="M0,0.337L0,-4.247C-0.362,-4.416 -0.724,-4.489 -1.134,-4.489C-2.148,-4.489 -3.016,-4.199 -3.016,-2.003C-3.016,0.361 -2.341,0.65 -1.206,0.65C-0.748,0.65 -0.338,0.531 0,0.337M5.356,3.28C5.356,6.948 2.389,8.711 -2.317,8.711C-4.874,8.711 -6.442,8.397 -7.771,7.842L-7.771,4.392L-6.081,4.392C-5.381,4.753 -4.344,5.066 -3.016,5.066C-0.941,5.066 0,4.512 0,3.28L0,2.799C-0.748,3.426 -1.93,3.764 -3.306,3.764C-6.129,3.764 -8.445,2.437 -8.445,-2.124C-8.445,-6.95 -5.646,-8.374 -3.137,-8.374C-1.568,-8.374 -0.531,-7.795 0.362,-6.684C0.676,-7.601 1.207,-8.132 2.268,-8.132L5.356,-8.132L5.356,3.28Z" style="fill:white;fill-rule:nonzero;"/>
            </g>
            <g transform="matrix(1,0,0,1,361.208,326.821)">
                <path d="M0,-16.891L12.306,-16.891L12.306,-13.031L5.719,-13.031L5.719,-10.328L10.231,-10.328L10.231,-6.707L5.719,-6.707L5.719,-3.764L12.523,-3.764L12.523,0L0,0L0,-16.891Z" style="fill:white;fill-rule:nonzero;"/>
            </g>
            <g transform="matrix(1,0,0,1,374.478,315.189)">
                <path d="M0,10.522L3.233,5.092L0.217,0.001L0.217,-1.109L5.598,-1.109L7.384,2.269L9.146,-1.109L13.513,-1.109L13.513,0.001L10.738,4.827L13.875,10.522L13.875,11.631L8.518,11.631L6.587,7.819L4.633,11.631L0,11.631L0,10.522Z" style="fill:white;fill-rule:nonzero;"/>
            </g>
            <g transform="matrix(1,0,0,1,387.917,320.376)">
                <path d="M0,0.123C0,-4.1 2.848,-6.538 7.384,-6.538C9.097,-6.538 10.666,-6.127 11.631,-5.621L11.631,-2.218L9.797,-2.218C9.387,-2.532 8.76,-2.846 7.818,-2.846C6.371,-2.846 5.454,-1.953 5.454,0.171C5.454,2.197 6.274,3.139 7.746,3.139C8.808,3.139 9.411,2.776 9.894,2.391L11.655,2.391L11.655,5.527C10.811,6.059 9.242,6.661 7.046,6.661C2.655,6.661 0,4.489 0,0.123" style="fill:white;fill-rule:nonzero;"/>
            </g>
            <g transform="matrix(1,0,0,1,405.362,321.729)">
                <path d="M0,-2.582L2.944,-2.582C2.872,-4.174 2.413,-4.656 1.521,-4.656C0.772,-4.656 0.169,-4.295 0,-2.582M0.024,-0.12C0.242,1.473 1.038,1.907 2.534,1.907C3.958,1.907 4.947,1.545 5.622,1.134L7.336,1.134L7.336,4.054C6.081,4.73 4.488,5.309 1.689,5.309C-3.088,5.309 -5.357,2.824 -5.357,-1.206C-5.357,-5.283 -2.702,-7.891 1.521,-7.891C5.767,-7.891 7.867,-5.742 7.867,-1.303C7.867,-0.7 7.818,-0.289 7.818,-0.12L0.024,-0.12Z" style="fill:white;fill-rule:nonzero;"/>
            </g>
            <g transform="matrix(1,0,0,1,414.12,309.93)">
                <path d="M0,16.891L0,0L3.547,0C5.067,0 5.381,0.41 5.381,2.655L5.381,16.891L0,16.891Z" style="fill:white;fill-rule:nonzero;"/>
            </g>
            <g transform="matrix(1,0,0,1,421.045,309.93)">
                <path d="M0,16.891L0,0L3.547,0C5.066,0 5.381,0.41 5.381,2.655L5.381,16.891L0,16.891Z" style="fill:white;fill-rule:nonzero;"/>
            </g>
            <g transform="matrix(1,0,0,1,432.675,321.729)">
                <path d="M0,-2.582L2.943,-2.582C2.871,-4.174 2.413,-4.656 1.52,-4.656C0.771,-4.656 0.169,-4.295 0,-2.582M0.023,-0.12C0.241,1.473 1.037,1.907 2.533,1.907C3.957,1.907 4.946,1.545 5.622,1.134L7.336,1.134L7.336,4.054C6.08,4.73 4.488,5.309 1.688,5.309C-3.089,5.309 -5.357,2.824 -5.357,-1.206C-5.357,-5.283 -2.703,-7.891 1.52,-7.891C5.767,-7.891 7.866,-5.742 7.866,-1.303C7.866,-0.7 7.818,-0.289 7.818,-0.12L0.023,-0.12Z" style="fill:white;fill-rule:nonzero;"/>
            </g>
            <g transform="matrix(1,0,0,1,441.384,313.839)">
                <path d="M0,12.982L0,0.242L3.813,0.242C4.609,0.242 5.067,0.506 5.261,2.027C6.322,0.965 7.771,0 9.798,0C11.776,0 13.296,0.869 13.296,3.692L13.296,12.982L7.939,12.982L7.939,5.116C7.939,4.199 7.505,4.005 6.516,4.005C6.105,4.005 5.694,4.079 5.382,4.151L5.382,12.982L0,12.982Z" style="fill:white;fill-rule:nonzero;"/>
            </g>
            <g transform="matrix(1,0,0,1,455.475,320.376)">
                <path d="M0,0.123C0,-4.1 2.849,-6.538 7.384,-6.538C9.098,-6.538 10.666,-6.127 11.631,-5.621L11.631,-2.218L9.797,-2.218C9.387,-2.532 8.76,-2.846 7.819,-2.846C6.371,-2.846 5.454,-1.953 5.454,0.171C5.454,2.197 6.274,3.139 7.746,3.139C8.808,3.139 9.411,2.776 9.894,2.391L11.656,2.391L11.656,5.527C10.811,6.059 9.242,6.661 7.046,6.661C2.655,6.661 0,4.489 0,0.123" style="fill:white;fill-rule:nonzero;"/>
            </g>
            <g transform="matrix(1,0,0,1,472.92,321.729)">
                <path d="M0,-2.582L2.944,-2.582C2.872,-4.174 2.413,-4.656 1.521,-4.656C0.772,-4.656 0.169,-4.295 0,-2.582M0.024,-0.12C0.241,1.473 1.038,1.907 2.534,1.907C3.958,1.907 4.947,1.545 5.623,1.134L7.336,1.134L7.336,4.054C6.081,4.73 4.488,5.309 1.689,5.309C-3.089,5.309 -5.356,2.824 -5.356,-1.206C-5.356,-5.283 -2.702,-7.891 1.521,-7.891C5.767,-7.891 7.867,-5.742 7.867,-1.303C7.867,-0.7 7.819,-0.289 7.819,-0.12L0.024,-0.12Z" style="fill:white;fill-rule:nonzero;"/>
            </g>
            <g transform="matrix(1,0,0,1,478.952,331.527)">
                <path d="M0,16.934L0,1.382L-2.665,2.932L-3.223,2.932L-3.223,2.084L0.436,-0.023L1.308,-0.023L1.308,16.934L0,16.934ZM-3.996,16.934L-14.558,16.934L-14.558,15.844L-9.446,10.781C-7,8.334 -5.353,6.468 -5.353,4.362C-5.353,2.23 -6.612,0.946 -9.034,0.946C-11.094,0.946 -12.329,1.769 -13.226,2.69L-13.855,2.69L-13.855,1.769C-12.813,0.8 -11.142,-0.121 -8.962,-0.121C-5.765,-0.121 -4.069,1.576 -4.069,4.362C-4.069,6.832 -6.104,9.038 -8.526,11.435L-13.031,15.844L-3.996,15.844L-3.996,16.934ZM-16.423,8.479C-16.423,3.368 -18.724,0.921 -21.922,0.921C-25.144,0.921 -27.445,3.368 -27.445,8.479C-27.445,13.567 -25.144,15.99 -21.922,15.99C-18.724,15.99 -16.423,13.567 -16.423,8.479M-28.753,8.455C-28.753,2.714 -25.628,-0.121 -21.922,-0.121C-18.215,-0.121 -15.09,2.714 -15.09,8.455C-15.09,14.27 -18.215,17.032 -21.922,17.032C-25.628,17.032 -28.753,14.27 -28.753,8.455M-30.182,16.934L-40.743,16.934L-40.743,15.844L-35.632,10.781C-33.186,8.334 -31.537,6.468 -31.537,4.362C-31.537,2.23 -32.798,0.946 -35.221,0.946C-37.279,0.946 -38.515,1.769 -39.411,2.69L-40.041,2.69L-40.041,1.769C-38.999,0.8 -37.328,-0.121 -35.147,-0.121C-31.95,-0.121 -30.254,1.576 -30.254,4.362C-30.254,6.832 -32.289,9.038 -34.711,11.435L-39.217,15.844L-30.182,15.844L-30.182,16.934ZM-55.688,15.844L-55.688,14.851L-55.203,14.851C-54.599,15.409 -53.483,16.086 -51.667,16.086C-49.342,16.086 -48.227,15.118 -48.227,13.373C-48.227,11.896 -49.051,11.29 -51.618,10.878C-54.041,10.49 -55.567,9.642 -55.567,7.51C-55.567,5.33 -53.848,4.168 -51.327,4.168C-49.487,4.168 -48.372,4.652 -47.67,5.113L-47.67,6.106L-48.154,6.106C-48.832,5.549 -49.681,5.113 -51.304,5.113C-53.363,5.113 -54.429,5.888 -54.429,7.413C-54.429,8.868 -53.581,9.424 -51.134,9.836C-48.493,10.248 -47.04,11.048 -47.04,13.277C-47.04,15.602 -48.47,17.032 -51.618,17.032C-53.774,17.032 -54.962,16.377 -55.688,15.844M-59.079,13.519L-59.079,6.832C-60.072,5.767 -61.235,5.113 -63.101,5.113C-65.232,5.113 -67.461,6.276 -67.461,10.684C-67.461,14.875 -65.475,16.086 -63.585,16.086C-61.525,16.086 -60.169,14.997 -59.079,13.519M-59.079,14.754C-60.096,16.038 -61.72,17.032 -63.706,17.032C-66.25,17.032 -68.696,15.432 -68.696,10.733C-68.696,5.839 -65.886,4.168 -63.294,4.168C-61.308,4.168 -60.024,4.774 -59.079,5.743L-59.079,-0.023L-58.667,-0.023C-57.964,-0.023 -57.844,0.122 -57.844,1.139L-57.844,16.934L-58.474,16.934C-58.982,16.934 -59.055,16.692 -59.079,15.53L-59.079,14.754ZM-73.904,6.494C-72.935,5.33 -71.554,4.216 -69.761,4.216C-69.446,4.216 -69.229,4.265 -69.18,4.288L-69.18,5.282C-69.18,5.282 -69.495,5.258 -69.713,5.258C-71.554,5.258 -72.886,6.445 -73.904,7.631L-73.904,16.934L-75.115,16.934L-75.115,4.313L-74.558,4.313C-74.025,4.313 -73.904,4.459 -73.904,5.694L-73.904,6.494ZM-79.232,14.051L-79.232,10.951C-80.202,10.733 -81.268,10.563 -82.479,10.563C-84.708,10.563 -86.379,11.363 -86.379,13.301C-86.379,15.312 -85.071,16.111 -83.375,16.111C-81.34,16.111 -80.226,15.239 -79.232,14.051M-79.232,15.214C-80.298,16.329 -81.461,17.055 -83.544,17.055C-85.894,17.055 -87.614,15.771 -87.614,13.398C-87.614,10.854 -85.507,9.691 -82.551,9.691C-81.34,9.691 -80.274,9.812 -79.232,10.08L-79.232,7.801C-79.232,5.839 -80.493,5.137 -82.333,5.137C-84.198,5.137 -85.458,5.621 -86.258,6.25L-86.767,6.25L-86.767,5.258C-85.749,4.701 -84.344,4.168 -82.285,4.168C-79.717,4.168 -78.021,5.113 -78.021,7.729L-78.021,16.934L-78.36,16.934C-79.063,16.934 -79.232,16.716 -79.232,15.699L-79.232,15.214ZM-104.304,4.774L-104.304,4.313L-103.214,4.313L-100.04,15.093L-99.992,15.093L-96.648,4.313L-95.631,4.313L-92.361,15.093L-92.312,15.093L-89.139,4.313L-88.146,4.313L-88.146,4.774L-91.804,16.934L-92.87,16.934L-96.164,6.25L-96.212,6.25L-99.531,16.934L-100.646,16.934L-104.304,4.774ZM-114.405,10.563L-107.791,10.563L-111.062,1.407L-111.11,1.407L-114.405,10.563ZM-117.748,16.402L-111.788,-0.023L-110.262,-0.023L-104.375,16.402L-104.375,16.934L-105.514,16.934L-107.428,11.629L-114.768,11.629L-116.657,16.934L-117.748,16.934L-117.748,16.402Z" style="fill:rgb(253,196,25);fill-rule:nonzero;"/>
            </g>
        </g>
    </g>
    <defs>
        <linearGradient id="_Linear1" x1="0" y1="0" x2="1" y2="0" gradientUnits="userSpaceOnUse" gradientTransform="matrix(1,0,0,-1,0,7.86836e-06)"><stop offset="0" style="stop-color:rgb(0,139,210);stop-opacity:1"/><stop offset="1" style="stop-color:rgb(13,32,80);stop-opacity:1"/></linearGradient>
    </defs>
</svg>
