<?xml version="1.0" encoding="UTF-8" standalone="no"?>
<!DOCTYPE svg PUBLIC "-//W3C//DTD SVG 1.1//EN" "http://www.w3.org/Graphics/SVG/1.1/DTD/svg11.dtd">
<svg width="100%" height="100%" viewBox="0 0 956 555" version="1.1" xmlns="http://www.w3.org/2000/svg" xmlns:xlink="http://www.w3.org/1999/xlink" xml:space="preserve" xmlns:serif="http://www.serif.com/" style="fill-rule:evenodd;clip-rule:evenodd;stroke-linejoin:round;stroke-miterlimit:2;">
    <g transform="matrix(1,0,0,1,-593.726,-732.288)">
        <g transform="matrix(4.16667,0,0,4.16667,-680.786,-230.549)">
            <g transform="matrix(1,0,0,1,305.906,353.602)">
                <path d="M0,10.574L0,0L6.299,0L6.299,0.679L0.8,0.679L0.8,5.06L4.879,5.06L4.879,5.725L0.8,5.725L0.8,10.574L0,10.574Z" style="fill:rgb(157,156,156);fill-rule:nonzero;"/>
            </g>
            <g transform="matrix(1,0,0,1,0,122.502)">
                <rect x="313.819" y="231.1" width="0.815" height="10.574" style="fill:rgb(157,156,156);"/>
            </g>
            <g transform="matrix(1,0,0,1,317.881,359.04)">
                <path d="M0,-0.302L1.979,-0.302C3.747,-0.302 4.819,-0.785 4.819,-2.537C4.819,-4.244 3.656,-4.774 1.979,-4.774L0,-4.774L0,-0.302ZM2.931,0.302C2.644,0.333 2.327,0.347 2.009,0.347L0,0.347L0,5.136L-0.816,5.136L-0.816,-5.438L2.009,-5.438C4.154,-5.438 5.635,-4.683 5.635,-2.568C5.635,-1.042 4.91,-0.211 3.716,0.136L6.239,4.819L6.239,5.136L5.544,5.136L2.931,0.302Z" style="fill:rgb(157,156,156);fill-rule:nonzero;"/>
            </g>
            <g transform="matrix(1,0,0,1,325.869,364.176)">
                <path d="M0,-10.574L6.299,-10.574L6.299,-9.894L0.8,-9.894L0.8,-5.786L4.955,-5.786L4.955,-5.121L0.8,-5.121L0.8,-0.665L6.511,-0.665L6.511,0L0,0L0,-10.574Z" style="fill:rgb(157,156,156);fill-rule:nonzero;"/>
            </g>
            <g transform="matrix(1,0,0,1,342.89,355.444)">
                <path d="M0,6.889L-3.399,3.052C-4.562,3.535 -5.438,4.2 -5.438,5.71C-5.438,6.934 -4.623,8.143 -2.644,8.143C-1.435,8.143 -0.62,7.66 0,6.889M0.438,7.372C-0.257,8.203 -1.345,8.792 -2.734,8.792C-5.061,8.792 -6.269,7.448 -6.269,5.726C-6.269,4.034 -5.121,3.082 -3.807,2.583C-4.215,2.085 -4.623,1.466 -4.623,0.514C-4.623,-0.922 -3.535,-1.903 -1.918,-1.903C-0.921,-1.903 -0.272,-1.661 0.257,-1.223L0.257,-0.634L-0.121,-0.634C-0.544,-1.027 -1.073,-1.268 -1.903,-1.268C-3.082,-1.268 -3.837,-0.544 -3.837,0.529C-3.837,1.285 -3.414,1.934 -2.613,2.84L0.393,6.209C0.876,5.303 1.314,4.079 1.45,2.87L2.13,2.87L2.13,3.143C1.934,4.381 1.465,5.71 0.846,6.738L2.326,8.4L2.326,8.732L1.662,8.732L0.438,7.372Z" style="fill:rgb(157,156,156);fill-rule:nonzero;"/>
            </g>
            <g transform="matrix(1,0,0,1,349.306,354.539)">
                <path d="M0,8.701L0,7.991L0.362,7.991C0.921,8.55 1.752,9.049 3.248,9.049C4.864,9.049 5.982,8.384 5.982,6.782C5.982,5.226 4.758,4.925 3.232,4.516C1.344,4.018 0.256,3.414 0.256,1.691C0.256,0.166 1.375,-0.997 3.444,-0.997C4.773,-0.997 5.619,-0.65 6.269,-0.166L6.269,0.513L5.891,0.513C5.333,0 4.637,-0.348 3.459,-0.348C1.737,-0.348 1.027,0.513 1.027,1.632C1.027,3.082 2.024,3.414 3.459,3.792C5.589,4.35 6.768,4.879 6.768,6.722C6.768,8.776 5.317,9.698 3.263,9.698C1.692,9.698 0.695,9.245 0,8.701" style="fill:rgb(157,156,156);fill-rule:nonzero;"/>
            </g>
            <g transform="matrix(1,0,0,1,357.732,364.176)">
                <path d="M0,-10.574L6.299,-10.574L6.299,-9.894L0.8,-9.894L0.8,-5.786L4.955,-5.786L4.955,-5.121L0.8,-5.121L0.8,-0.665L6.511,-0.665L6.511,0L0,0L0,-10.574Z" style="fill:rgb(157,156,156);fill-rule:nonzero;"/>
            </g>
            <g transform="matrix(1,0,0,1,365.026,358.92)">
                <path d="M0,-0.061C0,-3.536 2.13,-5.378 4.653,-5.378C6.33,-5.378 7.085,-4.956 7.87,-4.321L7.87,-3.671L7.493,-3.671C6.903,-4.26 6.163,-4.729 4.698,-4.729C2.508,-4.729 0.831,-3.143 0.831,-0.091C0.831,3.021 2.296,4.668 4.577,4.668C6.163,4.668 7.055,4.078 7.704,3.414L8.052,3.414L8.052,4.018C7.327,4.698 6.284,5.317 4.562,5.317C1.873,5.317 0,3.414 0,-0.061" style="fill:rgb(157,156,156);fill-rule:nonzero;"/>
            </g>
            <g transform="matrix(1,0,0,1,381.579,357.212)">
                <path d="M0,3.414L0,-3.61L0.771,-3.61L0.771,3.384C0.771,6.042 -0.876,7.024 -3.066,7.024C-5.227,7.024 -6.979,6.058 -6.979,3.384L-6.979,-3.61L-6.178,-3.61L-6.178,3.414C-6.178,5.68 -4.743,6.359 -3.021,6.359C-1.359,6.359 0,5.726 0,3.414" style="fill:rgb(157,156,156);fill-rule:nonzero;"/>
            </g>
            <g transform="matrix(1,0,0,1,385.473,359.04)">
                <path d="M0,-0.302L1.979,-0.302C3.747,-0.302 4.819,-0.785 4.819,-2.537C4.819,-4.244 3.656,-4.774 1.979,-4.774L0,-4.774L0,-0.302ZM2.931,0.302C2.644,0.333 2.326,0.347 2.009,0.347L0,0.347L0,5.136L-0.815,5.136L-0.815,-5.438L2.009,-5.438C4.154,-5.438 5.635,-4.683 5.635,-2.568C5.635,-1.042 4.91,-0.211 3.716,0.136L6.239,4.819L6.239,5.136L5.544,5.136L2.931,0.302Z" style="fill:rgb(157,156,156);fill-rule:nonzero;"/>
            </g>
            <g transform="matrix(1,0,0,1,0,122.502)">
                <rect x="393.492" y="231.1" width="0.815" height="10.574" style="fill:rgb(157,156,156);"/>
            </g>
            <g transform="matrix(1,0,0,1,399.2,353.602)">
                <path d="M0,10.574L0,0.664L-3.459,0.664L-3.459,0L4.26,0L4.26,0.664L0.816,0.664L0.816,10.574L0,10.574Z" style="fill:rgb(157,156,156);fill-rule:nonzero;"/>
            </g>
            <g transform="matrix(1,0,0,1,407.475,353.602)">
                <path d="M0,10.574L0,6.148L-3.369,0.332L-3.369,0L-2.674,0L0.423,5.392L0.438,5.392L3.535,0L4.169,0L4.169,0.332L0.816,6.118L0.816,10.574L0,10.574Z" style="fill:rgb(157,156,156);fill-rule:nonzero;"/>
            </g>
            <g transform="matrix(1,0,0,1,416.504,364.176)">
                <path d="M0,-10.574L1.253,-10.574L4.849,-1.223L4.879,-1.223L8.459,-10.574L9.683,-10.574L9.683,0L8.868,0L8.868,-9.607L8.792,-9.607L5.091,0L4.501,0L0.815,-9.607L0.755,-9.607L0.755,0L0,0L0,-10.574Z" style="fill:rgb(157,156,156);fill-rule:nonzero;"/>
            </g>
            <g transform="matrix(1,0,0,1,429.779,357.575)">
                <path d="M0,2.629L4.123,2.629L2.084,-3.081L2.054,-3.081L0,2.629ZM-2.085,6.27L1.631,-3.973L2.583,-3.973L6.254,6.27L6.254,6.602L5.544,6.602L4.351,3.293L-0.228,3.293L-1.405,6.602L-2.085,6.602L-2.085,6.27Z" style="fill:rgb(157,156,156);fill-rule:nonzero;"/>
            </g>
            <g transform="matrix(1,0,0,1,438.916,353.602)">
                <path d="M0,10.574L0,0.664L-3.459,0.664L-3.459,0L4.26,0L4.26,0.664L0.815,0.664L0.815,10.574L0,10.574Z" style="fill:rgb(157,156,156);fill-rule:nonzero;"/>
            </g>
            <g transform="matrix(1,0,0,1,447.221,353.602)">
                <path d="M0,10.574L0,0.664L-3.459,0.664L-3.459,0L4.261,0L4.261,0.664L0.816,0.664L0.816,10.574L0,10.574Z" style="fill:rgb(157,156,156);fill-rule:nonzero;"/>
            </g>
            <g transform="matrix(1,0,0,1,452.883,364.176)">
                <path d="M0,-10.574L6.3,-10.574L6.3,-9.894L0.801,-9.894L0.801,-5.786L4.955,-5.786L4.955,-5.121L0.801,-5.121L0.801,-0.665L6.511,-0.665L6.511,0L0,0L0,-10.574Z" style="fill:rgb(157,156,156);fill-rule:nonzero;"/>
            </g>
            <g transform="matrix(1,0,0,1,461.823,359.04)">
                <path d="M0,-0.302L1.979,-0.302C3.746,-0.302 4.818,-0.785 4.818,-2.537C4.818,-4.244 3.655,-4.774 1.979,-4.774L0,-4.774L0,-0.302ZM2.931,0.302C2.644,0.333 2.326,0.347 2.009,0.347L0,0.347L0,5.136L-0.815,5.136L-0.815,-5.438L2.009,-5.438C4.154,-5.438 5.635,-4.683 5.635,-2.568C5.635,-1.042 4.909,-0.211 3.716,0.136L6.238,4.819L6.238,5.136L5.544,5.136L2.931,0.302Z" style="fill:rgb(157,156,156);fill-rule:nonzero;"/>
            </g>
            <g transform="matrix(1,0,0,1,468.859,354.539)">
                <path d="M0,8.701L0,7.991L0.362,7.991C0.922,8.55 1.752,9.049 3.248,9.049C4.864,9.049 5.982,8.384 5.982,6.782C5.982,5.226 4.759,4.925 3.232,4.516C1.345,4.018 0.257,3.414 0.257,1.691C0.257,0.166 1.375,-0.997 3.444,-0.997C4.773,-0.997 5.619,-0.65 6.27,-0.166L6.27,0.513L5.892,0.513C5.333,0 4.638,-0.348 3.459,-0.348C1.737,-0.348 1.027,0.513 1.027,1.632C1.027,3.082 2.024,3.414 3.459,3.792C5.589,4.35 6.768,4.879 6.768,6.722C6.768,8.776 5.317,9.698 3.263,9.698C1.692,9.698 0.695,9.245 0,8.701" style="fill:rgb(157,156,156);fill-rule:nonzero;"/>
            </g>
            <g transform="matrix(1,0,0,1,481.937,357.575)">
                <path d="M0,2.629L4.124,2.629L2.085,-3.081L2.055,-3.081L0,2.629ZM-2.085,6.27L1.632,-3.973L2.583,-3.973L6.254,6.27L6.254,6.602L5.544,6.602L4.351,3.293L-0.227,3.293L-1.405,6.602L-2.085,6.602L-2.085,6.27Z" style="fill:rgb(157,156,156);fill-rule:nonzero;"/>
            </g>
            <g transform="matrix(1,0,0,1,488.203,363.859)">
                <path d="M0,-9.94L0,-10.257L0.74,-10.257L3.097,-0.967L3.143,-0.967L5.756,-10.257L6.45,-10.257L9.079,-0.967L9.124,-0.967L11.466,-10.257L12.161,-10.257L12.161,-9.94L9.518,0.317L8.641,0.317L6.104,-8.853L6.073,-8.853L3.521,0.317L2.644,0.317L0,-9.94Z" style="fill:rgb(157,156,156);fill-rule:nonzero;"/>
            </g>
            <g transform="matrix(1,0,0,1,502.46,357.575)">
                <path d="M0,2.629L4.123,2.629L2.084,-3.081L2.054,-3.081L0,2.629ZM-2.085,6.27L1.631,-3.973L2.583,-3.973L6.254,6.27L6.254,6.602L5.544,6.602L4.351,3.293L-0.228,3.293L-1.405,6.602L-2.085,6.602L-2.085,6.27Z" style="fill:rgb(157,156,156);fill-rule:nonzero;"/>
            </g>
            <g transform="matrix(1,0,0,1,511.082,359.04)">
                <path d="M0,-0.302L1.979,-0.302C3.746,-0.302 4.818,-0.785 4.818,-2.537C4.818,-4.244 3.655,-4.774 1.979,-4.774L0,-4.774L0,-0.302ZM2.931,0.302C2.644,0.333 2.326,0.347 2.009,0.347L0,0.347L0,5.136L-0.815,5.136L-0.815,-5.438L2.009,-5.438C4.154,-5.438 5.635,-4.683 5.635,-2.568C5.635,-1.042 4.909,-0.211 3.716,0.136L6.238,4.819L6.238,5.136L5.544,5.136L2.931,0.302Z" style="fill:rgb(157,156,156);fill-rule:nonzero;"/>
            </g>
            <g transform="matrix(1,0,0,1,521.88,354.267)">
                <path d="M0,9.244C3.051,9.244 4.501,7.961 4.501,4.622C4.501,1.283 3.051,-0.001 0,-0.001L-2.01,-0.001L-2.01,9.244L0,9.244ZM-2.81,-0.665L0.015,-0.665C3.505,-0.665 5.332,0.846 5.332,4.606C5.332,8.353 3.505,9.909 0,9.909L-2.81,9.909L-2.81,-0.665Z" style="fill:rgb(157,156,156);fill-rule:nonzero;"/>
            </g>
            <g transform="matrix(1,0,0,1,527.965,354.539)">
                <path d="M0,8.701L0,7.991L0.362,7.991C0.922,8.55 1.752,9.049 3.248,9.049C4.864,9.049 5.982,8.384 5.982,6.782C5.982,5.226 4.759,4.925 3.232,4.516C1.345,4.018 0.257,3.414 0.257,1.691C0.257,0.166 1.375,-0.997 3.444,-0.997C4.773,-0.997 5.619,-0.65 6.27,-0.166L6.27,0.513L5.892,0.513C5.333,0 4.638,-0.348 3.459,-0.348C1.737,-0.348 1.027,0.513 1.027,1.632C1.027,3.082 2.024,3.414 3.459,3.792C5.589,4.35 6.768,4.879 6.768,6.722C6.768,8.776 5.317,9.698 3.263,9.698C1.692,9.698 0.695,9.245 0,8.701" style="fill:rgb(157,156,156);fill-rule:nonzero;"/>
            </g>
            <g transform="matrix(154.913,154.913,154.913,-154.913,339.04,199.812)">
                <path d="M0.274,-0.126C0.313,-0.166 0.363,-0.168 0.419,-0.131C0.446,-0.113 0.462,-0.101 0.474,-0.114C0.483,-0.123 0.481,-0.136 0.467,-0.15C0.446,-0.17 0.414,-0.181 0.37,-0.19L0.415,-0.297C0.47,-0.282 0.517,-0.256 0.553,-0.221C0.616,-0.158 0.625,-0.079 0.586,-0.022L0.675,0.068L0.647,0.104C0.634,0.12 0.618,0.137 0.601,0.158C0.624,0.141 0.646,0.128 0.666,0.117L0.704,0.096L0.807,0.2L0.787,0.238C0.776,0.258 0.763,0.28 0.746,0.303C0.77,0.283 0.788,0.267 0.8,0.257L0.836,0.228L0.928,0.321L0.7,0.486L0.599,0.385L0.646,0.299C0.658,0.275 0.676,0.241 0.708,0.2L0.706,0.198C0.666,0.23 0.632,0.247 0.609,0.26L0.522,0.308L0.421,0.207L0.567,0C0.529,0.038 0.478,0.04 0.434,0.012C0.395,-0.013 0.374,-0.029 0.361,-0.016C0.353,-0.008 0.356,0.005 0.369,0.018C0.387,0.035 0.414,0.048 0.447,0.053L0.405,0.154C0.357,0.139 0.32,0.118 0.289,0.087C0.219,0.018 0.217,-0.069 0.274,-0.126ZM0,-0.214L0.272,-0.486L0.37,-0.388L0.273,-0.291L0.349,-0.215L0.28,-0.145L0.203,-0.222L0.172,-0.19L0.256,-0.106L0.182,-0.032L0,-0.214ZM0.926,0.247C0.934,0.238 0.945,0.238 0.958,0.246C0.964,0.25 0.967,0.252 0.97,0.249C0.972,0.248 0.971,0.245 0.968,0.242C0.964,0.237 0.957,0.235 0.947,0.233L0.957,0.209C0.969,0.212 0.98,0.218 0.987,0.226C1.003,0.242 1.004,0.262 0.991,0.275C0.982,0.283 0.971,0.284 0.961,0.278C0.952,0.272 0.948,0.268 0.945,0.271C0.943,0.273 0.944,0.276 0.947,0.279C0.951,0.283 0.957,0.285 0.964,0.287L0.955,0.309C0.944,0.306 0.936,0.301 0.929,0.294C0.913,0.279 0.913,0.259 0.926,0.247ZM0.843,0.205L0.903,0.145L0.919,0.161C0.931,0.173 0.94,0.183 0.942,0.196C0.945,0.21 0.941,0.223 0.931,0.233C0.919,0.244 0.904,0.248 0.888,0.243C0.88,0.24 0.871,0.233 0.86,0.223L0.843,0.205ZM0.883,0.208L0.884,0.209C0.893,0.218 0.901,0.219 0.909,0.211C0.917,0.202 0.916,0.195 0.906,0.185L0.883,0.208ZM0.785,0.147L0.845,0.087L0.866,0.108L0.847,0.128L0.877,0.119L0.901,0.143L0.861,0.151C0.867,0.159 0.865,0.17 0.857,0.179C0.844,0.192 0.828,0.191 0.812,0.175L0.785,0.147ZM0.822,0.153L0.825,0.156C0.829,0.161 0.834,0.16 0.837,0.157C0.841,0.153 0.841,0.149 0.837,0.144L0.833,0.141L0.822,0.153ZM0.738,0.101L0.777,0.019L0.801,0.042L0.795,0.052L0.811,0.068L0.821,0.063L0.844,0.086L0.763,0.125L0.738,0.101ZM0.779,0.079C0.777,0.083 0.774,0.088 0.768,0.094L0.769,0.095C0.775,0.089 0.781,0.086 0.785,0.084L0.793,0.079L0.784,0.07L0.779,0.079ZM0.703,0.066L0.725,0.035C0.728,0.032 0.731,0.027 0.736,0.021L0.735,0.021C0.731,0.025 0.726,0.028 0.724,0.03L0.69,0.052L0.674,0.037L0.697,0.003C0.699,0 0.701,-0.004 0.706,-0.009L0.705,-0.009C0.7,-0.004 0.695,-0.001 0.692,0.001L0.661,0.023L0.639,0.001L0.717,-0.042L0.736,-0.023L0.72,0.003C0.718,0.006 0.715,0.01 0.712,0.014L0.712,0.015C0.717,0.011 0.721,0.009 0.724,0.007L0.749,-0.009L0.768,0.01L0.725,0.088L0.703,0.066ZM0.602,-0.036L0.641,-0.118L0.664,-0.094L0.658,-0.085L0.675,-0.069L0.684,-0.074L0.708,-0.051L0.626,-0.012L0.602,-0.036ZM0.643,-0.058C0.64,-0.054 0.637,-0.049 0.632,-0.042L0.632,-0.042C0.638,-0.048 0.644,-0.051 0.648,-0.053L0.657,-0.058L0.648,-0.067L0.643,-0.058Z" style="fill:url(#_Linear1);fill-rule:nonzero;"/>
            </g>
            <g transform="matrix(228.85,0,0,-228.85,305.883,344.997)">
                <path d="M0.002,0.002C0.001,0.002 0,0.001 0,-0C0,-0.001 0.001,-0.002 0.002,-0.002L0.998,-0.002C0.999,-0.002 1,-0.001 1,-0C1,0.001 0.999,0.002 0.998,0.002L0.002,0.002Z" style="fill:url(#_Linear2);fill-rule:nonzero;"/>
            </g>
            <g transform="matrix(1,0,0,1,311.398,327.486)">
                <path d="M0,8.905L-5.515,8.905L-5.515,8.336L-2.846,5.692C-1.568,4.415 -0.708,3.441 -0.708,2.34C-0.708,1.227 -1.366,0.556 -2.631,0.556C-3.706,0.556 -4.351,0.987 -4.819,1.467L-5.148,1.467L-5.148,0.987C-4.604,0.48 -3.731,0 -2.593,0C-0.923,0 -0.038,0.885 -0.038,2.34C-0.038,3.631 -1.101,4.781 -2.365,6.033L-4.718,8.336L0,8.336L0,8.905Z" style="fill:rgb(29,29,27);fill-rule:nonzero;"/>
            </g>
            <g transform="matrix(1,0,0,1,317.243,334.214)">
                <path d="M0,-4.502C0,-5.526 -0.734,-6.209 -2.011,-6.209C-3.301,-6.209 -4.022,-5.526 -4.022,-4.502C-4.022,-3.49 -3.301,-2.82 -2.011,-2.82C-0.734,-2.82 0,-3.49 0,-4.502M0.417,-0.277C0.417,-1.429 -0.417,-2.288 -2.011,-2.288C-3.618,-2.288 -4.44,-1.429 -4.44,-0.277C-4.44,0.874 -3.643,1.709 -2.011,1.709C-0.393,1.709 0.417,0.874 0.417,-0.277M-5.097,-0.252C-5.097,-1.415 -4.263,-2.288 -3.2,-2.541L-3.2,-2.566C-4.022,-2.807 -4.692,-3.54 -4.692,-4.527C-4.692,-5.829 -3.643,-6.729 -2.011,-6.729C-0.393,-6.729 0.658,-5.829 0.658,-4.527C0.658,-3.54 -0.013,-2.807 -0.822,-2.566L-0.822,-2.541C0.278,-2.275 1.075,-1.415 1.075,-0.252C1.075,1.215 -0.025,2.227 -2.011,2.227C-4.009,2.227 -5.097,1.215 -5.097,-0.252" style="fill:rgb(29,29,27);fill-rule:nonzero;"/>
            </g>
            <g transform="matrix(1,0,0,1,323.531,330.864)">
                <path d="M0,2.2L3.453,2.2L1.746,-2.581L1.72,-2.581L0,2.2ZM-1.746,5.248L1.366,-3.327L2.163,-3.327L5.237,5.248L5.237,5.527L4.642,5.527L3.643,2.757L-0.189,2.757L-1.176,5.527L-1.746,5.527L-1.746,5.248Z" style="fill:rgb(29,29,27);fill-rule:nonzero;"/>
            </g>
            <g transform="matrix(1,0,0,1,330.718,331.787)">
                <path d="M0,0.354L1.619,0.354C3.212,0.354 4.085,-0.177 4.085,-1.696C4.085,-3.212 3.136,-3.694 1.619,-3.694L0,-3.694L0,0.354ZM-0.671,-4.25L1.631,-4.25C3.528,-4.25 4.768,-3.592 4.768,-1.72C4.768,0.19 3.579,0.898 1.619,0.898L0,0.898L0,4.604L-0.671,4.604L-0.671,-4.25Z" style="fill:rgb(29,29,27);fill-rule:nonzero;"/>
            </g>
            <g transform="matrix(1,0,0,1,337.549,332.09)">
                <path d="M0,-0.253L1.657,-0.253C3.137,-0.253 4.035,-0.657 4.035,-2.125C4.035,-3.555 3.061,-3.997 1.657,-3.997L0,-3.997L0,-0.253ZM2.454,0.253C2.213,0.278 1.948,0.291 1.682,0.291L0,0.291L0,4.301L-0.683,4.301L-0.683,-4.554L1.682,-4.554C3.479,-4.554 4.718,-3.921 4.718,-2.149C4.718,-0.873 4.111,-0.177 3.111,0.113L5.224,4.034L5.224,4.301L4.642,4.301L2.454,0.253Z" style="fill:rgb(29,29,27);fill-rule:nonzero;"/>
            </g>
            <g transform="matrix(1,0,0,1,0,68.652)">
                <rect x="344.267" y="258.885" width="0.683" height="8.854" style="fill:rgb(29,29,27);"/>
            </g>
            <g transform="matrix(1,0,0,1,346.962,327.537)">
                <path d="M0,8.854L0,0L0.67,0L0.67,8.297L5.287,8.297L5.287,8.854L0,8.854Z" style="fill:rgb(29,29,27);fill-rule:nonzero;"/>
            </g>
            <g transform="matrix(1,0,0,1,361.181,327.486)">
                <path d="M0,8.905L-5.515,8.905L-5.515,8.336L-2.846,5.692C-1.568,4.415 -0.708,3.441 -0.708,2.34C-0.708,1.227 -1.366,0.556 -2.631,0.556C-3.706,0.556 -4.351,0.987 -4.819,1.467L-5.148,1.467L-5.148,0.987C-4.604,0.48 -3.731,0 -2.593,0C-0.923,0 -0.038,0.885 -0.038,2.34C-0.038,3.631 -1.101,4.781 -2.365,6.033L-4.718,8.336L0,8.336L0,8.905Z" style="fill:rgb(29,29,27);fill-rule:nonzero;"/>
            </g>
            <g transform="matrix(1,0,0,1,368.43,331.95)">
                <path d="M0,0.027C0,-2.642 -1.202,-3.92 -2.872,-3.92C-4.554,-3.92 -5.755,-2.642 -5.755,0.027C-5.755,2.682 -4.554,3.948 -2.872,3.948C-1.202,3.948 0,2.682 0,0.027M-6.438,0.013C-6.438,-2.984 -4.807,-4.464 -2.872,-4.464C-0.936,-4.464 0.695,-2.984 0.695,0.013C0.695,3.049 -0.936,4.491 -2.872,4.491C-4.807,4.491 -6.438,3.049 -6.438,0.013" style="fill:rgb(29,29,27);fill-rule:nonzero;"/>
            </g>
            <g transform="matrix(1,0,0,1,374.983,327.486)">
                <path d="M0,8.905L-5.515,8.905L-5.515,8.336L-2.845,5.692C-1.568,4.415 -0.708,3.441 -0.708,2.34C-0.708,1.227 -1.366,0.556 -2.63,0.556C-3.706,0.556 -4.351,0.987 -4.819,1.467L-5.148,1.467L-5.148,0.987C-4.604,0.48 -3.731,0 -2.593,0C-0.923,0 -0.038,0.885 -0.038,2.34C-0.038,3.631 -1.101,4.781 -2.365,6.033L-4.717,8.336L0,8.336L0,8.905Z" style="fill:rgb(29,29,27);fill-rule:nonzero;"/>
            </g>
            <g transform="matrix(1,0,0,1,381.005,327.486)">
                <path d="M0,8.905L-5.515,8.905L-5.515,8.336L-2.846,5.692C-1.568,4.415 -0.708,3.441 -0.708,2.34C-0.708,1.227 -1.366,0.556 -2.63,0.556C-3.706,0.556 -4.351,0.987 -4.819,1.467L-5.148,1.467L-5.148,0.987C-4.604,0.48 -3.731,0 -2.593,0C-0.923,0 -0.038,0.885 -0.038,2.34C-0.038,3.631 -1.101,4.781 -2.365,6.033L-4.718,8.336L0,8.336L0,8.905Z" style="fill:rgb(29,29,27);fill-rule:nonzero;"/>
            </g>
            <g transform="matrix(0,1,1,0,386.06,330.743)">
                <path d="M1.5,-1.46C0.575,-1.46 0.02,-0.802 0.02,0.02C0.02,0.842 0.575,1.5 1.5,1.5C2.41,1.5 2.94,0.842 2.94,0.02C2.94,-0.802 2.41,-1.46 1.5,-1.46" style="fill:rgb(29,29,27);fill-rule:nonzero;"/>
            </g>
            <g transform="matrix(1,0,0,1,392.43,332.09)">
                <path d="M0,-0.253L1.657,-0.253C3.137,-0.253 4.035,-0.657 4.035,-2.125C4.035,-3.555 3.062,-3.997 1.657,-3.997L0,-3.997L0,-0.253ZM2.455,0.253C2.214,0.278 1.948,0.291 1.683,0.291L0,0.291L0,4.301L-0.683,4.301L-0.683,-4.554L1.683,-4.554C3.479,-4.554 4.718,-3.921 4.718,-2.149C4.718,-0.873 4.111,-0.177 3.112,0.113L5.225,4.034L5.225,4.301L4.642,4.301L2.455,0.253Z" style="fill:rgb(29,29,27);fill-rule:nonzero;"/>
            </g>
            <g transform="matrix(1,0,0,1,0,68.652)">
                <rect x="399.148" y="258.885" width="0.683" height="8.854" style="fill:rgb(29,29,27);"/>
            </g>
            <g transform="matrix(1,0,0,1,401.363,331.988)">
                <path d="M0,-0.049C0,-2.959 1.783,-4.502 3.896,-4.502C5.3,-4.502 5.932,-4.148 6.59,-3.616L6.59,-3.072L6.273,-3.072C5.78,-3.566 5.161,-3.958 3.934,-3.958C2.1,-3.958 0.696,-2.63 0.696,-0.074C0.696,2.531 1.923,3.91 3.833,3.91C5.161,3.91 5.907,3.417 6.451,2.86L6.742,2.86L6.742,3.366C6.134,3.935 5.262,4.453 3.82,4.453C1.568,4.453 0,2.86 0,-0.049" style="fill:rgb(29,29,27);fill-rule:nonzero;"/>
            </g>
            <g transform="matrix(1,0,0,1,416.138,331.95)">
                <path d="M0,0.027C0,-2.566 -1.429,-3.933 -3.263,-3.933C-5.123,-3.933 -6.552,-2.566 -6.552,0.027C-6.552,2.619 -5.123,3.961 -3.263,3.961C-1.429,3.961 0,2.619 0,0.027M-7.248,0.013C-7.248,-2.882 -5.438,-4.464 -3.263,-4.464C-1.113,-4.464 0.696,-2.882 0.696,0.013C0.696,2.923 -1.113,4.491 -3.263,4.491C-5.438,4.491 -7.248,2.923 -7.248,0.013" style="fill:rgb(29,29,27);fill-rule:nonzero;"/>
            </g>
            <g transform="matrix(1,0,0,1,418.265,327.537)">
                <path d="M0,8.854L0,0L0.671,0L0.671,4.009L5.793,4.009L5.793,0L6.463,0L6.463,8.854L5.793,8.854L5.793,4.566L0.671,4.566L0.671,8.854L0,8.854Z" style="fill:rgb(29,29,27);fill-rule:nonzero;"/>
            </g>
            <g transform="matrix(1,0,0,1,430.613,330.864)">
                <path d="M0,2.2L3.452,2.2L1.745,-2.581L1.72,-2.581L0,2.2ZM-1.746,5.248L1.365,-3.327L2.162,-3.327L5.236,5.248L5.236,5.527L4.642,5.527L3.643,2.757L-0.19,2.757L-1.177,5.527L-1.746,5.527L-1.746,5.248Z" style="fill:rgb(29,29,27);fill-rule:nonzero;"/>
            </g>
            <g transform="matrix(1,0,0,1,437.837,332.09)">
                <path d="M0,-0.253L1.657,-0.253C3.137,-0.253 4.035,-0.657 4.035,-2.125C4.035,-3.555 3.061,-3.997 1.657,-3.997L0,-3.997L0,-0.253ZM2.454,0.253C2.213,0.278 1.948,0.291 1.682,0.291L0,0.291L0,4.301L-0.684,4.301L-0.684,-4.554L1.682,-4.554C3.479,-4.554 4.718,-3.921 4.718,-2.149C4.718,-0.873 4.11,-0.177 3.111,0.113L5.224,4.034L5.224,4.301L4.642,4.301L2.454,0.253Z" style="fill:rgb(29,29,27);fill-rule:nonzero;"/>
            </g>
            <g transform="matrix(1,0,0,1,444.529,336.391)">
                <path d="M0,-8.854L5.274,-8.854L5.274,-8.285L0.671,-8.285L0.671,-4.844L4.149,-4.844L4.149,-4.288L0.671,-4.288L0.671,-0.556L5.452,-0.556L5.452,0L0,0L0,-8.854Z" style="fill:rgb(29,29,27);fill-rule:nonzero;"/>
            </g>
            <g transform="matrix(1,0,0,1,451.31,336.391)">
                <path d="M0,-8.854L0.835,-8.854L5.755,-1.213L5.768,-1.213L5.768,-8.854L6.413,-8.854L6.413,0L5.768,0L0.658,-7.956L0.633,-7.956L0.633,0L0,0L0,-8.854Z" style="fill:rgb(29,29,27);fill-rule:nonzero;"/>
            </g>
            <g transform="matrix(1,0,0,1,460.736,330.864)">
                <path d="M0,2.2L3.452,2.2L1.745,-2.581L1.72,-2.581L0,2.2ZM-1.746,5.248L1.365,-3.327L2.162,-3.327L5.236,5.248L5.236,5.527L4.642,5.527L3.643,2.757L-0.19,2.757L-1.177,5.527L-1.746,5.527L-1.746,5.248Z" style="fill:rgb(29,29,27);fill-rule:nonzero;"/>
            </g>
            <g transform="matrix(0,1,1,0,470.887,330.743)">
                <path d="M1.499,-1.459C0.574,-1.459 0.019,-0.802 0.019,0.02C0.019,0.842 0.574,1.499 1.499,1.499C2.41,1.499 2.939,0.842 2.939,0.02C2.939,-0.802 2.41,-1.459 1.499,-1.459" style="fill:rgb(29,29,27);fill-rule:nonzero;"/>
            </g>
            <g transform="matrix(1,0,0,1,476.069,331.988)">
                <path d="M0,-0.049C0,-2.959 1.783,-4.502 3.896,-4.502C5.3,-4.502 5.932,-4.148 6.59,-3.616L6.59,-3.072L6.273,-3.072C5.78,-3.566 5.16,-3.958 3.934,-3.958C2.1,-3.958 0.695,-2.63 0.695,-0.074C0.695,2.531 1.923,3.91 3.832,3.91C5.16,3.91 5.907,3.417 6.45,2.86L6.741,2.86L6.741,3.366C6.134,3.935 5.262,4.453 3.82,4.453C1.568,4.453 0,2.86 0,-0.049" style="fill:rgb(29,29,27);fill-rule:nonzero;"/>
            </g>
            <g transform="matrix(1,0,0,1,490.845,331.95)">
                <path d="M0,0.027C0,-2.566 -1.43,-3.933 -3.264,-3.933C-5.122,-3.933 -6.552,-2.566 -6.552,0.027C-6.552,2.619 -5.122,3.961 -3.264,3.961C-1.43,3.961 0,2.619 0,0.027M-7.248,0.013C-7.248,-2.882 -5.438,-4.464 -3.264,-4.464C-1.113,-4.464 0.695,-2.882 0.695,0.013C0.695,2.923 -1.113,4.491 -3.264,4.491C-5.438,4.491 -7.248,2.923 -7.248,0.013" style="fill:rgb(29,29,27);fill-rule:nonzero;"/>
            </g>
            <g transform="matrix(1,0,0,1,491.871,336.112)">
                <path d="M0,-8.296L0,-8.575L0.582,-8.575L3.479,-0.53L3.504,-0.53L6.4,-8.575L6.957,-8.575L6.957,-8.296L3.832,0.279L3.124,0.279L0,-8.296Z" style="fill:rgb(29,29,27);fill-rule:nonzero;"/>
            </g>
            <g transform="matrix(1,0,0,1,500.094,336.391)">
                <path d="M0,-8.854L5.275,-8.854L5.275,-8.285L0.671,-8.285L0.671,-4.844L4.149,-4.844L4.149,-4.288L0.671,-4.288L0.671,-0.556L5.452,-0.556L5.452,0L0,0L0,-8.854Z" style="fill:rgb(29,29,27);fill-rule:nonzero;"/>
            </g>
            <g transform="matrix(1,0,0,1,506.876,336.391)">
                <path d="M0,-8.854L0.834,-8.854L5.755,-1.213L5.768,-1.213L5.768,-8.854L6.412,-8.854L6.412,0L5.768,0L0.657,-7.956L0.632,-7.956L0.632,0L0,0L0,-8.854Z" style="fill:rgb(29,29,27);fill-rule:nonzero;"/>
            </g>
            <g transform="matrix(1,0,0,1,517.35,327.537)">
                <path d="M0,8.854L0,0.556L-2.896,0.556L-2.896,0L3.567,0L3.567,0.556L0.684,0.556L0.684,8.854L0,8.854Z" style="fill:rgb(29,29,27);fill-rule:nonzero;"/>
            </g>
            <g transform="matrix(1,0,0,1,522.803,332.09)">
                <path d="M0,-0.253L1.657,-0.253C3.138,-0.253 4.035,-0.657 4.035,-2.125C4.035,-3.555 3.062,-3.997 1.657,-3.997L0,-3.997L0,-0.253ZM2.454,0.253C2.214,0.278 1.948,0.291 1.683,0.291L0,0.291L0,4.301L-0.683,4.301L-0.683,-4.554L1.683,-4.554C3.479,-4.554 4.719,-3.921 4.719,-2.149C4.719,-0.873 4.111,-0.177 3.112,0.113L5.225,4.034L5.225,4.301L4.643,4.301L2.454,0.253Z" style="fill:rgb(29,29,27);fill-rule:nonzero;"/>
            </g>
            <g transform="matrix(1,0,0,1,531.241,327.537)">
                <path d="M0,8.854L0,5.148L-2.82,0.279L-2.82,0L-2.238,0L0.354,4.515L0.367,4.515L2.96,0L3.491,0L3.491,0.279L0.684,5.123L0.684,8.854L0,8.854Z" style="fill:rgb(29,29,27);fill-rule:nonzero;"/>
            </g>
        </g>
    </g>
    <defs>
        <linearGradient id="_Linear1" x1="0" y1="0" x2="1" y2="0" gradientUnits="userSpaceOnUse" gradientTransform="matrix(1,0,0,-1,0,-9.99273e-07)"><stop offset="0" style="stop-color:rgb(227,6,19);stop-opacity:1"/><stop offset="0.55" style="stop-color:rgb(49,39,131);stop-opacity:1"/><stop offset="1" style="stop-color:rgb(0,159,227);stop-opacity:1"/></linearGradient>
        <linearGradient id="_Linear2" x1="0" y1="0" x2="1" y2="0" gradientUnits="userSpaceOnUse" gradientTransform="matrix(1,0,0,-1,0,-2.20581e-06)"><stop offset="0" style="stop-color:rgb(227,6,19);stop-opacity:1"/><stop offset="0.55" style="stop-color:rgb(49,39,131);stop-opacity:1"/><stop offset="1" style="stop-color:rgb(0,159,227);stop-opacity:1"/></linearGradient>
    </defs>
</svg>
