<?xml version="1.0" encoding="UTF-8" standalone="no"?>
<!DOCTYPE svg PUBLIC "-//W3C//DTD SVG 1.1//EN" "http://www.w3.org/Graphics/SVG/1.1/DTD/svg11.dtd">
<svg width="100%" height="100%" viewBox="0 0 1442 413" version="1.1" xmlns="http://www.w3.org/2000/svg" xmlns:xlink="http://www.w3.org/1999/xlink" xml:space="preserve" xmlns:serif="http://www.serif.com/" style="fill-rule:evenodd;clip-rule:evenodd;stroke-linecap:round;stroke-miterlimit:2;">
    <g transform="matrix(4.16667,0,0,4.16667,0,0)">
        <path d="M85.27,9.98L11.012,9.98C10.82,10.314 10.628,10.647 10.443,10.98L85.838,10.98C85.654,10.647 85.462,10.313 85.27,9.98ZM92.89,33.217L3.393,33.217C3.364,33.549 3.321,33.888 3.296,34.217L92.986,34.217C92.962,33.888 92.919,33.549 92.89,33.217ZM57.189,27.734L57.909,27.734C58.207,27.734 58.604,27.287 58.604,27.014L58.604,17.282C58.604,17.009 58.207,16.587 57.909,16.587L57.189,16.587L57.189,13.41L71.985,13.41L71.985,19.045L68.633,19.045L68.137,16.835L64.413,16.835L64.413,20.162L68.41,20.162L68.41,23.687L64.413,23.687L64.413,27.461L68.236,27.461L68.708,24.83L72.209,24.83L72.209,30.788L57.189,30.788L57.189,27.734ZM37.947,27.734L38.668,27.734C38.965,27.734 39.363,27.287 39.363,27.014L39.363,17.282C39.363,17.009 38.965,16.587 38.668,16.587L37.947,16.587L37.947,13.41L46.662,13.41L46.662,16.587L45.172,16.587L45.172,20.51L49.268,20.51L49.268,16.587L47.779,16.587L47.779,13.41L56.493,13.41L56.493,16.587L55.773,16.587C55.475,16.587 55.078,17.009 55.078,17.282L55.078,27.014C55.078,27.287 55.475,27.734 55.773,27.734L56.493,27.734L56.493,30.788L47.779,30.788L47.779,27.734L49.268,27.734L49.268,23.464L45.172,23.464L45.172,27.734L46.662,27.734L46.662,30.788L37.947,30.788L37.947,27.734ZM27.719,30.788L24.02,30.788L24.02,25.301L27.793,25.301L28.29,27.461C28.662,27.585 29.109,27.635 29.779,27.635C31.095,27.635 31.89,27.188 31.89,26.096C31.89,24.904 30.748,24.681 28.91,24.184C26.378,23.514 24.094,22.471 24.094,18.722C24.094,14.775 26.825,13.136 30.549,13.136C32.113,13.136 33.007,13.26 33.727,13.41L36.904,13.41L36.904,18.449L33.18,18.449L32.684,16.587C32.361,16.488 31.939,16.414 31.393,16.414C30.027,16.414 29.283,16.86 29.283,17.928C29.283,19.095 30.4,19.293 31.666,19.641C35.837,20.758 37.426,21.9 37.426,25.227C37.426,29 35.316,31.061 30.648,31.061C29.457,31.061 28.587,30.961 27.719,30.788ZM3.204,38.47L93.078,38.47C93.105,41.95 92.918,45.435 92.417,48.88C91.931,52.197 91.153,55.461 90.012,58.617C86.665,67.87 81.159,75.567 73.623,81.872C71.95,83.269 70.188,84.587 68.402,85.836C66.3,87.307 64.134,88.696 61.91,89.976C59.992,91.082 58.017,92.115 55.989,93.009C54.178,93.809 52.274,94.525 50.344,94.982C49.026,95.294 47.358,95.327 46.046,94.978C44.158,94.476 42.296,93.752 40.514,92.957C38.507,92.064 36.547,91.051 34.635,89.973C32.348,88.684 30.11,87.291 27.941,85.813C26.134,84.581 24.337,83.274 22.66,81.872C15.124,75.567 9.617,67.87 6.27,58.617C5.129,55.461 4.351,52.197 3.867,48.88C3.363,45.435 3.177,41.95 3.204,38.47ZM91.856,59.944C88.399,69.5 82.524,77.397 74.768,83.885C69.377,88.393 58.225,95.499 50.341,97.397C49.011,97.716 47.348,97.744 46.034,97.388C38.26,95.281 26.735,88.251 21.515,83.885C13.759,77.397 7.883,69.5 4.426,59.944C1.346,51.426 0.31,41.55 1.668,30.253C2.739,21.348 6.73,11.963 13.755,1.974C25.167,5.707 36.579,5.69 47.99,1.921L48.292,1.921C59.705,5.69 71.115,5.707 82.526,1.974C89.553,11.963 93.544,21.348 94.614,30.253C95.974,41.55 94.937,51.426 91.856,59.944ZM95.691,30.124C94.433,19.666 89.402,9.865 83.413,1.351L82.952,0.694L82.191,0.944C71.001,4.605 59.812,4.584 48.632,0.892L48.465,0.837L47.817,0.837L47.65,0.892C36.471,4.584 25.282,4.605 14.092,0.944L13.33,0.694L12.869,1.351C6.881,9.865 1.85,19.666 0.593,30.124C-0.627,40.279 -0.092,50.634 3.408,60.314C6.934,70.064 12.935,78.121 20.82,84.716C26.238,89.248 37.902,96.336 45.893,98.461C47.292,98.833 49.079,98.804 50.497,98.468C58.593,96.548 69.878,89.386 75.462,84.716C83.347,78.121 89.347,70.064 92.875,60.314C96.376,50.634 96.911,40.279 95.691,30.124Z" style="fill:url(#_Linear1);fill-rule:nonzero;"/>
        <path d="M109.243,16.835L110.167,16.835C110.503,16.835 110.95,16.332 110.95,16.024L110.95,4.432L109.383,4.432L108.963,8.043L105.07,8.043L105.07,0.68L123.383,0.68L123.383,8.043L119.519,8.043L119.07,4.432L117.503,4.432L117.503,16.024C117.503,16.332 117.95,16.835 118.287,16.835L119.211,16.835L119.211,20.28L109.243,20.28L109.243,16.835Z" style="fill:white;fill-rule:nonzero;"/>
        <path d="M134.303,11.096C134.303,10.003 133.799,9.78 132.511,9.78C132.259,9.78 131.811,9.808 131.391,9.864L131.391,16.835L133.015,16.835L133.015,20.28L123.887,20.28L123.887,16.835L124.587,16.835C124.866,16.835 125.259,16.388 125.259,16.136L125.259,4.936C125.259,4.656 124.866,4.264 124.587,4.264L123.803,4.264L123.803,0.68L130.494,0.68C131.054,0.68 131.391,1.156 131.391,1.912L131.391,7.456C132.65,6.167 134.358,5.216 136.626,5.216C138.586,5.216 140.435,6.028 140.435,8.744L140.435,16.136C140.435,16.415 140.826,16.835 141.106,16.835L141.555,16.835L141.555,20.28L134.303,20.28L134.303,11.096Z" style="fill:white;fill-rule:nonzero;"/>
        <path d="M147.911,11.32L151.439,11.32C151.299,9.416 150.822,8.716 149.759,8.716C148.667,8.716 148.106,9.416 147.911,11.32ZM147.883,14.204C148.079,16.08 148.807,16.892 150.486,16.892C151.999,16.892 152.755,16.36 153.314,15.631L156.534,15.631L156.534,19.188C155.19,19.944 153.23,20.532 149.843,20.532C144.074,20.532 141.751,17.648 141.751,12.972C141.751,8.24 144.803,5.216 149.759,5.216C154.771,5.216 157.123,7.568 157.123,12.748C157.123,13.448 157.066,14.008 157.066,14.204L147.883,14.204Z" style="fill:white;fill-rule:nonzero;"/>
        <path d="M165.635,20.28L161.463,20.28L161.463,14.092L165.719,14.092L166.278,16.528C166.698,16.667 167.202,16.724 167.959,16.724C169.442,16.724 170.339,16.22 170.339,14.988C170.339,13.644 169.051,13.392 166.979,12.832C164.123,12.076 161.547,10.9 161.547,6.671C161.547,2.22 164.627,0.372 168.826,0.372C170.591,0.372 171.599,0.512 172.41,0.68L175.994,0.68L175.994,6.364L171.795,6.364L171.234,4.264C170.87,4.152 170.395,4.068 169.778,4.068C168.238,4.068 167.398,4.572 167.398,5.776C167.398,7.092 168.658,7.316 170.087,7.708C174.791,8.968 176.583,10.255 176.583,14.008C176.583,18.264 174.202,20.587 168.939,20.587C167.595,20.587 166.614,20.476 165.635,20.28Z" style="fill:white;fill-rule:nonzero;"/>
        <path d="M185.514,16.556L185.514,14.344C185.15,14.288 184.702,14.232 184.338,14.232C183.358,14.232 182.826,14.596 182.826,15.688C182.826,16.751 183.414,17.032 184.17,17.032C184.702,17.032 185.094,16.864 185.514,16.556ZM177.086,16.248C177.086,13.028 179.354,11.627 182.826,11.627C183.918,11.627 184.702,11.684 185.514,11.824L185.514,10.928C185.514,9.892 184.954,9.416 183.526,9.416C182.014,9.416 181.23,9.948 180.642,10.424L178.094,10.424L178.094,6.251C179.662,5.692 181.986,5.216 185.01,5.216C189.658,5.216 191.646,6.755 191.646,10.228L191.646,16.136C191.646,16.415 192.038,16.835 192.318,16.835L192.794,16.835L192.794,19.748C191.926,20.224 190.75,20.532 189.294,20.532C187.39,20.532 186.41,19.888 185.934,18.768C184.87,19.972 183.47,20.476 181.678,20.476C179.214,20.476 177.086,19.104 177.086,16.248Z" style="fill:white;fill-rule:nonzero;"/>
        <path d="M193.074,5.496L194.53,5.496L194.53,4.852C194.53,1.52 196.462,0.288 199.99,0.288C201.39,0.288 202.258,0.484 202.986,0.708L202.986,3.9L202.23,3.9C201.082,3.9 200.662,4.096 200.662,5.076L200.662,5.496L202.874,5.496L202.874,9.164L200.662,9.164L200.662,16.136C200.662,16.415 201.054,16.835 201.334,16.835L202.286,16.835L202.286,20.28L193.158,20.28L193.158,16.835L193.858,16.835C194.138,16.835 194.53,16.415 194.53,16.136L194.53,9.164L193.074,9.164L193.074,5.496Z" style="fill:white;fill-rule:nonzero;"/>
        <path d="M209.006,11.32L212.533,11.32C212.394,9.416 211.917,8.716 210.854,8.716C209.762,8.716 209.201,9.416 209.006,11.32ZM208.978,14.204C209.174,16.08 209.901,16.892 211.581,16.892C213.094,16.892 213.85,16.36 214.409,15.631L217.629,15.631L217.629,19.188C216.285,19.944 214.325,20.532 210.938,20.532C205.169,20.532 202.846,17.648 202.846,12.972C202.846,8.24 205.897,5.216 210.854,5.216C215.865,5.216 218.218,7.568 218.218,12.748C218.218,13.448 218.161,14.008 218.161,14.204L208.978,14.204Z" style="fill:white;fill-rule:nonzero;"/>
        <path d="M218.471,5.496L219.927,5.496L219.927,1.66L226.059,1.66L226.059,5.496L228.522,5.496L228.522,9.164L226.059,9.164L226.059,15.184C226.059,16.444 226.479,16.835 227.822,16.835L228.578,16.835L228.578,20.167C227.851,20.364 226.73,20.587 225.33,20.587C222.082,20.587 219.927,19.664 219.927,16.22L219.927,9.164L218.471,9.164L218.471,5.496Z" style="fill:white;fill-rule:nonzero;"/>
        <path d="M230.762,21.764C232.134,21.428 233.478,20.868 234.598,19.972L230.09,9.808C229.949,9.5 229.585,9.164 229.277,9.164L228.886,9.164L228.886,5.496L237.426,5.496L237.426,9.164L235.941,9.164L237.901,14.064L238.014,14.064L239.47,10.424C239.749,9.78 239.554,9.164 238.825,9.164L238.573,9.164L238.573,5.496L245.629,5.496L245.629,9.164L245.209,9.164C244.901,9.164 244.426,9.612 244.23,10.032L240.421,18.04C238.63,21.736 237.117,23.472 235.382,24.816L230.762,24.816L230.762,21.764Z" style="fill:white;fill-rule:nonzero;"/>
        <path d="M260.861,16.22L256.801,12.104C256.493,12.524 256.241,13.112 256.241,13.896C256.241,15.492 257.249,16.556 259.069,16.556C259.713,16.556 260.301,16.444 260.861,16.22ZM250.081,14.623C250.081,11.795 251.929,10.087 254.197,9.164C253.581,8.211 253.301,7.204 253.301,5.888C253.301,2.612 255.513,0.372 259.769,0.372C260.665,0.372 261.953,0.54 262.373,0.68L266.741,0.68L266.741,6.364L262.597,6.364L262.149,4.543C261.98,4.488 261.785,4.432 261.393,4.432C260.245,4.432 259.797,4.936 259.797,5.888C259.797,6.84 260.357,7.428 261.281,8.352L264.557,11.711C264.865,10.76 265.117,9.696 265.257,8.52L269.961,8.52L269.961,11.012C269.317,12.468 268.617,13.868 267.833,15.1L269.009,16.276C269.457,16.667 269.653,16.835 270.045,16.835L270.241,16.835L270.241,20.28L264.669,20.28L263.633,19.244C262.149,20.056 260.357,20.503 258.088,20.503C252.741,20.503 250.081,18.18 250.081,14.623Z" style="fill:white;fill-rule:nonzero;"/>
        <path d="M105.015,42.836L105.827,42.836C106.163,42.836 106.61,42.332 106.61,42.024L106.61,31.047C106.61,30.74 106.163,30.264 105.827,30.264L105.015,30.264L105.015,26.68L114.843,26.68L114.843,30.264L113.163,30.264L113.163,34.688L117.782,34.688L117.782,30.264L116.103,30.264L116.103,26.68L125.931,26.68L125.931,30.264L125.118,30.264C124.782,30.264 124.335,30.74 124.335,31.047L124.335,42.024C124.335,42.332 124.782,42.836 125.118,42.836L125.931,42.836L125.931,46.28L116.103,46.28L116.103,42.836L117.782,42.836L117.782,38.02L113.163,38.02L113.163,42.836L114.843,42.836L114.843,46.28L105.015,46.28L105.015,42.836Z" style="fill:white;fill-rule:nonzero;"/>
        <path d="M132.26,37.32L135.787,37.32C135.647,35.415 135.171,34.716 134.107,34.716C133.016,34.716 132.455,35.415 132.26,37.32ZM132.231,40.204C132.428,42.08 133.155,42.892 134.835,42.892C136.348,42.892 137.104,42.36 137.663,41.631L140.883,41.631L140.883,45.188C139.539,45.944 137.579,46.532 134.191,46.532C128.423,46.532 126.1,43.648 126.1,38.972C126.1,34.24 129.151,31.216 134.107,31.216C139.119,31.216 141.472,33.568 141.472,38.748C141.472,39.448 141.415,40.008 141.415,40.204L132.231,40.204Z" style="fill:white;fill-rule:nonzero;"/>
        <path d="M150.207,42.556L150.207,40.344C149.844,40.288 149.396,40.232 149.031,40.232C148.052,40.232 147.52,40.596 147.52,41.688C147.52,42.752 148.107,43.032 148.863,43.032C149.396,43.032 149.787,42.864 150.207,42.556ZM141.779,42.248C141.779,39.028 144.047,37.628 147.52,37.628C148.611,37.628 149.396,37.684 150.207,37.824L150.207,36.928C150.207,35.892 149.647,35.415 148.22,35.415C146.707,35.415 145.923,35.948 145.335,36.424L142.787,36.424L142.787,32.251C144.355,31.692 146.68,31.216 149.703,31.216C154.352,31.216 156.339,32.755 156.339,36.228L156.339,42.136C156.339,42.415 156.731,42.836 157.012,42.836L157.487,42.836L157.487,45.748C156.619,46.224 155.443,46.532 153.987,46.532C152.083,46.532 151.104,45.888 150.627,44.768C149.564,45.972 148.163,46.476 146.371,46.476C143.907,46.476 141.779,45.104 141.779,42.248Z" style="fill:white;fill-rule:nonzero;"/>
        <path d="M157.823,42.836L158.636,42.836C158.915,42.836 159.308,42.415 159.308,42.136L159.308,30.963C159.308,30.684 158.915,30.264 158.636,30.264L157.768,30.264L157.768,26.68L164.543,26.68C165.104,26.68 165.439,27.156 165.439,27.912L165.439,42.136C165.439,42.415 165.831,42.836 166.111,42.836L166.951,42.836L166.951,46.28L157.823,46.28L157.823,42.836Z" style="fill:white;fill-rule:nonzero;"/>
        <path d="M166.812,31.496L168.268,31.496L168.268,27.66L174.399,27.66L174.399,31.496L176.863,31.496L176.863,35.164L174.399,35.164L174.399,41.184C174.399,42.444 174.819,42.836 176.163,42.836L176.919,42.836L176.919,46.167C176.191,46.364 175.071,46.587 173.671,46.587C170.423,46.587 168.268,45.664 168.268,42.22L168.268,35.164L166.812,35.164L166.812,31.496Z" style="fill:white;fill-rule:nonzero;"/>
        <path d="M187.727,37.096C187.727,36.003 187.223,35.78 185.935,35.78C185.683,35.78 185.234,35.808 184.814,35.864L184.814,42.836L186.439,42.836L186.439,46.28L177.311,46.28L177.311,42.836L178.011,42.836C178.29,42.836 178.683,42.388 178.683,42.136L178.683,30.936C178.683,30.656 178.29,30.264 178.011,30.264L177.227,30.264L177.227,26.68L183.918,26.68C184.479,26.68 184.814,27.156 184.814,27.912L184.814,33.456C186.074,32.167 187.782,31.216 190.05,31.216C192.01,31.216 193.858,32.028 193.858,34.744L193.858,42.136C193.858,42.415 194.25,42.836 194.53,42.836L194.979,42.836L194.979,46.28L187.727,46.28L187.727,37.096Z" style="fill:white;fill-rule:nonzero;"/>
        <path d="M199.29,42.836L200.103,42.836C200.439,42.836 200.886,42.332 200.886,42.024L200.886,31.047C200.886,30.74 200.439,30.264 200.103,30.264L199.29,30.264L199.29,26.68L215.978,26.68L215.978,33.036L212.198,33.036L211.638,30.543L207.439,30.543L207.439,34.295L211.946,34.295L211.946,38.272L207.439,38.272L207.439,42.528L211.75,42.528L212.282,39.56L216.23,39.56L216.23,46.28L199.29,46.28L199.29,42.836Z" style="fill:white;fill-rule:nonzero;"/>
        <path d="M216.763,42.836L216.931,42.836C217.322,42.836 217.742,42.415 218.051,42.108L220.626,38.915L217.967,35.808C217.658,35.472 217.378,35.164 217.07,35.164L216.679,35.164L216.679,31.496L225.414,31.496L225.414,34.968L224.322,34.968L226.03,36.9L226.759,35.976C227.122,35.528 226.982,34.968 226.395,34.968L226.311,34.968L226.311,31.496L233.086,31.496L233.086,35.164L232.918,35.164C232.555,35.164 232.135,35.556 231.855,35.892L229.25,38.999L231.967,42.192C232.274,42.528 232.582,42.836 232.891,42.836L233.17,42.836L233.17,46.28L224.49,46.28L224.49,43.003L225.61,43.003L223.847,41.016L223.147,41.884C222.698,42.499 222.95,43.003 223.511,43.003L223.595,43.003L223.595,46.28L216.763,46.28L216.763,42.836Z" style="fill:white;fill-rule:nonzero;"/>
        <path d="M233.198,38.944C233.198,34.072 236.334,31.216 241.626,31.216C243.922,31.216 245.742,31.524 246.89,31.972L246.89,36.424L243.642,36.424C243.222,35.583 242.83,35.108 241.738,35.108C240.226,35.108 239.442,36.228 239.442,38.999C239.442,41.799 240.17,42.892 241.822,42.892C242.998,42.892 243.754,42.332 244.258,41.66L246.918,41.66L246.918,45.131C245.714,45.915 243.894,46.532 241.542,46.532C235.942,46.532 233.198,43.788 233.198,38.944Z" style="fill:white;fill-rule:nonzero;"/>
        <path d="M253.526,37.32L257.053,37.32C256.914,35.415 256.437,34.716 255.374,34.716C254.282,34.716 253.722,35.415 253.526,37.32ZM253.498,40.204C253.694,42.08 254.422,42.892 256.101,42.892C257.614,42.892 258.37,42.36 258.93,41.631L262.149,41.631L262.149,45.188C260.806,45.944 258.846,46.532 255.458,46.532C249.689,46.532 247.366,43.648 247.366,38.972C247.366,34.24 250.418,31.216 255.374,31.216C260.385,31.216 262.738,33.568 262.738,38.748C262.738,39.448 262.682,40.008 262.682,40.204L253.498,40.204Z" style="fill:white;fill-rule:nonzero;"/>
        <path d="M263.046,42.836L263.858,42.836C264.138,42.836 264.53,42.415 264.53,42.136L264.53,30.963C264.53,30.684 264.138,30.264 263.858,30.264L262.99,30.264L262.99,26.68L269.766,26.68C270.326,26.68 270.662,27.156 270.662,27.912L270.662,42.136C270.662,42.415 271.054,42.836 271.334,42.836L272.174,42.836L272.174,46.28L263.046,46.28L263.046,42.836Z" style="fill:white;fill-rule:nonzero;"/>
        <path d="M272.566,42.836L273.379,42.836C273.658,42.836 274.051,42.415 274.051,42.136L274.051,30.963C274.051,30.684 273.658,30.264 273.379,30.264L272.511,30.264L272.511,26.68L279.286,26.68C279.847,26.68 280.183,27.156 280.183,27.912L280.183,42.136C280.183,42.415 280.574,42.836 280.855,42.836L281.694,42.836L281.694,46.28L272.566,46.28L272.566,42.836Z" style="fill:white;fill-rule:nonzero;"/>
        <path d="M287.995,37.32L291.522,37.32C291.383,35.415 290.906,34.716 289.843,34.716C288.751,34.716 288.19,35.415 287.995,37.32ZM287.967,40.204C288.163,42.08 288.891,42.892 290.57,42.892C292.083,42.892 292.839,42.36 293.398,41.631L296.618,41.631L296.618,45.188C295.274,45.944 293.314,46.532 289.927,46.532C284.158,46.532 281.835,43.648 281.835,38.972C281.835,34.24 284.887,31.216 289.843,31.216C294.855,31.216 297.207,33.568 297.207,38.748C297.207,39.448 297.15,40.008 297.15,40.204L287.967,40.204Z" style="fill:white;fill-rule:nonzero;"/>
        <path d="M297.627,42.836L298.327,42.836C298.606,42.836 299.026,42.388 299.026,42.136L299.026,35.864C299.026,35.583 298.606,35.164 298.327,35.164L297.543,35.164L297.543,31.496L303.955,31.496C304.515,31.496 304.906,31.915 305.047,33.54C306.335,32.196 308.043,31.216 310.366,31.216C312.326,31.216 314.175,32.028 314.175,34.744L314.175,42.136C314.175,42.415 314.595,42.836 314.875,42.836L315.322,42.836L315.322,46.28L308.07,46.28L308.07,37.096C308.07,36.003 307.539,35.78 306.278,35.78C306.026,35.78 305.579,35.808 305.131,35.864L305.131,42.836L306.782,42.836L306.782,46.28L297.627,46.28L297.627,42.836Z" style="fill:white;fill-rule:nonzero;"/>
        <path d="M315.49,38.944C315.49,34.072 318.626,31.216 323.918,31.216C326.214,31.216 328.034,31.524 329.182,31.972L329.182,36.424L325.934,36.424C325.514,35.583 325.122,35.108 324.03,35.108C322.518,35.108 321.734,36.228 321.734,38.999C321.734,41.799 322.462,42.892 324.114,42.892C325.29,42.892 326.046,42.332 326.55,41.66L329.21,41.66L329.21,45.131C328.006,45.915 326.186,46.532 323.834,46.532C318.234,46.532 315.49,43.788 315.49,38.944Z" style="fill:white;fill-rule:nonzero;"/>
        <path d="M335.818,37.32L339.346,37.32C339.206,35.415 338.73,34.716 337.666,34.716C336.574,34.716 336.014,35.415 335.818,37.32ZM335.79,40.204C335.986,42.08 336.714,42.892 338.394,42.892C339.906,42.892 340.662,42.36 341.222,41.631L344.441,41.631L344.441,45.188C343.098,45.944 341.138,46.532 337.75,46.532C331.981,46.532 329.658,43.648 329.658,38.972C329.658,34.24 332.71,31.216 337.666,31.216C342.678,31.216 345.03,33.568 345.03,38.748C345.03,39.448 344.974,40.008 344.974,40.204L335.79,40.204Z" style="fill:white;fill-rule:nonzero;"/>
        <path d="M105.628,81.231L287.995,81.231" style="fill:none;stroke:rgb(147,149,152);stroke-width:1.61px;"/>
        <path d="M18.343,52.252L22.26,52.252L20.424,46.518L20.383,46.518L18.343,52.252ZM13.466,56.74L13.936,56.74C14.324,56.74 14.569,56.495 14.711,56.107L18.179,46.539C18.302,46.171 18.139,45.906 17.812,45.906L16.731,45.906L16.731,44.151L22.811,44.151L26.81,56.169C26.912,56.495 27.218,56.74 27.504,56.74L28.014,56.74L28.014,58.433L21.853,58.433L21.853,56.74L23.709,56.74L22.832,54.026L17.711,54.026L17.404,54.903C16.997,56.045 17.099,56.74 18.057,56.74L18.894,56.74L18.894,58.433L13.466,58.433L13.466,56.74Z" style="fill:rgb(35,31,32);fill-rule:nonzero;"/>
        <path d="M35.08,51.476L32.958,58.433L30.408,58.433L28.001,50.088C27.878,49.761 27.633,49.517 27.348,49.517L26.96,49.517L26.96,47.721L31.693,47.721L31.693,49.517L30.754,49.517L32.162,54.863L32.203,54.863L34.284,47.721L36.569,47.721L38.65,54.863L38.691,54.863L39.772,50.865C40.037,49.925 39.936,49.517 39.1,49.517L38.793,49.517L38.793,47.721L43.261,47.721L43.261,49.517L42.915,49.517C42.588,49.517 42.262,49.702 42.139,50.15L39.711,58.433L37.161,58.433L35.121,51.476L35.08,51.476Z" style="fill:rgb(35,31,32);fill-rule:nonzero;"/>
        <path d="M49.656,56.045L49.656,53.761C49.187,53.678 48.656,53.638 48.085,53.638C46.881,53.638 46.147,54.128 46.147,55.211C46.147,56.29 46.779,56.8 47.779,56.8C48.534,56.8 49.146,56.516 49.656,56.045ZM43.25,55.332C43.25,53.087 45.004,52.067 47.473,52.067C48.371,52.067 48.983,52.148 49.656,52.313L49.656,51.19C49.656,50.109 49.065,49.598 47.799,49.598C46.514,49.598 45.861,50.088 45.331,50.557L43.963,50.557L43.963,48.374C44.963,47.925 46.31,47.558 48.391,47.558C51.166,47.558 52.635,48.456 52.635,50.904L52.635,56.23C52.635,56.474 52.9,56.74 53.145,56.74L53.716,56.74L53.716,58.167C53.308,58.413 52.696,58.576 51.921,58.576C50.677,58.576 50.044,58.086 49.779,57.228C48.983,58.208 47.983,58.556 46.677,58.556C44.678,58.556 43.25,57.455 43.25,55.332Z" style="fill:rgb(35,31,32);fill-rule:nonzero;"/>
        <path d="M54.089,56.74L54.804,56.74C55.049,56.74 55.314,56.455 55.314,56.23L55.314,50.069C55.314,49.844 55.049,49.517 54.804,49.517L54.008,49.517L54.008,47.721L57.66,47.721C58.007,47.721 58.231,48.029 58.272,49.273C58.986,48.396 59.822,47.62 61.231,47.62C61.455,47.62 61.679,47.66 61.883,47.721L61.883,49.925L61.373,49.925C59.822,49.925 58.884,50.252 58.293,50.579L58.293,56.74L59.782,56.74L59.782,58.433L54.089,58.433L54.089,56.74Z" style="fill:rgb(35,31,32);fill-rule:nonzero;"/>
        <path d="M69.579,55.944L69.579,50.069C69.049,49.823 68.314,49.598 67.601,49.598C66.192,49.598 64.927,50.414 64.927,53.128C64.927,56.066 66.131,56.8 67.356,56.8C68.294,56.8 68.987,56.455 69.579,55.944ZM61.908,53.21C61.908,49.169 64.439,47.558 66.519,47.558C68.008,47.558 68.885,48.11 69.579,48.946L69.579,45.906L68.192,45.906L68.192,44.151L72.047,44.151C72.395,44.151 72.559,44.418 72.559,44.845L72.559,56.189C72.559,56.413 72.823,56.74 73.068,56.74L73.803,56.74L73.803,58.433L70.171,58.433C69.865,58.433 69.681,57.984 69.62,57.228C68.926,58.024 67.845,58.595 66.356,58.595C64.213,58.595 61.908,57.312 61.908,53.21Z" style="fill:rgb(35,31,32);fill-rule:nonzero;"/>
        <path d="M74.237,57.984L74.237,55.578L75.952,55.578C76.196,56.332 77.155,56.8 78.094,56.8C79.236,56.8 79.929,56.311 79.929,55.536C79.929,54.74 79.46,54.415 77.747,54.169C75.441,53.843 74.36,53.047 74.36,50.946C74.36,48.824 75.992,47.6 78.726,47.6C80.399,47.6 81.542,47.783 82.398,48.068L82.398,50.436L80.746,50.436C80.399,49.802 79.746,49.394 78.624,49.394C77.522,49.394 76.91,49.844 76.91,50.517C76.91,51.169 77.298,51.557 79.114,51.823C81.704,52.21 82.765,52.924 82.765,55.087C82.765,57.189 81.358,58.556 78.114,58.556C76.176,58.556 75.115,58.27 74.237,57.984Z" style="fill:rgb(35,31,32);fill-rule:nonzero;"/>
        <path d="M120.418,71.413L117.422,71.413L117.422,72.421L123.946,72.421L123.946,71.413L123.134,71.413C122.574,71.413 121.986,70.881 121.762,70.265L115.714,52.821L110.45,52.821L110.45,53.857L111.99,53.857C112.606,53.857 112.914,54.277 112.69,54.893L107.146,70.349C106.922,70.965 106.39,71.413 105.746,71.413L104.99,71.413L104.99,72.421L111.206,72.421L111.206,71.413L109.638,71.413C108.546,71.413 108.35,70.713 108.77,69.565L110.03,66.009L118.542,66.009L120.418,71.413ZM114.286,54.109L114.426,54.109L118.15,64.889L110.45,64.889L114.286,54.109Z" style="fill:rgb(255,194,13);fill-rule:nonzero;"/>
        <path d="M128.118,72.421L129.658,72.421L133.466,60.129L133.494,60.129L137.246,72.421L138.786,72.421L142.51,59.849C142.706,59.177 143.21,58.869 143.742,58.869L144.33,58.869L144.33,57.805L139.178,57.805L139.178,58.869L140.298,58.869C141.054,58.869 141.362,59.401 141.138,60.185L138.198,70.293L138.142,70.293L134.334,57.805L132.934,57.805L129.126,70.293L129.07,70.293L125.71,58.869L127.95,58.869L127.95,57.805L122.546,57.805L122.546,58.869L123.218,58.869C123.75,58.869 124.198,59.261 124.394,59.905L128.118,72.421Z" style="fill:rgb(255,194,13);fill-rule:nonzero;"/>
        <path d="M149.65,72.561C151.806,72.561 153.318,71.665 154.438,70.265L154.438,70.573C154.438,71.945 155.278,72.533 156.678,72.533C157.266,72.533 157.77,72.365 157.938,72.281L157.938,71.357C157.938,71.357 157.546,71.441 157.21,71.441C156.426,71.441 156.062,71.077 156.062,70.209L156.062,61.725C156.062,58.589 154.046,57.665 151.078,57.665C148.642,57.665 146.906,58.253 145.758,58.897L145.758,60.269L146.57,60.269C147.41,59.513 148.782,58.813 150.938,58.813C153.01,58.813 154.438,59.513 154.438,61.865L154.438,64.497C153.29,64.189 152.058,64.049 150.63,64.049C147.242,64.049 144.806,65.365 144.806,68.305C144.806,71.217 146.766,72.561 149.65,72.561ZM149.874,71.441C147.69,71.441 146.374,70.517 146.374,68.305C146.374,66.037 148.138,65.113 150.91,65.113C152.17,65.113 153.346,65.281 154.438,65.533L154.438,69.061C153.318,70.433 152.058,71.441 149.874,71.441Z" style="fill:rgb(255,194,13);fill-rule:nonzero;"/>
        <path d="M159.113,72.421L165.469,72.421L165.469,71.413L162.781,71.413L162.781,61.725C164.237,60.101 165.525,59.121 167.681,59.121C167.933,59.121 168.325,59.149 168.325,59.149L168.325,57.805C168.241,57.777 167.989,57.721 167.625,57.721C165.413,57.721 163.901,59.205 162.781,60.661L162.781,58.813C162.781,58.001 162.613,57.805 162.277,57.805L158.973,57.805L158.973,58.869L160.345,58.869C160.765,58.869 161.157,59.317 161.157,59.709L161.157,70.601C161.157,71.021 160.765,71.413 160.345,71.413L159.113,71.413L159.113,72.421Z" style="fill:rgb(255,194,13);fill-rule:nonzero;"/>
        <path d="M175.157,72.533C177.649,72.533 179.441,71.217 180.533,69.705L180.533,71.497C180.561,72.113 180.673,72.421 180.953,72.421L184.229,72.421L184.229,71.413L182.969,71.413C182.577,71.413 182.157,70.993 182.157,70.573L182.157,53.325C182.157,53.017 182.045,52.821 181.765,52.821L178.069,52.821L178.069,53.857L180.533,53.857L180.533,59.765C179.581,58.645 177.985,57.665 175.605,57.665C172.497,57.665 169.025,59.569 169.025,65.281C169.025,70.909 172.133,72.533 175.157,72.533ZM175.353,71.441C173.197,71.441 170.677,70.265 170.677,65.225C170.677,60.185 173.449,58.897 175.857,58.897C178.125,58.897 179.329,59.625 180.533,60.885L180.533,68.557C179.329,70.125 177.733,71.441 175.353,71.441Z" style="fill:rgb(255,194,13);fill-rule:nonzero;"/>
        <path d="M190.529,72.533C194.281,72.533 196.045,70.937 196.045,68.137C196.045,65.533 194.309,64.693 191.229,64.189C188.597,63.741 187.449,63.265 187.449,61.445C187.449,59.793 188.625,58.785 191.033,58.785C192.405,58.785 193.021,58.869 193.637,59.121C194.225,59.373 194.365,59.793 194.505,60.941L195.569,60.941L195.569,58.365C194.673,58.001 193.413,57.665 191.061,57.665C187.813,57.665 185.993,59.121 185.993,61.641C185.993,64.329 187.701,65.057 190.529,65.533C193.189,65.981 194.533,66.541 194.533,68.333C194.533,70.405 193.105,71.469 190.501,71.469C189.045,71.469 188.345,71.301 187.645,71.049C187.085,70.825 186.889,70.321 186.777,68.977L185.685,68.977L185.685,71.721C186.609,72.085 187.925,72.533 190.529,72.533Z" style="fill:rgb(255,194,13);fill-rule:nonzero;"/>
        <path d="M202.317,72.421L214.581,72.421L214.581,67.857L213.349,67.857L213.125,71.077L203.829,71.077C203.885,68.221 206.321,66.401 209.009,64.721C212.145,62.761 214.861,61.221 214.861,57.805C214.861,54.557 212.845,52.681 208.785,52.681C206.657,52.681 204.837,53.073 203.213,53.745L203.213,57.105L204.333,57.105C204.473,55.593 204.697,54.949 205.201,54.613C205.957,54.081 207.133,53.829 208.757,53.829C211.781,53.829 213.097,55.313 213.097,57.833C213.097,60.577 210.745,61.949 208.085,63.713C205.285,65.561 202.317,67.605 202.317,71.329L202.317,72.421Z" style="fill:rgb(255,194,13);fill-rule:nonzero;"/>
        <path d="M224.884,72.561C229.196,72.561 232.864,69.257 232.864,62.621C232.864,55.985 229.196,52.681 224.884,52.681C220.572,52.681 216.876,55.985 216.876,62.621C216.876,69.257 220.572,72.561 224.884,72.561ZM224.884,71.385C221.244,71.385 218.668,68.641 218.668,62.649C218.668,56.657 221.244,53.857 224.884,53.857C228.496,53.857 231.072,56.657 231.072,62.649C231.072,68.641 228.496,71.385 224.884,71.385Z" style="fill:rgb(255,194,13);fill-rule:nonzero;"/>
        <path d="M233.873,72.421L246.137,72.421L246.137,67.857L244.905,67.857L244.681,71.077L235.385,71.077C235.441,68.221 237.877,66.401 240.565,64.721C243.701,62.761 246.417,61.221 246.417,57.805C246.417,54.557 244.401,52.681 240.341,52.681C238.213,52.681 236.393,53.073 234.769,53.745L234.769,57.105L235.889,57.105C236.029,55.593 236.253,54.949 236.757,54.613C237.513,54.081 238.689,53.829 240.313,53.829C243.337,53.829 244.653,55.313 244.653,57.833C244.653,60.577 242.301,61.949 239.641,63.713C236.841,65.561 233.873,67.605 233.873,71.329L233.873,72.421Z" style="fill:rgb(255,194,13);fill-rule:nonzero;"/>
        <path d="M256.44,72.561C260.752,72.561 264.42,69.257 264.42,62.621C264.42,55.985 260.752,52.681 256.44,52.681C252.128,52.681 248.432,55.985 248.432,62.621C248.432,69.257 252.128,72.561 256.44,72.561ZM256.44,71.385C252.8,71.385 250.224,68.641 250.224,62.649C250.224,56.657 252.8,53.857 256.44,53.857C260.052,53.857 262.628,56.657 262.628,62.649C262.628,68.641 260.052,71.385 256.44,71.385Z" style="fill:rgb(255,194,13);fill-rule:nonzero;"/>
        <path d="M25.401,78.853L34.332,78.853L34.332,75.529L33.435,75.529L33.272,77.874L26.502,77.874C26.543,75.794 28.317,74.469 30.274,73.246C32.558,71.818 34.536,70.697 34.536,68.209C34.536,65.844 33.068,64.477 30.111,64.477C28.562,64.477 27.236,64.763 26.054,65.252L26.054,67.699L26.869,67.699C26.971,66.598 27.134,66.129 27.501,65.884C28.052,65.497 28.908,65.314 30.091,65.314C32.293,65.314 33.252,66.394 33.252,68.229C33.252,70.228 31.539,71.227 29.602,72.511C27.562,73.857 25.401,75.346 25.401,78.058L25.401,78.853Z" style="fill:rgb(35,31,32);fill-rule:nonzero;"/>
        <path d="M41.836,78.955C44.976,78.955 47.648,76.549 47.648,71.716C47.648,66.884 44.976,64.477 41.836,64.477C38.696,64.477 36.004,66.884 36.004,71.716C36.004,76.549 38.696,78.955 41.836,78.955ZM41.836,78.099C39.185,78.099 37.309,76.1 37.309,71.737C37.309,67.373 39.185,65.334 41.836,65.334C44.467,65.334 46.342,67.373 46.342,71.737C46.342,76.1 44.467,78.099 41.836,78.099Z" style="fill:rgb(35,31,32);fill-rule:nonzero;"/>
        <path d="M48.381,78.853L57.312,78.853L57.312,75.529L56.415,75.529L56.252,77.874L49.482,77.874C49.523,75.794 51.297,74.469 53.254,73.246C55.538,71.818 57.516,70.697 57.516,68.209C57.516,65.844 56.048,64.477 53.091,64.477C51.542,64.477 50.216,64.763 49.034,65.252L49.034,67.699L49.849,67.699C49.951,66.598 50.114,66.129 50.481,65.884C51.032,65.497 51.888,65.314 53.071,65.314C55.273,65.314 56.232,66.394 56.232,68.229C56.232,70.228 54.519,71.227 52.582,72.511C50.542,73.857 48.381,75.346 48.381,78.058L48.381,78.853Z" style="fill:rgb(35,31,32);fill-rule:nonzero;"/>
        <path d="M64.816,78.955C67.956,78.955 70.628,76.549 70.628,71.716C70.628,66.884 67.956,64.478 64.816,64.478C61.676,64.478 58.984,66.884 58.984,71.716C58.984,76.549 61.676,78.955 64.816,78.955ZM64.816,78.099C62.165,78.099 60.289,76.1 60.289,71.737C60.289,67.373 62.165,65.334 64.816,65.334C67.447,65.334 69.323,67.373 69.323,71.737C69.323,76.1 67.447,78.099 64.816,78.099Z" style="fill:rgb(35,31,32);fill-rule:nonzero;"/>
        <path d="M105.033,97.06L109.369,97.06L109.735,95.446L109.3,95.446L108.943,96.585L105.657,96.585C105.924,95.565 106.904,94.872 107.953,94.318C109.3,93.605 110.567,93.08 110.567,91.645C110.567,90.694 109.884,90.081 108.607,90.081C107.894,90.081 107.32,90.219 106.825,90.457L106.538,91.645L106.954,91.645C107.132,91.11 107.231,90.873 107.488,90.724C107.746,90.576 108.033,90.486 108.577,90.486C109.508,90.486 109.943,90.972 109.943,91.665C109.943,92.892 108.884,93.268 107.637,93.981C106.399,94.694 105.409,95.456 105.112,96.694L105.033,97.06Z" style="fill:white;fill-rule:nonzero;"/>
        <path d="M110.112,97.06L114.448,97.06L114.814,95.446L114.378,95.446L114.022,96.585L110.735,96.585C111.003,95.565 111.983,94.872 113.032,94.318C114.378,93.605 115.646,93.08 115.646,91.645C115.646,90.694 114.963,90.081 113.685,90.081C112.973,90.081 112.398,90.219 111.903,90.457L111.616,91.645L112.032,91.645C112.21,91.11 112.309,90.873 112.567,90.724C112.824,90.576 113.111,90.486 113.656,90.486C114.586,90.486 115.022,90.972 115.022,91.665C115.022,92.892 113.963,93.268 112.715,93.981C111.478,94.694 110.488,95.456 110.191,96.694L110.112,97.06Z" style="fill:white;fill-rule:nonzero;"/>
        <path d="M119.368,97.11C120.883,97.11 121.892,96.308 121.892,95.021C121.892,93.981 121.14,93.674 120.16,93.219C119.437,92.882 118.912,92.625 118.912,91.902C118.912,91.061 119.447,90.496 120.576,90.496C121.298,90.496 121.694,90.754 121.932,90.981L121.813,91.872L122.239,91.872L122.645,90.13L122.239,90.13C122.179,90.298 122.11,90.397 122.031,90.397C121.853,90.308 121.417,90.081 120.605,90.081C119.15,90.081 118.378,90.892 118.378,91.942C118.378,92.912 119.041,93.308 119.813,93.664C120.635,94.051 121.338,94.288 121.338,95.07C121.338,96.159 120.506,96.694 119.378,96.694C118.467,96.694 118.061,96.397 117.794,96.169L117.952,95.12L117.517,95.12L117.071,97.06L117.487,97.06C117.526,96.882 117.606,96.733 117.685,96.733C117.863,96.832 118.408,97.11 119.368,97.11Z" style="fill:white;fill-rule:nonzero;"/>
        <path d="M124.645,97.1C125.575,97.1 126.09,96.773 126.407,96.535L126.516,96.1L126.179,96.1C125.902,96.397 125.506,96.724 124.674,96.724C123.754,96.724 123.338,96.06 123.338,95.12C123.338,95.001 123.348,94.843 123.358,94.744C125.892,94.704 127.179,94.179 127.179,93.001C127.179,92.179 126.546,91.843 125.744,91.843C124.09,91.843 122.764,93.278 122.764,95.11C122.764,96.278 123.377,97.1 124.645,97.1ZM123.407,94.367C123.655,93.268 124.437,92.219 125.724,92.219C126.209,92.219 126.615,92.417 126.615,93.021C126.615,93.961 125.565,94.328 123.407,94.367Z" style="fill:white;fill-rule:nonzero;"/>
        <path d="M126.516,98.664L128.634,98.664L128.704,98.327L127.852,98.327L128.258,96.535C128.545,96.793 128.951,97.05 129.813,97.05C130.486,97.05 131.149,96.832 131.664,96.298C132.248,95.694 132.674,94.595 132.674,93.516C132.674,92.318 132.07,91.843 131.238,91.843C130.298,91.843 129.585,92.417 129.07,93.021L129.129,92.744C129.278,92.11 128.971,91.853 128.526,91.853C128.278,91.853 128.001,91.932 127.932,91.962L127.862,92.269L128.238,92.269C128.486,92.269 128.625,92.467 128.565,92.714L127.347,98.05C127.318,98.189 127.159,98.327 127.011,98.327L126.595,98.327L126.516,98.664ZM129.714,96.664C129.001,96.664 128.634,96.456 128.337,96.189L128.961,93.476C129.496,92.922 130.248,92.269 131.07,92.269C131.654,92.269 132.09,92.575 132.09,93.575C132.09,94.615 131.753,95.516 131.268,96.031C130.832,96.476 130.298,96.664 129.714,96.664Z" style="fill:white;fill-rule:nonzero;"/>
        <path d="M134.545,97.11C134.842,97.11 135.089,97.05 135.297,96.971L135.376,96.615L135.089,96.615C134.97,96.684 134.782,96.714 134.594,96.714C134.089,96.714 133.98,96.367 134.119,95.763L134.921,92.269L136.178,92.269L136.267,91.892L135.01,91.892L135.337,90.467L134.772,90.467L134.436,91.892L133.733,91.892L133.644,92.269L134.356,92.269L133.545,95.763C133.357,96.595 133.683,97.11 134.545,97.11Z" style="fill:white;fill-rule:nonzero;"/>
        <path d="M138.089,97.1C139.02,97.1 139.534,96.773 139.851,96.535L139.96,96.1L139.624,96.1C139.346,96.397 138.95,96.724 138.119,96.724C137.198,96.724 136.782,96.06 136.782,95.12C136.782,95.001 136.792,94.843 136.802,94.744C139.336,94.704 140.623,94.179 140.623,93.001C140.623,92.179 139.99,91.843 139.188,91.843C137.535,91.843 136.208,93.278 136.208,95.11C136.208,96.278 136.822,97.1 138.089,97.1ZM136.852,94.367C137.099,93.268 137.881,92.219 139.168,92.219C139.653,92.219 140.059,92.417 140.059,93.021C140.059,93.961 139.01,94.328 136.852,94.367Z" style="fill:white;fill-rule:nonzero;"/>
        <path d="M148.345,97.1C148.652,97.1 148.81,97.03 148.89,97.001L148.959,96.704L148.652,96.704C148.424,96.704 148.256,96.496 148.315,96.258L149.028,93.179C149.216,92.348 148.84,91.843 148.098,91.843C147.197,91.843 146.405,92.437 145.821,92.981C145.9,92.269 145.534,91.843 144.88,91.843C143.979,91.843 143.167,92.447 142.623,92.952L142.682,92.694C142.811,92.14 142.524,91.853 142.088,91.853C141.801,91.853 141.534,91.942 141.475,91.962L141.405,92.269L141.781,92.269C142.029,92.269 142.168,92.467 142.108,92.714L141.178,96.773C141.128,96.961 141.197,97.06 141.316,97.06L141.682,97.06L142.534,93.348C143.128,92.863 143.87,92.308 144.613,92.308C145.128,92.308 145.365,92.605 145.197,93.318L144.405,96.773C144.355,96.961 144.425,97.06 144.544,97.06L144.91,97.06L145.761,93.358C146.365,92.863 147.088,92.308 147.89,92.308C148.345,92.308 148.593,92.585 148.424,93.308L147.761,96.179C147.632,96.733 147.87,97.1 148.345,97.1Z" style="fill:white;fill-rule:nonzero;"/>
        <path d="M151.889,97.1C152.612,97.1 153.255,96.852 153.76,96.337C154.344,95.734 154.78,94.674 154.78,93.516C154.78,92.358 154.176,91.843 153.345,91.843C152.404,91.843 151.681,92.467 151.196,93.001L151.82,90.308C151.85,90.19 151.81,90.13 151.711,90.13L150.553,90.13L150.464,90.496L150.939,90.496C151.087,90.496 151.176,90.625 151.137,90.784L149.691,97.06L149.929,97.06C150.038,97.06 150.206,96.793 150.325,96.535C150.592,96.793 150.988,97.1 151.889,97.1ZM151.85,96.714C151.067,96.714 150.741,96.496 150.454,96.229L151.097,93.447C151.652,92.882 152.374,92.269 153.196,92.269C153.741,92.269 154.196,92.575 154.196,93.575C154.196,94.615 153.869,95.496 153.394,96.031C152.978,96.496 152.414,96.714 151.85,96.714Z" style="fill:white;fill-rule:nonzero;"/>
        <path d="M157.265,97.1C158.195,97.1 158.71,96.773 159.027,96.535L159.136,96.1L158.799,96.1C158.522,96.397 158.126,96.724 157.295,96.724C156.374,96.724 155.958,96.06 155.958,95.12C155.958,95.001 155.968,94.843 155.978,94.744C158.512,94.704 159.799,94.179 159.799,93.001C159.799,92.179 159.166,91.843 158.364,91.843C156.71,91.843 155.384,93.278 155.384,95.11C155.384,96.278 155.998,97.1 157.265,97.1ZM156.027,94.367C156.275,93.268 157.057,92.219 158.344,92.219C158.829,92.219 159.235,92.417 159.235,93.021C159.235,93.961 158.186,94.328 156.027,94.367Z" style="fill:white;fill-rule:nonzero;"/>
        <path d="M160.492,97.06L160.859,97.06L161.68,93.496C162.225,92.882 162.799,92.358 163.561,92.358C163.651,92.358 163.759,92.368 163.759,92.368L163.868,91.892C163.839,91.882 163.75,91.863 163.621,91.863C162.859,91.863 162.255,92.437 161.779,93.021L161.839,92.783C161.997,92.14 161.7,91.853 161.245,91.853C161.007,91.853 160.72,91.932 160.651,91.962L160.582,92.269L160.958,92.269C161.205,92.269 161.344,92.467 161.284,92.714L160.354,96.773C160.304,96.961 160.374,97.06 160.492,97.06Z" style="fill:white;fill-rule:nonzero;"/>
        <path d="M164.997,97.06L169.333,97.06L169.699,95.446L169.264,95.446L168.907,96.585L165.621,96.585C165.888,95.565 166.868,94.872 167.917,94.318C169.264,93.605 170.531,93.08 170.531,91.645C170.531,90.694 169.848,90.081 168.571,90.081C167.858,90.081 167.284,90.219 166.789,90.457L166.502,91.645L166.917,91.645C167.096,91.11 167.195,90.873 167.452,90.724C167.709,90.576 167.997,90.487 168.541,90.487C169.472,90.487 169.907,90.972 169.907,91.665C169.907,92.892 168.848,93.268 167.601,93.981C166.363,94.694 165.373,95.456 165.076,96.694L164.997,97.06Z" style="fill:white;fill-rule:nonzero;"/>
        <path d="M173.095,97.11C173.996,97.11 174.867,96.714 175.511,95.942C176.135,95.179 176.541,94.041 176.541,92.655C176.541,91.071 175.709,90.081 174.244,90.081C173.303,90.081 172.422,90.556 171.779,91.387C171.175,92.16 170.789,93.249 170.789,94.526C170.789,96.14 171.65,97.11 173.095,97.11ZM173.105,96.694C171.977,96.694 171.402,95.902 171.402,94.595C171.402,93.486 171.699,92.407 172.244,91.655C172.769,90.932 173.432,90.496 174.234,90.496C175.362,90.496 175.927,91.308 175.927,92.595C175.927,93.823 175.63,94.912 175.095,95.645C174.59,96.328 173.917,96.694 173.105,96.694Z" style="fill:white;fill-rule:nonzero;"/>
        <path d="M176.124,97.06L180.461,97.06L180.827,95.447L180.391,95.447L180.035,96.585L176.748,96.585C177.015,95.565 177.995,94.872 179.045,94.318C180.391,93.605 181.658,93.08 181.658,91.645C181.658,90.694 180.975,90.081 179.698,90.081C178.985,90.081 178.411,90.219 177.916,90.457L177.629,91.645L178.045,91.645C178.223,91.11 178.322,90.873 178.58,90.724C178.837,90.576 179.124,90.487 179.669,90.487C180.599,90.487 181.035,90.972 181.035,91.665C181.035,92.892 179.975,93.268 178.728,93.981C177.491,94.694 176.5,95.456 176.203,96.694L176.124,97.06Z" style="fill:white;fill-rule:nonzero;"/>
        <path d="M184.223,97.11C185.124,97.11 185.995,96.714 186.639,95.942C187.263,95.179 187.669,94.041 187.669,92.655C187.669,91.071 186.837,90.081 185.372,90.081C184.431,90.081 183.55,90.556 182.907,91.387C182.303,92.16 181.917,93.249 181.917,94.526C181.917,96.14 182.778,97.11 184.223,97.11ZM184.233,96.694C183.105,96.694 182.53,95.902 182.53,94.595C182.53,93.486 182.827,92.407 183.372,91.655C183.897,90.932 184.56,90.496 185.362,90.496C186.49,90.496 187.055,91.308 187.055,92.595C187.055,93.823 186.758,94.912 186.223,95.645C185.718,96.328 185.045,96.694 184.233,96.694Z" style="fill:white;fill-rule:nonzero;"/>
        <path d="M190.995,95.229C191.717,95.229 192.301,94.724 192.301,93.902C192.301,93.298 191.866,92.932 191.272,92.932C190.569,92.932 189.945,93.447 189.945,94.239C189.945,94.853 190.401,95.229 190.995,95.229Z" style="fill:white;fill-rule:nonzero;"/>
        <path d="M195.677,97.06L197.994,97.06L198.073,96.704L197.519,96.704C197.341,96.704 197.261,96.536 197.301,96.377L198.647,90.516L200.598,90.516L200.34,92.021L200.766,92.021L201.212,90.13L195.658,90.13L195.222,92.021L195.658,92.021L196.093,90.516L198.044,90.516L196.697,96.377C196.658,96.536 196.46,96.704 196.291,96.704L195.757,96.704L195.677,97.06Z" style="fill:white;fill-rule:nonzero;"/>
        <path d="M205.062,97.1C205.349,97.1 205.527,97.031 205.597,97.001L205.666,96.704L205.369,96.704C205.141,96.704 204.983,96.496 205.042,96.239L205.745,93.179C205.943,92.318 205.547,91.843 204.805,91.843C203.894,91.843 203.003,92.427 202.389,92.991L203.013,90.308C203.042,90.19 203.003,90.13 202.904,90.13L201.745,90.13L201.656,90.496L202.141,90.496C202.28,90.496 202.359,90.645 202.33,90.784L200.953,96.773C200.904,96.961 200.973,97.06 201.092,97.06L201.458,97.06L202.3,93.397C202.933,92.853 203.795,92.308 204.597,92.308C205.072,92.308 205.31,92.605 205.161,93.239L204.468,96.248C204.349,96.773 204.607,97.1 205.062,97.1Z" style="fill:white;fill-rule:nonzero;"/>
        <path d="M208.547,97.1C209.478,97.1 209.993,96.773 210.309,96.536L210.418,96.1L210.082,96.1C209.804,96.397 209.408,96.724 208.577,96.724C207.656,96.724 207.24,96.06 207.24,95.12C207.24,95.001 207.25,94.843 207.26,94.744C209.795,94.704 211.082,94.179 211.082,93.001C211.082,92.179 210.448,91.843 209.646,91.843C207.993,91.843 206.666,93.278 206.666,95.11C206.666,96.278 207.28,97.1 208.547,97.1ZM207.31,94.367C207.557,93.268 208.339,92.219 209.626,92.219C210.111,92.219 210.517,92.417 210.517,93.021C210.517,93.962 209.468,94.328 207.31,94.367Z" style="fill:white;fill-rule:nonzero;"/>
        <path d="M215.507,97.06L216.091,97.06L219.744,90.873C219.873,90.655 220.11,90.496 220.328,90.496L220.556,90.496L220.645,90.13L218.507,90.13L218.418,90.496L218.962,90.496C219.318,90.496 219.348,90.685 219.111,91.081L216.032,96.308L216.002,96.308L215.279,90.496L216.279,90.496L216.368,90.13L214.18,90.13L214.091,90.496L214.378,90.496C214.566,90.496 214.705,90.685 214.725,90.892L215.507,97.06Z" style="fill:white;fill-rule:nonzero;"/>
        <path d="M222.654,97.11C224.565,97.11 226.347,95.348 226.347,92.783C226.347,91.071 225.308,90.081 223.684,90.081C221.763,90.081 220.001,91.882 220.001,94.417C220.001,96.13 221.021,97.11 222.654,97.11ZM222.684,96.694C221.367,96.694 220.625,95.902 220.625,94.447C220.625,92.11 222.021,90.496 223.654,90.496C224.971,90.496 225.724,91.308 225.724,92.754C225.724,95.07 224.318,96.694 222.684,96.694Z" style="fill:white;fill-rule:nonzero;"/>
        <path d="M225.604,97.06L227.723,97.06L227.792,96.704L227.268,96.704C227.05,96.704 227,96.496 227.208,96.248L229.267,93.872L230.465,96.704L229.545,96.704L229.475,97.06L231.614,97.06L231.693,96.704L231.406,96.704C231.257,96.704 231.069,96.575 230.98,96.367L229.782,93.546L232.099,90.833C232.247,90.665 232.544,90.496 232.673,90.496L233.128,90.496L233.218,90.13L231.059,90.13L230.97,90.496L231.376,90.496C231.604,90.496 231.673,90.675 231.436,90.962L229.594,93.16L228.466,90.496L229.297,90.496L229.386,90.13L227.208,90.13L227.119,90.496L227.535,90.496C227.703,90.496 227.862,90.615 227.951,90.833L229.079,93.496L226.495,96.427C226.357,96.575 226.08,96.704 225.941,96.704L225.684,96.704L225.604,97.06Z" style="fill:white;fill-rule:nonzero;"/>
        <path d="M231.911,97.981C232.574,97.902 233.119,97.496 233.119,96.743C233.119,96.456 232.931,96.298 232.713,96.298C232.485,96.298 232.297,96.466 232.297,96.724C232.297,96.833 232.347,96.932 232.426,96.991C232.505,97.05 232.555,97.09 232.555,97.169C232.555,97.436 232.277,97.615 231.98,97.674L231.911,97.981Z" style="fill:white;fill-rule:nonzero;"/>
        <path d="M235.395,97.06L238.336,97.06C240.078,97.06 241.098,96.189 241.098,94.813C241.098,93.981 240.534,93.566 239.732,93.447L239.732,93.427C240.771,93.239 241.415,92.635 241.415,91.566C241.415,90.586 240.652,90.13 239.464,90.13L236.999,90.13L236.91,90.496L237.415,90.496C237.583,90.496 237.663,90.675 237.623,90.833L236.356,96.377C236.316,96.536 236.108,96.704 235.93,96.704L235.475,96.704L235.395,97.06ZM236.89,96.684L237.593,93.625L238.851,93.625C239.92,93.625 240.474,94.001 240.474,94.803C240.474,95.843 239.88,96.684 238.326,96.684L236.89,96.684ZM237.682,93.239L238.306,90.526L239.415,90.526C240.256,90.526 240.801,90.833 240.791,91.615C240.781,92.575 240.256,93.239 238.86,93.239L237.682,93.239Z" style="fill:white;fill-rule:nonzero;"/>
        <path d="M242.721,97.1C243.018,97.1 243.177,97.04 243.256,97.001L243.325,96.704L243.018,96.704C242.791,96.704 242.613,96.496 242.672,96.258L243.484,92.724C243.622,92.14 243.405,91.853 242.9,91.853C242.583,91.853 242.345,91.942 242.276,91.962L242.207,92.269L242.603,92.269C242.84,92.269 242.979,92.467 242.919,92.714L242.108,96.229C241.979,96.773 242.226,97.1 242.721,97.1ZM243.593,91.16C243.791,91.16 243.999,90.982 243.999,90.754C243.999,90.556 243.85,90.388 243.622,90.388C243.414,90.388 243.226,90.566 243.226,90.793C243.226,90.991 243.375,91.16 243.593,91.16Z" style="fill:white;fill-rule:nonzero;"/>
        <path d="M244.553,97.06L244.919,97.06L245.741,93.496C246.286,92.882 246.86,92.358 247.622,92.358C247.711,92.358 247.82,92.368 247.82,92.368L247.929,91.892C247.899,91.882 247.81,91.863 247.682,91.863C246.919,91.863 246.315,92.437 245.84,93.021L245.9,92.783C246.058,92.14 245.761,91.853 245.306,91.853C245.068,91.853 244.781,91.932 244.712,91.962L244.642,92.269L245.018,92.269C245.266,92.269 245.405,92.467 245.345,92.714L244.415,96.773C244.365,96.961 244.434,97.06 244.553,97.06Z" style="fill:white;fill-rule:nonzero;"/>
        <path d="M255.216,97.1C255.523,97.1 255.681,97.031 255.76,97.001L255.83,96.704L255.523,96.704C255.295,96.704 255.127,96.496 255.186,96.258L255.899,93.179C256.087,92.348 255.711,91.843 254.968,91.843C254.068,91.843 253.276,92.437 252.691,92.981C252.771,92.269 252.404,91.843 251.751,91.843C250.85,91.843 250.038,92.447 249.494,92.952L249.553,92.694C249.682,92.14 249.395,91.853 248.959,91.853C248.672,91.853 248.405,91.942 248.345,91.962L248.276,92.269L248.652,92.269C248.9,92.269 249.038,92.467 248.979,92.714L248.048,96.773C247.999,96.961 248.068,97.06 248.187,97.06L248.553,97.06L249.405,93.348C249.999,92.863 250.741,92.308 251.484,92.308C251.998,92.308 252.236,92.605 252.068,93.318L251.276,96.773C251.226,96.961 251.296,97.06 251.414,97.06L251.781,97.06L252.632,93.358C253.236,92.863 253.959,92.308 254.761,92.308C255.216,92.308 255.463,92.585 255.295,93.308L254.632,96.179C254.503,96.734 254.741,97.1 255.216,97.1Z" style="fill:white;fill-rule:nonzero;"/>
        <path d="M257.601,97.1C257.898,97.1 258.057,97.04 258.136,97.001L258.205,96.704L257.898,96.704C257.671,96.704 257.492,96.496 257.552,96.258L258.364,92.724C258.502,92.14 258.284,91.853 257.78,91.853C257.463,91.853 257.225,91.942 257.156,91.962L257.087,92.269L257.483,92.269C257.72,92.269 257.859,92.467 257.799,92.714L256.988,96.229C256.859,96.773 257.106,97.1 257.601,97.1ZM258.473,91.16C258.671,91.16 258.878,90.982 258.878,90.754C258.878,90.556 258.73,90.388 258.502,90.388C258.294,90.388 258.106,90.566 258.106,90.793C258.106,90.991 258.255,91.16 258.473,91.16Z" style="fill:white;fill-rule:nonzero;"/>
        <path d="M263.403,97.1C263.7,97.1 263.868,97.031 263.938,97.001L264.007,96.704L263.71,96.704C263.482,96.704 263.324,96.496 263.383,96.239L264.086,93.179C264.284,92.318 263.888,91.843 263.146,91.843C262.235,91.843 261.344,92.427 260.73,92.991L260.789,92.744C260.938,92.13 260.641,91.853 260.195,91.853C259.948,91.853 259.661,91.942 259.591,91.962L259.522,92.269L259.898,92.269C260.146,92.269 260.284,92.467 260.225,92.714L259.294,96.773C259.245,96.961 259.314,97.06 259.433,97.06L259.799,97.06L260.641,93.397C261.274,92.853 262.136,92.308 262.948,92.308C263.413,92.308 263.65,92.605 263.502,93.239L262.809,96.248C262.69,96.773 262.948,97.1 263.403,97.1Z" style="fill:white;fill-rule:nonzero;"/>
        <path d="M266.175,98.733C267.917,98.733 268.66,97.991 268.66,97.011C268.66,96.278 268.185,95.872 267.314,95.872L266.076,95.872C265.799,95.872 265.611,95.734 265.611,95.506C265.611,95.209 265.829,95.011 266.096,94.862C266.314,94.971 266.601,95.051 266.987,95.051C268.115,95.051 268.947,94.298 268.947,93.199C268.947,92.912 268.858,92.655 268.7,92.447C268.709,92.328 268.808,92.269 268.907,92.269L269.571,92.269L269.65,91.892L267.848,91.892C267.7,91.863 267.521,91.843 267.373,91.843C266.254,91.843 265.393,92.645 265.393,93.694C265.393,94.11 265.541,94.457 265.829,94.694C265.472,94.882 265.106,95.169 265.106,95.635C265.106,95.942 265.284,96.14 265.472,96.219C264.789,96.506 264.205,96.872 264.205,97.575C264.205,98.209 264.819,98.733 266.175,98.733ZM266.185,98.337C265.126,98.337 264.759,97.951 264.759,97.516C264.759,96.991 265.215,96.605 265.819,96.377L267.135,96.377C267.759,96.377 268.115,96.575 268.115,97.139C268.115,97.773 267.561,98.337 266.185,98.337ZM266.977,94.674C266.264,94.674 265.947,94.259 265.947,93.724C265.947,92.853 266.531,92.219 267.353,92.219C268.056,92.219 268.403,92.625 268.403,93.179C268.403,94.11 267.828,94.674 266.977,94.674Z" style="fill:white;fill-rule:nonzero;"/>
        <path d="M273.71,97.1C273.997,97.1 274.175,97.031 274.244,97.001L274.314,96.704L274.017,96.704C273.789,96.704 273.63,96.496 273.69,96.239L274.393,93.179C274.591,92.318 274.195,91.843 273.452,91.843C272.541,91.843 271.65,92.427 271.037,92.991L271.66,90.308C271.69,90.19 271.65,90.13 271.551,90.13L270.393,90.13L270.304,90.496L270.789,90.496C270.928,90.496 271.007,90.645 270.977,90.784L269.601,96.773C269.552,96.961 269.621,97.06 269.74,97.06L270.106,97.06L270.948,93.397C271.581,92.853 272.442,92.308 273.244,92.308C273.72,92.308 273.957,92.605 273.809,93.239L273.116,96.248C272.997,96.773 273.254,97.1 273.71,97.1Z" style="fill:white;fill-rule:nonzero;"/>
        <path d="M278.827,97.1C279.035,97.1 279.243,97.031 279.312,97.001L279.382,96.684C279.283,96.704 279.174,96.714 279.065,96.714C278.798,96.714 278.679,96.526 278.738,96.258L279.382,93.506C279.639,92.387 278.907,91.843 277.867,91.843C277.006,91.843 276.531,92.011 276.095,92.219L275.986,92.704L276.273,92.704C276.63,92.427 277.026,92.249 277.778,92.249C278.52,92.249 279.006,92.645 278.808,93.486L278.6,94.358C278.243,94.199 277.847,94.1 277.293,94.1C275.996,94.1 275.105,94.664 275.105,95.843C275.105,96.605 275.679,97.11 276.531,97.11C277.263,97.11 277.768,96.763 278.194,96.268C278.075,96.773 278.322,97.1 278.827,97.1ZM276.6,96.714C276.036,96.714 275.649,96.377 275.649,95.803C275.649,94.882 276.293,94.476 277.283,94.476C277.798,94.476 278.174,94.565 278.52,94.714L278.273,95.813C277.867,96.298 277.342,96.714 276.6,96.714Z" style="fill:white;fill-rule:nonzero;"/>
        <path d="M287.48,97.1C287.787,97.1 287.945,97.031 288.024,97.001L288.094,96.704L287.787,96.704C287.559,96.704 287.391,96.496 287.45,96.258L288.163,93.179C288.351,92.348 287.975,91.843 287.232,91.843C286.331,91.843 285.539,92.437 284.955,92.981C285.034,92.269 284.668,91.843 284.015,91.843C283.114,91.843 282.302,92.447 281.757,92.952L281.817,92.694C281.946,92.14 281.658,91.853 281.223,91.853C280.936,91.853 280.668,91.942 280.609,91.962L280.54,92.269L280.916,92.269C281.163,92.269 281.302,92.467 281.243,92.714L280.312,96.773C280.263,96.961 280.332,97.06 280.451,97.06L280.817,97.06L281.668,93.348C282.262,92.863 283.005,92.308 283.747,92.308C284.262,92.308 284.5,92.605 284.331,93.318L283.539,96.773C283.49,96.961 283.559,97.06 283.678,97.06L284.044,97.06L284.896,93.358C285.5,92.863 286.222,92.308 287.024,92.308C287.48,92.308 287.727,92.585 287.559,93.308L286.896,96.179C286.767,96.734 287.005,97.1 287.48,97.1Z" style="fill:white;fill-rule:nonzero;"/>
    </g>
    <defs>
        <linearGradient id="_Linear1" x1="0" y1="0" x2="1" y2="0" gradientUnits="userSpaceOnUse" gradientTransform="matrix(73.2602,-73.2602,73.2602,73.2602,11.5113,75.7734)"><stop offset="0" style="stop-color:rgb(251,202,37);stop-opacity:1"/><stop offset="0.2" style="stop-color:rgb(255,239,171);stop-opacity:1"/><stop offset="0.3" style="stop-color:rgb(250,239,186);stop-opacity:1"/><stop offset="0.6" style="stop-color:rgb(195,148,47);stop-opacity:1"/><stop offset="0.9" style="stop-color:rgb(243,223,151);stop-opacity:1"/><stop offset="1" style="stop-color:rgb(255,251,204);stop-opacity:1"/></linearGradient>
    </defs>
</svg>
