<?xml version="1.0" encoding="UTF-8" standalone="no"?>
<!DOCTYPE svg PUBLIC "-//W3C//DTD SVG 1.1//EN" "http://www.w3.org/Graphics/SVG/1.1/DTD/svg11.dtd">
<svg width="100%" height="100%" viewBox="0 0 1442 413" version="1.1" xmlns="http://www.w3.org/2000/svg" xmlns:xlink="http://www.w3.org/1999/xlink" xml:space="preserve" xmlns:serif="http://www.serif.com/" style="fill-rule:evenodd;clip-rule:evenodd;stroke-linecap:round;stroke-miterlimit:2;">
    <g transform="matrix(4.16667,0,0,4.16667,0,0)">
        <path d="M85.27,9.981L11.012,9.981C10.82,10.315 10.628,10.648 10.443,10.981L85.838,10.981C85.654,10.648 85.462,10.314 85.27,9.981ZM92.89,33.218L3.393,33.218C3.364,33.55 3.321,33.889 3.296,34.218L92.986,34.218C92.962,33.889 92.919,33.55 92.89,33.218ZM57.189,27.735L57.909,27.735C58.207,27.735 58.604,27.288 58.604,27.015L58.604,17.283C58.604,17.01 58.207,16.588 57.909,16.588L57.189,16.588L57.189,13.411L71.985,13.411L71.985,19.046L68.633,19.046L68.137,16.836L64.413,16.836L64.413,20.163L68.41,20.163L68.41,23.688L64.413,23.688L64.413,27.462L68.236,27.462L68.708,24.831L72.209,24.831L72.209,30.789L57.189,30.789L57.189,27.735ZM37.947,27.735L38.668,27.735C38.965,27.735 39.363,27.288 39.363,27.015L39.363,17.283C39.363,17.01 38.965,16.588 38.668,16.588L37.947,16.588L37.947,13.411L46.662,13.411L46.662,16.588L45.172,16.588L45.172,20.511L49.268,20.511L49.268,16.588L47.779,16.588L47.779,13.411L56.493,13.411L56.493,16.588L55.773,16.588C55.475,16.588 55.078,17.01 55.078,17.283L55.078,27.015C55.078,27.288 55.475,27.735 55.773,27.735L56.493,27.735L56.493,30.789L47.779,30.789L47.779,27.735L49.268,27.735L49.268,23.465L45.172,23.465L45.172,27.735L46.662,27.735L46.662,30.789L37.947,30.789L37.947,27.735ZM27.719,30.789L24.02,30.789L24.02,25.302L27.793,25.302L28.29,27.462C28.662,27.586 29.109,27.636 29.779,27.636C31.095,27.636 31.89,27.189 31.89,26.097C31.89,24.905 30.748,24.682 28.91,24.185C26.378,23.515 24.094,22.472 24.094,18.723C24.094,14.776 26.825,13.137 30.549,13.137C32.113,13.137 33.007,13.261 33.727,13.411L36.904,13.411L36.904,18.45L33.18,18.45L32.684,16.588C32.361,16.489 31.939,16.415 31.393,16.415C30.027,16.415 29.283,16.861 29.283,17.929C29.283,19.096 30.4,19.294 31.666,19.642C35.837,20.759 37.426,21.901 37.426,25.228C37.426,29.001 35.316,31.062 30.648,31.062C29.457,31.062 28.587,30.962 27.719,30.789ZM3.204,38.471L93.078,38.471C93.105,41.951 92.918,45.436 92.417,48.881C91.931,52.198 91.153,55.462 90.012,58.618C86.665,67.871 81.159,75.568 73.623,81.873C71.95,83.27 70.188,84.588 68.402,85.837C66.3,87.308 64.134,88.697 61.91,89.977C59.992,91.083 58.017,92.116 55.989,93.01C54.178,93.81 52.274,94.526 50.344,94.983C49.026,95.295 47.358,95.328 46.046,94.979C44.158,94.477 42.296,93.753 40.514,92.958C38.507,92.065 36.547,91.052 34.635,89.974C32.348,88.685 30.11,87.292 27.941,85.814C26.134,84.582 24.337,83.275 22.66,81.873C15.124,75.568 9.617,67.871 6.27,58.618C5.129,55.462 4.351,52.198 3.867,48.881C3.363,45.436 3.177,41.951 3.204,38.471ZM91.856,59.945C88.399,69.501 82.524,77.398 74.768,83.886C69.377,88.394 58.225,95.5 50.341,97.398C49.011,97.717 47.348,97.745 46.034,97.389C38.26,95.282 26.735,88.252 21.515,83.886C13.759,77.398 7.883,69.501 4.426,59.945C1.346,51.427 0.31,41.551 1.668,30.254C2.739,21.349 6.73,11.964 13.755,1.975C25.167,5.708 36.579,5.691 47.99,1.922L48.292,1.922C59.705,5.691 71.115,5.708 82.526,1.975C89.553,11.964 93.544,21.349 94.614,30.254C95.974,41.551 94.937,51.427 91.856,59.945ZM95.691,30.125C94.433,19.667 89.402,9.866 83.413,1.352L82.952,0.695L82.191,0.945C71.001,4.606 59.812,4.585 48.632,0.893L48.465,0.838L47.817,0.838L47.65,0.893C36.471,4.585 25.282,4.606 14.092,0.945L13.33,0.695L12.869,1.352C6.881,9.866 1.85,19.667 0.593,30.125C-0.627,40.28 -0.092,50.635 3.408,60.315C6.934,70.065 12.935,78.122 20.82,84.717C26.238,89.249 37.902,96.337 45.893,98.462C47.292,98.834 49.079,98.805 50.497,98.469C58.593,96.549 69.878,89.387 75.462,84.717C83.347,78.122 89.347,70.065 92.875,60.315C96.376,50.635 96.911,40.28 95.691,30.125Z" style="fill:url(#_Linear1);fill-rule:nonzero;"/>
        <path d="M109.243,16.836L110.167,16.836C110.503,16.836 110.95,16.333 110.95,16.025L110.95,4.433L109.383,4.433L108.963,8.044L105.07,8.044L105.07,0.681L123.383,0.681L123.383,8.044L119.519,8.044L119.07,4.433L117.503,4.433L117.503,16.025C117.503,16.333 117.95,16.836 118.287,16.836L119.211,16.836L119.211,20.281L109.243,20.281L109.243,16.836Z" style="fill:white;fill-rule:nonzero;"/>
        <path d="M134.303,11.097C134.303,10.004 133.799,9.781 132.511,9.781C132.259,9.781 131.811,9.809 131.391,9.865L131.391,16.836L133.015,16.836L133.015,20.281L123.887,20.281L123.887,16.836L124.587,16.836C124.866,16.836 125.259,16.389 125.259,16.137L125.259,4.937C125.259,4.657 124.866,4.265 124.587,4.265L123.803,4.265L123.803,0.681L130.494,0.681C131.054,0.681 131.391,1.157 131.391,1.913L131.391,7.457C132.65,6.168 134.358,5.217 136.626,5.217C138.586,5.217 140.435,6.029 140.435,8.745L140.435,16.137C140.435,16.416 140.826,16.836 141.106,16.836L141.555,16.836L141.555,20.281L134.303,20.281L134.303,11.097Z" style="fill:white;fill-rule:nonzero;"/>
        <path d="M147.911,11.321L151.439,11.321C151.299,9.417 150.822,8.717 149.759,8.717C148.667,8.717 148.106,9.417 147.911,11.321ZM147.883,14.205C148.079,16.081 148.807,16.893 150.486,16.893C151.999,16.893 152.755,16.361 153.314,15.632L156.534,15.632L156.534,19.189C155.19,19.945 153.23,20.533 149.843,20.533C144.074,20.533 141.751,17.649 141.751,12.973C141.751,8.241 144.803,5.217 149.759,5.217C154.771,5.217 157.123,7.569 157.123,12.749C157.123,13.449 157.066,14.009 157.066,14.205L147.883,14.205Z" style="fill:white;fill-rule:nonzero;"/>
        <path d="M165.635,20.281L161.463,20.281L161.463,14.093L165.719,14.093L166.278,16.529C166.698,16.668 167.202,16.725 167.959,16.725C169.442,16.725 170.339,16.221 170.339,14.989C170.339,13.645 169.051,13.393 166.979,12.833C164.123,12.077 161.547,10.901 161.547,6.672C161.547,2.221 164.627,0.373 168.826,0.373C170.591,0.373 171.599,0.513 172.41,0.681L175.994,0.681L175.994,6.365L171.795,6.365L171.234,4.265C170.87,4.153 170.395,4.069 169.778,4.069C168.238,4.069 167.398,4.573 167.398,5.777C167.398,7.093 168.658,7.317 170.087,7.709C174.791,8.969 176.583,10.256 176.583,14.009C176.583,18.265 174.202,20.588 168.939,20.588C167.595,20.588 166.614,20.477 165.635,20.281Z" style="fill:white;fill-rule:nonzero;"/>
        <path d="M185.514,16.557L185.514,14.345C185.15,14.289 184.702,14.233 184.338,14.233C183.358,14.233 182.826,14.597 182.826,15.689C182.826,16.752 183.414,17.033 184.17,17.033C184.702,17.033 185.094,16.865 185.514,16.557ZM177.086,16.249C177.086,13.029 179.354,11.628 182.826,11.628C183.918,11.628 184.702,11.685 185.514,11.825L185.514,10.929C185.514,9.893 184.954,9.417 183.526,9.417C182.014,9.417 181.23,9.949 180.642,10.425L178.094,10.425L178.094,6.252C179.662,5.693 181.986,5.217 185.01,5.217C189.658,5.217 191.646,6.756 191.646,10.229L191.646,16.137C191.646,16.416 192.038,16.836 192.318,16.836L192.794,16.836L192.794,19.749C191.926,20.225 190.75,20.533 189.294,20.533C187.39,20.533 186.41,19.889 185.934,18.769C184.87,19.973 183.47,20.477 181.678,20.477C179.214,20.477 177.086,19.105 177.086,16.249Z" style="fill:white;fill-rule:nonzero;"/>
        <path d="M193.074,5.497L194.53,5.497L194.53,4.853C194.53,1.521 196.462,0.289 199.99,0.289C201.39,0.289 202.258,0.485 202.986,0.709L202.986,3.901L202.23,3.901C201.082,3.901 200.662,4.097 200.662,5.077L200.662,5.497L202.874,5.497L202.874,9.165L200.662,9.165L200.662,16.137C200.662,16.416 201.054,16.836 201.334,16.836L202.286,16.836L202.286,20.281L193.158,20.281L193.158,16.836L193.858,16.836C194.138,16.836 194.53,16.416 194.53,16.137L194.53,9.165L193.074,9.165L193.074,5.497Z" style="fill:white;fill-rule:nonzero;"/>
        <path d="M209.006,11.321L212.533,11.321C212.394,9.417 211.917,8.717 210.854,8.717C209.762,8.717 209.201,9.417 209.006,11.321ZM208.978,14.205C209.174,16.081 209.901,16.893 211.581,16.893C213.094,16.893 213.85,16.361 214.409,15.632L217.629,15.632L217.629,19.189C216.285,19.945 214.325,20.533 210.938,20.533C205.169,20.533 202.846,17.649 202.846,12.973C202.846,8.241 205.897,5.217 210.854,5.217C215.865,5.217 218.218,7.569 218.218,12.749C218.218,13.449 218.161,14.009 218.161,14.205L208.978,14.205Z" style="fill:white;fill-rule:nonzero;"/>
        <path d="M218.471,5.497L219.927,5.497L219.927,1.661L226.059,1.661L226.059,5.497L228.522,5.497L228.522,9.165L226.059,9.165L226.059,15.185C226.059,16.445 226.479,16.836 227.822,16.836L228.578,16.836L228.578,20.168C227.851,20.365 226.73,20.588 225.33,20.588C222.082,20.588 219.927,19.665 219.927,16.221L219.927,9.165L218.471,9.165L218.471,5.497Z" style="fill:white;fill-rule:nonzero;"/>
        <path d="M230.762,21.765C232.134,21.429 233.478,20.869 234.598,19.973L230.09,9.809C229.949,9.501 229.585,9.165 229.277,9.165L228.886,9.165L228.886,5.497L237.426,5.497L237.426,9.165L235.941,9.165L237.901,14.065L238.014,14.065L239.47,10.425C239.749,9.781 239.554,9.165 238.825,9.165L238.573,9.165L238.573,5.497L245.629,5.497L245.629,9.165L245.209,9.165C244.901,9.165 244.426,9.613 244.23,10.033L240.421,18.041C238.63,21.737 237.117,23.473 235.382,24.817L230.762,24.817L230.762,21.765Z" style="fill:white;fill-rule:nonzero;"/>
        <path d="M260.861,16.221L256.801,12.105C256.493,12.525 256.241,13.113 256.241,13.897C256.241,15.493 257.249,16.557 259.069,16.557C259.713,16.557 260.301,16.445 260.861,16.221ZM250.081,14.624C250.081,11.796 251.929,10.088 254.197,9.165C253.581,8.212 253.301,7.205 253.301,5.889C253.301,2.613 255.513,0.373 259.769,0.373C260.665,0.373 261.953,0.541 262.373,0.681L266.741,0.681L266.741,6.365L262.597,6.365L262.149,4.544C261.98,4.489 261.785,4.433 261.393,4.433C260.245,4.433 259.797,4.937 259.797,5.889C259.797,6.841 260.357,7.429 261.281,8.353L264.557,11.712C264.865,10.761 265.117,9.697 265.257,8.521L269.961,8.521L269.961,11.013C269.317,12.469 268.617,13.869 267.833,15.101L269.009,16.277C269.457,16.668 269.653,16.836 270.045,16.836L270.241,16.836L270.241,20.281L264.669,20.281L263.633,19.245C262.149,20.057 260.357,20.504 258.088,20.504C252.741,20.504 250.081,18.181 250.081,14.624Z" style="fill:white;fill-rule:nonzero;"/>
        <path d="M105.015,42.837L105.827,42.837C106.163,42.837 106.61,42.333 106.61,42.025L106.61,31.048C106.61,30.741 106.163,30.265 105.827,30.265L105.015,30.265L105.015,26.681L114.843,26.681L114.843,30.265L113.163,30.265L113.163,34.689L117.782,34.689L117.782,30.265L116.103,30.265L116.103,26.681L125.931,26.681L125.931,30.265L125.118,30.265C124.782,30.265 124.335,30.741 124.335,31.048L124.335,42.025C124.335,42.333 124.782,42.837 125.118,42.837L125.931,42.837L125.931,46.281L116.103,46.281L116.103,42.837L117.782,42.837L117.782,38.021L113.163,38.021L113.163,42.837L114.843,42.837L114.843,46.281L105.015,46.281L105.015,42.837Z" style="fill:white;fill-rule:nonzero;"/>
        <path d="M132.26,37.321L135.787,37.321C135.647,35.416 135.171,34.717 134.107,34.717C133.016,34.717 132.455,35.416 132.26,37.321ZM132.231,40.205C132.428,42.081 133.155,42.893 134.835,42.893C136.348,42.893 137.104,42.361 137.663,41.632L140.883,41.632L140.883,45.189C139.539,45.945 137.579,46.533 134.191,46.533C128.423,46.533 126.1,43.649 126.1,38.973C126.1,34.241 129.151,31.217 134.107,31.217C139.119,31.217 141.472,33.569 141.472,38.749C141.472,39.449 141.415,40.009 141.415,40.205L132.231,40.205Z" style="fill:white;fill-rule:nonzero;"/>
        <path d="M150.207,42.557L150.207,40.345C149.844,40.289 149.396,40.233 149.031,40.233C148.052,40.233 147.52,40.597 147.52,41.689C147.52,42.753 148.107,43.033 148.863,43.033C149.396,43.033 149.787,42.865 150.207,42.557ZM141.779,42.249C141.779,39.029 144.047,37.629 147.52,37.629C148.611,37.629 149.396,37.685 150.207,37.825L150.207,36.929C150.207,35.893 149.647,35.416 148.22,35.416C146.707,35.416 145.923,35.949 145.335,36.425L142.787,36.425L142.787,32.252C144.355,31.693 146.68,31.217 149.703,31.217C154.352,31.217 156.339,32.756 156.339,36.229L156.339,42.137C156.339,42.416 156.731,42.837 157.012,42.837L157.487,42.837L157.487,45.749C156.619,46.225 155.443,46.533 153.987,46.533C152.083,46.533 151.104,45.889 150.627,44.769C149.564,45.973 148.163,46.477 146.371,46.477C143.907,46.477 141.779,45.105 141.779,42.249Z" style="fill:white;fill-rule:nonzero;"/>
        <path d="M157.823,42.837L158.636,42.837C158.915,42.837 159.308,42.416 159.308,42.137L159.308,30.964C159.308,30.685 158.915,30.265 158.636,30.265L157.768,30.265L157.768,26.681L164.543,26.681C165.104,26.681 165.439,27.157 165.439,27.913L165.439,42.137C165.439,42.416 165.831,42.837 166.111,42.837L166.951,42.837L166.951,46.281L157.823,46.281L157.823,42.837Z" style="fill:white;fill-rule:nonzero;"/>
        <path d="M166.812,31.497L168.268,31.497L168.268,27.661L174.399,27.661L174.399,31.497L176.863,31.497L176.863,35.165L174.399,35.165L174.399,41.185C174.399,42.445 174.819,42.837 176.163,42.837L176.919,42.837L176.919,46.168C176.191,46.365 175.071,46.588 173.671,46.588C170.423,46.588 168.268,45.665 168.268,42.221L168.268,35.165L166.812,35.165L166.812,31.497Z" style="fill:white;fill-rule:nonzero;"/>
        <path d="M187.727,37.097C187.727,36.004 187.223,35.781 185.935,35.781C185.683,35.781 185.234,35.809 184.814,35.865L184.814,42.837L186.439,42.837L186.439,46.281L177.311,46.281L177.311,42.837L178.011,42.837C178.29,42.837 178.683,42.389 178.683,42.137L178.683,30.937C178.683,30.657 178.29,30.265 178.011,30.265L177.227,30.265L177.227,26.681L183.918,26.681C184.479,26.681 184.814,27.157 184.814,27.913L184.814,33.457C186.074,32.168 187.782,31.217 190.05,31.217C192.01,31.217 193.858,32.029 193.858,34.745L193.858,42.137C193.858,42.416 194.25,42.837 194.53,42.837L194.979,42.837L194.979,46.281L187.727,46.281L187.727,37.097Z" style="fill:white;fill-rule:nonzero;"/>
        <path d="M199.29,42.837L200.103,42.837C200.439,42.837 200.886,42.333 200.886,42.025L200.886,31.048C200.886,30.741 200.439,30.265 200.103,30.265L199.29,30.265L199.29,26.681L215.978,26.681L215.978,33.037L212.198,33.037L211.638,30.544L207.439,30.544L207.439,34.296L211.946,34.296L211.946,38.273L207.439,38.273L207.439,42.529L211.75,42.529L212.282,39.561L216.23,39.561L216.23,46.281L199.29,46.281L199.29,42.837Z" style="fill:white;fill-rule:nonzero;"/>
        <path d="M216.763,42.837L216.931,42.837C217.322,42.837 217.742,42.416 218.051,42.109L220.626,38.916L217.967,35.809C217.658,35.473 217.378,35.165 217.07,35.165L216.679,35.165L216.679,31.497L225.414,31.497L225.414,34.969L224.322,34.969L226.03,36.901L226.759,35.977C227.122,35.529 226.982,34.969 226.395,34.969L226.311,34.969L226.311,31.497L233.086,31.497L233.086,35.165L232.918,35.165C232.555,35.165 232.135,35.557 231.855,35.893L229.25,39L231.967,42.193C232.274,42.529 232.582,42.837 232.891,42.837L233.17,42.837L233.17,46.281L224.49,46.281L224.49,43.004L225.61,43.004L223.847,41.017L223.147,41.885C222.698,42.5 222.95,43.004 223.511,43.004L223.595,43.004L223.595,46.281L216.763,46.281L216.763,42.837Z" style="fill:white;fill-rule:nonzero;"/>
        <path d="M233.198,38.945C233.198,34.073 236.334,31.217 241.626,31.217C243.922,31.217 245.742,31.525 246.89,31.973L246.89,36.425L243.642,36.425C243.222,35.584 242.83,35.109 241.738,35.109C240.226,35.109 239.442,36.229 239.442,39C239.442,41.8 240.17,42.893 241.822,42.893C242.998,42.893 243.754,42.333 244.258,41.661L246.918,41.661L246.918,45.132C245.714,45.916 243.894,46.533 241.542,46.533C235.942,46.533 233.198,43.789 233.198,38.945Z" style="fill:white;fill-rule:nonzero;"/>
        <path d="M253.526,37.321L257.053,37.321C256.914,35.416 256.437,34.717 255.374,34.717C254.282,34.717 253.722,35.416 253.526,37.321ZM253.498,40.205C253.694,42.081 254.422,42.893 256.101,42.893C257.614,42.893 258.37,42.361 258.93,41.632L262.149,41.632L262.149,45.189C260.806,45.945 258.846,46.533 255.458,46.533C249.689,46.533 247.366,43.649 247.366,38.973C247.366,34.241 250.418,31.217 255.374,31.217C260.385,31.217 262.738,33.569 262.738,38.749C262.738,39.449 262.682,40.009 262.682,40.205L253.498,40.205Z" style="fill:white;fill-rule:nonzero;"/>
        <path d="M263.046,42.837L263.858,42.837C264.138,42.837 264.53,42.416 264.53,42.137L264.53,30.964C264.53,30.685 264.138,30.265 263.858,30.265L262.99,30.265L262.99,26.681L269.766,26.681C270.326,26.681 270.662,27.157 270.662,27.913L270.662,42.137C270.662,42.416 271.054,42.837 271.334,42.837L272.174,42.837L272.174,46.281L263.046,46.281L263.046,42.837Z" style="fill:white;fill-rule:nonzero;"/>
        <path d="M272.566,42.837L273.379,42.837C273.658,42.837 274.051,42.416 274.051,42.137L274.051,30.964C274.051,30.685 273.658,30.265 273.379,30.265L272.511,30.265L272.511,26.681L279.286,26.681C279.847,26.681 280.183,27.157 280.183,27.913L280.183,42.137C280.183,42.416 280.574,42.837 280.855,42.837L281.694,42.837L281.694,46.281L272.566,46.281L272.566,42.837Z" style="fill:white;fill-rule:nonzero;"/>
        <path d="M287.995,37.321L291.522,37.321C291.383,35.416 290.906,34.717 289.843,34.717C288.751,34.717 288.19,35.416 287.995,37.321ZM287.967,40.205C288.163,42.081 288.891,42.893 290.57,42.893C292.083,42.893 292.839,42.361 293.398,41.632L296.618,41.632L296.618,45.189C295.274,45.945 293.314,46.533 289.927,46.533C284.158,46.533 281.835,43.649 281.835,38.973C281.835,34.241 284.887,31.217 289.843,31.217C294.855,31.217 297.207,33.569 297.207,38.749C297.207,39.449 297.15,40.009 297.15,40.205L287.967,40.205Z" style="fill:white;fill-rule:nonzero;"/>
        <path d="M297.627,42.837L298.327,42.837C298.606,42.837 299.026,42.389 299.026,42.137L299.026,35.865C299.026,35.584 298.606,35.165 298.327,35.165L297.543,35.165L297.543,31.497L303.955,31.497C304.515,31.497 304.906,31.916 305.047,33.541C306.335,32.197 308.043,31.217 310.366,31.217C312.326,31.217 314.175,32.029 314.175,34.745L314.175,42.137C314.175,42.416 314.595,42.837 314.875,42.837L315.322,42.837L315.322,46.281L308.07,46.281L308.07,37.097C308.07,36.004 307.539,35.781 306.278,35.781C306.026,35.781 305.579,35.809 305.131,35.865L305.131,42.837L306.782,42.837L306.782,46.281L297.627,46.281L297.627,42.837Z" style="fill:white;fill-rule:nonzero;"/>
        <path d="M315.49,38.945C315.49,34.073 318.626,31.217 323.918,31.217C326.214,31.217 328.034,31.525 329.182,31.973L329.182,36.425L325.934,36.425C325.514,35.584 325.122,35.109 324.03,35.109C322.518,35.109 321.734,36.229 321.734,39C321.734,41.8 322.462,42.893 324.114,42.893C325.29,42.893 326.046,42.333 326.55,41.661L329.21,41.661L329.21,45.132C328.006,45.916 326.186,46.533 323.834,46.533C318.234,46.533 315.49,43.789 315.49,38.945Z" style="fill:white;fill-rule:nonzero;"/>
        <path d="M335.818,37.321L339.346,37.321C339.206,35.416 338.73,34.717 337.666,34.717C336.574,34.717 336.014,35.416 335.818,37.321ZM335.79,40.205C335.986,42.081 336.714,42.893 338.394,42.893C339.906,42.893 340.662,42.361 341.222,41.632L344.441,41.632L344.441,45.189C343.098,45.945 341.138,46.533 337.75,46.533C331.981,46.533 329.658,43.649 329.658,38.973C329.658,34.241 332.71,31.217 337.666,31.217C342.678,31.217 345.03,33.569 345.03,38.749C345.03,39.449 344.974,40.009 344.974,40.205L335.79,40.205Z" style="fill:white;fill-rule:nonzero;"/>
        <path d="M105.628,81.231L264.42,81.231" style="fill:none;stroke:rgb(147,149,152);stroke-width:1.61px;"/>
        <path d="M18.343,52.253L22.26,52.253L20.424,46.519L20.383,46.519L18.343,52.253ZM13.466,56.741L13.936,56.741C14.324,56.741 14.569,56.496 14.711,56.108L18.179,46.54C18.302,46.172 18.139,45.907 17.812,45.907L16.731,45.907L16.731,44.152L22.811,44.152L26.81,56.17C26.912,56.496 27.218,56.741 27.504,56.741L28.014,56.741L28.014,58.434L21.853,58.434L21.853,56.741L23.709,56.741L22.832,54.027L17.711,54.027L17.404,54.904C16.997,56.046 17.099,56.741 18.057,56.741L18.894,56.741L18.894,58.434L13.466,58.434L13.466,56.741Z" style="fill:rgb(35,31,32);fill-rule:nonzero;"/>
        <path d="M35.08,51.477L32.958,58.434L30.408,58.434L28.001,50.089C27.878,49.762 27.633,49.518 27.348,49.518L26.96,49.518L26.96,47.722L31.693,47.722L31.693,49.518L30.754,49.518L32.162,54.864L32.203,54.864L34.284,47.722L36.569,47.722L38.65,54.864L38.691,54.864L39.772,50.866C40.037,49.926 39.936,49.518 39.1,49.518L38.793,49.518L38.793,47.722L43.261,47.722L43.261,49.518L42.915,49.518C42.588,49.518 42.262,49.703 42.139,50.151L39.711,58.434L37.161,58.434L35.121,51.477L35.08,51.477Z" style="fill:rgb(35,31,32);fill-rule:nonzero;"/>
        <path d="M49.656,56.046L49.656,53.762C49.187,53.679 48.656,53.639 48.085,53.639C46.881,53.639 46.147,54.129 46.147,55.212C46.147,56.291 46.779,56.801 47.779,56.801C48.534,56.801 49.146,56.517 49.656,56.046ZM43.25,55.333C43.25,53.088 45.004,52.068 47.473,52.068C48.371,52.068 48.983,52.149 49.656,52.314L49.656,51.191C49.656,50.11 49.065,49.599 47.799,49.599C46.514,49.599 45.861,50.089 45.331,50.558L43.963,50.558L43.963,48.375C44.963,47.926 46.31,47.559 48.391,47.559C51.166,47.559 52.635,48.457 52.635,50.905L52.635,56.231C52.635,56.475 52.9,56.741 53.145,56.741L53.716,56.741L53.716,58.168C53.308,58.414 52.696,58.577 51.921,58.577C50.677,58.577 50.044,58.087 49.779,57.229C48.983,58.209 47.983,58.557 46.677,58.557C44.678,58.557 43.25,57.456 43.25,55.333Z" style="fill:rgb(35,31,32);fill-rule:nonzero;"/>
        <path d="M54.089,56.741L54.804,56.741C55.049,56.741 55.314,56.456 55.314,56.231L55.314,50.07C55.314,49.845 55.049,49.518 54.804,49.518L54.008,49.518L54.008,47.722L57.66,47.722C58.007,47.722 58.231,48.03 58.272,49.274C58.986,48.397 59.822,47.621 61.231,47.621C61.455,47.621 61.679,47.661 61.883,47.722L61.883,49.926L61.373,49.926C59.822,49.926 58.884,50.253 58.293,50.58L58.293,56.741L59.782,56.741L59.782,58.434L54.089,58.434L54.089,56.741Z" style="fill:rgb(35,31,32);fill-rule:nonzero;"/>
        <path d="M69.579,55.945L69.579,50.07C69.049,49.824 68.314,49.599 67.601,49.599C66.192,49.599 64.927,50.415 64.927,53.129C64.927,56.067 66.131,56.801 67.356,56.801C68.294,56.801 68.987,56.456 69.579,55.945ZM61.908,53.211C61.908,49.17 64.439,47.559 66.519,47.559C68.008,47.559 68.885,48.111 69.579,48.947L69.579,45.907L68.192,45.907L68.192,44.152L72.047,44.152C72.395,44.152 72.559,44.419 72.559,44.846L72.559,56.19C72.559,56.414 72.823,56.741 73.068,56.741L73.803,56.741L73.803,58.434L70.171,58.434C69.865,58.434 69.681,57.985 69.62,57.229C68.926,58.025 67.845,58.596 66.356,58.596C64.213,58.596 61.908,57.313 61.908,53.211Z" style="fill:rgb(35,31,32);fill-rule:nonzero;"/>
        <path d="M74.237,57.985L74.237,55.579L75.952,55.579C76.196,56.333 77.155,56.801 78.094,56.801C79.236,56.801 79.929,56.312 79.929,55.537C79.929,54.741 79.46,54.416 77.747,54.17C75.441,53.844 74.36,53.048 74.36,50.947C74.36,48.825 75.992,47.601 78.726,47.601C80.399,47.601 81.542,47.784 82.398,48.069L82.398,50.437L80.746,50.437C80.399,49.803 79.746,49.395 78.624,49.395C77.522,49.395 76.91,49.845 76.91,50.518C76.91,51.17 77.298,51.558 79.114,51.824C81.704,52.211 82.765,52.925 82.765,55.088C82.765,57.19 81.358,58.557 78.114,58.557C76.176,58.557 75.115,58.271 74.237,57.985Z" style="fill:rgb(35,31,32);fill-rule:nonzero;"/>
        <path d="M120.418,71.414L117.422,71.414L117.422,72.422L123.946,72.422L123.946,71.414L123.134,71.414C122.574,71.414 121.986,70.882 121.762,70.266L115.714,52.822L110.45,52.822L110.45,53.858L111.99,53.858C112.606,53.858 112.914,54.278 112.69,54.894L107.146,70.35C106.922,70.966 106.39,71.414 105.746,71.414L104.99,71.414L104.99,72.422L111.206,72.422L111.206,71.414L109.638,71.414C108.546,71.414 108.35,70.714 108.77,69.566L110.03,66.01L118.542,66.01L120.418,71.414ZM114.286,54.11L114.426,54.11L118.15,64.89L110.45,64.89L114.286,54.11Z" style="fill:rgb(255,194,13);fill-rule:nonzero;"/>
        <path d="M128.118,72.422L129.658,72.422L133.466,60.13L133.494,60.13L137.246,72.422L138.786,72.422L142.51,59.85C142.706,59.178 143.21,58.87 143.742,58.87L144.33,58.87L144.33,57.806L139.178,57.806L139.178,58.87L140.298,58.87C141.054,58.87 141.362,59.402 141.138,60.186L138.198,70.294L138.142,70.294L134.334,57.806L132.934,57.806L129.126,70.294L129.07,70.294L125.71,58.87L127.95,58.87L127.95,57.806L122.546,57.806L122.546,58.87L123.218,58.87C123.75,58.87 124.198,59.262 124.394,59.906L128.118,72.422Z" style="fill:rgb(255,194,13);fill-rule:nonzero;"/>
        <path d="M149.649,72.562C151.805,72.562 153.317,71.666 154.437,70.266L154.437,70.574C154.437,71.946 155.277,72.534 156.677,72.534C157.265,72.534 157.769,72.366 157.937,72.282L157.937,71.358C157.937,71.358 157.545,71.442 157.209,71.442C156.425,71.442 156.061,71.078 156.061,70.21L156.061,61.726C156.061,58.59 154.045,57.666 151.077,57.666C148.641,57.666 146.905,58.254 145.757,58.898L145.757,60.27L146.569,60.27C147.409,59.514 148.781,58.814 150.937,58.814C153.009,58.814 154.437,59.514 154.437,61.866L154.437,64.498C153.289,64.19 152.057,64.05 150.629,64.05C147.241,64.05 144.805,65.366 144.805,68.306C144.805,71.218 146.765,72.562 149.649,72.562ZM149.873,71.442C147.689,71.442 146.373,70.518 146.373,68.306C146.373,66.038 148.137,65.114 150.909,65.114C152.169,65.114 153.345,65.282 154.437,65.534L154.437,69.062C153.317,70.434 152.057,71.442 149.873,71.442Z" style="fill:rgb(255,194,13);fill-rule:nonzero;"/>
        <path d="M159.112,72.422L165.468,72.422L165.468,71.414L162.78,71.414L162.78,61.726C164.236,60.102 165.524,59.122 167.68,59.122C167.932,59.122 168.324,59.15 168.324,59.15L168.324,57.806C168.24,57.778 167.988,57.722 167.624,57.722C165.412,57.722 163.9,59.206 162.78,60.662L162.78,58.814C162.78,58.002 162.612,57.806 162.276,57.806L158.972,57.806L158.972,58.87L160.344,58.87C160.764,58.87 161.156,59.318 161.156,59.71L161.156,70.602C161.156,71.022 160.764,71.414 160.344,71.414L159.112,71.414L159.112,72.422Z" style="fill:rgb(255,194,13);fill-rule:nonzero;"/>
        <path d="M175.156,72.534C177.648,72.534 179.44,71.218 180.532,69.706L180.532,71.498C180.56,72.114 180.672,72.422 180.952,72.422L184.228,72.422L184.228,71.414L182.968,71.414C182.576,71.414 182.156,70.994 182.156,70.574L182.156,53.326C182.156,53.018 182.044,52.822 181.764,52.822L178.068,52.822L178.068,53.858L180.532,53.858L180.532,59.766C179.58,58.646 177.984,57.666 175.604,57.666C172.496,57.666 169.024,59.57 169.024,65.282C169.024,70.91 172.132,72.534 175.156,72.534ZM175.352,71.442C173.196,71.442 170.676,70.266 170.676,65.226C170.676,60.186 173.448,58.898 175.856,58.898C178.124,58.898 179.328,59.626 180.532,60.886L180.532,68.558C179.328,70.126 177.732,71.442 175.352,71.442Z" style="fill:rgb(255,194,13);fill-rule:nonzero;"/>
        <path d="M190.528,72.534C194.28,72.534 196.044,70.938 196.044,68.138C196.044,65.534 194.308,64.694 191.228,64.19C188.596,63.742 187.448,63.266 187.448,61.446C187.448,59.794 188.624,58.786 191.032,58.786C192.404,58.786 193.02,58.87 193.636,59.122C194.224,59.374 194.364,59.794 194.504,60.942L195.568,60.942L195.568,58.366C194.672,58.002 193.412,57.666 191.06,57.666C187.812,57.666 185.992,59.122 185.992,61.642C185.992,64.33 187.7,65.058 190.528,65.534C193.188,65.982 194.532,66.542 194.532,68.334C194.532,70.406 193.104,71.47 190.5,71.47C189.044,71.47 188.344,71.302 187.644,71.05C187.084,70.826 186.888,70.322 186.776,68.978L185.684,68.978L185.684,71.722C186.608,72.086 187.924,72.534 190.528,72.534Z" style="fill:rgb(255,194,13);fill-rule:nonzero;"/>
        <path d="M202.315,72.422L214.579,72.422L214.579,67.858L213.347,67.858L213.123,71.078L203.827,71.078C203.883,68.222 206.319,66.402 209.007,64.722C212.143,62.762 214.859,61.222 214.859,57.806C214.859,54.558 212.843,52.682 208.783,52.682C206.655,52.682 204.835,53.074 203.211,53.746L203.211,57.106L204.331,57.106C204.471,55.594 204.695,54.95 205.199,54.614C205.955,54.082 207.131,53.83 208.755,53.83C211.779,53.83 213.095,55.314 213.095,57.834C213.095,60.578 210.743,61.95 208.083,63.714C205.283,65.562 202.315,67.606 202.315,71.33L202.315,72.422Z" style="fill:rgb(255,194,13);fill-rule:nonzero;"/>
        <path d="M224.883,72.562C229.195,72.562 232.863,69.258 232.863,62.622C232.863,55.986 229.195,52.682 224.883,52.682C220.571,52.682 216.875,55.986 216.875,62.622C216.875,69.258 220.571,72.562 224.883,72.562ZM224.883,71.386C221.243,71.386 218.667,68.642 218.667,62.65C218.667,56.658 221.243,53.858 224.883,53.858C228.495,53.858 231.071,56.658 231.071,62.65C231.071,68.642 228.495,71.386 224.883,71.386Z" style="fill:rgb(255,194,13);fill-rule:nonzero;"/>
        <path d="M233.871,72.422L246.135,72.422L246.135,67.858L244.903,67.858L244.679,71.078L235.383,71.078C235.439,68.222 237.875,66.402 240.563,64.722C243.699,62.762 246.415,61.222 246.415,57.806C246.415,54.558 244.399,52.682 240.339,52.682C238.211,52.682 236.391,53.074 234.767,53.746L234.767,57.106L235.887,57.106C236.027,55.594 236.251,54.95 236.755,54.614C237.511,54.082 238.687,53.83 240.311,53.83C243.335,53.83 244.651,55.314 244.651,57.834C244.651,60.578 242.299,61.95 239.639,63.714C236.839,65.562 233.871,67.606 233.871,71.33L233.871,72.422Z" style="fill:rgb(255,194,13);fill-rule:nonzero;"/>
        <path d="M256.439,72.562C260.751,72.562 264.419,69.258 264.419,62.622C264.419,55.986 260.751,52.682 256.439,52.682C252.127,52.682 248.431,55.986 248.431,62.622C248.431,69.258 252.127,72.562 256.439,72.562ZM256.439,71.386C252.799,71.386 250.223,68.642 250.223,62.65C250.223,56.658 252.799,53.858 256.439,53.858C260.051,53.858 262.627,56.658 262.627,62.65C262.627,68.642 260.051,71.386 256.439,71.386Z" style="fill:rgb(255,194,13);fill-rule:nonzero;"/>
        <path d="M25.401,78.854L34.332,78.854L34.332,75.53L33.435,75.53L33.272,77.875L26.502,77.875C26.543,75.795 28.317,74.47 30.274,73.247C32.558,71.819 34.536,70.698 34.536,68.21C34.536,65.845 33.068,64.478 30.111,64.478C28.562,64.478 27.236,64.764 26.054,65.253L26.054,67.7L26.869,67.7C26.971,66.599 27.134,66.13 27.501,65.885C28.052,65.498 28.908,65.315 30.091,65.315C32.293,65.315 33.252,66.395 33.252,68.23C33.252,70.229 31.539,71.228 29.602,72.512C27.562,73.858 25.401,75.347 25.401,78.059L25.401,78.854Z" style="fill:rgb(35,31,32);fill-rule:nonzero;"/>
        <path d="M41.836,78.956C44.976,78.956 47.648,76.55 47.648,71.717C47.648,66.885 44.976,64.478 41.836,64.478C38.696,64.478 36.004,66.885 36.004,71.717C36.004,76.55 38.696,78.956 41.836,78.956ZM41.836,78.1C39.185,78.1 37.309,76.101 37.309,71.738C37.309,67.374 39.185,65.335 41.836,65.335C44.467,65.335 46.342,67.374 46.342,71.738C46.342,76.101 44.467,78.1 41.836,78.1Z" style="fill:rgb(35,31,32);fill-rule:nonzero;"/>
        <path d="M48.381,78.854L57.312,78.854L57.312,75.53L56.415,75.53L56.252,77.875L49.482,77.875C49.523,75.795 51.297,74.47 53.254,73.247C55.538,71.819 57.516,70.698 57.516,68.21C57.516,65.845 56.048,64.478 53.091,64.478C51.542,64.478 50.216,64.764 49.034,65.253L49.034,67.7L49.849,67.7C49.951,66.599 50.114,66.13 50.481,65.885C51.032,65.498 51.888,65.315 53.071,65.315C55.273,65.315 56.232,66.395 56.232,68.23C56.232,70.229 54.519,71.228 52.582,72.512C50.542,73.858 48.381,75.347 48.381,78.059L48.381,78.854Z" style="fill:rgb(35,31,32);fill-rule:nonzero;"/>
        <path d="M64.816,78.956C67.956,78.956 70.628,76.55 70.628,71.717C70.628,66.885 67.956,64.479 64.816,64.479C61.676,64.479 58.984,66.885 58.984,71.717C58.984,76.55 61.676,78.956 64.816,78.956ZM64.816,78.1C62.165,78.1 60.289,76.101 60.289,71.738C60.289,67.374 62.165,65.335 64.816,65.335C67.447,65.335 69.323,67.374 69.323,71.738C69.323,76.101 67.447,78.1 64.816,78.1Z" style="fill:rgb(35,31,32);fill-rule:nonzero;"/>
        <path d="M105.033,97.013L109.475,97.013L109.85,95.36L109.404,95.36L109.038,96.526L105.672,96.526C105.945,95.482 106.949,94.772 108.024,94.204C109.404,93.474 110.702,92.936 110.702,91.466C110.702,90.492 110.002,89.864 108.694,89.864C107.963,89.864 107.375,90.006 106.868,90.249L106.574,91.466L107,91.466C107.183,90.918 107.284,90.675 107.548,90.523C107.811,90.371 108.105,90.28 108.663,90.28C109.616,90.28 110.063,90.776 110.063,91.486C110.063,92.744 108.978,93.129 107.7,93.859C106.432,94.589 105.418,95.37 105.114,96.638L105.033,97.013Z" style="fill:white;fill-rule:nonzero;"/>
        <path d="M112.851,97.064C114.362,97.064 115.488,96.161 115.488,94.823C115.488,94.093 115.082,93.515 114.291,93.261L114.291,93.241C115.285,93.038 115.934,92.358 115.934,91.425C115.934,90.553 115.285,89.864 114.028,89.864C112.77,89.864 111.746,90.695 111.746,91.851C111.746,92.429 112.06,92.916 112.659,93.149L112.659,93.17C111.462,93.373 110.61,94.194 110.61,95.31C110.61,96.283 111.351,97.064 112.851,97.064ZM112.872,96.638C111.746,96.638 111.239,96.05 111.239,95.269C111.239,94.204 112.111,93.433 113.257,93.433C114.383,93.433 114.87,94.011 114.87,94.802C114.87,95.888 114.079,96.638 112.872,96.638ZM113.642,93.007C112.75,93.007 112.355,92.531 112.355,91.902C112.355,90.918 113.034,90.29 114.008,90.29C114.92,90.29 115.326,90.787 115.326,91.456C115.326,92.419 114.616,93.007 113.642,93.007Z" style="fill:white;fill-rule:nonzero;"/>
        <path d="M123.023,96.648L121.948,96.648L121.867,97.013L124.2,97.013L124.281,96.648L123.956,96.648C123.753,96.648 123.611,96.466 123.591,96.243L122.891,89.914L120.975,89.914L120.883,90.29L121.492,90.29C121.715,90.29 121.735,90.442 121.614,90.655L118.409,96.273C118.277,96.496 118.034,96.648 117.801,96.648L117.537,96.648L117.456,97.013L119.758,97.013L119.839,96.648L119.23,96.648C118.835,96.648 118.865,96.405 119.099,95.989L119.839,94.691L122.81,94.691L123.023,96.648ZM122.293,90.391L122.354,90.391L122.77,94.285L120.072,94.285L122.293,90.391Z" style="fill:white;fill-rule:nonzero;"/>
        <path d="M124.027,98.656L126.197,98.656L126.268,98.311L125.396,98.311L125.812,96.476C126.106,96.739 126.522,97.003 127.404,97.003C128.094,97.003 128.773,96.78 129.3,96.232C129.899,95.614 130.335,94.488 130.335,93.383C130.335,92.156 129.716,91.669 128.864,91.669C127.901,91.669 127.171,92.257 126.643,92.876L126.704,92.592C126.856,91.943 126.542,91.679 126.086,91.679C125.832,91.679 125.548,91.76 125.477,91.791L125.406,92.105L125.792,92.105C126.045,92.105 126.187,92.308 126.126,92.561L124.879,98.027C124.848,98.169 124.686,98.311 124.534,98.311L124.108,98.311L124.027,98.656ZM127.303,96.608C126.572,96.608 126.197,96.395 125.893,96.121L126.532,93.342C127.079,92.774 127.85,92.105 128.692,92.105C129.29,92.105 129.736,92.419 129.736,93.444C129.736,94.508 129.392,95.431 128.895,95.959C128.449,96.415 127.901,96.608 127.303,96.608Z" style="fill:white;fill-rule:nonzero;"/>
        <path d="M131.186,97.013L131.562,97.013L132.403,93.362C132.961,92.734 133.549,92.196 134.33,92.196C134.422,92.196 134.533,92.206 134.533,92.206L134.645,91.72C134.614,91.709 134.523,91.689 134.391,91.689C133.61,91.689 132.992,92.277 132.505,92.876L132.566,92.632C132.728,91.973 132.424,91.679 131.957,91.679C131.714,91.679 131.42,91.76 131.349,91.791L131.278,92.105L131.663,92.105C131.917,92.105 132.059,92.308 131.998,92.561L131.045,96.719C130.994,96.912 131.065,97.013 131.186,97.013Z" style="fill:white;fill-rule:nonzero;"/>
        <path d="M135.527,97.054C135.832,97.054 135.994,96.993 136.075,96.952L136.146,96.648L135.832,96.648C135.598,96.648 135.416,96.435 135.477,96.192L136.308,92.571C136.45,91.973 136.227,91.679 135.71,91.679C135.385,91.679 135.142,91.77 135.071,91.791L135,92.105L135.406,92.105C135.649,92.105 135.791,92.308 135.73,92.561L134.899,96.161C134.767,96.719 135.02,97.054 135.527,97.054ZM136.42,90.969C136.623,90.969 136.835,90.787 136.835,90.553C136.835,90.351 136.683,90.178 136.45,90.178C136.237,90.178 136.044,90.361 136.044,90.594C136.044,90.797 136.197,90.969 136.42,90.969Z" style="fill:white;fill-rule:nonzero;"/>
        <path d="M137.839,97.054C138.113,97.054 138.316,96.983 138.397,96.952L138.468,96.648L138.103,96.648C137.88,96.648 137.708,96.435 137.768,96.192L139.178,90.097C139.198,89.975 139.168,89.914 139.067,89.914L137.819,89.914L137.728,90.29L138.245,90.29C138.397,90.29 138.509,90.442 138.478,90.584L137.19,96.161C137.059,96.719 137.312,97.054 137.839,97.054Z" style="fill:white;fill-rule:nonzero;"/>
        <path d="M140.607,97.013L145.049,97.013L145.424,95.36L144.978,95.36L144.613,96.527L141.246,96.527C141.52,95.482 142.524,94.772 143.599,94.204C144.978,93.474 146.276,92.937 146.276,91.466C146.276,90.493 145.577,89.864 144.268,89.864C143.538,89.864 142.95,90.006 142.443,90.249L142.149,91.466L142.575,91.466C142.757,90.918 142.859,90.675 143.122,90.523C143.386,90.371 143.68,90.28 144.238,90.28C145.191,90.28 145.637,90.776 145.637,91.486C145.637,92.744 144.552,93.129 143.275,93.859C142.007,94.59 140.993,95.37 140.689,96.638L140.607,97.013Z" style="fill:white;fill-rule:nonzero;"/>
        <path d="M148.903,97.064C149.826,97.064 150.718,96.658 151.377,95.867C152.016,95.086 152.432,93.92 152.432,92.5C152.432,90.878 151.58,89.864 150.079,89.864C149.116,89.864 148.213,90.351 147.554,91.202C146.936,91.993 146.54,93.109 146.54,94.417C146.54,96.07 147.422,97.064 148.903,97.064ZM148.913,96.638C147.757,96.638 147.169,95.827 147.169,94.488C147.169,93.352 147.473,92.247 148.031,91.476C148.568,90.736 149.248,90.29 150.069,90.29C151.225,90.29 151.803,91.121 151.803,92.44C151.803,93.697 151.499,94.813 150.952,95.563C150.434,96.263 149.745,96.638 148.913,96.638Z" style="fill:white;fill-rule:nonzero;"/>
        <path d="M152.006,97.013L156.448,97.013L156.823,95.36L156.377,95.36L156.012,96.527L152.645,96.527C152.919,95.482 153.923,94.772 154.998,94.204C156.377,93.474 157.675,92.937 157.675,91.466C157.675,90.493 156.976,89.864 155.667,89.864C154.937,89.864 154.349,90.006 153.842,90.249L153.548,91.466L153.974,91.466C154.156,90.918 154.258,90.675 154.521,90.523C154.785,90.371 155.079,90.28 155.637,90.28C156.59,90.28 157.036,90.777 157.036,91.486C157.036,92.744 155.951,93.129 154.674,93.859C153.406,94.59 152.392,95.37 152.088,96.638L152.006,97.013Z" style="fill:white;fill-rule:nonzero;"/>
        <path d="M157.178,97.013L160.068,97.013L160.149,96.648L159.348,96.648C159.176,96.648 159.095,96.476 159.125,96.314L160.596,89.915L160.16,89.915L158.598,90.614L158.517,91L158.73,91L159.845,90.482L158.507,96.314C158.466,96.476 158.263,96.648 158.091,96.648L157.259,96.648L157.178,97.013Z" style="fill:white;fill-rule:nonzero;"/>
        <path d="M164.247,95.137C164.987,95.137 165.585,94.62 165.585,93.778C165.585,93.16 165.139,92.784 164.53,92.784C163.81,92.784 163.172,93.312 163.172,94.123C163.172,94.752 163.638,95.137 164.247,95.137Z" style="fill:white;fill-rule:nonzero;"/>
        <path d="M169.043,97.013L171.416,97.013L171.498,96.648L170.93,96.648C170.747,96.648 170.666,96.476 170.707,96.314L172.086,90.31L174.084,90.31L173.82,91.852L174.256,91.852L174.712,89.915L169.023,89.915L168.577,91.852L169.023,91.852L169.469,90.31L171.467,90.31L170.088,96.314C170.047,96.476 169.845,96.648 169.672,96.648L169.125,96.648L169.043,97.013Z" style="fill:white;fill-rule:nonzero;"/>
        <path d="M178.657,97.054C178.952,97.054 179.134,96.983 179.205,96.952L179.276,96.648L178.972,96.648C178.739,96.648 178.576,96.435 178.637,96.172L179.357,93.038C179.56,92.156 179.154,91.669 178.394,91.669C177.461,91.669 176.548,92.267 175.919,92.845L176.558,90.097C176.589,89.975 176.548,89.915 176.447,89.915L175.26,89.915L175.169,90.29L175.666,90.29C175.808,90.29 175.889,90.442 175.859,90.584L174.449,96.719C174.398,96.912 174.469,97.013 174.591,97.013L174.966,97.013L175.828,93.261C176.477,92.703 177.359,92.146 178.181,92.146C178.668,92.146 178.911,92.45 178.759,93.099L178.049,96.182C177.927,96.719 178.191,97.054 178.657,97.054Z" style="fill:white;fill-rule:nonzero;"/>
        <path d="M182.227,97.054C183.18,97.054 183.707,96.719 184.032,96.476L184.143,96.03L183.799,96.03C183.515,96.334 183.109,96.669 182.257,96.669C181.314,96.669 180.888,95.989 180.888,95.026C180.888,94.904 180.898,94.742 180.908,94.64C183.505,94.6 184.823,94.062 184.823,92.855C184.823,92.014 184.174,91.669 183.352,91.669C181.659,91.669 180.3,93.139 180.3,95.016C180.3,96.212 180.929,97.054 182.227,97.054ZM180.959,94.255C181.213,93.129 182.014,92.054 183.332,92.054C183.829,92.054 184.245,92.257 184.245,92.876C184.245,93.839 183.17,94.214 180.959,94.255Z" style="fill:white;fill-rule:nonzero;"/>
        <path d="M189.356,97.013L189.955,97.013L193.697,90.675C193.828,90.452 194.072,90.29 194.295,90.29L194.528,90.29L194.619,89.915L192.429,89.915L192.338,90.29L192.895,90.29C193.261,90.29 193.291,90.482 193.048,90.888L189.894,96.243L189.863,96.243L189.123,90.29L190.147,90.29L190.238,89.915L187.997,89.915L187.906,90.29L188.2,90.29C188.393,90.29 188.535,90.482 188.555,90.695L189.356,97.013Z" style="fill:white;fill-rule:nonzero;"/>
        <path d="M196.678,97.064C198.635,97.064 200.46,95.259 200.46,92.632C200.46,90.878 199.396,89.864 197.733,89.864C195.765,89.864 193.96,91.71 193.96,94.306C193.96,96.06 195.005,97.064 196.678,97.064ZM196.708,96.638C195.36,96.638 194.599,95.827 194.599,94.336C194.599,91.943 196.029,90.29 197.702,90.29C199.051,90.29 199.822,91.121 199.822,92.602C199.822,94.975 198.382,96.638 196.708,96.638Z" style="fill:white;fill-rule:nonzero;"/>
        <path d="M199.7,97.013L201.87,97.013L201.941,96.648L201.403,96.648C201.18,96.648 201.13,96.435 201.343,96.182L203.452,93.748L204.679,96.648L203.736,96.648L203.665,97.013L205.855,97.013L205.936,96.648L205.642,96.648C205.49,96.648 205.298,96.516 205.206,96.303L203.979,93.413L206.352,90.635C206.504,90.462 206.809,90.29 206.94,90.29L207.407,90.29L207.498,89.915L205.287,89.915L205.196,90.29L205.612,90.29C205.845,90.29 205.916,90.472 205.673,90.766L203.787,93.018L202.63,90.29L203.482,90.29L203.574,89.915L201.343,89.915L201.251,90.29L201.677,90.29C201.85,90.29 202.012,90.412 202.103,90.635L203.259,93.363L200.612,96.364C200.47,96.516 200.186,96.648 200.044,96.648L199.781,96.648L199.7,97.013Z" style="fill:white;fill-rule:nonzero;"/>
        <path d="M206.16,97.957C206.839,97.875 207.397,97.46 207.397,96.689C207.397,96.395 207.204,96.233 206.981,96.233C206.748,96.233 206.555,96.405 206.555,96.669C206.555,96.78 206.606,96.882 206.687,96.942C206.768,97.003 206.819,97.044 206.819,97.125C206.819,97.399 206.535,97.581 206.231,97.642L206.16,97.957Z" style="fill:white;fill-rule:nonzero;"/>
        <path d="M209.729,97.013L212.741,97.013C214.526,97.013 215.57,96.121 215.57,94.711C215.57,93.86 214.992,93.434 214.171,93.312L214.171,93.292C215.236,93.099 215.895,92.48 215.895,91.385C215.895,90.381 215.114,89.915 213.897,89.915L211.372,89.915L211.281,90.29L211.798,90.29C211.97,90.29 212.051,90.472 212.011,90.635L210.713,96.314C210.672,96.476 210.459,96.648 210.277,96.648L209.81,96.648L209.729,97.013ZM211.26,96.628L211.98,93.494L213.268,93.494C214.363,93.494 214.931,93.88 214.931,94.701C214.931,95.766 214.323,96.628 212.731,96.628L211.26,96.628ZM212.072,93.099L212.71,90.32L213.846,90.32C214.708,90.32 215.266,90.635 215.256,91.436C215.246,92.419 214.708,93.099 213.278,93.099L212.072,93.099Z" style="fill:white;fill-rule:nonzero;"/>
        <path d="M217.234,97.054C217.538,97.054 217.7,96.993 217.782,96.953L217.853,96.648L217.538,96.648C217.305,96.648 217.122,96.435 217.183,96.192L218.015,92.572C218.157,91.973 217.934,91.679 217.417,91.679C217.092,91.679 216.849,91.77 216.778,91.791L216.707,92.105L217.112,92.105C217.356,92.105 217.498,92.308 217.437,92.561L216.605,96.162C216.473,96.719 216.727,97.054 217.234,97.054ZM218.126,90.969C218.329,90.969 218.542,90.787 218.542,90.554C218.542,90.351 218.39,90.178 218.157,90.178C217.944,90.178 217.751,90.361 217.751,90.594C217.751,90.797 217.903,90.969 218.126,90.969Z" style="fill:white;fill-rule:nonzero;"/>
        <path d="M219.11,97.013L219.485,97.013L220.326,93.363C220.884,92.734 221.472,92.196 222.253,92.196C222.345,92.196 222.456,92.207 222.456,92.207L222.568,91.72C222.537,91.71 222.446,91.689 222.314,91.689C221.533,91.689 220.915,92.278 220.428,92.876L220.489,92.632C220.651,91.973 220.347,91.679 219.88,91.679C219.637,91.679 219.343,91.76 219.272,91.791L219.201,92.105L219.586,92.105C219.84,92.105 219.982,92.308 219.921,92.561L218.968,96.719C218.917,96.912 218.988,97.013 219.11,97.013Z" style="fill:white;fill-rule:nonzero;"/>
        <path d="M230.031,97.054C230.346,97.054 230.508,96.983 230.589,96.953L230.66,96.648L230.346,96.648C230.113,96.648 229.94,96.435 230.001,96.192L230.731,93.038C230.924,92.186 230.538,91.669 229.778,91.669C228.855,91.669 228.044,92.278 227.445,92.835C227.527,92.105 227.151,91.669 226.482,91.669C225.559,91.669 224.728,92.288 224.17,92.805L224.231,92.541C224.363,91.973 224.068,91.679 223.622,91.679C223.328,91.679 223.054,91.77 222.993,91.791L222.922,92.105L223.308,92.105C223.561,92.105 223.703,92.308 223.642,92.561L222.689,96.719C222.639,96.912 222.71,97.013 222.831,97.013L223.206,97.013L224.079,93.211C224.687,92.714 225.448,92.146 226.208,92.146C226.736,92.146 226.979,92.45 226.807,93.18L225.995,96.719C225.945,96.912 226.016,97.013 226.137,97.013L226.512,97.013L227.385,93.221C228.003,92.714 228.743,92.146 229.565,92.146C230.031,92.146 230.285,92.43 230.113,93.17L229.433,96.111C229.301,96.679 229.545,97.054 230.031,97.054Z" style="fill:white;fill-rule:nonzero;"/>
        <path d="M232.476,97.054C232.78,97.054 232.943,96.993 233.024,96.953L233.095,96.648L232.78,96.648C232.547,96.648 232.365,96.435 232.425,96.192L233.257,92.572C233.399,91.973 233.176,91.679 232.659,91.679C232.334,91.679 232.091,91.77 232.02,91.791L231.949,92.105L232.355,92.105C232.598,92.105 232.74,92.308 232.679,92.561L231.847,96.162C231.716,96.719 231.969,97.054 232.476,97.054ZM233.369,90.969C233.571,90.969 233.784,90.787 233.784,90.554C233.784,90.351 233.632,90.178 233.399,90.178C233.186,90.178 232.993,90.361 232.993,90.594C232.993,90.797 233.146,90.969 233.369,90.969Z" style="fill:white;fill-rule:nonzero;"/>
        <path d="M238.418,97.054C238.723,97.054 238.895,96.983 238.966,96.953L239.037,96.648L238.733,96.648C238.499,96.648 238.337,96.435 238.398,96.172L239.118,93.038C239.321,92.156 238.915,91.669 238.155,91.669C237.222,91.669 236.309,92.267 235.68,92.845L235.741,92.592C235.893,91.963 235.589,91.679 235.133,91.679C234.879,91.679 234.585,91.77 234.514,91.791L234.443,92.105L234.828,92.105C235.082,92.105 235.224,92.308 235.163,92.561L234.21,96.719C234.159,96.912 234.23,97.013 234.352,97.013L234.727,97.013L235.589,93.261C236.238,92.703 237.12,92.146 237.952,92.146C238.428,92.146 238.672,92.45 238.52,93.099L237.81,96.182C237.688,96.719 237.952,97.054 238.418,97.054Z" style="fill:white;fill-rule:nonzero;"/>
        <path d="M241.258,98.727C243.043,98.727 243.804,97.967 243.804,96.963C243.804,96.212 243.317,95.797 242.425,95.797L241.157,95.797C240.873,95.797 240.68,95.655 240.68,95.421C240.68,95.117 240.904,94.914 241.177,94.762C241.4,94.874 241.695,94.955 242.09,94.955C243.246,94.955 244.098,94.184 244.098,93.058C244.098,92.764 244.007,92.501 243.844,92.288C243.855,92.166 243.956,92.105 244.057,92.105L244.737,92.105L244.818,91.72L242.972,91.72C242.82,91.689 242.638,91.669 242.486,91.669C241.34,91.669 240.457,92.491 240.457,93.565C240.457,93.991 240.609,94.346 240.904,94.59C240.538,94.782 240.163,95.076 240.163,95.553C240.163,95.868 240.346,96.07 240.538,96.151C239.839,96.446 239.24,96.821 239.24,97.541C239.24,98.19 239.869,98.727 241.258,98.727ZM241.269,98.322C240.183,98.322 239.808,97.926 239.808,97.48C239.808,96.942 240.275,96.547 240.893,96.314L242.242,96.314C242.881,96.314 243.246,96.517 243.246,97.095C243.246,97.744 242.678,98.322 241.269,98.322ZM242.08,94.569C241.35,94.569 241.025,94.144 241.025,93.596C241.025,92.703 241.624,92.054 242.465,92.054C243.185,92.054 243.54,92.47 243.54,93.038C243.54,93.991 242.952,94.569 242.08,94.569Z" style="fill:white;fill-rule:nonzero;"/>
        <path d="M248.976,97.054C249.27,97.054 249.453,96.983 249.524,96.953L249.595,96.648L249.29,96.648C249.057,96.648 248.895,96.435 248.956,96.172L249.676,93.038C249.879,92.156 249.473,91.669 248.712,91.669C247.779,91.669 246.867,92.267 246.238,92.845L246.877,90.097C246.907,89.976 246.867,89.915 246.765,89.915L245.579,89.915L245.487,90.29L245.984,90.29C246.126,90.29 246.207,90.442 246.177,90.584L244.767,96.719C244.717,96.912 244.788,97.013 244.909,97.013L245.285,97.013L246.147,93.261C246.796,92.703 247.678,92.146 248.499,92.146C248.986,92.146 249.23,92.45 249.077,93.099L248.368,96.182C248.246,96.719 248.509,97.054 248.976,97.054Z" style="fill:white;fill-rule:nonzero;"/>
        <path d="M254.219,97.054C254.432,97.054 254.645,96.983 254.716,96.953L254.787,96.628C254.685,96.648 254.574,96.659 254.462,96.659C254.188,96.659 254.067,96.466 254.127,96.192L254.787,93.373C255.05,92.227 254.3,91.669 253.235,91.669C252.353,91.669 251.866,91.841 251.42,92.054L251.308,92.551L251.602,92.551C251.967,92.267 252.373,92.085 253.144,92.085C253.904,92.085 254.401,92.491 254.198,93.353L253.985,94.245C253.62,94.083 253.215,93.981 252.647,93.981C251.318,93.981 250.406,94.559 250.406,95.766C250.406,96.547 250.994,97.064 251.866,97.064C252.616,97.064 253.134,96.709 253.57,96.202C253.448,96.719 253.701,97.054 254.219,97.054ZM251.937,96.659C251.359,96.659 250.963,96.314 250.963,95.726C250.963,94.782 251.623,94.367 252.637,94.367C253.164,94.367 253.549,94.458 253.904,94.61L253.651,95.736C253.235,96.233 252.697,96.659 251.937,96.659Z" style="fill:white;fill-rule:nonzero;"/>
        <path d="M263.081,97.054C263.396,97.054 263.558,96.983 263.639,96.953L263.71,96.648L263.396,96.648C263.162,96.648 262.99,96.435 263.051,96.192L263.781,93.038C263.974,92.186 263.588,91.669 262.828,91.669C261.905,91.669 261.094,92.278 260.495,92.835C260.576,92.105 260.201,91.669 259.532,91.669C258.609,91.669 257.777,92.288 257.22,92.805L257.281,92.541C257.412,91.973 257.118,91.679 256.672,91.679C256.378,91.679 256.104,91.771 256.043,91.791L255.972,92.105L256.358,92.105C256.611,92.105 256.753,92.308 256.692,92.562L255.739,96.719C255.688,96.912 255.759,97.013 255.881,97.013L256.256,97.013L257.128,93.211C257.737,92.714 258.497,92.146 259.258,92.146C259.785,92.146 260.029,92.45 259.856,93.18L259.045,96.719C258.994,96.912 259.065,97.013 259.187,97.013L259.562,97.013L260.434,93.221C261.053,92.714 261.793,92.146 262.615,92.146C263.081,92.146 263.335,92.43 263.162,93.17L262.483,96.111C262.351,96.679 262.594,97.054 263.081,97.054Z" style="fill:white;fill-rule:nonzero;"/>
    </g>
    <defs>
        <linearGradient id="_Linear1" x1="0" y1="0" x2="1" y2="0" gradientUnits="userSpaceOnUse" gradientTransform="matrix(73.2602,-73.2602,73.2602,73.2602,11.5113,75.7744)"><stop offset="0" style="stop-color:rgb(251,202,37);stop-opacity:1"/><stop offset="0.2" style="stop-color:rgb(255,239,171);stop-opacity:1"/><stop offset="0.3" style="stop-color:rgb(250,239,186);stop-opacity:1"/><stop offset="0.6" style="stop-color:rgb(195,148,47);stop-opacity:1"/><stop offset="0.9" style="stop-color:rgb(243,223,151);stop-opacity:1"/><stop offset="1" style="stop-color:rgb(255,251,204);stop-opacity:1"/></linearGradient>
    </defs>
</svg>
