<?xml version="1.0" encoding="UTF-8" standalone="no"?>
<!DOCTYPE svg PUBLIC "-//W3C//DTD SVG 1.1//EN" "http://www.w3.org/Graphics/SVG/1.1/DTD/svg11.dtd">
<svg width="100%" height="100%" viewBox="0 0 600 310" version="1.1" xmlns="http://www.w3.org/2000/svg" xmlns:xlink="http://www.w3.org/1999/xlink" xml:space="preserve" xmlns:serif="http://www.serif.com/" style="fill-rule:evenodd;clip-rule:evenodd;stroke-linejoin:round;stroke-miterlimit:2;">
    <g transform="matrix(0.603685,0,0,0.603685,170.474,-0.293995)">
        <g id="Colour">
            <g id="Nebosh-logo_CMYK" serif:id="Nebosh logo_CMYK">
                <g id="Colour1" serif:id="Colour">
                    <g id="Nebosh-logo_CMYK1" serif:id="Nebosh logo_CMYK">
                        <g>
                            <g>
                                <path d="M64.971,512.796L46.81,512.796C50.08,510.043 50.424,507.288 50.424,502.984L50.424,484.825C50.424,480.432 50.08,477.765 46.81,475.012L56.966,475.012C58.257,475.012 59.118,474.839 60.065,473.805L60.065,478.884C63.937,475.958 69.274,473.719 76.418,473.719C87.952,473.719 93.46,478.713 93.46,488.868L93.46,502.984C93.46,507.288 93.632,510.043 96.989,512.796L78.914,512.796C82.185,510.043 82.443,507.374 82.443,502.984L82.443,492.914C82.443,484.909 80.721,480.777 73.405,480.777C65.4,480.777 61.356,484.995 61.356,493.344L61.356,502.984C61.356,507.288 61.614,510.043 64.971,512.796Z" style="fill:rgb(4,63,136);fill-rule:nonzero;"/>
                                <path d="M143.481,512.966C140.124,512.966 134.788,514 127.644,514C113.356,514 106.126,507.201 106.126,494.378C106.126,481.637 114.733,473.719 128.677,473.719C142.448,473.719 149.678,480.604 149.678,493.861C149.678,495.322 149.592,496.786 149.419,498.336C148.215,497.561 147.096,497.474 145.891,497.474L117.832,497.474C117.918,503.501 122.135,506.168 131.087,506.168C137.111,506.168 142.104,505.05 147.01,502.122L147.01,513.312C145.547,513.138 144.427,512.966 143.481,512.966ZM138.058,490.331C137.886,484.478 134.529,481.466 127.988,481.466C121.447,481.466 118.004,484.392 117.832,490.331L138.058,490.331Z" style="fill:rgb(4,63,136);fill-rule:nonzero;"/>
                                <path d="M188.075,473.719C201.416,473.719 208.905,480.949 208.905,493.861C208.905,505.91 200.556,514 188.936,514C181.62,514 176.283,512.279 172.668,508.579C172.497,512.625 171.464,512.796 167.762,512.796L159.672,512.796C162.599,510.384 163.114,507.632 163.114,503.155L163.114,471.741C163.114,467.608 162.856,464.941 159.5,461.586L174.821,461.586C174.132,462.1 174.046,462.617 174.046,463.391L174.046,479.142C177.402,475.527 182.136,473.719 188.075,473.719ZM197.457,493.861C197.457,485.424 193.411,481.035 186.353,481.035C179.038,481.035 174.476,485.856 174.476,493.861C174.476,502.296 178.522,506.771 185.58,506.771C192.982,506.771 197.457,501.779 197.457,493.861Z" style="fill:rgb(4,63,136);fill-rule:nonzero;"/>
                                <path d="M244.154,473.719C258.702,473.719 266.707,480.949 266.707,493.861C266.707,505.996 257.583,514 241.745,514C227.284,514 219.193,506.684 219.193,494.205C219.193,481.551 228.317,473.719 244.154,473.719ZM230.986,494.462C230.986,502.038 235.202,506.255 242.604,506.255C250.438,506.255 254.912,501.605 254.912,493.861C254.912,485.77 250.869,481.466 243.552,481.466C235.633,481.466 230.986,486.113 230.986,494.462Z" style="fill:rgb(4,63,136);fill-rule:nonzero;"/>
                                <path d="M298.542,506.255C303.534,506.255 306.201,504.534 306.201,502.038C306.201,499.283 303.104,498.25 297.508,497.735C283.393,496.53 276.505,494.98 276.505,486.028C276.505,477.765 283.736,473.719 298.454,473.719C304.737,473.719 310.333,475.012 315.152,475.012L316.357,475.012L313.429,484.825C307.232,482.499 301.382,481.121 295.529,481.121C290.88,481.121 288.299,482.928 288.299,485.34C288.299,488.783 291.913,488.695 297.766,489.214C311.364,490.417 317.992,492.309 317.992,500.917C317.992,509.009 310.762,514 297.249,514C290.967,514 286.061,512.882 282.531,512.882C281.5,512.882 280.381,513.052 279.09,513.398L276.505,501.433C284.684,504.62 291.998,506.255 298.542,506.255Z" style="fill:rgb(4,63,136);fill-rule:nonzero;"/>
                                <path d="M341.746,503.929C341.746,507.374 341.92,509.955 345.275,512.796L327.115,512.796C330.129,510.384 330.817,507.632 330.817,502.984L330.817,471.741C330.817,467.264 330.215,464.681 327.115,461.586L342.437,461.586C341.834,462.186 341.746,462.962 341.746,463.906L341.746,479.142C344.589,476.044 349.063,473.719 356.468,473.719C368.172,473.719 373.767,478.625 373.767,488.868L373.767,502.984C373.767,507.288 373.938,510.043 377.296,512.796L359.221,512.796C362.49,510.043 362.748,507.374 362.748,502.984L362.748,492.914C362.748,484.909 361.026,480.777 353.711,480.777C345.622,480.777 341.746,484.995 341.746,493.344L341.746,503.929Z" style="fill:rgb(4,63,136);fill-rule:nonzero;"/>
                                <path d="M328.324,223.673C326.373,223.673 324.791,222.091 324.791,220.139C324.791,218.188 326.373,216.606 328.324,216.606C330.277,216.606 331.859,218.188 331.859,220.139C331.859,222.091 330.277,223.673 328.324,223.673ZM325.421,245.638C324.19,245.638 323.196,244.641 323.196,243.413C323.196,242.184 324.19,241.189 325.421,241.189C326.649,241.189 327.645,242.184 327.645,243.413C327.645,244.641 326.649,245.638 325.421,245.638ZM318.681,177.522C317.452,177.522 316.455,176.525 316.455,175.297C316.455,174.068 317.452,173.072 318.681,173.072C319.909,173.072 320.904,174.068 320.904,175.297C320.904,176.525 319.909,177.522 318.681,177.522ZM318.681,267.118C317.452,267.118 316.455,266.121 316.455,264.892C316.455,263.664 317.452,262.669 318.681,262.669C319.909,262.669 320.904,263.664 320.904,264.892C320.904,266.121 319.909,267.118 318.681,267.118ZM312.105,249.263C310.037,249.263 308.36,247.587 308.36,245.518C308.36,243.45 310.037,241.774 312.105,241.774C314.172,241.774 315.851,243.45 315.851,245.518C315.851,247.587 314.172,249.263 312.105,249.263ZM306.555,270.822C304.971,270.822 303.685,269.536 303.685,267.95C303.685,266.367 304.971,265.081 306.555,265.081C308.14,265.081 309.426,266.367 309.426,267.95C309.426,269.536 308.14,270.822 306.555,270.822ZM303.656,292.481C302.427,292.481 301.432,291.484 301.432,290.255C301.432,289.029 302.427,288.031 303.656,288.031C304.886,288.031 305.882,289.029 305.882,290.255C305.882,291.484 304.886,292.481 303.656,292.481ZM294.128,226.731C290.493,226.731 287.546,223.782 287.546,220.147C287.546,216.511 290.493,213.564 294.128,213.564C297.764,213.564 300.713,216.511 300.713,220.147C300.713,223.782 297.764,226.731 294.128,226.731ZM293.225,253.841C289.912,253.841 287.227,251.155 287.227,247.843C287.227,244.53 289.912,241.843 293.225,241.843C296.539,241.843 299.222,244.53 299.222,247.843C299.222,251.155 296.539,253.841 293.225,253.841ZM291.002,275.713C288.434,275.713 286.354,273.631 286.354,271.064C286.354,268.498 288.434,266.417 291.002,266.417C293.567,266.417 295.647,268.498 295.647,271.064C295.647,273.631 293.567,275.713 291.002,275.713ZM287.415,297.428C285.437,297.428 283.833,295.822 283.833,293.842C283.833,291.862 285.437,290.257 287.415,290.257C289.396,290.257 291.002,291.862 291.002,293.842C291.002,295.822 289.396,297.428 287.415,297.428ZM283.195,313.001C281.966,313.001 280.973,312.004 280.973,310.776C280.973,309.547 281.966,308.55 283.195,308.55C284.425,308.55 285.421,309.547 285.421,310.776C285.421,312.004 284.425,313.001 283.195,313.001ZM270.414,228.558C265.76,228.558 261.987,224.785 261.987,220.131C261.987,215.476 265.76,211.704 270.414,211.704C275.07,211.704 278.842,215.476 278.842,220.131C278.842,224.785 275.07,228.558 270.414,228.558ZM270.183,256.257C266.619,256.257 263.729,253.367 263.729,249.803C263.729,246.241 266.619,243.352 270.183,243.352C273.744,243.352 276.634,246.241 276.634,249.803C276.634,253.367 273.744,256.257 270.183,256.257ZM267.98,280.222C264.789,280.222 262.201,277.636 262.201,274.445C262.201,271.254 264.789,268.668 267.98,268.668C271.169,268.668 273.757,271.254 273.757,274.445C273.757,277.636 271.169,280.222 267.98,280.222ZM264.556,301.68C262.185,301.68 260.264,299.758 260.264,297.386C260.264,295.015 262.185,293.094 264.556,293.094C266.929,293.094 268.85,295.015 268.85,297.386C268.85,299.758 266.929,301.68 264.556,301.68ZM261.805,316.19C260.015,316.19 258.562,314.737 258.562,312.947C258.562,311.157 260.015,309.706 261.805,309.706C263.597,309.706 265.049,311.157 265.049,312.947C265.049,314.737 263.597,316.19 261.805,316.19ZM258.415,327.396C257.185,327.396 256.189,326.397 256.189,325.171C256.189,323.942 257.185,322.946 258.415,322.946C259.644,322.946 260.639,323.942 260.639,325.171C260.639,326.397 259.644,327.396 258.415,327.396ZM243.64,231.066C237.603,231.066 232.706,226.17 232.706,220.131C232.706,214.093 237.603,209.197 243.64,209.197C249.677,209.197 254.575,214.093 254.575,220.131C254.575,226.17 249.677,231.066 243.64,231.066ZM244.658,258.382C240.649,258.382 237.403,255.133 237.403,251.129C237.403,247.122 240.649,243.874 244.658,243.874C248.663,243.874 251.911,247.122 251.911,251.129C251.911,255.133 248.663,258.382 244.658,258.382ZM243.346,283.006C239.839,283.006 236.996,280.161 236.996,276.654C236.996,273.15 239.839,270.307 243.346,270.307C246.852,270.307 249.694,273.15 249.694,276.654C249.694,280.161 246.852,283.006 243.346,283.006ZM241.315,305.257C238.198,305.257 235.673,302.731 235.673,299.614C235.673,296.497 238.198,293.97 241.315,293.97C244.434,293.97 246.959,296.497 246.959,299.614C246.959,302.731 244.434,305.257 241.315,305.257ZM239.011,322.753C236.728,322.753 234.874,320.902 234.874,318.617C234.874,316.334 236.728,314.483 239.011,314.483C241.295,314.483 243.148,316.334 243.148,318.617C243.148,320.902 241.295,322.753 239.011,322.753ZM236.912,334.079C235.686,334.079 234.688,333.082 234.688,331.852C234.688,330.625 235.686,329.628 236.912,329.628C238.143,329.628 239.138,330.625 239.138,331.852C239.138,333.082 238.143,334.079 236.912,334.079ZM236.912,106.111C238.143,106.111 239.138,107.107 239.138,108.337C239.138,109.565 238.143,110.561 236.912,110.561C235.686,110.561 234.688,109.565 234.688,108.337C234.688,107.107 235.686,106.111 236.912,106.111ZM243.148,121.572C243.148,123.856 241.295,125.707 239.011,125.707C236.728,125.707 234.874,123.856 234.874,121.572C234.874,119.288 236.728,117.436 239.011,117.436C241.295,117.436 243.148,119.288 243.148,121.572ZM246.959,140.575C246.959,143.692 244.434,146.218 241.315,146.218C238.198,146.218 235.673,143.692 235.673,140.575C235.673,137.458 238.198,134.931 241.315,134.931C244.434,134.931 246.959,137.458 246.959,140.575ZM249.694,163.533C249.694,167.04 246.852,169.883 243.346,169.883C239.839,169.883 236.996,167.04 236.996,163.533C236.996,160.027 239.839,157.184 243.346,157.184C246.852,157.184 249.694,160.027 249.694,163.533ZM251.911,189.061C251.911,193.068 248.663,196.316 244.658,196.316C240.649,196.316 237.403,193.068 237.403,189.061C237.403,185.055 240.649,181.807 244.658,181.807C248.663,181.807 251.911,185.055 251.911,189.061ZM270.183,183.933C273.744,183.933 276.634,186.822 276.634,190.386C276.634,193.948 273.744,196.838 270.183,196.838C266.619,196.838 263.729,193.948 263.729,190.386C263.729,186.822 266.619,183.933 270.183,183.933ZM267.98,159.966C271.169,159.966 273.757,162.553 273.757,165.744C273.757,168.935 271.169,171.521 267.98,171.521C264.789,171.521 262.201,168.935 262.201,165.744C262.201,162.553 264.789,159.966 267.98,159.966ZM264.556,138.509C266.929,138.509 268.85,140.431 268.85,142.802C268.85,145.174 266.929,147.095 264.556,147.095C262.185,147.095 260.264,145.174 260.264,142.802C260.264,140.431 262.185,138.509 264.556,138.509ZM261.805,123.999C263.597,123.999 265.049,125.45 265.049,127.241C265.049,129.031 263.597,130.484 261.805,130.484C260.015,130.484 258.562,129.031 258.562,127.241C258.562,125.45 260.015,123.999 261.805,123.999ZM258.415,112.793C259.644,112.793 260.639,113.79 260.639,115.018C260.639,116.247 259.644,117.244 258.415,117.244C257.185,117.244 256.189,116.247 256.189,115.018C256.189,113.79 257.185,112.793 258.415,112.793ZM293.225,186.347C296.539,186.347 299.222,189.034 299.222,192.346C299.222,195.659 296.539,198.346 293.225,198.346C289.912,198.346 287.227,195.659 287.227,192.346C287.227,189.034 289.912,186.347 293.225,186.347ZM291.002,164.477C293.567,164.477 295.647,166.558 295.647,169.125C295.647,171.692 293.567,173.773 291.002,173.773C288.434,173.773 286.354,171.692 286.354,169.125C286.354,166.558 288.434,164.477 291.002,164.477ZM283.195,131.639C281.966,131.639 280.973,130.642 280.973,129.413C280.973,128.185 281.966,127.188 283.195,127.188C284.425,127.188 285.421,128.185 285.421,129.413C285.421,130.642 284.425,131.639 283.195,131.639ZM287.415,142.761C289.396,142.761 291.002,144.366 291.002,146.346C291.002,148.326 289.396,149.932 287.415,149.932C285.437,149.932 283.833,148.326 283.833,146.346C283.833,144.366 285.437,142.761 287.415,142.761ZM318.076,220.143C318.076,222.939 315.809,225.206 313.011,225.206C310.215,225.206 307.948,222.939 307.948,220.143C307.948,217.347 310.215,215.08 313.011,215.08C315.809,215.08 318.076,217.347 318.076,220.143ZM312.105,198.416C310.037,198.416 308.36,196.739 308.36,194.671C308.36,192.603 310.037,190.926 312.105,190.926C314.172,190.926 315.851,192.603 315.851,194.671C315.851,196.739 314.172,198.416 312.105,198.416ZM303.656,152.159C302.427,152.159 301.432,151.163 301.432,149.933C301.432,148.705 302.427,147.708 303.656,147.708C304.886,147.708 305.882,148.705 305.882,149.933C305.882,151.163 304.886,152.159 303.656,152.159ZM306.555,169.368C308.14,169.368 309.426,170.653 309.426,172.237C309.426,173.823 308.14,175.108 306.555,175.108C304.971,175.108 303.685,173.823 303.685,172.237C303.685,170.653 304.971,169.368 306.555,169.368ZM327.645,196.775C327.645,198.003 326.649,199.001 325.421,199.001C324.19,199.001 323.196,198.003 323.196,196.775C323.196,195.546 324.19,194.55 325.421,194.55C326.649,194.55 327.645,195.546 327.645,196.775ZM213.563,232.868C206.527,232.868 200.825,227.167 200.825,220.131C200.825,213.096 206.527,207.393 213.563,207.393C220.598,207.393 226.3,213.096 226.3,220.131C226.3,227.167 220.598,232.868 213.563,232.868ZM213.586,259.058C208.939,259.058 205.171,255.29 205.171,250.641C205.171,245.992 208.939,242.223 213.586,242.223C218.235,242.223 222.008,245.992 222.008,250.641C222.008,255.29 218.235,259.058 213.586,259.058ZM213.583,284.399C209.788,284.399 206.71,281.323 206.71,277.525C206.71,273.729 209.788,270.652 213.583,270.652C217.382,270.652 220.456,273.729 220.456,277.525C220.456,281.323 217.382,284.399 213.583,284.399ZM213.58,306.191C210.462,306.191 207.937,303.664 207.937,300.545C207.937,297.429 210.462,294.904 213.58,294.904C216.696,294.904 219.224,297.429 219.224,300.545C219.224,303.664 216.696,306.191 213.58,306.191ZM213.576,324.448C211.291,324.448 209.44,322.597 209.44,320.314C209.44,318.029 211.291,316.176 213.576,316.176C215.859,316.176 217.712,318.029 217.712,320.314C217.712,322.597 215.859,324.448 213.576,324.448ZM213.572,336.49C212.342,336.49 211.347,335.493 211.347,334.264C211.347,333.037 212.342,332.038 213.572,332.038C214.801,332.038 215.798,333.037 215.798,334.264C215.798,335.493 214.801,336.49 213.572,336.49ZM213.586,181.131C218.235,181.131 222.008,184.9 222.008,189.549C222.008,194.197 218.235,197.966 213.586,197.966C208.939,197.966 205.171,194.197 205.171,189.549C205.171,184.9 208.939,181.131 213.586,181.131ZM213.583,155.79C217.382,155.79 220.456,158.868 220.456,162.664C220.456,166.46 217.382,169.537 213.583,169.537C209.788,169.537 206.71,166.46 206.71,162.664C206.71,158.868 209.788,155.79 213.583,155.79ZM213.58,133.999C216.696,133.999 219.224,136.526 219.224,139.642C219.224,142.759 216.696,145.287 213.58,145.287C210.462,145.287 207.937,142.759 207.937,139.642C207.937,136.526 210.462,133.999 213.58,133.999ZM213.576,115.741C215.859,115.741 217.712,117.592 217.712,119.876C217.712,122.161 215.859,124.012 213.576,124.012C211.291,124.012 209.44,122.161 209.44,119.876C209.44,117.592 211.291,115.741 213.576,115.741ZM213.572,103.7C214.801,103.7 215.798,104.696 215.798,105.925C215.798,107.154 214.801,108.15 213.572,108.15C212.342,108.15 211.347,107.154 211.347,105.925C211.347,104.696 212.342,103.7 213.572,103.7ZM183.485,231.066C177.446,231.066 172.551,226.17 172.551,220.131C172.551,214.093 177.446,209.197 183.485,209.197C189.522,209.197 194.419,214.093 194.419,220.131C194.419,226.17 189.522,231.066 183.485,231.066ZM190.213,334.079C188.984,334.079 187.987,333.082 187.987,331.852C187.987,330.625 188.984,329.628 190.213,329.628C191.441,329.628 192.437,330.625 192.437,331.852C192.437,333.082 191.441,334.079 190.213,334.079ZM183.979,318.617C183.979,316.334 185.83,314.483 188.114,314.483C190.399,314.483 192.25,316.334 192.25,318.617C192.25,320.902 190.399,322.753 188.114,322.753C185.83,322.753 183.979,320.902 183.979,318.617ZM180.165,299.614C180.165,296.497 182.692,293.97 185.81,293.97C188.925,293.97 191.454,296.497 191.454,299.614C191.454,302.731 188.925,305.257 185.81,305.257C182.692,305.257 180.165,302.731 180.165,299.614ZM177.431,276.654C177.431,273.15 180.273,270.307 183.779,270.307C187.286,270.307 190.128,273.15 190.128,276.654C190.128,280.161 187.286,283.006 183.779,283.006C180.273,283.006 177.431,280.161 177.431,276.654ZM175.214,251.129C175.214,247.122 178.462,243.874 182.468,243.874C186.475,243.874 189.722,247.122 189.722,251.129C189.722,255.133 186.475,258.382 182.468,258.382C178.462,258.382 175.214,255.133 175.214,251.129ZM182.468,181.807C186.475,181.807 189.722,185.055 189.722,189.061C189.722,193.068 186.475,196.316 182.468,196.316C178.462,196.316 175.214,193.068 175.214,189.061C175.214,185.055 178.462,181.807 182.468,181.807ZM183.779,157.184C187.286,157.184 190.128,160.027 190.128,163.533C190.128,167.04 187.286,169.883 183.779,169.883C180.273,169.883 177.431,167.04 177.431,163.533C177.431,160.027 180.273,157.184 183.779,157.184ZM185.81,134.931C188.925,134.931 191.454,137.458 191.454,140.575C191.454,143.692 188.925,146.218 185.81,146.218C182.692,146.218 180.165,143.692 180.165,140.575C180.165,137.458 182.692,134.931 185.81,134.931ZM188.114,117.436C190.399,117.436 192.25,119.288 192.25,121.572C192.25,123.856 190.399,125.707 188.114,125.707C185.83,125.707 183.979,123.856 183.979,121.572C183.979,119.288 185.83,117.436 188.114,117.436ZM190.213,106.111C191.441,106.111 192.437,107.107 192.437,108.337C192.437,109.565 191.441,110.561 190.213,110.561C188.984,110.561 187.987,109.565 187.987,108.337C187.987,107.107 188.984,106.111 190.213,106.111ZM168.711,117.244C167.482,117.244 166.486,116.247 166.486,115.018C166.486,113.79 167.482,112.793 168.711,112.793C169.94,112.793 170.936,113.79 170.936,115.018C170.936,116.247 169.94,117.244 168.711,117.244ZM168.711,327.396C167.482,327.396 166.486,326.397 166.486,325.171C166.486,323.942 167.482,322.946 168.711,322.946C169.94,322.946 170.936,323.942 170.936,325.171C170.936,326.397 169.94,327.396 168.711,327.396ZM162.077,312.947C162.077,311.157 163.529,309.706 165.32,309.706C167.111,309.706 168.563,311.157 168.563,312.947C168.563,314.737 167.111,316.19 165.32,316.19C163.529,316.19 162.077,314.737 162.077,312.947ZM158.276,297.386C158.276,295.015 160.198,293.094 162.569,293.094C164.939,293.094 166.862,295.015 166.862,297.386C166.862,299.758 164.939,301.68 162.569,301.68C160.198,301.68 158.276,299.758 158.276,297.386ZM153.368,274.445C153.368,271.254 155.955,268.668 159.146,268.668C162.337,268.668 164.924,271.254 164.924,274.445C164.924,277.636 162.337,280.222 159.146,280.222C155.955,280.222 153.368,277.636 153.368,274.445ZM150.491,249.803C150.491,246.241 153.379,243.352 156.943,243.352C160.506,243.352 163.395,246.241 163.395,249.803C163.395,253.367 160.506,256.257 156.943,256.257C153.379,256.257 150.491,253.367 150.491,249.803ZM156.711,211.704C161.365,211.704 165.138,215.476 165.138,220.131C165.138,224.785 161.365,228.558 156.711,228.558C152.056,228.558 148.283,224.785 148.283,220.131C148.283,215.476 152.056,211.704 156.711,211.704ZM156.943,183.933C160.506,183.933 163.395,186.822 163.395,190.386C163.395,193.948 160.506,196.838 156.943,196.838C153.379,196.838 150.491,193.948 150.491,190.386C150.491,186.822 153.379,183.933 156.943,183.933ZM159.146,159.966C162.337,159.966 164.924,162.553 164.924,165.744C164.924,168.935 162.337,171.521 159.146,171.521C155.955,171.521 153.368,168.935 153.368,165.744C153.368,162.553 155.955,159.966 159.146,159.966ZM162.569,138.509C164.939,138.509 166.862,140.431 166.862,142.802C166.862,145.174 164.939,147.095 162.569,147.095C160.198,147.095 158.276,145.174 158.276,142.802C158.276,140.431 160.198,138.509 162.569,138.509ZM165.32,123.999C167.111,123.999 168.563,125.45 168.563,127.241C168.563,129.031 167.111,130.484 165.32,130.484C163.529,130.484 162.077,129.031 162.077,127.241C162.077,125.45 163.529,123.999 165.32,123.999ZM143.929,131.639C142.7,131.639 141.704,130.642 141.704,129.413C141.704,128.185 142.7,127.188 143.929,127.188C145.158,127.188 146.154,128.185 146.154,129.413C146.154,130.642 145.158,131.639 143.929,131.639ZM143.929,313.001C142.7,313.001 141.704,312.004 141.704,310.776C141.704,309.547 142.7,308.55 143.929,308.55C145.158,308.55 146.154,309.547 146.154,310.776C146.154,312.004 145.158,313.001 143.929,313.001ZM136.123,293.842C136.123,291.862 137.728,290.257 139.708,290.257C141.688,290.257 143.293,291.862 143.293,293.842C143.293,295.822 141.688,297.428 139.708,297.428C137.728,297.428 136.123,295.822 136.123,293.842ZM131.478,271.064C131.478,268.498 133.558,266.417 136.125,266.417C138.692,266.417 140.773,268.498 140.773,271.064C140.773,273.631 138.692,275.713 136.125,275.713C133.558,275.713 131.478,273.631 131.478,271.064ZM127.902,247.843C127.902,244.53 130.588,241.843 133.901,241.843C137.214,241.843 139.9,244.53 139.9,247.843C139.9,251.155 137.214,253.841 133.901,253.841C130.588,253.841 127.902,251.155 127.902,247.843ZM132.997,213.564C136.632,213.564 139.579,216.511 139.579,220.147C139.579,223.782 136.632,226.731 132.997,226.731C129.36,226.731 126.414,223.782 126.414,220.147C126.414,216.511 129.36,213.564 132.997,213.564ZM123.47,152.159C122.241,152.159 121.244,151.163 121.244,149.933C121.244,148.705 122.241,147.708 123.47,147.708C124.698,147.708 125.695,148.705 125.695,149.933C125.695,151.163 124.698,152.159 123.47,152.159ZM123.47,292.481C122.241,292.481 121.244,291.484 121.244,290.255C121.244,289.029 122.241,288.031 123.47,288.031C124.698,288.031 125.695,289.029 125.695,290.255C125.695,291.484 124.698,292.481 123.47,292.481ZM117.699,267.95C117.699,266.367 118.985,265.081 120.57,265.081C122.156,265.081 123.44,266.367 123.44,267.95C123.44,269.536 122.156,270.822 120.57,270.822C118.985,270.822 117.699,269.536 117.699,267.95ZM115.02,249.263C112.952,249.263 111.275,247.587 111.275,245.518C111.275,243.45 112.952,241.774 115.02,241.774C117.088,241.774 118.764,243.45 118.764,245.518C118.764,247.587 117.088,249.263 115.02,249.263ZM109.049,220.143C109.049,217.347 111.316,215.08 114.113,215.08C116.909,215.08 119.177,217.347 119.177,220.143C119.177,222.939 116.909,225.206 114.113,225.206C111.316,225.206 109.049,222.939 109.049,220.143ZM108.445,267.118C107.216,267.118 106.221,266.121 106.221,264.892C106.221,263.664 107.216,262.669 108.445,262.669C109.674,262.669 110.67,263.664 110.67,264.892C110.67,266.121 109.674,267.118 108.445,267.118ZM101.704,199.001C100.476,199.001 99.479,198.003 99.479,196.775C99.479,195.546 100.476,194.55 101.704,194.55C102.934,194.55 103.93,195.546 103.93,196.775C103.93,198.003 102.934,199.001 101.704,199.001ZM101.704,245.638C100.476,245.638 99.479,244.641 99.479,243.413C99.479,242.184 100.476,241.189 101.704,241.189C102.934,241.189 103.93,242.184 103.93,243.413C103.93,244.641 102.934,245.638 101.704,245.638ZM95.265,220.139C95.265,218.188 96.848,216.606 98.799,216.606C100.751,216.606 102.333,218.188 102.333,220.139C102.333,222.091 100.751,223.673 98.799,223.673C96.848,223.673 95.265,222.091 95.265,220.139ZM108.445,173.072C109.674,173.072 110.67,174.068 110.67,175.297C110.67,176.525 109.674,177.522 108.445,177.522C107.216,177.522 106.221,176.525 106.221,175.297C106.221,174.068 107.216,173.072 108.445,173.072ZM115.02,190.926C117.088,190.926 118.764,192.603 118.764,194.671C118.764,196.739 117.088,198.416 115.02,198.416C112.952,198.416 111.275,196.739 111.275,194.671C111.275,192.603 112.952,190.926 115.02,190.926ZM120.57,169.368C122.156,169.368 123.44,170.653 123.44,172.237C123.44,173.823 122.156,175.108 120.57,175.108C118.985,175.108 117.699,173.823 117.699,172.237C117.699,170.653 118.985,169.368 120.57,169.368ZM133.901,186.347C137.214,186.347 139.9,189.034 139.9,192.346C139.9,195.659 137.214,198.346 133.901,198.346C130.588,198.346 127.902,195.659 127.902,192.346C127.902,189.034 130.588,186.347 133.901,186.347ZM136.125,164.477C138.692,164.477 140.773,166.558 140.773,169.125C140.773,171.692 138.692,173.773 136.125,173.773C133.558,173.773 131.478,171.692 131.478,169.125C131.478,166.558 133.558,164.477 136.125,164.477ZM139.708,142.761C141.688,142.761 143.293,144.366 143.293,146.346C143.293,148.326 141.688,149.932 139.708,149.932C137.728,149.932 136.123,148.326 136.123,146.346C136.123,144.366 137.728,142.761 139.708,142.761ZM353.994,172.831L429.119,163.897L361.69,155.894L405.267,100.582L345.824,147.387L392.815,88.13L333.559,135.121L380.548,75.864L321.385,122.947L368.468,63.782L309.304,110.866L356.385,51.7L297.129,98.691L344.12,39.434L284.864,86.424L331.67,26.984L275.504,71.233L267.106,0.487L258.173,75.614L249.499,0.487L240.827,75.614L232.151,0.487L223.609,75.614L215.066,0.487L206.523,75.614L197.981,0.487L189.307,75.614L180.633,0.487L171.961,75.614L163.026,0.487L154.804,69.766L100.844,27.256L147.649,86.696L88.393,39.706L135.383,98.962L76.127,51.972L123.209,111.137L64.045,64.054L111.128,123.218L51.963,76.136L98.954,135.392L39.697,88.402L86.687,147.658L27.246,100.852L70.337,155.549L0,163.897L75.127,172.831L0,181.504L75.127,190.178L0,198.852L75.127,207.394L0,215.937L75.127,224.48L0,233.025L75.127,241.696L0,250.372L75.127,259.044L0,267.977L70.527,276.348L26.799,331.853L86.24,285.049L39.25,344.304L98.505,297.315L51.515,356.571L110.681,309.489L63.598,368.652L122.762,321.571L75.68,380.733L134.936,333.744L87.945,393.002L147.202,346.01L100.396,405.452L154.829,362.566L163.026,431.636L171.961,356.509L180.633,431.636L189.307,356.509L197.981,431.636L206.523,356.509L215.066,431.636L223.609,356.509L232.151,431.636L240.827,356.509L249.499,431.636L258.173,356.509L267.106,431.636L275.511,360.823L330.683,404.287L283.875,344.847L343.132,391.838L296.143,332.582L355.398,379.571L308.317,320.407L367.479,367.49L320.396,308.325L379.562,355.407L332.57,296.151L391.827,343.14L344.838,283.884L404.278,330.691L361.221,276.036L429.119,267.977L353.994,259.044L429.119,250.372L353.994,241.696L429.119,233.025L353.994,224.48L429.119,215.937L353.994,207.394L429.119,198.852L353.994,190.178L429.119,181.504L353.994,172.831Z" style="fill:rgb(4,63,136);fill-rule:nonzero;"/>
                            </g>
                        </g>
                    </g>
                </g>
            </g>
        </g>
    </g>
</svg>
