<?xml version="1.0" encoding="UTF-8" standalone="no"?>
<!DOCTYPE svg PUBLIC "-//W3C//DTD SVG 1.1//EN" "http://www.w3.org/Graphics/SVG/1.1/DTD/svg11.dtd">
<svg width="100%" height="100%" viewBox="0 0 750 600" version="1.1" xmlns="http://www.w3.org/2000/svg" xmlns:xlink="http://www.w3.org/1999/xlink" xml:space="preserve" xmlns:serif="http://www.serif.com/" style="fill-rule:evenodd;clip-rule:evenodd;stroke-linejoin:round;stroke-miterlimit:2;">
    <g id="ifeda" transform="matrix(3.03226,0,0,3.03226,-762.099,-837.099)">
        <g transform="matrix(4.16667,0,0,4.16667,331.712,416.961)">
            <path d="M0,5.998C0,6.03 -0.011,6.06 -0.032,6.086C-0.053,6.113 -0.088,6.134 -0.138,6.15C-0.186,6.167 -0.252,6.179 -0.334,6.189C-0.416,6.199 -0.52,6.204 -0.648,6.204C-0.772,6.204 -0.876,6.199 -0.96,6.189C-1.043,6.179 -1.109,6.167 -1.158,6.15C-1.207,6.134 -1.243,6.113 -1.264,6.086C-1.285,6.06 -1.296,6.03 -1.296,5.998L-1.296,0C-1.296,-0.033 -1.285,-0.062 -1.264,-0.089C-1.243,-0.114 -1.206,-0.136 -1.156,-0.152C-1.105,-0.169 -1.039,-0.182 -0.957,-0.191C-0.875,-0.201 -0.772,-0.206 -0.648,-0.206C-0.52,-0.206 -0.416,-0.201 -0.334,-0.191C-0.252,-0.182 -0.186,-0.169 -0.138,-0.152C-0.088,-0.136 -0.053,-0.114 -0.032,-0.089C-0.011,-0.062 0,-0.033 0,0L0,5.998Z" style="fill:rgb(0,125,194);fill-rule:nonzero;"/>
        </g>
        <g transform="matrix(4.16667,0,0,4.16667,352.345,440.6)">
            <path d="M0,-5.32C0,-5.222 -0.004,-5.139 -0.012,-5.072C-0.021,-5.005 -0.034,-4.952 -0.052,-4.913C-0.07,-4.873 -0.09,-4.844 -0.113,-4.824C-0.136,-4.805 -0.162,-4.795 -0.192,-4.795L-2.268,-4.795L-2.268,-3.087L-0.319,-3.087C-0.29,-3.087 -0.263,-3.079 -0.241,-3.063C-0.218,-3.046 -0.197,-3.018 -0.179,-2.979C-0.161,-2.939 -0.148,-2.887 -0.14,-2.822C-0.132,-2.756 -0.128,-2.674 -0.128,-2.576C-0.128,-2.478 -0.132,-2.396 -0.14,-2.331C-0.148,-2.266 -0.161,-2.211 -0.179,-2.169C-0.197,-2.127 -0.218,-2.096 -0.241,-2.078C-0.263,-2.06 -0.29,-2.051 -0.319,-2.051L-2.268,-2.051L-2.268,0.315C-2.268,0.351 -2.278,0.382 -2.297,0.408C-2.317,0.434 -2.352,0.456 -2.403,0.474C-2.453,0.492 -2.52,0.506 -2.602,0.516C-2.684,0.526 -2.788,0.53 -2.916,0.53C-3.04,0.53 -3.144,0.526 -3.228,0.516C-3.311,0.506 -3.377,0.492 -3.426,0.474C-3.475,0.456 -3.51,0.434 -3.532,0.408C-3.553,0.382 -3.564,0.351 -3.564,0.315L-3.564,-5.443C-3.564,-5.587 -3.527,-5.691 -3.453,-5.755C-3.38,-5.818 -3.289,-5.85 -3.181,-5.85L-0.192,-5.85C-0.162,-5.85 -0.136,-5.841 -0.113,-5.823C-0.09,-5.805 -0.07,-5.776 -0.052,-5.735C-0.034,-5.694 -0.021,-5.639 -0.012,-5.57C-0.004,-5.502 0,-5.418 0,-5.32" style="fill:rgb(0,125,194);fill-rule:nonzero;"/>
        </g>
        <g transform="matrix(4.16667,0,0,4.16667,372.409,418.332)">
            <path d="M0,5.34C0,5.435 -0.004,5.514 -0.012,5.578C-0.021,5.642 -0.033,5.693 -0.05,5.733C-0.066,5.772 -0.086,5.8 -0.111,5.819C-0.135,5.837 -0.162,5.846 -0.192,5.846L-3.382,5.846C-3.49,5.846 -3.581,5.814 -3.654,5.75C-3.728,5.686 -3.765,5.582 -3.765,5.438L-3.765,-0.098C-3.765,-0.242 -3.728,-0.346 -3.654,-0.41C-3.581,-0.474 -3.49,-0.506 -3.382,-0.506L-0.211,-0.506C-0.182,-0.506 -0.156,-0.498 -0.133,-0.481C-0.11,-0.465 -0.09,-0.436 -0.074,-0.395C-0.057,-0.354 -0.045,-0.302 -0.037,-0.238C-0.029,-0.174 -0.025,-0.094 -0.025,0.005C-0.025,0.096 -0.029,0.174 -0.037,0.238C-0.045,0.302 -0.057,0.353 -0.074,0.392C-0.09,0.432 -0.11,0.46 -0.133,0.478C-0.156,0.496 -0.182,0.506 -0.211,0.506L-2.479,0.506L-2.479,2.056L-0.56,2.056C-0.53,2.056 -0.503,2.066 -0.479,2.084C-0.454,2.101 -0.434,2.129 -0.417,2.167C-0.401,2.204 -0.389,2.255 -0.381,2.319C-0.372,2.383 -0.369,2.46 -0.369,2.552C-0.369,2.647 -0.372,2.725 -0.381,2.788C-0.389,2.85 -0.401,2.9 -0.417,2.937C-0.434,2.975 -0.454,3.002 -0.479,3.018C-0.503,3.035 -0.53,3.043 -0.56,3.043L-2.479,3.043L-2.479,4.835L-0.192,4.835C-0.162,4.835 -0.135,4.844 -0.111,4.861C-0.086,4.879 -0.066,4.908 -0.05,4.947C-0.033,4.987 -0.021,5.038 -0.012,5.102C-0.004,5.166 0,5.245 0,5.34" style="fill:rgb(0,125,194);fill-rule:nonzero;"/>
        </g>
        <g transform="matrix(4.16667,0,0,4.16667,399.147,429.847)">
            <path d="M0,-0.187C0,0.396 -0.076,0.894 -0.228,1.308C-0.38,1.721 -0.599,2.06 -0.883,2.321C-1.168,2.583 -1.514,2.775 -1.922,2.898C-2.329,3.021 -2.814,3.082 -3.377,3.082L-4.893,3.082C-5.001,3.082 -5.093,3.05 -5.166,2.987C-5.239,2.922 -5.276,2.819 -5.276,2.675L-5.276,-2.862C-5.276,-3.006 -5.239,-3.11 -5.166,-3.174C-5.093,-3.237 -5.001,-3.269 -4.893,-3.269L-3.264,-3.269C-2.698,-3.269 -2.218,-3.203 -1.823,-3.07C-1.429,-2.938 -1.097,-2.741 -0.827,-2.482C-0.557,-2.221 -0.352,-1.9 -0.211,-1.517C-0.07,-1.134 0,-0.691 0,-0.187M-1.335,-0.143C-1.335,-0.444 -1.37,-0.724 -1.44,-0.982C-1.511,-1.241 -1.624,-1.465 -1.779,-1.654C-1.935,-1.844 -2.134,-1.992 -2.378,-2.098C-2.622,-2.205 -2.942,-2.258 -3.338,-2.258L-3.99,-2.258L-3.99,2.061L-3.318,2.061C-2.964,2.061 -2.667,2.015 -2.425,1.924C-2.183,1.832 -1.981,1.694 -1.819,1.509C-1.657,1.324 -1.535,1.094 -1.455,0.819C-1.375,0.544 -1.335,0.224 -1.335,-0.143" style="fill:rgb(0,125,194);fill-rule:nonzero;"/>
        </g>
        <g transform="matrix(4.16667,0,0,4.16667,424.263,418.226)">
            <path d="M0,5.39C0.039,5.508 0.064,5.601 0.074,5.67C0.084,5.739 0.07,5.79 0.034,5.824C-0.001,5.859 -0.065,5.88 -0.157,5.888C-0.249,5.896 -0.375,5.9 -0.535,5.9C-0.702,5.9 -0.832,5.898 -0.925,5.893C-1.019,5.888 -1.09,5.879 -1.139,5.864C-1.188,5.849 -1.222,5.828 -1.242,5.802C-1.261,5.776 -1.278,5.742 -1.291,5.699L-1.718,4.423L-4.103,4.423L-4.506,5.665C-4.519,5.711 -4.536,5.749 -4.557,5.78C-4.579,5.811 -4.613,5.836 -4.661,5.854C-4.708,5.872 -4.775,5.884 -4.862,5.891C-4.948,5.897 -5.062,5.9 -5.203,5.9C-5.353,5.9 -5.471,5.896 -5.556,5.886C-5.641,5.876 -5.7,5.852 -5.733,5.815C-5.766,5.777 -5.777,5.724 -5.767,5.655C-5.757,5.587 -5.733,5.495 -5.694,5.38L-3.735,-0.254C-3.716,-0.31 -3.693,-0.355 -3.667,-0.39C-3.64,-0.424 -3.598,-0.45 -3.541,-0.468C-3.484,-0.486 -3.405,-0.498 -3.303,-0.502C-3.202,-0.507 -3.067,-0.51 -2.901,-0.51C-2.708,-0.51 -2.554,-0.507 -2.439,-0.502C-2.325,-0.498 -2.236,-0.486 -2.172,-0.468C-2.108,-0.45 -2.062,-0.423 -2.034,-0.387C-2.007,-0.351 -1.983,-0.302 -1.963,-0.24L0,5.39ZM-2.915,0.732L-2.92,0.732L-3.819,3.432L-2.017,3.432L-2.915,0.732Z" style="fill:rgb(0,125,194);fill-rule:nonzero;"/>
        </g>
        <g transform="matrix(4.16667,0,0,4.16667,416.265,304.134)">
            <path d="M0,7.125C0,7.125 -1.277,5.519 -1.062,4.513C-0.847,3.505 -0.188,2.633 -0.29,1.873C-0.392,1.112 -0.829,0.284 -1.098,0C-1.098,0 0.689,1.513 0.636,2.565C0.583,3.616 -0.174,4.618 -0.267,5.409C-0.361,6.244 -0.17,6.722 0,7.125" style="fill:rgb(211,17,69);fill-rule:nonzero;"/>
        </g>
        <g transform="matrix(-4.09473,-0.770913,-0.770913,4.09473,419.183,324.821)">
            <path d="M0.542,-3.035C0.542,-3.035 0.133,-2.289 0.28,-1.57C0.416,-0.897 0.576,-0.396 0.542,0.105C0.542,0.105 0.34,-0.492 0.139,-0.903C-0.055,-1.297 -0.498,-2.049 0.542,-3.035" style="fill:rgb(211,17,69);fill-rule:nonzero;"/>
        </g>
        <g transform="matrix(4.09483,0.770354,0.770354,-4.09483,411.499,318.998)">
            <path d="M0.196,-0.014C0.196,-0.014 -0.144,0.44 -0.104,0.795C-0.064,1.15 0.246,1.592 0.196,2.112C0.196,2.112 0.498,1.612 0.42,1.327C0.341,1.042 0.072,0.246 0.196,-0.014" style="fill:rgb(211,17,69);fill-rule:nonzero;"/>
        </g>
        <g transform="matrix(4.16667,0,0,4.16667,334.317,334.868)">
            <path d="M0,18.253C0,18.253 1.978,17.721 4.692,15.227C7.406,12.731 7.768,12.006 8.417,11.093C9.067,10.179 9.485,8.709 10.25,7.195C11.422,4.88 13.3,2.099 18.973,0L20.133,0C20.133,0 18.412,0.61 16.763,2.519C15.546,3.929 14.228,6.284 13.464,7.566C12.698,8.847 11.877,10.527 10.131,12.396C9.045,13.559 5.086,16.747 0,18.253" style="fill:rgb(0,125,194);fill-rule:nonzero;"/>
        </g>
        <g transform="matrix(4.16667,0,0,4.16667,382.447,403.613)">
            <path d="M0,-5.124L0.964,-6.651C0.964,-6.651 3.915,-5.103 6.085,1.527C6.085,1.527 4.161,-1.926 0,-5.124" style="fill:rgb(0,125,194);fill-rule:nonzero;"/>
        </g>
        <g transform="matrix(0.342796,-4.15254,-4.15254,-0.342796,389.186,333.347)">
            <path d="M-1.545,-1.422C-2.401,-1.421 -3.094,-0.728 -3.095,0.129C-3.094,0.984 -2.4,1.678 -1.545,1.678C-0.689,1.677 0.005,0.984 0.005,0.128C0.004,-0.728 -0.689,-1.422 -1.545,-1.422" style="fill:rgb(0,125,194);fill-rule:nonzero;"/>
        </g>
        <g transform="matrix(4.16667,0,0,4.16667,424.049,445.262)">
            <path d="M0,0.145L-23.6,0.145C-23.64,0.145 -23.672,0.112 -23.672,0.073C-23.672,0.033 -23.64,0 -23.6,0L0,0C0.04,0 0.072,0.033 0.072,0.073C0.072,0.112 0.04,0.145 0,0.145" style="fill:rgb(0,125,194);fill-rule:nonzero;"/>
        </g>
        <g transform="matrix(4.16667,0,0,4.16667,424.049,412.967)">
            <path d="M0,0.145L-23.6,0.145C-23.64,0.145 -23.672,0.113 -23.672,0.072C-23.672,0.032 -23.64,0 -23.6,0L0,0C0.04,0 0.072,0.032 0.072,0.072C0.072,0.113 0.04,0.145 0,0.145" style="fill:rgb(0,125,194);fill-rule:nonzero;"/>
        </g>
    </g>
</svg>
