<?xml version="1.0" encoding="UTF-8" standalone="no"?>
<!DOCTYPE svg PUBLIC "-//W3C//DTD SVG 1.1//EN" "http://www.w3.org/Graphics/SVG/1.1/DTD/svg11.dtd">
<svg width="100%" height="100%" viewBox="0 0 800 600" version="1.1" xmlns="http://www.w3.org/2000/svg" xmlns:xlink="http://www.w3.org/1999/xlink" xml:space="preserve" xmlns:serif="http://www.serif.com/" style="fill-rule:evenodd;clip-rule:evenodd;stroke-linejoin:round;stroke-miterlimit:2;">
    <g id="ifsm" transform="matrix(2.18774,0,0,2.18774,-420.403,-520.403)">
        <g transform="matrix(4.16667,0,0,4.16667,404.548,421.077)">
            <path d="M0,-7.589L-1.617,2.616C-1.624,2.651 -1.627,2.687 -1.627,2.722C-1.627,2.774 -1.613,2.947 -1.589,3.235L-2.865,3.235C-2.77,2.94 -2.71,2.722 -2.689,2.585L-0.682,-10.215C-0.668,-10.278 -0.661,-10.345 -0.661,-10.422C-0.661,-10.525 -0.668,-10.658 -0.682,-10.823L1.442,-10.823C1.456,-10.605 1.484,-10.426 1.533,-10.289L5.273,0.64L9.052,-10.328C9.098,-10.472 9.123,-10.598 9.123,-10.7L9.123,-10.823L11.246,-10.823C11.239,-10.707 11.235,-10.605 11.235,-10.525C11.235,-10.458 11.239,-10.391 11.246,-10.328L13.109,2.616C13.13,2.739 13.186,2.947 13.274,3.235L10.761,3.235C10.789,3.112 10.803,3.007 10.803,2.915C10.803,2.841 10.796,2.753 10.782,2.658L9.299,-7.824L5.713,2.616C5.646,2.817 5.611,2.985 5.611,3.122L5.611,3.235L3.635,3.235C3.642,3.179 3.646,3.137 3.646,3.101C3.646,3.007 3.617,2.869 3.565,2.701L0,-7.589ZM-12.216,2.36L-11.741,0.69C-11.365,1.013 -11.052,1.259 -10.806,1.431C-10.064,1.948 -9.262,2.205 -8.405,2.205C-7.54,2.205 -6.862,1.952 -6.366,1.442C-5.927,0.981 -5.708,0.426 -5.708,-0.224C-5.708,-0.994 -6.021,-1.616 -6.647,-2.091C-6.935,-2.309 -7.645,-2.689 -8.778,-3.223C-9.952,-3.778 -10.778,-4.334 -11.259,-4.882C-11.829,-5.526 -12.114,-6.281 -12.114,-7.146C-12.114,-7.916 -11.899,-8.612 -11.474,-9.238C-10.644,-10.433 -9.301,-11.031 -7.449,-11.031C-6.39,-11.031 -5.297,-10.781 -4.172,-10.278L-4.615,-8.784C-5.695,-9.533 -6.682,-9.909 -7.582,-9.909C-8.303,-9.909 -8.886,-9.684 -9.333,-9.231C-9.709,-8.837 -9.899,-8.366 -9.899,-7.817C-9.899,-7.248 -9.709,-6.78 -9.326,-6.418C-8.946,-6.053 -8.166,-5.603 -6.985,-5.068C-5.687,-4.471 -4.808,-3.891 -4.348,-3.325C-3.771,-2.611 -3.483,-1.785 -3.483,-0.843C-3.483,-0.041 -3.694,0.7 -4.112,1.382C-4.956,2.757 -6.359,3.442 -8.324,3.442C-9.031,3.442 -9.674,3.362 -10.254,3.2C-10.834,3.038 -11.488,2.757 -12.216,2.36M-19.886,-10.823L-12.739,-10.823L-12.739,-9.702C-12.985,-9.755 -13.234,-9.783 -13.48,-9.783L-17.446,-9.783L-17.446,-4.387L-14.078,-4.387C-13.825,-4.387 -13.579,-4.415 -13.347,-4.467L-13.347,-3.318C-13.547,-3.37 -13.779,-3.399 -14.047,-3.399L-17.446,-3.399L-17.446,2.557C-17.446,2.795 -17.414,3.02 -17.355,3.235L-19.886,3.235C-19.826,3.02 -19.794,2.795 -19.794,2.557L-19.794,-10.155C-19.794,-10.388 -19.826,-10.609 -19.886,-10.823M-24.993,-10.823L-22.462,-10.823C-22.515,-10.658 -22.546,-10.436 -22.553,-10.155L-22.553,2.557C-22.546,2.845 -22.515,3.07 -22.462,3.235L-24.993,3.235C-24.933,3.027 -24.902,2.802 -24.902,2.557L-24.902,-10.155C-24.902,-10.395 -24.933,-10.616 -24.993,-10.823" style="fill:rgb(35,31,32);fill-rule:nonzero;"/>
        </g>
        <g transform="matrix(4.16667,0,0,4.16667,-510.063,107.933)">
            <rect x="194.107" y="61.251" width="37.302" height="1.122" style="fill:rgb(218,39,45);"/>
        </g>
        <g transform="matrix(4.16667,0,0,4.16667,-510.063,264.024)">
            <rect x="184.316" y="42.52" width="56.012" height="1.122" style="fill:rgb(218,39,45);"/>
        </g>
        <g transform="matrix(4.16667,0,0,4.16667,484.65,312.85)">
            <path d="M0,26.667L0.39,26.749C0.263,26.915 0.177,27.059 0.128,27.182C0.081,27.304 0.059,27.437 0.063,27.581C0.07,27.759 0.124,27.894 0.227,27.989C0.325,28.076 0.435,28.118 0.556,28.113C0.677,28.109 0.771,28.063 0.838,27.974C0.906,27.885 0.991,27.696 1.095,27.404C1.197,27.118 1.314,26.925 1.451,26.824C1.576,26.731 1.719,26.681 1.876,26.676C2.173,26.666 2.402,26.785 2.566,27.033C2.68,27.206 2.742,27.416 2.751,27.658C2.76,27.928 2.707,28.212 2.591,28.512L2.237,28.43C2.409,28.172 2.491,27.936 2.484,27.724C2.478,27.571 2.434,27.448 2.35,27.355C2.263,27.256 2.156,27.207 2.029,27.212C1.922,27.216 1.838,27.257 1.778,27.335C1.718,27.414 1.645,27.579 1.559,27.831C1.456,28.129 1.344,28.339 1.222,28.458C1.102,28.578 0.939,28.641 0.733,28.649C0.438,28.659 0.202,28.554 0.026,28.335C-0.121,28.153 -0.2,27.904 -0.211,27.589C-0.222,27.282 -0.151,26.974 0,26.667M2.573,24.889L2.623,25.457L2.262,25.488C2.413,25.527 2.524,25.595 2.597,25.693C2.669,25.791 2.72,25.945 2.751,26.157L2.316,26.195C2.314,26.152 2.312,26.122 2.311,26.107C2.275,25.7 2.036,25.515 1.591,25.554L-0.031,25.696C-0.094,25.702 -0.151,25.714 -0.204,25.733L-0.256,25.137C-0.198,25.145 -0.139,25.147 -0.08,25.142L2.4,24.925C2.463,24.919 2.521,24.907 2.573,24.889M1.087,22.398L1.322,23.736C1.48,23.693 1.605,23.648 1.699,23.599C1.84,23.526 1.944,23.424 2.016,23.294C2.074,23.187 2.092,23.067 2.068,22.933C2.035,22.744 1.933,22.603 1.761,22.509C1.589,22.415 1.365,22.378 1.087,22.398M-0.156,24.462C-0.277,24.297 -0.367,24.149 -0.426,24.016C-0.484,23.885 -0.529,23.726 -0.562,23.543C-0.646,23.065 -0.57,22.679 -0.334,22.383C-0.126,22.119 0.193,21.949 0.624,21.873C1.099,21.789 1.492,21.85 1.8,22.055C2.086,22.245 2.263,22.532 2.33,22.916C2.396,23.289 2.33,23.601 2.131,23.85C1.932,24.099 1.615,24.271 1.18,24.364L0.838,22.426C0.531,22.479 0.293,22.557 0.121,22.657C-0.222,22.855 -0.356,23.159 -0.284,23.57C-0.234,23.852 -0.078,24.101 0.184,24.318L-0.156,24.462ZM1.355,19.799C1.291,19.573 1.158,19.432 0.959,19.372C0.766,19.317 0.542,19.325 0.282,19.4C-0.012,19.484 -0.222,19.605 -0.348,19.762C-0.476,19.92 -0.509,20.103 -0.449,20.311C-0.386,20.532 -0.256,20.672 -0.06,20.731C0.147,20.79 0.385,20.781 0.653,20.704C0.933,20.623 1.134,20.504 1.256,20.347C1.378,20.188 1.411,20.006 1.355,19.799M-1.732,19.5L-1.376,19.255L-0.779,19.718C-0.735,19.532 -0.676,19.382 -0.6,19.271C-0.467,19.07 -0.247,18.925 0.062,18.837C0.458,18.723 0.796,18.75 1.077,18.917C1.338,19.073 1.52,19.329 1.621,19.684C1.638,19.742 1.661,19.836 1.692,19.965C1.746,20.035 1.819,20.082 1.911,20.105C2.003,20.128 2.108,20.128 2.227,20.103L2.373,20.613C2.245,20.632 2.137,20.623 2.05,20.588C1.962,20.553 1.849,20.472 1.711,20.346C1.68,20.526 1.621,20.678 1.534,20.8C1.37,21.032 1.126,21.195 0.801,21.288C0.463,21.385 0.163,21.366 -0.1,21.23C-0.305,21.124 -0.471,20.944 -0.598,20.689C-0.623,20.636 -0.667,20.527 -0.733,20.362C-0.775,20.259 -0.83,20.175 -0.9,20.111L-1.347,19.701C-1.099,20.141 -0.941,20.483 -0.872,20.723C-0.791,21.003 -0.764,21.259 -0.79,21.489C-0.803,21.606 -0.84,21.705 -0.9,21.787C-0.96,21.87 -1.038,21.924 -1.132,21.951C-1.312,22.002 -1.479,21.944 -1.635,21.776C-1.792,21.608 -1.92,21.348 -2.022,20.995C-2.127,20.626 -2.176,20.159 -2.168,19.592L-2.066,19.563C-2.057,20 -2.01,20.369 -1.923,20.67C-1.863,20.882 -1.783,21.045 -1.686,21.159C-1.588,21.276 -1.487,21.319 -1.383,21.289C-1.286,21.261 -1.229,21.168 -1.213,21.011C-1.197,20.854 -1.223,20.657 -1.292,20.417C-1.373,20.135 -1.519,19.829 -1.732,19.5M-0.343,17.65C-0.406,17.598 -0.449,17.559 -0.474,17.534C-0.498,17.508 -0.6,17.396 -0.777,17.197C-0.915,17.042 -1.047,16.95 -1.175,16.919C-1.306,16.887 -1.431,16.895 -1.555,16.942C-1.695,16.996 -1.793,17.078 -1.849,17.19C-1.904,17.302 -1.906,17.423 -1.856,17.555C-1.778,17.758 -1.633,17.886 -1.421,17.938C-1.286,17.97 -1.158,17.963 -1.035,17.915L-0.343,17.65ZM-1.563,18.138C-1.73,18.08 -1.856,18.017 -1.941,17.95C-2.092,17.828 -2.206,17.668 -2.282,17.47C-2.361,17.265 -2.364,17.078 -2.292,16.908C-2.206,16.7 -2.043,16.55 -1.8,16.457C-1.512,16.346 -1.255,16.372 -1.029,16.535C-0.928,16.606 -0.846,16.679 -0.781,16.752C-0.716,16.825 -0.58,16.994 -0.373,17.262C-0.286,17.373 -0.205,17.445 -0.129,17.476C-0.053,17.508 0.032,17.506 0.129,17.469C0.242,17.425 0.316,17.345 0.352,17.229C0.388,17.112 0.379,16.982 0.324,16.838C0.275,16.713 0.214,16.61 0.137,16.529C0.059,16.446 -0.06,16.356 -0.222,16.256L0.084,16.042C0.237,16.19 0.355,16.324 0.436,16.443C0.519,16.562 0.592,16.706 0.658,16.877C0.764,17.151 0.791,17.383 0.741,17.573C0.691,17.763 0.569,17.896 0.374,17.971L-1.201,18.575C-1.354,18.634 -1.41,18.715 -1.37,18.819C-1.354,18.861 -1.305,18.908 -1.221,18.962L-1.514,19.074C-1.655,18.971 -1.75,18.857 -1.797,18.733C-1.847,18.603 -1.855,18.495 -1.819,18.406C-1.785,18.318 -1.7,18.229 -1.563,18.138M-1.341,12.861L-1.065,13.357L-1.412,13.549C-1.255,13.56 -1.128,13.587 -1.031,13.633C-0.852,13.721 -0.703,13.874 -0.582,14.094C-0.425,14.376 -0.392,14.638 -0.483,14.88C-0.542,15.034 -0.67,15.166 -0.867,15.275L-2.536,16.2C-2.587,16.228 -2.635,16.264 -2.679,16.304L-2.969,15.78C-2.923,15.771 -2.869,15.749 -2.806,15.714L-1.209,14.829C-1.068,14.75 -0.982,14.649 -0.949,14.524C-0.918,14.398 -0.944,14.259 -1.028,14.107C-1.134,13.918 -1.265,13.804 -1.424,13.766C-1.592,13.727 -1.764,13.755 -1.939,13.853L-3.391,14.657C-3.445,14.688 -3.492,14.722 -3.535,14.761L-3.824,14.238C-3.773,14.224 -3.718,14.202 -3.661,14.171L-1.482,12.963C-1.429,12.934 -1.383,12.9 -1.341,12.861M-3.118,12.174C-3.191,12.138 -3.242,12.11 -3.273,12.092C-3.303,12.073 -3.428,11.989 -3.648,11.838C-3.819,11.722 -3.97,11.664 -4.101,11.665C-4.236,11.666 -4.356,11.704 -4.464,11.779C-4.588,11.866 -4.663,11.97 -4.689,12.092C-4.716,12.214 -4.689,12.331 -4.608,12.447C-4.483,12.625 -4.312,12.714 -4.093,12.713C-3.955,12.712 -3.832,12.674 -3.724,12.598L-3.118,12.174ZM-4.182,12.942C-4.359,12.926 -4.496,12.896 -4.596,12.851C-4.771,12.769 -4.92,12.642 -5.042,12.467C-5.168,12.288 -5.216,12.108 -5.188,11.925C-5.155,11.703 -5.033,11.517 -4.82,11.368C-4.567,11.191 -4.311,11.154 -4.053,11.257C-3.938,11.302 -3.84,11.353 -3.759,11.408C-3.679,11.463 -3.506,11.595 -3.24,11.804C-3.13,11.891 -3.033,11.941 -2.952,11.953C-2.87,11.966 -2.788,11.942 -2.703,11.883C-2.604,11.814 -2.552,11.718 -2.545,11.597C-2.538,11.475 -2.578,11.351 -2.667,11.224C-2.744,11.115 -2.829,11.03 -2.923,10.969C-3.018,10.908 -3.156,10.849 -3.338,10.792L-3.092,10.51C-2.907,10.616 -2.761,10.718 -2.653,10.813C-2.544,10.91 -2.438,11.031 -2.333,11.181C-2.165,11.422 -2.082,11.64 -2.084,11.836C-2.086,12.033 -2.173,12.191 -2.344,12.311L-3.726,13.279C-3.86,13.373 -3.896,13.465 -3.831,13.557C-3.806,13.593 -3.747,13.627 -3.652,13.659L-3.909,13.839C-4.071,13.772 -4.19,13.685 -4.266,13.576C-4.346,13.462 -4.38,13.359 -4.367,13.264C-4.355,13.17 -4.293,13.063 -4.182,12.942M-5.779,7.114L-7.995,8.608C-8.003,8.613 -8.01,8.619 -8.017,8.625C-8.026,8.634 -8.056,8.667 -8.107,8.723L-8.332,8.481C-8.259,8.447 -8.207,8.42 -8.178,8.4L-5.402,6.521C-5.388,6.513 -5.374,6.503 -5.359,6.489C-5.34,6.471 -5.316,6.446 -5.287,6.414L-4.913,6.816C-4.951,6.857 -4.98,6.894 -4.997,6.927L-6.405,9.563L-3.664,8.343C-3.628,8.326 -3.6,8.309 -3.581,8.291C-3.571,8.281 -3.563,8.274 -3.557,8.269L-3.183,8.671C-3.206,8.69 -3.226,8.707 -3.241,8.721C-3.254,8.733 -3.266,8.746 -3.277,8.758L-5.397,11.394C-5.416,11.42 -5.445,11.467 -5.485,11.535L-5.928,11.059C-5.9,11.043 -5.877,11.027 -5.86,11.01C-5.846,10.998 -5.831,10.981 -5.815,10.961L-4.094,8.831L-6.701,9.995C-6.751,10.017 -6.789,10.041 -6.815,10.065C-6.822,10.071 -6.829,10.077 -6.836,10.085L-7.185,9.711C-7.173,9.702 -7.165,9.696 -7.158,9.689C-7.14,9.673 -7.119,9.643 -7.096,9.603L-5.779,7.114ZM-10.64,6.543L-9.85,3.802C-9.838,3.764 -9.825,3.708 -9.813,3.634L-9.289,4.014C-9.317,4.071 -9.338,4.121 -9.349,4.165L-9.937,6.106L-8.175,5.018C-8.125,4.986 -8.083,4.953 -8.046,4.918L-7.773,5.117C-7.833,5.143 -7.885,5.169 -7.93,5.197L-11.043,7.107C-11.089,7.135 -11.133,7.168 -11.173,7.207L-11.454,7.003C-11.386,6.973 -11.333,6.947 -11.294,6.924L-10.64,6.543ZM-11.017,3.182L-11.37,2.953L-11.227,2.732L-10.873,2.961L-10.574,2.5L-10.065,2.758C-10.128,2.842 -10.169,2.898 -10.188,2.927L-10.407,3.264L-10.022,3.514L-10.166,3.735L-10.551,3.485L-11.669,5.208C-11.761,5.349 -11.748,5.458 -11.63,5.535C-11.573,5.572 -11.486,5.594 -11.369,5.603L-11.529,5.849C-11.699,5.827 -11.854,5.771 -11.992,5.682C-12.148,5.58 -12.239,5.467 -12.263,5.344C-12.288,5.219 -12.248,5.077 -12.144,4.918L-11.017,3.182ZM-13.743,2.527L-12.533,3.144C-12.472,2.993 -12.433,2.866 -12.415,2.761C-12.389,2.605 -12.407,2.46 -12.468,2.325C-12.518,2.213 -12.604,2.127 -12.725,2.065C-12.896,1.978 -13.071,1.975 -13.248,2.056C-13.427,2.136 -13.592,2.293 -13.743,2.527M-12.842,4.762C-13.047,4.76 -13.219,4.742 -13.36,4.709C-13.501,4.676 -13.655,4.618 -13.821,4.533C-14.253,4.313 -14.515,4.02 -14.61,3.652C-14.696,3.328 -14.639,2.971 -14.44,2.581C-14.222,2.151 -13.937,1.874 -13.587,1.751C-13.264,1.637 -12.929,1.669 -12.58,1.846C-12.243,2.018 -12.034,2.258 -11.955,2.567C-11.875,2.876 -11.929,3.232 -12.117,3.636L-13.871,2.743C-14.012,3.02 -14.094,3.257 -14.117,3.455C-14.165,3.847 -14.004,4.137 -13.632,4.327C-13.377,4.457 -13.084,4.483 -12.752,4.404L-12.842,4.762ZM-15.436,0.849L-15.718,0.735L-15.619,0.491L-15.337,0.604L-15.155,0.153C-15.078,-0.037 -14.964,-0.157 -14.812,-0.206C-14.621,-0.269 -14.397,-0.248 -14.139,-0.144C-13.968,-0.075 -13.771,0.043 -13.552,0.208L-13.773,0.458C-13.901,0.307 -14.03,0.205 -14.158,0.153C-14.276,0.105 -14.375,0.099 -14.452,0.134C-14.529,0.168 -14.593,0.246 -14.642,0.369L-14.822,0.813L-14.065,1.118L-14.164,1.363L-14.92,1.057L-15.82,3.286C-15.843,3.341 -15.858,3.397 -15.866,3.454L-16.421,3.23C-16.388,3.185 -16.359,3.134 -16.336,3.075L-15.436,0.849ZM-17.078,1.18C-17.158,1.194 -17.215,1.202 -17.251,1.206C-17.286,1.208 -17.437,1.213 -17.703,1.221C-17.911,1.228 -18.066,1.269 -18.172,1.347C-18.28,1.427 -18.356,1.528 -18.398,1.653C-18.448,1.796 -18.447,1.924 -18.397,2.038C-18.347,2.152 -18.257,2.232 -18.123,2.278C-17.917,2.349 -17.726,2.319 -17.55,2.19C-17.439,2.108 -17.362,2.005 -17.319,1.88L-17.078,1.18ZM-17.487,2.428C-17.64,2.519 -17.768,2.575 -17.875,2.597C-18.065,2.634 -18.261,2.619 -18.462,2.55C-18.669,2.478 -18.815,2.361 -18.898,2.196C-19.003,1.997 -19.013,1.775 -18.928,1.529C-18.828,1.238 -18.643,1.057 -18.372,0.989C-18.253,0.958 -18.145,0.941 -18.047,0.938C-17.949,0.935 -17.732,0.94 -17.394,0.953C-17.253,0.959 -17.146,0.943 -17.073,0.904C-17,0.867 -16.947,0.8 -16.913,0.702C-16.874,0.587 -16.887,0.48 -16.953,0.377C-17.019,0.275 -17.125,0.198 -17.271,0.147C-17.398,0.104 -17.516,0.085 -17.628,0.092C-17.741,0.098 -17.887,0.132 -18.067,0.192L-18.035,-0.181C-17.823,-0.203 -17.644,-0.207 -17.501,-0.193C-17.357,-0.179 -17.199,-0.143 -17.026,-0.084C-16.748,0.012 -16.553,0.14 -16.44,0.3C-16.326,0.46 -16.303,0.639 -16.371,0.837L-16.92,2.432C-16.973,2.587 -16.948,2.682 -16.842,2.719C-16.8,2.733 -16.732,2.726 -16.637,2.696L-16.739,2.993C-16.909,3.034 -17.057,3.033 -17.182,2.99C-17.314,2.945 -17.402,2.881 -17.447,2.797C-17.493,2.714 -17.506,2.591 -17.487,2.428M-21.57,1.476L-21.353,1.083C-21.277,1.186 -21.212,1.267 -21.16,1.324C-21.003,1.498 -20.816,1.609 -20.6,1.659C-20.382,1.709 -20.196,1.685 -20.042,1.585C-19.904,1.495 -19.817,1.368 -19.779,1.204C-19.734,1.009 -19.777,0.835 -19.907,0.678C-19.967,0.607 -20.124,0.47 -20.378,0.269C-20.642,0.061 -20.818,-0.127 -20.907,-0.293C-21.013,-0.489 -21.041,-0.696 -20.991,-0.914C-20.946,-1.108 -20.851,-1.271 -20.708,-1.404C-20.429,-1.657 -20.056,-1.729 -19.589,-1.621C-19.322,-1.56 -19.061,-1.433 -18.807,-1.241L-19.006,-0.89C-19.234,-1.142 -19.461,-1.294 -19.688,-1.346C-19.869,-1.388 -20.03,-1.366 -20.168,-1.277C-20.286,-1.2 -20.361,-1.092 -20.393,-0.954C-20.426,-0.81 -20.406,-0.682 -20.33,-0.568C-20.256,-0.454 -20.086,-0.295 -19.819,-0.092C-19.527,0.134 -19.339,0.332 -19.256,0.501C-19.152,0.715 -19.127,0.94 -19.182,1.177C-19.229,1.379 -19.325,1.554 -19.471,1.701C-19.763,1.999 -20.157,2.09 -20.652,1.976C-20.83,1.935 -20.987,1.877 -21.124,1.802C-21.261,1.728 -21.409,1.619 -21.57,1.476M-25.352,-0.366L-23.994,-0.343C-24.005,-0.505 -24.026,-0.636 -24.056,-0.739C-24.102,-0.89 -24.182,-1.013 -24.295,-1.107C-24.39,-1.185 -24.504,-1.226 -24.64,-1.228C-24.832,-1.231 -24.99,-1.158 -25.115,-1.007C-25.24,-0.856 -25.319,-0.643 -25.352,-0.366M-23.563,1.247C-23.749,1.335 -23.911,1.395 -24.052,1.427C-24.193,1.459 -24.357,1.474 -24.543,1.47C-25.028,1.462 -25.393,1.314 -25.638,1.025C-25.858,0.771 -25.964,0.425 -25.956,-0.012C-25.948,-0.495 -25.813,-0.868 -25.553,-1.132C-25.312,-1.376 -24.997,-1.495 -24.606,-1.489C-24.228,-1.482 -23.935,-1.358 -23.728,-1.115C-23.521,-0.872 -23.413,-0.528 -23.405,-0.082L-25.373,-0.117C-25.378,0.194 -25.348,0.443 -25.283,0.632C-25.154,1.005 -24.881,1.195 -24.464,1.202C-24.177,1.207 -23.903,1.102 -23.64,0.886L-23.563,1.247ZM-27.519,-1.4L-26.949,-1.41L-26.943,-1.048C-26.893,-1.197 -26.818,-1.303 -26.715,-1.368C-26.613,-1.432 -26.455,-1.473 -26.242,-1.489L-26.234,-1.053C-26.277,-1.054 -26.307,-1.054 -26.322,-1.054C-26.731,-1.047 -26.931,-0.82 -26.924,-0.374L-26.895,1.254C-26.894,1.317 -26.886,1.375 -26.871,1.429L-27.47,1.439C-27.457,1.381 -27.451,1.323 -27.452,1.263L-27.495,-1.225C-27.496,-1.289 -27.504,-1.347 -27.519,-1.4M-28.965,-1.303L-28.369,-1.345C-28.378,-1.289 -28.381,-1.23 -28.377,-1.168L-28.204,1.315C-28.199,1.374 -28.188,1.432 -28.17,1.488L-28.767,1.53C-28.757,1.475 -28.754,1.417 -28.759,1.353L-28.932,-1.13C-28.937,-1.195 -28.948,-1.252 -28.965,-1.303M-28.71,-2.09C-28.602,-2.098 -28.517,-2.081 -28.452,-2.04C-28.388,-2 -28.353,-1.94 -28.347,-1.862C-28.342,-1.781 -28.368,-1.714 -28.425,-1.664C-28.484,-1.612 -28.565,-1.583 -28.669,-1.575C-28.905,-1.559 -29.029,-1.637 -29.041,-1.808C-29.046,-1.886 -29.019,-1.951 -28.96,-2.002C-28.9,-2.053 -28.817,-2.083 -28.71,-2.09M-31.637,-1.657L-29.817,-1.978L-29.766,-1.692C-29.831,-1.695 -29.896,-1.691 -29.959,-1.68L-30.969,-1.502L-30.727,-0.127L-29.869,-0.278C-29.804,-0.29 -29.743,-0.308 -29.686,-0.332L-29.635,-0.039C-29.688,-0.043 -29.748,-0.04 -29.816,-0.028L-30.682,0.125L-30.415,1.642C-30.404,1.702 -30.386,1.759 -30.361,1.81L-31.006,1.924C-31,1.867 -31.002,1.808 -31.013,1.747L-31.584,-1.491C-31.595,-1.55 -31.612,-1.605 -31.637,-1.657M-34.901,0.347L-35.189,0.446L-35.274,0.197L-34.987,0.098L-35.146,-0.363C-35.212,-0.557 -35.205,-0.722 -35.122,-0.859C-35.02,-1.031 -34.836,-1.163 -34.574,-1.254C-34.399,-1.314 -34.174,-1.354 -33.899,-1.373L-33.902,-1.039C-34.098,-1.069 -34.262,-1.062 -34.393,-1.017C-34.514,-0.975 -34.593,-0.915 -34.628,-0.839C-34.664,-0.762 -34.66,-0.661 -34.617,-0.537L-34.461,-0.084L-33.69,-0.349L-33.604,-0.1L-34.375,0.166L-33.593,2.438C-33.573,2.495 -33.547,2.547 -33.517,2.595L-34.082,2.79C-34.087,2.734 -34.099,2.677 -34.12,2.617L-34.901,0.347ZM-36.842,1.017C-36.934,1.055 -37.013,1.115 -37.079,1.2C-37.144,1.283 -37.185,1.378 -37.203,1.482C-37.249,1.752 -37.199,2.068 -37.053,2.43C-36.901,2.804 -36.715,3.073 -36.491,3.237C-36.406,3.298 -36.312,3.338 -36.207,3.352C-36.103,3.368 -36.004,3.357 -35.912,3.319C-35.82,3.282 -35.741,3.222 -35.677,3.138C-35.611,3.055 -35.571,2.961 -35.553,2.858C-35.506,2.584 -35.557,2.264 -35.706,1.897C-35.856,1.525 -36.042,1.258 -36.264,1.097C-36.446,0.965 -36.638,0.939 -36.842,1.017M-36.933,0.798C-36.543,0.641 -36.186,0.649 -35.862,0.826C-35.558,0.99 -35.325,1.274 -35.161,1.68C-34.986,2.112 -34.966,2.499 -35.099,2.842C-35.223,3.162 -35.464,3.394 -35.821,3.539C-36.205,3.694 -36.553,3.687 -36.866,3.518C-37.189,3.346 -37.436,3.047 -37.607,2.622C-37.764,2.234 -37.786,1.872 -37.672,1.536C-37.56,1.204 -37.313,0.958 -36.933,0.798M-41.261,4.536L-40.122,3.796C-40.222,3.668 -40.313,3.571 -40.395,3.503C-40.518,3.403 -40.652,3.346 -40.799,3.331C-40.921,3.319 -41.039,3.35 -41.152,3.423C-41.313,3.528 -41.404,3.678 -41.423,3.872C-41.442,4.067 -41.389,4.288 -41.261,4.536M-38.876,4.874C-38.98,5.05 -39.081,5.19 -39.181,5.296C-39.279,5.401 -39.407,5.505 -39.564,5.606C-39.97,5.87 -40.355,5.952 -40.721,5.849C-41.045,5.762 -41.326,5.534 -41.564,5.167C-41.827,4.762 -41.924,4.378 -41.856,4.013C-41.793,3.677 -41.598,3.402 -41.27,3.189C-40.953,2.983 -40.64,2.922 -40.333,3.007C-40.026,3.093 -39.744,3.318 -39.488,3.683L-41.139,4.755C-40.97,5.016 -40.805,5.205 -40.645,5.324C-40.33,5.562 -39.998,5.567 -39.648,5.34C-39.407,5.184 -39.238,4.943 -39.141,4.617L-38.876,4.874ZM-43.415,5.165L-43.743,5.43L-43.909,5.225L-43.582,4.96L-43.927,4.533L-43.525,4.129C-43.465,4.215 -43.424,4.27 -43.402,4.297L-43.149,4.609L-42.793,4.321L-42.627,4.526L-42.983,4.815L-41.69,6.411C-41.585,6.542 -41.477,6.563 -41.367,6.475C-41.315,6.432 -41.266,6.356 -41.223,6.247L-41.038,6.476C-41.111,6.631 -41.212,6.761 -41.34,6.864C-41.485,6.981 -41.62,7.033 -41.745,7.018C-41.871,7.003 -41.994,6.921 -42.113,6.773L-43.415,5.165ZM-42.798,7.992L-43.068,7.712C-43.044,7.882 -43.046,8.022 -43.071,8.131C-43.114,8.302 -43.216,8.467 -43.378,8.623C-43.597,8.834 -43.825,8.935 -44.061,8.924C-44.258,8.915 -44.448,8.815 -44.635,8.622L-45.916,7.295C-45.958,7.252 -46.003,7.216 -46.051,7.186L-45.621,6.77C-45.596,6.815 -45.561,6.862 -45.516,6.909L-44.278,8.191C-44.171,8.301 -44.061,8.363 -43.945,8.378C-43.796,8.394 -43.652,8.336 -43.514,8.202C-43.374,8.067 -43.3,7.918 -43.291,7.755C-43.282,7.592 -43.339,7.446 -43.462,7.319L-44.658,6.081C-44.701,6.036 -44.746,6 -44.793,5.971L-44.363,5.555C-44.34,5.598 -44.306,5.644 -44.258,5.694L-42.527,7.486C-42.488,7.527 -42.441,7.564 -42.39,7.598L-42.798,7.992ZM-46.946,8.584L-47.233,8.891L-47.426,8.712L-47.139,8.404L-47.54,8.029L-47.198,7.573C-47.127,7.649 -47.078,7.699 -47.053,7.723L-46.759,7.997L-46.447,7.661L-46.254,7.841L-46.566,8.176L-45.064,9.577C-44.941,9.692 -44.831,9.699 -44.735,9.596C-44.689,9.546 -44.652,9.465 -44.623,9.35L-44.409,9.551C-44.46,9.715 -44.541,9.857 -44.654,9.978C-44.781,10.114 -44.908,10.183 -45.034,10.187C-45.16,10.189 -45.293,10.125 -45.432,9.995L-46.946,8.584ZM-48.148,9.679L-47.779,9.207C-47.744,9.252 -47.702,9.294 -47.654,9.332L-45.692,10.864C-45.645,10.901 -45.595,10.931 -45.541,10.956L-45.91,11.427C-45.944,11.383 -45.985,11.342 -46.035,11.303L-47.996,9.77C-48.048,9.73 -48.098,9.7 -48.148,9.679M-48.562,8.963C-48.495,8.878 -48.425,8.825 -48.352,8.804C-48.279,8.783 -48.211,8.797 -48.149,8.845C-48.085,8.896 -48.053,8.96 -48.054,9.036C-48.055,9.114 -48.087,9.194 -48.152,9.276C-48.297,9.463 -48.438,9.503 -48.573,9.397C-48.635,9.349 -48.665,9.285 -48.663,9.207C-48.662,9.128 -48.627,9.047 -48.562,8.963M-48.912,11.17L-49.154,11.515L-49.37,11.364L-49.128,11.019L-49.578,10.704L-49.303,10.204C-49.221,10.27 -49.167,10.312 -49.138,10.332L-48.809,10.563L-48.546,10.187L-48.33,10.339L-48.593,10.714L-46.91,11.892C-46.772,11.989 -46.663,11.98 -46.582,11.864C-46.544,11.809 -46.518,11.723 -46.506,11.606L-46.265,11.775C-46.293,11.944 -46.354,12.096 -46.449,12.231C-46.555,12.384 -46.671,12.47 -46.796,12.491C-46.921,12.511 -47.061,12.466 -47.217,12.357L-48.912,11.17ZM-48.393,14.763L-48.67,14.478C-48.472,14.41 -48.32,14.339 -48.211,14.265C-48.103,14.19 -48.011,14.092 -47.935,13.97C-47.84,13.819 -47.81,13.676 -47.842,13.54C-47.874,13.413 -47.942,13.318 -48.045,13.253C-48.148,13.189 -48.251,13.175 -48.357,13.211C-48.463,13.246 -48.639,13.356 -48.888,13.54C-49.133,13.72 -49.338,13.814 -49.508,13.822C-49.664,13.828 -49.809,13.79 -49.943,13.706C-50.195,13.549 -50.319,13.322 -50.315,13.025C-50.313,12.817 -50.248,12.609 -50.119,12.403C-49.976,12.174 -49.773,11.968 -49.509,11.785L-49.261,12.05C-49.548,12.168 -49.748,12.318 -49.861,12.498C-49.942,12.628 -49.974,12.755 -49.957,12.878C-49.94,13.009 -49.878,13.109 -49.77,13.177C-49.679,13.234 -49.587,13.246 -49.493,13.214C-49.399,13.183 -49.246,13.087 -49.035,12.926C-48.782,12.737 -48.572,12.626 -48.405,12.594C-48.238,12.562 -48.067,12.601 -47.892,12.711C-47.642,12.867 -47.505,13.085 -47.481,13.366C-47.461,13.598 -47.535,13.849 -47.703,14.117C-47.866,14.378 -48.096,14.593 -48.393,14.763M-51.999,16.111L-51.742,15.605L-51.388,15.785C-51.468,15.649 -51.516,15.528 -51.532,15.422C-51.559,15.225 -51.516,15.015 -51.402,14.792C-51.255,14.504 -51.056,14.33 -50.805,14.271C-50.644,14.234 -50.463,14.266 -50.262,14.368L-48.562,15.234C-48.511,15.26 -48.455,15.281 -48.397,15.295L-48.668,15.828C-48.702,15.796 -48.75,15.763 -48.815,15.73L-50.441,14.901C-50.585,14.828 -50.718,14.813 -50.84,14.857C-50.961,14.901 -51.062,15 -51.141,15.155C-51.239,15.348 -51.26,15.521 -51.202,15.674C-51.141,15.835 -51.021,15.961 -50.843,16.052L-49.363,16.806C-49.308,16.834 -49.253,16.854 -49.197,16.867L-49.469,17.4C-49.509,17.365 -49.558,17.331 -49.616,17.302L-51.836,16.17C-51.89,16.143 -51.944,16.124 -51.999,16.111M-53.29,17.431L-53.056,16.82C-53.021,16.848 -52.97,16.876 -52.903,16.904L-49.833,18.082C-49.763,18.107 -49.706,18.121 -49.661,18.123L-49.895,18.735C-49.94,18.701 -49.991,18.672 -50.051,18.65L-53.121,17.471C-53.178,17.449 -53.235,17.436 -53.29,17.431M-52.744,22.188L-52.438,20.864C-52.599,20.842 -52.732,20.834 -52.839,20.842C-52.996,20.855 -53.133,20.908 -53.249,21C-53.345,21.075 -53.408,21.179 -53.439,21.312C-53.482,21.498 -53.443,21.669 -53.321,21.822C-53.2,21.976 -53.008,22.098 -52.744,22.188M-50.794,20.773C-50.746,20.973 -50.721,21.144 -50.72,21.289C-50.717,21.433 -50.737,21.597 -50.779,21.778C-50.888,22.25 -51.109,22.576 -51.443,22.757C-51.737,22.919 -52.097,22.95 -52.523,22.852C-52.993,22.743 -53.331,22.534 -53.535,22.225C-53.723,21.938 -53.774,21.605 -53.686,21.224C-53.601,20.856 -53.419,20.595 -53.138,20.443C-52.858,20.291 -52.499,20.257 -52.061,20.342L-52.504,22.26C-52.201,22.33 -51.951,22.352 -51.753,22.327C-51.361,22.278 -51.119,22.052 -51.025,21.645C-50.96,21.366 -51.006,21.075 -51.163,20.773L-50.794,20.773ZM-51.491,26.045C-51.545,26.025 -51.602,26.011 -51.663,26.003L-55.207,25.567C-55.272,25.56 -55.331,25.56 -55.384,25.567L-55.311,24.973C-55.261,24.993 -55.204,25.007 -55.139,25.015L-53.875,25.17C-54.014,25.034 -54.109,24.896 -54.159,24.756C-54.21,24.617 -54.224,24.454 -54.201,24.269C-54.166,23.984 -54.068,23.772 -53.907,23.633C-53.746,23.494 -53.536,23.441 -53.277,23.473L-51.381,23.706C-51.321,23.713 -51.263,23.713 -51.204,23.706L-51.277,24.301C-51.325,24.281 -51.382,24.267 -51.449,24.258L-53.163,24.048C-53.37,24.022 -53.528,24.047 -53.635,24.122C-53.743,24.198 -53.808,24.328 -53.831,24.514C-53.857,24.73 -53.818,24.899 -53.711,25.021C-53.598,25.148 -53.447,25.223 -53.258,25.246L-51.595,25.45C-51.534,25.458 -51.475,25.458 -51.418,25.451L-51.491,26.045ZM-55.229,28.754L-55.137,26.118L-54.807,26.13C-54.826,26.216 -54.837,26.291 -54.839,26.355L-54.866,27.138L-51.714,27.248C-51.65,27.25 -51.592,27.244 -51.538,27.23L-51.56,27.885C-51.612,27.867 -51.67,27.857 -51.735,27.855L-54.888,27.745L-54.915,28.533C-54.918,28.607 -54.912,28.684 -54.899,28.765L-55.229,28.754Z" style="fill:rgb(108,145,167);fill-rule:nonzero;"/>
        </g>
        <g transform="matrix(4.16667,0,0,4.16667,362.77,340.329)">
            <path d="M0,6.557C1.351,7.694 2.728,7.566 3.615,7.102C5.172,6.159 5.639,4.754 5.003,2.898C4.749,2.073 4.361,1.691 4.302,1.19C4.127,2.01 4.199,2.71 4.12,2.926C3.459,1.155 2.409,0.466 2.914,-1.137C2.035,-1.011 1.306,-0.078 0.726,1.689C0.646,1.169 0.754,0.625 1.02,0.044C-0.892,1.628 -1.443,5.133 0,6.557" style="fill:white;"/>
        </g>
        <g transform="matrix(4.16667,0,0,4.16667,362.77,326.379)">
            <path d="M0,9.905C-2.214,7.523 -1.7,3.441 1.037,1.022C0.628,2.103 0.516,2.83 0.684,3.209C1.263,1.086 2.194,-0.156 3.489,-0.545C2.811,1.517 4.714,3.589 5.045,4.826C5.223,4.184 5.174,3.434 5.298,2.548C5.541,3.556 6.02,4.158 6.378,5.135C7.121,7.478 6.111,9.503 3.615,10.45C5.172,9.507 5.639,8.102 5.003,6.246C4.749,5.421 4.361,5.039 4.302,4.538C4.127,5.358 4.199,6.058 4.12,6.274C3.459,4.503 2.409,3.814 2.914,2.211C2.035,2.337 1.306,3.27 0.726,5.037C0.646,4.517 0.754,3.973 1.02,3.392C-0.892,4.976 -1.443,8.481 0,9.905" style="fill:rgb(218,39,45);"/>
        </g>
    </g>
</svg>
