<?xml version="1.0" encoding="UTF-8" standalone="no"?>
<!DOCTYPE svg PUBLIC "-//W3C//DTD SVG 1.1//EN" "http://www.w3.org/Graphics/SVG/1.1/DTD/svg11.dtd">
<svg width="100%" height="100%" viewBox="0 0 750 600" version="1.1" xmlns="http://www.w3.org/2000/svg" xmlns:xlink="http://www.w3.org/1999/xlink" xml:space="preserve" xmlns:serif="http://www.serif.com/" style="fill-rule:evenodd;clip-rule:evenodd;stroke-linejoin:round;stroke-miterlimit:2;">
    <g transform="matrix(0.663627,0,0,0.663627,375,300)">
        <g id="nsi" transform="matrix(1,0,0,1,-336,-337)">
            <clipPath id="_clip1">
                <rect x="0" y="0" width="672" height="674"/>
            </clipPath>
            <g clip-path="url(#_clip1)">
                <g transform="matrix(6.48299,0,0,6.48299,-108.361,-0.0003305)">
                    <g id="nsi1" serif:id="nsi">
                        <g>
                            <g id="Layer_2">
                                <g id="Nav">
                                    <path d="M17.17,93.32C17.17,94.32 17.74,94.95 18.88,95.65L20.09,96.38C21.22,97.08 21.58,97.38 21.58,98.04C21.58,98.91 21.18,99.51 19.69,99.51C19.12,99.51 18.21,99.51 17.64,99.43L17.63,99.43C17.52,99.43 17.43,99.52 17.43,99.63L17.43,100.13C17.43,100.27 17.43,100.32 17.67,100.35C18.35,100.47 19.039,100.53 19.73,100.53C22.18,100.53 22.8,99.24 22.8,98.04C22.8,97.04 22.29,96.37 20.8,95.51L19.65,94.83C18.71,94.26 18.3,93.91 18.3,93.32C18.3,92.42 18.85,92.14 20.13,92.14C20.85,92.14 21.72,92.14 22.26,92.22L22.27,92.22C22.38,92.22 22.47,92.13 22.47,92.02L22.47,91.49C22.47,91.36 22.38,91.3 22.26,91.27C21.543,91.18 20.822,91.133 20.1,91.13C18.21,91.13 17.1,91.82 17.1,93.32" style="fill:rgb(0,59,87);fill-rule:nonzero;"/>
                                    <path d="M25,96.43C25,95.09 25.59,94.43 26.66,94.43C27.73,94.43 28.29,94.98 28.29,96.43L28.29,96.54L25,96.54L25,96.43M23.9,96.43L23.9,97.55C23.9,99.86 25.3,100.55 26.72,100.55C27.468,100.551 28.215,100.48 28.95,100.34C29.085,100.336 29.193,100.225 29.193,100.09C29.193,100.077 29.192,100.063 29.19,100.05L29.19,99.619C29.19,99.526 29.114,99.449 29.02,99.449C29.014,99.449 29.007,99.449 29,99.45L28.9,99.45C28.167,99.546 27.429,99.593 26.69,99.59C25.55,99.59 24.97,99.05 24.97,97.59L24.97,97.41L29.13,97.41C29.28,97.41 29.36,97.3 29.36,97.14L29.36,96.47C29.36,94.71 28.44,93.56 26.63,93.56C26.57,93.556 26.511,93.554 26.451,93.554C25.024,93.554 23.851,94.727 23.851,96.154C23.851,96.26 23.857,96.365 23.87,96.47" style="fill:rgb(0,59,87);fill-rule:nonzero;"/>
                                    <path d="M30.51,96.54L30.51,97.54C30.51,99.37 31.46,100.54 33.15,100.54C33.67,100.541 34.189,100.494 34.7,100.4C34.9,100.4 34.95,100.29 34.95,100.13L34.95,99.68C34.945,99.579 34.861,99.499 34.76,99.499C34.753,99.499 34.747,99.499 34.74,99.5L34.69,99.5C34.179,99.558 33.664,99.585 33.15,99.58C32.15,99.58 31.6,98.91 31.6,97.52L31.6,96.52C31.6,95.12 32.16,94.46 33.15,94.46C33.665,94.453 34.179,94.483 34.69,94.55L34.74,94.55C34.747,94.551 34.753,94.551 34.76,94.551C34.864,94.551 34.95,94.465 34.95,94.361L34.95,93.91C34.95,93.74 34.9,93.68 34.7,93.64C34.188,93.551 33.67,93.504 33.15,93.5C31.45,93.5 30.51,94.69 30.51,96.5" style="fill:rgb(0,59,87);fill-rule:nonzero;"/>
                                    <path d="M40.6,93.61C40.465,93.615 40.355,93.725 40.35,93.86L40.35,99.1C39.835,99.38 39.265,99.544 38.68,99.58C37.68,99.58 37.31,99.2 37.31,97.94L37.31,93.86C37.31,93.723 37.197,93.61 37.06,93.61L36.47,93.61C36.333,93.61 36.22,93.723 36.22,93.86L36.22,97.94C36.22,99.6 36.89,100.53 38.38,100.53C39.087,100.531 39.78,100.334 40.38,99.96L40.38,100.2C40.38,100.332 40.488,100.44 40.62,100.44L41.24,100.44C41.372,100.44 41.48,100.332 41.48,100.2L41.48,93.86C41.48,93.727 41.373,93.615 41.24,93.61L40.6,93.61" style="fill:rgb(0,59,87);fill-rule:nonzero;"/>
                                    <path d="M44.07,94.12L44.07,93.85C44.07,93.718 43.962,93.61 43.83,93.61L43.25,93.61C43.118,93.61 43.01,93.718 43.01,93.85L43.01,100.19C43.01,100.323 43.117,100.435 43.25,100.44L43.85,100.44C43.987,100.44 44.1,100.327 44.1,100.19L44.1,95C44.612,94.667 45.209,94.487 45.82,94.48C45.99,94.48 46.08,94.4 46.08,94.27L46.08,93.76C46.08,93.61 45.99,93.53 45.82,93.53C45.187,93.536 44.573,93.746 44.07,94.13" style="fill:rgb(0,59,87);fill-rule:nonzero;"/>
                                    <path d="M47.52,93.61C47.383,93.61 47.27,93.723 47.27,93.86L47.27,100.19C47.27,100.327 47.383,100.44 47.52,100.44L48.11,100.44C48.247,100.44 48.36,100.327 48.36,100.19L48.36,93.86C48.36,93.723 48.247,93.61 48.11,93.61L47.52,93.61M47.52,91.03C47.387,91.03 47.275,91.137 47.27,91.27L47.27,92.27C47.27,92.407 47.383,92.52 47.52,92.52L48.15,92.52C48.287,92.52 48.4,92.407 48.4,92.27L48.4,91.27C48.395,91.137 48.283,91.03 48.15,91.03L47.52,91.03" style="fill:rgb(0,59,87);fill-rule:nonzero;"/>
                                    <path d="M51.85,92L51.21,92.1C51.083,92.115 50.984,92.222 50.98,92.35L50.98,93.57L49.78,93.57C49.773,93.569 49.767,93.569 49.76,93.569C49.639,93.569 49.54,93.668 49.54,93.789L49.54,94.13C49.54,94.27 49.64,94.34 49.78,94.35L50.98,94.49L50.98,98.82C50.98,100.19 51.53,100.49 52.67,100.49C52.941,100.485 53.211,100.465 53.48,100.43C53.64,100.43 53.7,100.33 53.7,100.21L53.7,99.78C53.7,99.66 53.62,99.61 53.44,99.61L52.75,99.61C52.25,99.61 52.08,99.51 52.08,98.82L52.08,94.53L53.42,94.53C53.557,94.53 53.67,94.417 53.67,94.28L53.67,93.86C53.67,93.723 53.557,93.61 53.42,93.61L52.08,93.61L52.08,92.26C52.081,92.253 52.081,92.247 52.081,92.24C52.081,92.133 51.996,92.045 51.89,92.04" style="fill:rgb(0,59,87);fill-rule:nonzero;"/>
                                    <path d="M59.14,93.61C59.03,93.616 58.936,93.693 58.91,93.8L57.39,99.47L57.19,99.47C57.11,99.47 57.02,99.47 56.96,99.2L55.49,93.81C55.473,93.704 55.387,93.622 55.28,93.61L54.6,93.61C54.593,93.609 54.587,93.609 54.58,93.609C54.465,93.609 54.37,93.704 54.37,93.819L54.37,93.91L56,99.58C56.22,100.35 56.54,100.44 56.92,100.44L57.09,100.44L57,101C56.79,101.87 56.47,102.06 55.77,102.06C55.49,102.06 54.93,102.01 54.66,101.98C54.53,101.98 54.43,102.04 54.43,102.18L54.43,102.64C54.43,102.76 54.54,102.8 54.69,102.84C55.019,102.908 55.354,102.945 55.69,102.95C57.12,102.95 57.58,102.45 57.97,101.11L59.97,93.96L59.97,93.86C59.97,93.75 59.88,93.66 59.77,93.66L59.07,93.66" style="fill:rgb(0,59,87);fill-rule:nonzero;"/>
                                    <path d="M65.18,91.21C65.054,91.21 64.95,91.314 64.95,91.44L64.95,100.2C64.95,100.328 65.052,100.435 65.18,100.44L65.86,100.44C65.983,100.435 66.081,100.333 66.081,100.21C66.081,100.203 66.081,100.197 66.08,100.19L66.08,91.44C66.08,91.317 65.982,91.215 65.86,91.21L65.18,91.21" style="fill:rgb(0,59,87);fill-rule:nonzero;"/>
                                    <path d="M72.05,94C71.736,93.644 71.273,93.456 70.8,93.49C70.155,93.513 69.528,93.713 68.99,94.07L68.99,93.83C68.99,93.698 68.882,93.59 68.75,93.59L68.13,93.59C68.002,93.595 67.9,93.702 67.9,93.83L67.9,100.17C67.899,100.18 67.898,100.19 67.898,100.2C67.898,100.318 67.992,100.416 68.11,100.42L68.77,100.42C68.898,100.409 68.996,100.298 68.99,100.17L68.99,95C69.454,94.735 69.968,94.571 70.5,94.52C71.15,94.52 71.5,94.74 71.5,95.82L71.5,100.24C71.499,100.247 71.499,100.254 71.499,100.261C71.499,100.38 71.591,100.48 71.71,100.49L72.37,100.49C72.498,100.485 72.6,100.378 72.6,100.25L72.6,95.77C72.608,95.433 72.568,95.096 72.48,94.77C72.945,94.579 73.438,94.468 73.94,94.44C74.58,94.44 75.07,94.72 75.07,95.77L75.07,100.16C75.07,100.293 75.177,100.405 75.31,100.41L75.91,100.41C76.047,100.41 76.16,100.297 76.16,100.16L76.16,95.8C76.16,94.07 75.26,93.51 74.16,93.51C73.445,93.531 72.742,93.705 72.1,94.02" style="fill:rgb(0,59,87);fill-rule:nonzero;"/>
                                    <path d="M78.78,99.48L78.78,94.57C79.259,94.484 79.744,94.44 80.23,94.44C81.46,94.44 81.84,95.29 81.84,96.59L81.84,97.48C81.84,98.81 81.45,99.61 80.23,99.61C79.744,99.606 79.259,99.562 78.78,99.48M77.94,93.81C77.72,93.81 77.68,93.93 77.68,94.09L77.68,102.65C77.68,102.771 77.779,102.87 77.9,102.87L78.55,102.87C78.676,102.87 78.78,102.766 78.78,102.64L78.78,100.39C79.259,100.477 79.744,100.524 80.23,100.53C82.04,100.53 82.94,99.43 82.94,97.53L82.94,96.64C82.94,94.78 82.08,93.57 80.23,93.57C79.458,93.581 78.69,93.679 77.94,93.86" style="fill:rgb(0,59,87);fill-rule:nonzero;"/>
                                    <path d="M85.33,94.12L85.33,93.85C85.33,93.722 85.228,93.615 85.1,93.61L84.51,93.61C84.382,93.615 84.28,93.722 84.28,93.85L84.28,100.2C84.28,100.328 84.382,100.435 84.51,100.44L85.12,100.44C85.257,100.44 85.37,100.327 85.37,100.19L85.37,95C85.879,94.667 86.472,94.487 87.08,94.48C87.26,94.48 87.34,94.4 87.34,94.27L87.34,93.76C87.34,93.61 87.26,93.53 87.08,93.53C86.448,93.541 85.835,93.751 85.33,94.13" style="fill:rgb(0,59,87);fill-rule:nonzero;"/>
                                    <path d="M89.27,97.5L89.27,96.5C89.27,95.22 89.78,94.43 90.93,94.43C92.08,94.43 92.61,95.24 92.61,96.5L92.61,97.5C92.61,98.78 92.09,99.57 90.93,99.57C89.77,99.57 89.27,98.76 89.27,97.5M88.18,96.5L88.18,97.5C88.18,99.32 89.11,100.5 90.93,100.5C92.75,100.5 93.7,99.29 93.7,97.5L93.7,96.5C93.7,94.68 92.76,93.5 90.93,93.5C89.1,93.5 88.18,94.71 88.18,96.5" style="fill:rgb(0,59,87);fill-rule:nonzero;"/>
                                    <path d="M99.42,93.61C99.32,93.61 99.23,93.68 99.18,93.85L97.75,99.26C97.68,99.56 97.6,99.62 97.49,99.62C97.38,99.62 97.3,99.56 97.23,99.26L95.8,93.85C95.8,93.68 95.66,93.61 95.57,93.61L94.88,93.61C94.77,93.61 94.68,93.7 94.68,93.81L94.68,93.91L96.35,99.82C96.555,100.252 96.992,100.528 97.47,100.528C97.948,100.528 98.385,100.252 98.59,99.82L100.27,93.91L100.27,93.81C100.27,93.7 100.18,93.61 100.07,93.61L99.39,93.61" style="fill:rgb(0,59,87);fill-rule:nonzero;"/>
                                    <path d="M102.37,96.43C102.37,95.09 102.97,94.43 104.03,94.43C105.09,94.43 105.66,94.98 105.66,96.43L105.66,96.54L102.37,96.54L102.37,96.43M101.28,96.43L101.28,97.55C101.28,99.86 102.67,100.55 104.1,100.55C104.845,100.55 105.588,100.48 106.32,100.34C106.52,100.34 106.57,100.21 106.57,100.05L106.57,99.629C106.57,99.53 106.489,99.449 106.39,99.449C106.383,99.449 106.377,99.449 106.37,99.45L106.31,99.45C105.577,99.546 104.839,99.593 104.1,99.59C102.95,99.59 102.37,99.05 102.37,97.59L102.37,97.41L106.532,97.41C106.664,97.41 106.772,97.302 106.772,97.17C106.772,97.16 106.771,97.15 106.77,97.14L106.77,96.47C106.77,94.71 105.85,93.56 104.03,93.56C103.974,93.556 103.917,93.554 103.861,93.554C102.434,93.554 101.261,94.728 101.261,96.154C101.261,96.26 101.267,96.365 101.28,96.47" style="fill:rgb(0,59,87);fill-rule:nonzero;"/>
                                    <path d="M109,97.46L109,96.57C109,95.24 109.4,94.48 110.62,94.48C111.105,94.471 111.59,94.501 112.07,94.57L112.07,99.5C111.65,99.5 111.07,99.57 110.62,99.57C109.39,99.57 109,98.81 109,97.46M112.31,91.1C112.178,91.1 112.07,91.208 112.07,91.34L112.07,93.65C111.591,93.566 111.106,93.523 110.62,93.52C108.8,93.52 107.91,94.61 107.91,96.52L107.91,97.41C107.91,99.27 108.77,100.48 110.62,100.48C111.385,100.484 112.149,100.413 112.9,100.27C113.13,100.27 113.16,100.14 113.16,99.98L113.16,91.33C113.16,91.207 113.062,91.105 112.94,91.1L112.31,91.1" style="fill:rgb(0,59,87);fill-rule:nonzero;"/>
                                    <path d="M85.33,76.61L85.25,76.69L85.25,77.02L85.33,77.1L86.07,77.1L86.07,79.66L86.15,79.74L86.57,79.74L86.65,79.66L86.65,77.1L87.39,77.1L87.48,77.02L87.48,76.69L87.39,76.61L85.33,76.61Z" style="fill:rgb(0,59,87);fill-rule:nonzero;"/>
                                    <path d="M90.05,76.61L89.89,76.71L89.26,78L89.21,78.06L89.21,78L88.58,76.71L88.42,76.61L88,76.61C87.911,76.615 87.84,76.69 87.84,76.78L87.84,79.68L87.91,79.74L88.33,79.74L88.4,79.66L88.4,77.66L88.81,78.47L88.95,78.54L89.37,78.54L89.51,78.47L89.91,77.66L89.91,79.66L89.97,79.74L90.4,79.74L90.47,79.68L90.47,76.78C90.47,76.687 90.393,76.61 90.3,76.61L89.96,76.61" style="fill:rgb(0,59,87);fill-rule:nonzero;"/>
                                    <g>
                                        <g>
                                            <clipPath id="_clip2">
                                                <path d="M31.05,24.66C26.12,24.98 26.85,33.66 29.05,37.66C32.68,44.26 37.05,52.31 41.4,59.54C46.01,67.23 50.62,74.54 54.85,78.54C57.193,80.814 60.272,82.179 63.53,82.39L68.61,82.39C73.84,81.2 71.47,76.92 69.78,75.62C61.5,69.24 49.78,49.49 41.72,35.88C38,29.54 34.52,24.61 32.45,24.61C31.93,24.61 31.45,24.61 31.05,24.66"/>
                                            </clipPath>
                                            <g clip-path="url(#_clip2)">
                                                <g transform="matrix(0.84386,-0.536563,0.536563,0.84386,-20.88,35.16)">
                                                    <rect x="14.37" y="16.32" width="71.21" height="74.28" style="fill:url(#_Linear3);"/>
                                                </g>
                                            </g>
                                        </g>
                                    </g>
                                    <path d="M23.52,24.62C21.52,24.62 17.61,26.62 17.61,30.62L17.61,64.79C17.615,65.249 17.991,65.625 18.45,65.63L28.56,65.63C29.019,65.625 29.395,65.249 29.4,64.79C29.405,64.331 29.4,34.22 29.4,29.95C29.4,25.68 32.57,24.66 32.57,24.66L23.57,24.66" style="fill:rgb(0,59,87);fill-rule:nonzero;"/>
                                    <path d="M110.87,0C108.257,0.048 105.872,1.529 104.67,3.85C103.43,6.37 100.76,11.54 100.76,11.54L113.85,11.54C114.288,11.51 114.683,11.262 114.9,10.88L117.07,6.49L120.33,0L110.87,0" style="fill:rgb(0,59,87);fill-rule:nonzero;"/>
                                    <path d="M50,36.22C50,40.85 51.95,44.53 57.36,47.44L64.49,51.6C66.89,52.88 67.39,53.45 67.39,54.44C67.39,55.61 66.66,56.25 64.6,56.34C61.322,56.415 58.044,56.251 54.79,55.85C53.23,55.68 51.79,55.43 50.98,55.37L50.868,55.37C50.32,55.37 49.868,55.821 49.868,56.37C49.868,56.39 49.869,56.41 49.87,56.43L49.87,64.49C49.87,65.11 50.37,65.38 50.87,65.55C53.16,66.22 60.76,66.95 65.11,66.83C77.11,66.52 79.93,61.66 79.93,55.59C79.93,51.3 77.7,46.92 72.46,43.85L64.46,39.7C62.4,38.47 61.69,37.7 61.69,36.59C61.69,34.81 62.63,34.06 65.35,33.9C69.018,33.77 72.691,33.854 76.35,34.15L76.46,34.15C76.474,34.151 76.488,34.151 76.501,34.151C77.05,34.151 77.501,33.699 77.501,33.151C77.501,33.1 77.498,33.05 77.49,33L77.49,26.18C77.49,25.57 76.88,25.18 76.31,25.07C72.809,24.367 69.24,24.055 65.67,24.14C54.68,24.14 50,30 50,36.22" style="fill:rgb(0,59,87);fill-rule:nonzero;"/>
                                    <path d="M97.08,19C93.08,27 77.91,58.59 71.41,71.25C70.29,73.43 69.81,74.49 68.94,76.08C66.73,80.08 64.61,81.7 63.45,82.32L75.12,82.32C80.56,82.32 83.12,74.97 84.66,72.03C87.13,67.18 112.37,15.89 112.41,15.83L101.85,15.83C99.833,16.025 98.041,17.215 97.08,19" style="fill:rgb(0,59,87);fill-rule:nonzero;"/>
                                </g>
                            </g>
                        </g>
                    </g>
                </g>
            </g>
        </g>
        <g id="nsi2" serif:id="nsi">
        </g>
    </g>
    <defs>
        <linearGradient id="_Linear3" x1="0" y1="0" x2="1" y2="0" gradientUnits="userSpaceOnUse" gradientTransform="matrix(1.7949e-14,63.3621,-63.3621,1.7949e-14,54.2023,25.3452)"><stop offset="0" style="stop-color:rgb(0,83,152);stop-opacity:1"/><stop offset="0.16" style="stop-color:rgb(5,119,182);stop-opacity:1"/><stop offset="0.4" style="stop-color:rgb(13,168,223);stop-opacity:1"/><stop offset="0.52" style="stop-color:rgb(16,187,239);stop-opacity:1"/><stop offset="0.61" style="stop-color:rgb(15,183,235);stop-opacity:1"/><stop offset="0.7" style="stop-color:rgb(14,170,223);stop-opacity:1"/><stop offset="0.79" style="stop-color:rgb(11,150,204);stop-opacity:1"/><stop offset="0.88" style="stop-color:rgb(7,121,176);stop-opacity:1"/><stop offset="0.97" style="stop-color:rgb(2,84,141);stop-opacity:1"/><stop offset="1" style="stop-color:rgb(0,70,128);stop-opacity:1"/></linearGradient>
    </defs>
</svg>
