<?xml version="1.0" encoding="UTF-8" standalone="no"?>
<!DOCTYPE svg PUBLIC "-//W3C//DTD SVG 1.1//EN" "http://www.w3.org/Graphics/SVG/1.1/DTD/svg11.dtd">
<svg width="100%" height="100%" viewBox="0 0 800 600" version="1.1" xmlns="http://www.w3.org/2000/svg" xmlns:xlink="http://www.w3.org/1999/xlink" xml:space="preserve" xmlns:serif="http://www.serif.com/" style="fill-rule:evenodd;clip-rule:evenodd;stroke-linejoin:round;stroke-miterlimit:2;">
    <g id="security-institute" serif:id="security institute" transform="matrix(1.74103,0,0,1.74103,-252.885,-352.885)">
        <g transform="matrix(4.16667,0,0,4.16667,541.176,355.653)">
            <path d="M0,-0.142L0.939,-1.805L1.471,-1.805L0.24,0.287L0.24,1.663L-0.252,1.663L-0.252,0.287L-1.471,-1.805L-0.924,-1.805L0,-0.142Z" style="fill:rgb(13,58,91);fill-rule:nonzero;"/>
        </g>
        <g transform="matrix(4.16667,0,0,4.16667,387.084,348.114)">
            <path d="M0,3.474L-0.492,3.474L-0.492,1.925L-2.303,1.925L-2.303,3.474L-2.8,3.474L-2.8,0L-2.303,0.002L-2.303,1.492L-0.492,1.492L-0.492,0.002L0,0.002L0,3.474Z" style="fill:rgb(13,58,91);fill-rule:nonzero;"/>
        </g>
        <g transform="matrix(4.16667,0,0,4.16667,404.223,348.11)">
            <path d="M0,3.475L-2.09,3.475L-2.09,0L-0.063,0.003L-0.063,0.431L-1.593,0.431L-1.593,1.493L-0.476,1.493L-0.476,1.926L-1.593,1.916L-1.593,3.042L0,3.042L0,3.475Z" style="fill:rgb(13,58,91);fill-rule:nonzero;"/>
        </g>
        <g transform="matrix(4.16667,0,0,4.16667,445.561,348.11)">
            <path d="M0,3.475L-2.092,3.475L-2.092,0L-0.063,0.003L-0.063,0.431L-1.594,0.431L-1.594,1.493L-0.477,1.493L-0.477,1.926L-1.594,1.916L-1.594,3.042L0,3.042L0,3.475Z" style="fill:rgb(13,58,91);fill-rule:nonzero;"/>
        </g>
        <g transform="matrix(4.16667,0,0,4.16667,459.6,360.685)">
            <path d="M0,-2.567C-0.42,-2.567 -0.706,-2.5 -0.95,-2.257C-1.193,-2.011 -1.331,-1.719 -1.331,-1.293C-1.331,-0.855 -1.193,-0.562 -0.959,-0.323C-0.726,-0.085 -0.438,0.003 -0.006,0.003C0.261,0.003 0.56,-0.085 0.865,-0.234L0.865,0.256C0.602,0.342 0.315,0.449 -0.074,0.449C-0.636,0.449 -1.069,0.278 -1.375,-0.02C-1.68,-0.321 -1.832,-0.747 -1.832,-1.297C-1.832,-1.643 -1.759,-1.945 -1.611,-2.204C-1.465,-2.464 -1.252,-2.679 -0.975,-2.818C-0.697,-2.96 -0.371,-3.016 0.005,-3.016C0.404,-3.016 0.646,-2.899 0.865,-2.774L0.865,-2.282C0.572,-2.45 0.288,-2.567 0,-2.567" style="fill:rgb(13,58,91);fill-rule:nonzero;"/>
        </g>
        <g transform="matrix(4.16667,0,0,4.16667,482.443,362.587)">
            <path d="M0,-3.472L0,-1.255C0,-0.865 -0.119,-0.557 -0.361,-0.335C-0.599,-0.111 -0.931,0 -1.349,0C-1.769,0 -2.093,-0.113 -2.324,-0.338C-2.553,-0.561 -2.667,-0.871 -2.667,-1.266L-2.667,-3.472L-2.171,-3.472L-2.171,-1.228C-2.171,-0.942 -2.098,-0.815 -1.94,-0.662C-1.78,-0.508 -1.632,-0.448 -1.323,-0.448C-1.029,-0.448 -0.888,-0.511 -0.728,-0.664C-0.57,-0.819 -0.492,-0.945 -0.492,-1.233L-0.492,-3.472L0,-3.472Z" style="fill:rgb(13,58,91);fill-rule:nonzero;"/>
        </g>
        <g transform="matrix(4.16667,0,0,4.16667,-1298.86,87.6746)">
            <rect x="433.806" y="62.507" width="0.499" height="3.472" style="fill:rgb(13,58,91);"/>
        </g>
        <g transform="matrix(4.16667,0,0,4.16667,524.444,348.138)">
            <path d="M0,3.467L-0.497,3.467L-0.497,0.426L-1.497,0.426L-1.497,0L1.029,0L1.029,0.426L0,0.426L0,3.467Z" style="fill:rgb(13,58,91);fill-rule:nonzero;"/>
        </g>
        <g transform="matrix(4.16667,0,0,4.16667,492.809,355.155)">
            <path d="M0,0.092L0.526,0.092C0.83,0.092 1.054,0.053 1.196,-0.069C1.338,-0.191 1.373,-0.359 1.373,-0.603C1.373,-0.85 1.309,-1.015 1.164,-1.123C1.019,-1.232 0.816,-1.259 0.496,-1.259L-0.005,-1.265L0,0.092ZM0,0.509L0,1.784L-0.497,1.787L-0.495,-1.695L0.521,-1.695C0.976,-1.695 1.313,-1.63 1.529,-1.456C1.746,-1.28 1.856,-0.992 1.856,-0.64C1.856,-0.145 1.842,0.209 1.181,0.445L2.054,1.784L1.457,1.784L0.667,0.509L0,0.509Z" style="fill:rgb(13,58,91);fill-rule:nonzero;"/>
        </g>
        <g transform="matrix(4.16667,0,0,4.16667,363.665,348.138)">
            <path d="M0,3.467L-0.498,3.467L-0.498,0.426L-1.498,0.426L-1.498,0L1.029,0L1.029,0.426L0,0.426L0,3.467Z" style="fill:rgb(13,58,91);fill-rule:nonzero;"/>
        </g>
        <g transform="matrix(4.16667,0,0,4.16667,429.192,352.11)">
            <path d="M0,1.554C0,1.857 -0.101,2.094 -0.303,2.266C-0.504,2.438 -0.781,2.525 -1.134,2.525C-1.489,2.525 -1.777,2.464 -2.005,2.344L-2.005,1.819C-1.862,1.893 -1.71,1.95 -1.549,1.992C-1.389,2.033 -1.239,2.055 -1.101,2.055C-0.898,2.055 -0.749,2.012 -0.652,1.928C-0.557,1.846 -0.508,1.734 -0.508,1.592C-0.508,1.465 -0.553,1.357 -0.641,1.269C-0.729,1.18 -0.911,1.077 -1.188,0.955C-1.474,0.829 -1.676,0.686 -1.793,0.524C-1.909,0.363 -1.967,0.171 -1.967,-0.057C-1.967,-0.34 -1.874,-0.563 -1.69,-0.726C-1.504,-0.888 -1.255,-0.971 -0.942,-0.971C-0.642,-0.971 -0.344,-0.898 -0.048,-0.756L-0.21,-0.303C-0.487,-0.431 -0.736,-0.494 -0.955,-0.494C-1.121,-0.494 -1.246,-0.455 -1.332,-0.377C-1.418,-0.298 -1.461,-0.195 -1.461,-0.067C-1.461,0.023 -1.444,0.098 -1.409,0.161C-1.374,0.223 -1.318,0.283 -1.24,0.339C-1.161,0.395 -1.02,0.467 -0.815,0.559C-0.585,0.663 -0.418,0.761 -0.31,0.849C-0.204,0.94 -0.125,1.042 -0.075,1.155C-0.025,1.268 0,1.402 0,1.554" style="fill:rgb(13,58,91);fill-rule:nonzero;"/>
        </g>
        <g transform="matrix(4.16667,0,0,4.16667,393.119,383.856)">
            <path d="M0,4.622L-0.072,4.622L-3.011,1.97L-3.036,1.126C-2.997,1.744 -3.011,2.185 -3.011,2.448L-3.011,4.622L-3.975,4.622L-3.975,0L-3.894,0L-0.953,2.648L-0.953,3.053C-0.985,2.453 -0.953,2.437 -0.953,2.189L-0.953,0.001L0,0L0,4.622Z" style="fill:rgb(13,58,91);fill-rule:nonzero;"/>
        </g>
        <g transform="matrix(4.16667,0,0,4.16667,415.764,389.253)">
            <path d="M0,2.012C0,2.42 -0.147,2.741 -0.441,2.975C-0.733,3.21 -1.143,3.327 -1.664,3.327C-2.147,3.327 -2.572,3.238 -2.944,3.056L-2.944,2.166C-2.641,2.302 -2.382,2.398 -2.171,2.453C-1.96,2.509 -1.766,2.537 -1.592,2.537C-1.38,2.537 -1.22,2.497 -1.108,2.416C-0.996,2.336 -0.94,2.217 -0.94,2.058C-0.94,1.969 -0.963,1.891 -1.013,1.821C-1.063,1.753 -1.135,1.686 -1.231,1.623C-1.326,1.558 -1.522,1.457 -1.817,1.317C-2.093,1.187 -2.299,1.062 -2.438,0.943C-2.575,0.823 -2.687,0.684 -2.769,0.526C-2.852,0.367 -2.892,0.182 -2.892,-0.03C-2.892,-0.431 -2.756,-0.745 -2.486,-0.973C-2.215,-1.201 -1.84,-1.315 -1.363,-1.315C-1.127,-1.315 -0.903,-1.289 -0.691,-1.232C-0.477,-1.177 -0.255,-1.097 -0.023,-0.997L-0.331,-0.252C-0.572,-0.351 -0.771,-0.421 -0.93,-0.459C-1.087,-0.498 -1.242,-0.519 -1.393,-0.519C-1.575,-0.519 -1.713,-0.477 -1.81,-0.392C-1.907,-0.307 -1.956,-0.197 -1.956,-0.061C-1.956,0.023 -1.937,0.097 -1.897,0.159C-1.858,0.223 -1.796,0.285 -1.71,0.342C-1.626,0.401 -1.422,0.507 -1.103,0.659C-0.681,0.859 -0.392,1.062 -0.235,1.265C-0.079,1.469 0,1.717 0,2.012" style="fill:rgb(13,58,91);fill-rule:nonzero;"/>
        </g>
        <g transform="matrix(4.16667,0,0,4.16667,433.128,383.86)">
            <path d="M0,4.621L-0.98,4.621L-0.98,0.816L-2.236,0.816L-2.236,0L1.255,0L1.255,0.816L0,0.816L0,4.621Z" style="fill:rgb(13,58,91);fill-rule:nonzero;"/>
        </g>
        <g transform="matrix(4.16667,0,0,4.16667,-1298.86,163.945)">
            <rect x="398.522" y="52.78" width="0.983" height="4.621" style="fill:rgb(13,58,91);"/>
        </g>
        <g transform="matrix(4.16667,0,0,4.16667,-1298.86,163.945)">
            <rect x="419.242" y="52.78" width="0.982" height="4.621" style="fill:rgb(13,58,91);"/>
        </g>
        <g transform="matrix(4.16667,0,0,4.16667,471.019,383.86)">
            <path d="M0,4.621L-0.981,4.621L-0.981,0.816L-2.235,0.816L-2.235,0L1.256,0L1.256,0.816L0,0.816L0,4.621Z" style="fill:rgb(13,58,91);fill-rule:nonzero;"/>
        </g>
        <g transform="matrix(4.16667,0,0,4.16667,501.331,403.187)">
            <path d="M0,-4.638L0,-1.678C0,-1.339 -0.074,-1.043 -0.225,-0.789C-0.375,-0.535 -0.59,-0.34 -0.873,-0.203C-1.155,-0.069 -1.489,0 -1.876,0C-2.457,0 -2.91,-0.152 -3.232,-0.453C-3.553,-0.754 -3.714,-1.167 -3.714,-1.69L-3.714,-4.638L-2.758,-4.638L-2.758,-1.837C-2.758,-1.485 -2.688,-1.226 -2.547,-1.061C-2.406,-0.897 -2.175,-0.815 -1.851,-0.815C-1.537,-0.815 -1.31,-0.897 -1.168,-1.063C-1.027,-1.228 -0.957,-1.488 -0.957,-1.844L-0.957,-4.638L0,-4.638Z" style="fill:rgb(13,58,91);fill-rule:nonzero;"/>
        </g>
        <g transform="matrix(4.16667,0,0,4.16667,547.295,383.86)">
            <path d="M0,4.621L-2.925,4.621L-2.925,0L0,0L0,0.803L-1.946,0.803L-1.946,1.863L-0.61,1.863L-0.61,2.668L-1.946,2.668L-1.946,3.812L0,3.812L0,4.621Z" style="fill:rgb(13,58,91);fill-rule:nonzero;"/>
        </g>
        <g transform="matrix(4.16667,0,0,4.16667,520.248,383.86)">
            <path d="M0,4.621L-0.98,4.621L-0.98,0.816L-2.236,0.816L-2.236,0L1.255,0L1.255,0.816L0,0.816L0,4.621Z" style="fill:rgb(13,58,91);fill-rule:nonzero;"/>
        </g>
        <g transform="matrix(4.16667,0,0,4.16667,273.562,445.863)">
            <path d="M0,-34.015C-9.393,-34.015 -17.008,-26.401 -17.008,-17.007C-17.008,-7.615 -9.393,0 0,0C9.393,0 17.008,-7.615 17.008,-17.007C17.008,-26.401 9.393,-34.015 0,-34.015M0,-8.042C-5.186,-8.042 -9.39,-12.245 -9.39,-17.43C-9.39,-22.617 -5.186,-26.82 0,-26.82C5.186,-26.82 9.39,-22.617 9.39,-17.43C9.39,-12.245 5.186,-8.042 0,-8.042" style="fill:rgb(97,109,137);fill-rule:nonzero;"/>
        </g>
        <g transform="matrix(4.16667,0,0,4.16667,261.946,350.916)">
            <path d="M0,1.5L-3.509,-0.941L-0.128,2.441L0,1.5Z" style="fill:rgb(244,244,247);fill-rule:nonzero;"/>
        </g>
        <g transform="matrix(4.16667,0,0,4.16667,257.387,346.996)">
            <path d="M0,3.55L-2.415,0L0.967,3.381L0,3.55Z" style="fill:rgb(13,58,91);fill-rule:nonzero;"/>
        </g>
        <g transform="matrix(4.16667,0,0,4.16667,284.968,351.024)">
            <path d="M0,1.449L3.524,-0.966L0.143,2.415L0,1.449Z" style="fill:rgb(13,58,91);fill-rule:nonzero;"/>
        </g>
        <g transform="matrix(4.16667,0,0,4.16667,289.584,347)">
            <path d="M0,3.509L2.416,0L-0.966,3.381L0,3.509Z" style="fill:rgb(244,244,247);fill-rule:nonzero;"/>
        </g>
        <g transform="matrix(4.16667,0,0,4.16667,262.062,395.297)">
            <path d="M0,-1.449L-3.536,0.966L-0.155,-2.415L0,-1.449Z" style="fill:rgb(13,58,91);fill-rule:nonzero;"/>
        </g>
        <g transform="matrix(4.16667,0,0,4.16667,257.387,399.325)">
            <path d="M0,-3.491L-2.415,0L0.967,-3.381L0,-3.491Z" style="fill:rgb(244,244,247);fill-rule:nonzero;"/>
        </g>
        <g transform="matrix(4.16667,0,0,4.16667,284.968,395.297)">
            <path d="M0,-1.449L3.524,0.966L0.143,-2.415L0,-1.449Z" style="fill:rgb(244,244,247);fill-rule:nonzero;"/>
        </g>
        <g transform="matrix(4.16667,0,0,4.16667,289.584,399.327)">
            <path d="M0,-3.552L2.416,0L-0.966,-3.381L0,-3.552Z" style="fill:rgb(13,58,91);fill-rule:nonzero;"/>
        </g>
        <g transform="matrix(4.16667,0,0,4.16667,273.562,445.863)">
            <path d="M0,-34.015C-9.393,-34.015 -17.008,-26.401 -17.008,-17.007C-17.008,-7.615 -9.393,0 0,0C9.393,0 17.008,-7.615 17.008,-17.007C17.008,-26.401 9.393,-34.015 0,-34.015M0,-8.042C-5.186,-8.042 -9.39,-12.245 -9.39,-17.43C-9.39,-22.617 -5.186,-26.82 0,-26.82C5.186,-26.82 9.39,-22.617 9.39,-17.43C9.39,-12.245 5.186,-8.042 0,-8.042" style="fill:rgb(178,178,178);fill-rule:nonzero;"/>
        </g>
        <g transform="matrix(4.16667,0,0,4.16667,263.428,373.159)">
            <path d="M0,-2.415L-14.571,0L2.415,0L0,-2.415Z" style="fill:rgb(244,244,247);fill-rule:nonzero;"/>
        </g>
        <g transform="matrix(4.16667,0,0,4.16667,263.428,435.795)">
            <path d="M0,-12.617L2.415,2.416L2.415,-15.033L0,-12.617Z" style="fill:rgb(244,244,247);fill-rule:nonzero;"/>
        </g>
        <g transform="matrix(4.16667,0,0,4.16667,263.428,314.197)">
            <path d="M0,11.736L2.415,-2.415L2.415,14.151L0,11.736Z" style="fill:rgb(13,58,91);fill-rule:nonzero;"/>
        </g>
        <g transform="matrix(4.16667,0,0,4.16667,263.428,373.158)">
            <path d="M0,2.416L-14.571,0L2.415,0L0,2.416Z" style="fill:rgb(13,58,91);fill-rule:nonzero;"/>
        </g>
        <g transform="matrix(4.16667,0,0,4.16667,338.13,363.825)">
            <path d="M0,2.025L-13.099,-0.175C-13.441,-0.225 -13.596,0.216 -13.832,0.466L-15.515,2.24L0.249,2.25L50.198,2.25L50.198,2.097L0.867,2.097C0.737,2.097 0.128,2.045 0,2.025" style="fill:rgb(13,58,91);fill-rule:nonzero;"/>
        </g>
        <g transform="matrix(4.16667,0,0,4.16667,338.146,382.474)">
            <path d="M0,-2.006L-13.103,0.18C-13.445,0.23 -13.596,-0.197 -13.832,-0.447L-15.519,-2.236L0.249,-2.231L50.198,-2.231L50.198,-2.076L0.867,-2.076C0.737,-2.076 0.128,-2.025 0,-2.006" style="fill:rgb(244,244,247);fill-rule:nonzero;"/>
        </g>
        <g transform="matrix(4.16667,0,0,4.16667,273.489,373.158)">
            <path d="M0,17.45L2.415,2.416L0,0L0,17.45Z" style="fill:rgb(13,58,91);fill-rule:nonzero;"/>
        </g>
        <g transform="matrix(4.16667,0,0,4.16667,283.549,314.197)">
            <path d="M0,11.736L-2.415,-2.415L-2.415,14.151L0,11.736Z" style="fill:rgb(244,244,247);fill-rule:nonzero;"/>
        </g>
    </g>
</svg>
