<?xml version="1.0" encoding="UTF-8" standalone="no"?>
<!DOCTYPE svg PUBLIC "-//W3C//DTD SVG 1.1//EN" "http://www.w3.org/Graphics/SVG/1.1/DTD/svg11.dtd">
<svg width="100%" height="100%" viewBox="0 0 500 190" version="1.1" xmlns="http://www.w3.org/2000/svg" xmlns:xlink="http://www.w3.org/1999/xlink" xml:space="preserve" xmlns:serif="http://www.serif.com/" style="fill-rule:evenodd;clip-rule:evenodd;stroke-linejoin:round;stroke-miterlimit:2;">
    <g transform="matrix(0.624402,0,0,0.624402,62.6792,-68.5937)">
        <g transform="matrix(4.76256,0,0,4.76256,614.881,343.001)">
            <path d="M0,-26.108L-3.102,-16.045L-3.215,-16.045L-6.506,-26.108L-14.604,-26.108L-14.604,-24.444L-7.716,-7.04L-10.252,-1.666L-10.252,0L-2.268,0L7.152,-24.444L7.152,-26.108L0,-26.108Z" style="fill:rgb(35,31,32);fill-rule:nonzero;"/>
        </g>
        <g transform="matrix(4.76256,0,0,4.76256,528.663,225.334)">
            <path d="M0,3.744L3.292,3.744L3.292,-1.402L0,-1.402L0,-6.245L-8.398,-6.245L-8.398,-1.402L-10.329,-1.402L-10.329,3.744L-8.398,3.744L-8.398,9.989L0,9.989L0,3.744Z" style="fill:rgb(35,31,32);fill-rule:nonzero;"/>
        </g>
        <g transform="matrix(4.76256,0,0,4.76256,473.96,218.665)">
            <path d="M0,11.389L0,3.972C0,0.681 -0.454,0 -2.837,0L-8.4,0L-8.4,11.389L0,11.389Z" style="fill:rgb(35,31,32);fill-rule:nonzero;"/>
        </g>
        <g transform="matrix(0,-4.76256,-4.76256,0,454.042,178.028)">
            <path d="M-4.18,-4.144C-2.023,-4.144 -0.624,-2.442 -0.624,0.018C-0.624,2.477 -2.023,4.18 -4.18,4.18C-6.337,4.18 -7.7,2.477 -7.7,0.018C-7.7,-2.442 -6.337,-4.144 -4.18,-4.144" style="fill:rgb(0,149,218);fill-rule:nonzero;"/>
        </g>
        <g transform="matrix(4.76256,0,0,4.76256,426.5,239.754)">
            <path d="M0,2.381L0.794,2.381L0.794,-4.43C0.454,-4.543 0.039,-4.581 -0.416,-4.581C-2.762,-4.581 -4.426,-3.408 -5.789,-1.366C-6.092,-3.975 -6.811,-4.43 -8.059,-4.43L-14.038,-4.43L-14.038,6.962L-5.6,6.962L-5.6,3.024C-4.426,2.683 -2.385,2.381 0,2.381" style="fill:rgb(35,31,32);fill-rule:nonzero;"/>
        </g>
        <g transform="matrix(4.76256,0,0,4.76256,206.032,216.862)">
            <path d="M0,20.696C3.443,20.696 5.904,19.751 7.227,18.917L7.227,13.998L4.465,13.998C3.708,14.604 2.762,15.171 1.098,15.171C-1.211,15.171 -2.498,13.697 -2.498,10.519C-2.498,7.187 -1.058,5.787 1.212,5.787C2.687,5.787 3.67,6.279 4.313,6.772L7.19,6.772L7.19,1.437C5.676,0.642 3.216,0 0.529,0C-6.584,0 -11.048,3.821 -11.048,10.442C-11.048,17.289 -6.886,20.696 0,20.696" style="fill:rgb(35,31,32);fill-rule:nonzero;"/>
        </g>
        <g transform="matrix(4.76256,0,0,4.76256,150.589,266.235)">
            <path d="M0,-0.038C0,-7.001 -3.292,-10.367 -9.95,-10.367C-16.572,-10.367 -20.735,-6.281 -20.735,0.112C-20.735,6.432 -17.178,10.329 -9.685,10.329C-5.298,10.329 -2.8,9.423 -0.833,8.36L-0.833,3.783L-3.519,3.783C-4.578,4.427 -6.129,4.994 -8.362,4.994C-10.706,4.994 -11.955,4.312 -12.297,1.817L-0.076,1.817C-0.076,1.552 0,0.907 0,-0.038M-7.719,-2.044L-12.334,-2.044C-12.07,-4.73 -11.125,-5.296 -9.95,-5.296C-8.55,-5.296 -7.832,-4.542 -7.719,-2.044" style="fill:rgb(35,31,32);fill-rule:nonzero;"/>
        </g>
        <g transform="matrix(4.76256,0,0,4.76256,-11.0992,278.845)">
            <path d="M0,-11.805C0,-12.94 0.945,-13.469 3.102,-13.469C5.033,-13.469 6.811,-12.826 7.756,-12.107L11.313,-12.107L11.313,-17.708C9.157,-18.843 6.394,-19.561 2.8,-19.561C-3.52,-19.561 -7.946,-16.761 -7.946,-11.01C-7.946,-5.371 -4.994,-3.556 -0.151,-2.498C2.649,-1.892 4.086,-1.701 4.086,-0.152C4.086,1.058 2.876,1.628 0.757,1.628C-1.476,1.628 -3.254,0.87 -4.237,-0.075L-7.794,-0.075L-7.794,5.64C-5.789,6.886 -2.8,7.756 1.135,7.756C8.627,7.756 12.562,4.465 12.562,-1.021C12.562,-6.054 10.519,-8.325 3.747,-9.686C1.172,-10.215 0,-10.519 0,-11.805" style="fill:rgb(35,31,32);fill-rule:nonzero;"/>
        </g>
        <g transform="matrix(4.76256,0,0,4.76256,308.117,256.963)">
            <path d="M0,4.233L0,5.957C-0.492,6.109 -1.135,6.222 -1.704,6.222C-3.255,6.222 -4.049,5.919 -4.049,4.407L-4.049,-8.043L-12.45,-8.043L-12.45,6.145C-12.45,10.876 -9.838,12.276 -6.584,12.276C-3.52,12.276 -1.513,10.8 0.188,9.211C0.49,11.593 1.172,11.935 2.459,11.935L8.399,11.935L8.399,4.233L0,4.233Z" style="fill:rgb(35,31,32);fill-rule:nonzero;"/>
        </g>
        <g transform="matrix(-4.76256,0,0,4.76256,1646.28,-296.948)">
            <rect x="272.576" y="108.262" width="8.399" height="11.39" style="fill:rgb(35,31,32);"/>
        </g>
        <g transform="matrix(4.76256,0,0,4.76256,-990.04,-168.378)">
            <rect x="268.535" y="93.543" width="63.636" height="13.832" style="fill:rgb(0,149,218);"/>
        </g>
        <g transform="matrix(4.76256,0,0,4.76256,307.647,286.956)">
            <path d="M0,9.706L0.693,9.706L0.693,0.886L0.748,0.886L4.134,9.706L4.674,9.706L8.072,0.886L8.141,0.886L8.141,9.706L8.89,9.706L8.89,-0.003L7.767,-0.003L4.48,8.583L4.452,8.583L1.152,-0.003L0,-0.003L0,9.706ZM10.449,9.706L11.073,9.706L12.155,6.669L16.355,6.669L17.452,9.706L18.104,9.706L18.104,9.401L14.736,-0.003L13.86,-0.003L10.449,9.401L10.449,9.706ZM14.249,0.817L14.276,0.817L16.149,6.059L12.363,6.059L14.249,0.817ZM21.553,9.706L21.553,0.609L24.713,0.609L24.713,-0.003L17.628,-0.003L17.628,0.609L20.802,0.609L20.802,9.706L21.553,9.706ZM29.703,9.706L29.703,0.609L32.865,0.609L32.865,-0.003L25.78,-0.003L25.78,0.609L28.956,0.609L28.956,9.706L29.703,9.706ZM34.362,9.706L40.341,9.706L40.341,9.096L35.097,9.096L35.097,5.005L38.911,5.005L38.911,4.395L35.097,4.395L35.097,0.623L40.147,0.623L40.147,-0.003L34.362,-0.003L34.362,9.706ZM47.768,9.706L48.406,9.706L48.406,9.415L46.092,5.116C47.187,4.797 47.853,4.034 47.853,2.632C47.853,0.692 46.492,-0.003 44.523,-0.003L41.93,-0.003L41.93,9.706L42.679,9.706L42.679,5.31L44.523,5.31C44.816,5.31 45.107,5.296 45.369,5.27L47.768,9.706ZM42.679,0.609L44.497,0.609C46.035,0.609 47.104,1.094 47.104,2.661C47.104,4.27 46.118,4.712 44.497,4.712L42.679,4.712L42.679,0.609ZM52.536,9.763C54.422,9.763 55.754,8.916 55.754,7.03C55.754,5.336 54.672,4.854 52.715,4.339C51.399,3.993 50.486,3.686 50.486,2.356C50.486,1.33 51.136,0.54 52.715,0.54C53.8,0.54 54.436,0.857 54.949,1.33L55.296,1.33L55.296,0.706C54.7,0.262 53.923,-0.057 52.703,-0.057C50.803,-0.057 49.777,1.011 49.777,2.41C49.777,3.993 50.775,4.547 52.509,5.005C53.909,5.379 55.034,5.657 55.034,7.085C55.034,8.555 54.006,9.165 52.524,9.165C51.15,9.165 50.387,8.708 49.872,8.196L49.541,8.196L49.541,8.846C50.179,9.347 51.096,9.763 52.536,9.763" style="fill:white;fill-rule:nonzero;"/>
        </g>
    </g>
</svg>
