<?xml version="1.0" encoding="UTF-8" standalone="no"?>
<!DOCTYPE svg PUBLIC "-//W3C//DTD SVG 1.1//EN" "http://www.w3.org/Graphics/SVG/1.1/DTD/svg11.dtd">
<svg width="100%" height="100%" viewBox="0 0 500 190" version="1.1" xmlns="http://www.w3.org/2000/svg" xmlns:xlink="http://www.w3.org/1999/xlink" xml:space="preserve" xmlns:serif="http://www.serif.com/" style="fill-rule:evenodd;clip-rule:evenodd;stroke-linejoin:round;stroke-miterlimit:2;">
    <g transform="matrix(1.36986,0,0,1.36986,5.08444e-05,40.205)">
        <g id="Colour">
            <g id="WBM-Logo" serif:id="WBM Logo">
                <g id="Colour1" serif:id="Colour">
                    <g id="WBM-Logo1" serif:id="WBM Logo">
                        <g>
                            <g>
                                <path d="M100.245,73.086L102.093,73.086L102.093,49.591L102.24,49.591L111.253,73.086L112.695,73.086L121.745,49.591L121.929,49.591L121.929,73.086L123.925,73.086L123.925,47.226L120.932,47.226L112.177,70.093L112.103,70.093L103.311,47.226L100.245,47.226L100.245,73.086ZM130.145,63.517L144.663,63.517C144.663,63.443 144.7,63.001 144.7,62.631C144.7,56.351 141.523,53.617 136.794,53.617C131.882,53.617 128.261,57.46 128.261,63.517C128.261,69.503 131.475,73.233 137.275,73.233C140.784,73.233 142.89,72.161 144.257,71.09L144.257,69.723L143.445,69.723C142.409,70.758 140.525,71.718 137.459,71.718C132.657,71.718 130.145,68.911 130.145,63.517ZM136.794,55.021C140.378,55.021 142.742,56.979 142.853,62.114L130.182,62.114C130.625,57.385 133.248,55.021 136.794,55.021ZM161.892,70.942C161.928,72.716 162.039,73.086 162.815,73.086L163.777,73.086L163.777,49C163.777,47.448 163.592,47.226 162.52,47.226L161.892,47.226L161.892,56.018C160.451,54.542 158.493,53.617 155.465,53.617C151.511,53.617 147.226,56.167 147.226,63.628C147.226,70.796 150.957,73.233 154.836,73.233C157.865,73.233 160.341,71.718 161.892,69.76L161.892,70.942ZM155.021,71.792C152.139,71.792 149.111,69.945 149.111,63.554C149.111,56.831 152.51,55.058 155.76,55.058C158.604,55.058 160.377,56.055 161.892,57.681L161.892,67.877C160.229,70.13 158.16,71.792 155.021,71.792ZM170.548,73.086L170.548,55.835C170.548,54.06 170.399,53.839 169.291,53.839L168.7,53.839L168.7,73.086L170.548,73.086ZM169.66,50.883C170.363,50.883 170.916,50.329 170.916,49.628C170.916,48.963 170.363,48.371 169.66,48.371C168.958,48.371 168.405,48.963 168.405,49.628C168.405,50.329 168.958,50.883 169.66,50.883ZM186.591,71.201C186.591,72.754 186.848,73.086 187.921,73.086L188.437,73.086L188.437,59.047C188.437,55.058 185.851,53.617 181.935,53.617C178.795,53.617 176.654,54.43 175.101,55.279L175.101,56.795L175.877,56.795C177.096,55.835 179.017,55.095 181.862,55.095C184.67,55.095 186.591,56.167 186.591,59.158L186.591,62.631C185.002,62.224 183.376,62.041 181.53,62.041C177.022,62.041 173.808,63.813 173.808,67.692C173.808,71.312 176.431,73.27 180.014,73.27C183.191,73.27 184.965,72.161 186.591,70.463L186.591,71.201ZM180.273,71.829C177.687,71.829 175.693,70.61 175.693,67.545C175.693,64.589 178.241,63.37 181.64,63.37C183.488,63.37 185.112,63.628 186.591,63.961L186.591,68.689C185.075,70.5 183.376,71.829 180.273,71.829ZM219.21,73.086L219.21,71.461L205.725,71.461L205.725,47.226L203.767,47.226L203.767,73.086L219.21,73.086ZM224.513,73.086L224.513,55.835C224.513,54.06 224.365,53.839 223.258,53.839L222.667,53.839L222.667,73.086L224.513,73.086ZM223.627,50.883C224.329,50.883 224.883,50.329 224.883,49.628C224.883,48.963 224.329,48.371 223.627,48.371C222.925,48.371 222.371,48.963 222.371,49.628C222.371,50.329 222.925,50.883 223.627,50.883ZM231.211,55.76C231.211,54.06 231.025,53.839 230.213,53.839L229.363,53.839L229.363,73.086L231.211,73.086L231.211,58.309C233.206,56.646 235.422,55.17 238.229,55.17C240.298,55.17 241.775,55.981 241.775,58.826L241.775,73.086L243.623,73.086L243.623,58.272C245.617,56.683 247.834,55.17 250.567,55.17C252.783,55.17 254.15,55.981 254.15,58.826L254.15,73.086L255.998,73.086L255.998,58.346C255.998,54.91 253.855,53.617 251.232,53.617C248.13,53.617 245.432,55.132 243.474,56.795C242.921,54.504 240.963,53.617 238.894,53.617C235.68,53.617 233.057,55.279 231.211,56.757L231.211,55.76ZM262.646,73.086L262.646,55.835C262.646,54.06 262.499,53.839 261.39,53.839L260.799,53.839L260.799,73.086L262.646,73.086ZM261.76,50.883C262.462,50.883 263.015,50.329 263.015,49.628C263.015,48.963 262.462,48.371 261.76,48.371C261.058,48.371 260.504,48.963 260.504,49.628C260.504,50.329 261.058,50.883 261.76,50.883ZM265.506,55.243L268.054,55.243L268.054,68.911C268.054,71.977 269.642,73.233 272.598,73.233C273.743,73.233 274.851,73.122 275.442,73.011L275.442,71.718L273.226,71.718C270.972,71.718 269.901,71.016 269.901,68.689L269.901,55.243L275.036,55.243L275.036,53.839L269.901,53.839L269.901,48.482L268.054,48.482L268.054,53.839L265.506,53.839L265.506,55.243ZM278.013,63.517L292.531,63.517C292.531,63.443 292.568,63.001 292.568,62.631C292.568,56.351 289.391,53.617 284.663,53.617C279.75,53.617 276.13,57.46 276.13,63.517C276.13,69.503 279.344,73.233 285.143,73.233C288.652,73.233 290.759,72.161 292.125,71.09L292.125,69.723L291.312,69.723C290.277,70.758 288.393,71.718 285.327,71.718C280.525,71.718 278.013,68.911 278.013,63.517ZM284.663,55.021C288.247,55.021 290.61,56.979 290.721,62.114L278.051,62.114C278.493,57.385 281.116,55.021 284.663,55.021ZM309.76,70.942C309.798,72.716 309.907,73.086 310.683,73.086L311.644,73.086L311.644,49C311.644,47.448 311.46,47.226 310.388,47.226L309.76,47.226L309.76,56.018C308.319,54.542 306.361,53.617 303.333,53.617C299.38,53.617 295.094,56.167 295.094,63.628C295.094,70.796 298.825,73.233 302.705,73.233C305.733,73.233 308.209,71.718 309.76,69.76L309.76,70.942ZM302.889,71.792C300.008,71.792 296.978,69.945 296.978,63.554C296.978,56.831 300.378,55.058 303.628,55.058C306.472,55.058 308.246,56.055 309.76,57.681L309.76,67.877C308.097,70.13 306.029,71.792 302.889,71.792Z" style="fill:rgb(35,31,32);fill-rule:nonzero;"/>
                                <path d="M104.678,33.744L106.822,33.744L113.064,11.321L113.137,11.321L119.344,33.744L121.486,33.744L127.951,8.661L127.951,7.885L126.252,7.885L120.526,30.604L120.415,30.604L113.987,7.885L112.288,7.885L105.897,30.604L105.786,30.604L100.023,7.885L98.213,7.885L98.213,8.661L104.678,33.744ZM131.017,24.176L145.534,24.176C145.534,24.102 145.571,23.659 145.571,23.29C145.571,17.01 142.394,14.276 137.666,14.276C132.753,14.276 129.132,18.118 129.132,24.176C129.132,30.161 132.346,33.892 138.146,33.892C141.656,33.892 143.761,32.82 145.128,31.749L145.128,30.382L144.315,30.382C143.281,31.417 141.397,32.377 138.331,32.377C133.529,32.377 131.017,29.57 131.017,24.176ZM137.666,15.68C141.249,15.68 143.614,17.638 143.724,22.773L131.052,22.773C131.497,18.044 134.12,15.68 137.666,15.68ZM154.112,33.892C158.914,33.892 161.094,31.712 161.094,28.166C161.094,24.767 158.877,23.548 154.85,22.92C151.119,22.292 149.826,21.443 149.826,19.226C149.826,16.899 151.452,15.717 154.593,15.717C157.067,15.717 158.36,16.382 159.394,17.231L160.133,17.231L160.133,15.717C159.062,15.015 157.362,14.276 154.555,14.276C150.713,14.276 148.09,16.049 148.09,19.374C148.09,22.625 150.417,23.918 154.112,24.509C158.027,25.137 159.283,26.06 159.283,28.314C159.283,30.973 157.584,32.451 154.038,32.451C151.267,32.451 149.568,31.417 148.644,30.567L147.906,30.567L147.906,32.082C149.014,32.894 150.824,33.892 154.112,33.892ZM162.785,15.901L165.334,15.901L165.334,29.57C165.334,32.636 166.922,33.892 169.878,33.892C171.023,33.892 172.131,33.781 172.722,33.67L172.722,32.377L170.506,32.377C168.252,32.377 167.181,31.675 167.181,29.348L167.181,15.901L172.316,15.901L172.316,14.498L167.181,14.498L167.181,9.141L165.334,9.141L165.334,14.498L162.785,14.498L162.785,15.901ZM175.293,24.176L189.811,24.176C189.811,24.102 189.848,23.659 189.848,23.29C189.848,17.01 186.672,14.276 181.942,14.276C177.029,14.276 173.409,18.118 173.409,24.176C173.409,30.161 176.623,33.892 182.423,33.892C185.932,33.892 188.038,32.82 189.404,31.749L189.404,30.382L188.593,30.382C187.557,31.417 185.674,32.377 182.607,32.377C177.805,32.377 175.293,29.57 175.293,24.176ZM181.942,15.68C185.526,15.68 187.89,17.638 188.002,22.773L175.33,22.773C175.773,18.044 178.396,15.68 181.942,15.68ZM195.27,16.603C195.27,14.719 195.086,14.498 194.273,14.498L193.424,14.498L193.424,33.744L195.27,33.744L195.27,19.559C196.822,17.749 198.853,15.938 201.661,15.938C201.993,15.938 202.474,15.975 202.474,15.975L202.474,14.461C202.4,14.424 202.067,14.35 201.588,14.35C198.853,14.35 196.748,16.049 195.27,17.822L195.27,16.603ZM207.412,16.419C207.412,14.719 207.227,14.498 206.416,14.498L205.565,14.498L205.565,33.744L207.412,33.744L207.412,19.078C209.593,17.416 212.325,15.828 215.171,15.828C217.349,15.828 219.012,16.566 219.012,19.633L219.012,33.744L220.859,33.744L220.859,19.411C220.859,15.384 218.568,14.276 215.872,14.276C212.473,14.276 209.593,15.828 207.412,17.564L207.412,16.419ZM235.625,33.744L243.529,33.744C248.738,33.744 252.395,31.601 252.395,26.614C252.395,22.329 249.772,20.815 246.558,20.113L246.558,20.076C249.107,19.226 251.139,17.822 251.139,14.313C251.139,9.4 247.519,7.885 242.938,7.885L235.625,7.885L235.625,33.744ZM237.583,32.119L237.583,20.999L243.05,20.999C247.556,20.999 250.363,22.588 250.363,26.54C250.363,30.493 247.445,32.119 243.492,32.119L237.583,32.119ZM237.583,19.374L237.583,9.511L242.901,9.511C246.301,9.511 249.144,10.582 249.144,14.387C249.144,18.118 246.301,19.374 242.827,19.374L237.583,19.374ZM269.601,31.675C269.601,33.485 269.786,33.744 270.599,33.744L271.449,33.744L271.449,14.498L269.601,14.498L269.601,29.385C267.423,30.973 264.762,32.451 261.844,32.451C259.812,32.451 258.26,31.712 258.26,28.757L258.26,14.498L256.377,14.498L256.377,28.942C256.377,32.747 258.631,33.966 261.586,33.966C264.578,33.966 267.46,32.562 269.601,30.936L269.601,31.675ZM281.197,33.892C286,33.892 288.179,31.712 288.179,28.166C288.179,24.767 285.964,23.548 281.936,22.92C278.205,22.292 276.912,21.443 276.912,19.226C276.912,16.899 278.537,15.717 281.677,15.717C284.152,15.717 285.445,16.382 286.48,17.231L287.219,17.231L287.219,15.717C286.147,15.015 284.448,14.276 281.64,14.276C277.8,14.276 275.177,16.049 275.177,19.374C275.177,22.625 277.504,23.918 281.197,24.509C285.113,25.137 286.369,26.06 286.369,28.314C286.369,30.973 284.671,32.451 281.123,32.451C278.353,32.451 276.653,31.417 275.73,30.567L274.991,30.567L274.991,32.082C276.099,32.894 277.909,33.892 281.197,33.892ZM293.377,33.744L293.377,16.493C293.377,14.719 293.228,14.498 292.12,14.498L291.529,14.498L291.529,33.744L293.377,33.744ZM292.489,11.542C293.191,11.542 293.745,10.988 293.745,10.286C293.745,9.622 293.191,9.03 292.489,9.03C291.788,9.03 291.234,9.622 291.234,10.286C291.234,10.988 291.788,11.542 292.489,11.542ZM300.073,16.419C300.073,14.719 299.888,14.498 299.076,14.498L298.226,14.498L298.226,33.744L300.073,33.744L300.073,19.078C302.254,17.416 304.986,15.828 307.831,15.828C310.01,15.828 311.674,16.566 311.674,19.633L311.674,33.744L313.52,33.744L313.52,19.411C313.52,15.384 311.229,14.276 308.533,14.276C305.135,14.276 302.254,15.828 300.073,17.564L300.073,16.419ZM318.99,24.176L333.509,24.176C333.509,24.102 333.546,23.659 333.546,23.29C333.546,17.01 330.368,14.276 325.64,14.276C320.727,14.276 317.106,18.118 317.106,24.176C317.106,30.161 320.32,33.892 326.12,33.892C329.63,33.892 331.735,32.82 333.102,31.749L333.102,30.382L332.289,30.382C331.256,31.417 329.371,32.377 326.305,32.377C321.503,32.377 318.99,29.57 318.99,24.176ZM325.64,15.68C329.223,15.68 331.588,17.638 331.698,22.773L319.027,22.773C319.471,18.044 322.094,15.68 325.64,15.68ZM342.086,33.892C346.888,33.892 349.067,31.712 349.067,28.166C349.067,24.767 346.851,23.548 342.824,22.92C339.094,22.292 337.801,21.443 337.801,19.226C337.801,16.899 339.427,15.717 342.566,15.717C345.042,15.717 346.335,16.382 347.368,17.231L348.107,17.231L348.107,15.717C347.035,15.015 345.337,14.276 342.529,14.276C338.687,14.276 336.064,16.049 336.064,19.374C336.064,22.625 338.391,23.918 342.086,24.509C346.002,25.137 347.258,26.06 347.258,28.314C347.258,30.973 345.558,32.451 342.012,32.451C339.241,32.451 337.543,31.417 336.618,30.567L335.88,30.567L335.88,32.082C336.988,32.894 338.799,33.892 342.086,33.892ZM357.737,33.892C362.539,33.892 364.719,31.712 364.719,28.166C364.719,24.767 362.503,23.548 358.476,22.92C354.745,22.292 353.452,21.443 353.452,19.226C353.452,16.899 355.077,15.717 358.218,15.717C360.692,15.717 361.985,16.382 363.019,17.231L363.759,17.231L363.759,15.717C362.687,15.015 360.988,14.276 358.18,14.276C354.339,14.276 351.716,16.049 351.716,19.374C351.716,22.625 354.044,23.918 357.737,24.509C361.653,25.137 362.909,26.06 362.909,28.314C362.909,30.973 361.21,32.451 357.663,32.451C354.892,32.451 353.193,31.417 352.27,30.567L351.531,30.567L351.531,32.082C352.639,32.894 354.449,33.892 357.737,33.892Z" style="fill:rgb(35,31,32);fill-rule:nonzero;"/>
                                <rect x="82.02" y="0.97" width="2.091" height="79.03" style="fill:rgb(147,149,152);"/>
                                <path d="M34.542,0.97L25.874,5.944L50.581,20.129L46.873,22.309L22.211,8.079L13.579,13.031L38.199,27.298L34.531,29.467L9.849,15.222L1.233,20.177L34.533,39.417L67.829,20.191L34.542,0.97ZM0,60.774L33.297,80L33.296,65.76L28.364,57.923L33.297,55.792L33.297,41.55L0,22.324L0,60.774ZM8.633,41.549L8.633,37.277L24.664,46.534L24.664,50.806L8.633,41.549ZM8.633,55.791L8.633,51.518L24.664,60.775L24.664,65.047L8.633,55.791ZM35.763,41.549L35.763,79.998L44.398,75.014L44.398,46.537L48.097,44.398L48.097,72.879L56.731,67.894L56.731,39.415L60.429,37.278L60.429,65.76L69.063,60.774L69.063,22.326L35.763,41.549Z" style="fill:url(#_Linear1);"/>
                            </g>
                        </g>
                    </g>
                </g>
            </g>
        </g>
    </g>
    <defs>
        <linearGradient id="_Linear1" x1="0" y1="0" x2="1" y2="0" gradientUnits="userSpaceOnUse" gradientTransform="matrix(4.83919e-15,-79.03,79.03,4.83919e-15,34.5315,79.9997)"><stop offset="0" style="stop-color:rgb(94,0,0);stop-opacity:1"/><stop offset="0.7" style="stop-color:rgb(214,24,32);stop-opacity:1"/><stop offset="1" style="stop-color:rgb(237,28,36);stop-opacity:1"/></linearGradient>
    </defs>
</svg>
