<?xml version="1.0" encoding="UTF-8" standalone="no"?>
<!DOCTYPE svg PUBLIC "-//W3C//DTD SVG 1.1//EN" "http://www.w3.org/Graphics/SVG/1.1/DTD/svg11.dtd">
<svg width="100%" height="100%" viewBox="0 0 500 310" version="1.1" xmlns="http://www.w3.org/2000/svg" xmlns:xlink="http://www.w3.org/1999/xlink" xml:space="preserve" xmlns:serif="http://www.serif.com/" style="fill-rule:evenodd;clip-rule:evenodd;stroke-linejoin:round;stroke-miterlimit:2;">
    <g id="Colour" transform="matrix(0.87488,0,0,0.87488,-12.4641,-74.2187)">
        <g id="FSM-Logo-new" serif:id="FSM Logo new" transform="matrix(0.43956,0,0,0.43956,300,262)">
            <g id="Colour1" serif:id="Colour">
                <g id="FSM-Logo-new1" serif:id="FSM Logo new" transform="matrix(1,0,0,1,-568.75,-300)">
                    <clipPath id="_clip1">
                        <rect x="0" y="0" width="1137.5" height="600"/>
                    </clipPath>
                    <g clip-path="url(#_clip1)">
                        <g transform="matrix(4.16667,0,0,4.16667,0,0)">
                            <path d="M265.668,144L260.927,114.066L0,114.066L0,144L265.668,144Z" style="fill:rgb(35,31,32);fill-rule:nonzero;"/>
                            <path d="M272.749,144L268.008,114.066L265.173,114.066L269.914,144L272.749,144Z" style="fill:rgb(35,31,32);fill-rule:nonzero;"/>
                            <path d="M268.033,114.066L250.074,0.68L247.239,0.68L265.198,114.066L268.033,114.066ZM260.952,114.066L0,114.066L0,0.68L242.993,0.68L260.952,114.066Z" style="fill:rgb(237,27,46);"/>
                            <path d="M14.186,14.832L70.589,14.832L70.589,37.724L44.511,37.724L44.511,47.518L68.11,47.518L68.11,69.111L44.511,69.111L44.511,99.2L14.186,99.2L14.186,14.832Z" style="fill:white;fill-rule:nonzero;"/>
                            <path d="M75.308,68.403C83.449,73.949 90.058,77.135 96.43,77.135C100.795,77.135 103.156,75.483 103.156,72.769C103.156,68.875 98.906,68.403 91.945,66.869C77.55,63.802 70.233,55.895 70.233,43.623C70.233,25.924 84.04,12.945 105.515,12.945C115.191,12.945 124.277,15.423 133.952,20.614L124.749,42.679C118.848,38.314 112.713,36.072 107.404,36.072C103.156,36.072 100.795,37.606 100.795,40.084C100.795,44.214 106.459,44.803 116.49,47.046C127.699,49.524 135.25,57.902 135.25,69.701C135.25,87.755 120.855,101.442 98.789,101.442C87.697,101.442 76.488,98.256 65.632,92.002L75.308,68.403Z" style="fill:white;fill-rule:nonzero;"/>
                            <path d="M211.123,65.807C210.769,62.385 210.415,57.193 209.825,50.35C208.88,56.485 207.464,61.913 206.048,66.751L196.373,99.2L178.32,99.2L168.643,66.751C167.227,61.913 165.812,56.485 164.868,50.35C164.395,56.131 164.042,61.323 163.57,65.807L159.912,99.2L130.175,99.2L144.572,14.832L175.841,14.832L181.859,35.718C183.511,41.382 186.107,49.287 187.405,60.38L187.876,60.38C189.411,49.17 192.006,41.028 193.659,35.364L199.913,14.832L231.182,14.832L244.515,99.2L214.78,99.2L211.123,65.807Z" style="fill:white;fill-rule:nonzero;"/>
                            <path d="M15.636,121.571L15.636,128.155L21.007,128.155L21.007,129.395L15.636,129.395L15.636,137.736L14.165,137.736L14.165,120.331L21.42,120.331L21.42,121.571L15.636,121.571Z" style="fill:white;fill-rule:nonzero;"/>
                            <rect x="25.987" y="120.331" width="1.472" height="17.405" style="fill:white;fill-rule:nonzero;"/>
                            <path d="M37.037,121.545C36.236,121.545 35.358,121.571 34.61,121.596L34.61,128.026L37.115,128.026C39.877,128.026 40.911,126.632 40.911,124.72C40.911,122.758 40.162,121.545 37.037,121.545ZM41.453,137.736L37.167,129.24L34.61,129.24L34.61,137.736L33.138,137.736L33.138,120.357C34.481,120.305 35.901,120.305 37.115,120.305C41.04,120.305 42.434,121.958 42.434,124.618C42.434,126.942 41.066,128.646 38.638,129.008L43.157,137.736L41.453,137.736Z" style="fill:white;fill-rule:nonzero;"/>
                            <path d="M47.568,137.736L47.568,120.331L55.186,120.331L55.186,121.571L49.04,121.571L49.04,128.129L54.618,128.129L54.618,129.369L49.04,129.369L49.04,136.496L55.263,136.496L55.263,137.736L47.568,137.736Z" style="fill:white;fill-rule:nonzero;"/>
                            <path d="M70.208,137.839C68.917,137.839 67.367,137.477 65.999,136.677L66.489,135.566C67.651,136.16 68.814,136.574 70.182,136.574C72.506,136.574 73.72,135.36 73.72,133.398C73.72,128.956 65.818,129.524 65.818,124.463C65.818,122.01 67.522,120.228 70.543,120.228C71.938,120.228 73.436,120.641 74.546,121.286L74.03,122.319C73.1,121.88 71.757,121.467 70.569,121.467C68.375,121.467 67.264,122.656 67.264,124.308C67.264,128.491 75.191,127.871 75.191,133.217C75.191,136.083 73.333,137.839 70.208,137.839Z" style="fill:white;fill-rule:nonzero;"/>
                            <path d="M84.096,121.906L84.07,121.906L81.049,132.493L87.169,132.493L84.096,121.906ZM88.641,137.736L87.479,133.707L80.713,133.707L79.577,137.736L78.08,137.736L83.218,120.331L85.104,120.331L90.216,137.736L88.641,137.736Z" style="fill:white;fill-rule:nonzero;"/>
                            <path d="M95.712,121.571L95.712,128.155L101.083,128.155L101.083,129.395L95.712,129.395L95.712,137.736L94.24,137.736L94.24,120.331L101.497,120.331L101.497,121.571L95.712,121.571Z" style="fill:white;fill-rule:nonzero;"/>
                            <path d="M106.063,137.736L106.063,120.331L113.681,120.331L113.681,121.571L107.535,121.571L107.535,128.129L113.113,128.129L113.113,129.369L107.535,129.369L107.535,136.496L113.759,136.496L113.759,137.736L106.063,137.736Z" style="fill:white;fill-rule:nonzero;"/>
                            <path d="M122.25,121.596L122.25,137.736L120.804,137.736L120.804,121.596L116.362,121.596L116.362,120.331L126.717,120.331L126.717,121.596L122.25,121.596Z" style="fill:white;fill-rule:nonzero;"/>
                            <path d="M134.874,130.247L134.874,137.736L133.454,137.736L133.454,130.247L128.444,120.331L130.121,120.331L132.369,124.928L134.202,128.749L135.829,125.289L138.231,120.331L139.857,120.331L134.874,130.247Z" style="fill:white;fill-rule:nonzero;"/>
                            <path d="M164.512,137.736L163.427,121.648L163.401,121.648L158.366,137.736L157.333,137.736L152.298,121.648L152.272,121.648L151.188,137.736L149.793,137.736L151.032,120.331L153.382,120.331L157.875,134.792L157.901,134.792L162.395,120.331L164.744,120.331L165.958,137.736L164.512,137.736Z" style="fill:white;fill-rule:nonzero;"/>
                            <path d="M175.402,121.906L175.376,121.906L172.355,132.493L178.476,132.493L175.402,121.906ZM179.947,137.736L178.785,133.707L172.02,133.707L170.883,137.736L169.386,137.736L174.524,120.331L176.41,120.331L181.522,137.736L179.947,137.736Z" style="fill:white;fill-rule:nonzero;"/>
                            <path d="M189.445,121.596L189.445,137.736L188,137.736L188,121.596L183.558,121.596L183.558,120.331L193.913,120.331L193.913,121.596L189.445,121.596Z" style="fill:white;fill-rule:nonzero;"/>
                            <path d="M201.475,121.596L201.475,137.736L200.029,137.736L200.029,121.596L195.587,121.596L195.587,120.331L205.941,120.331L205.941,121.596L201.475,121.596Z" style="fill:white;fill-rule:nonzero;"/>
                            <path d="M209.604,137.736L209.604,120.331L217.222,120.331L217.222,121.571L211.076,121.571L211.076,128.129L216.654,128.129L216.654,129.369L211.076,129.369L211.076,136.496L217.299,136.496L217.299,137.736L209.604,137.736Z" style="fill:white;fill-rule:nonzero;"/>
                            <path d="M225.792,121.545C224.991,121.545 224.113,121.571 223.364,121.596L223.364,128.026L225.869,128.026C228.632,128.026 229.665,126.632 229.665,124.72C229.665,122.758 228.917,121.545 225.792,121.545ZM230.208,137.736L225.921,129.24L223.364,129.24L223.364,137.736L221.893,137.736L221.893,120.357C223.235,120.305 224.656,120.305 225.869,120.305C229.794,120.305 231.188,121.958 231.188,124.618C231.188,126.942 229.82,128.646 227.393,129.008L231.912,137.736L230.208,137.736Z" style="fill:white;fill-rule:nonzero;"/>
                            <path d="M239.86,137.839C238.569,137.839 237.02,137.477 235.651,136.677L236.142,135.566C237.304,136.16 238.466,136.574 239.834,136.574C242.159,136.574 243.372,135.36 243.372,133.398C243.372,128.956 235.47,129.524 235.47,124.463C235.47,122.01 237.175,120.228 240.196,120.228C241.59,120.228 243.088,120.641 244.198,121.286L243.682,122.319C242.752,121.88 241.409,121.467 240.222,121.467C238.027,121.467 236.916,122.656 236.916,124.308C236.916,128.491 244.844,127.871 244.844,133.217C244.844,136.083 242.985,137.839 239.86,137.839Z" style="fill:white;fill-rule:nonzero;"/>
                        </g>
                    </g>
                </g>
                <g id="FSM-Logo-new2" serif:id="FSM Logo new">
                </g>
            </g>
        </g>
    </g>
</svg>
