<?xml version="1.0" encoding="UTF-8" standalone="no"?>
<!DOCTYPE svg PUBLIC "-//W3C//DTD SVG 1.1//EN" "http://www.w3.org/Graphics/SVG/1.1/DTD/svg11.dtd">
<svg width="100%" height="100%" viewBox="0 0 600 310" version="1.1" xmlns="http://www.w3.org/2000/svg" xmlns:xlink="http://www.w3.org/1999/xlink" xml:space="preserve" xmlns:serif="http://www.serif.com/" style="fill-rule:evenodd;clip-rule:evenodd;stroke-linejoin:round;stroke-miterlimit:2;">
    <g transform="matrix(1.6765,0,0,1.6765,127.717,62.8091)">
        <g id="Colour">
            <g id="_3M-Logo" serif:id="3M Logo">
                <g id="Colour1" serif:id="Colour">
                    <g id="_3M-Logo1" serif:id="3M Logo">
                        <g>
                            <g>
                                <path d="M88.571,63.63C84.897,56.012 79.714,52.673 76.79,51.624C82.912,48.904 86.123,45.21 88.571,37.851L88.571,63.63ZM161.893,3.367L147.053,63.766L132.156,3.367L88.489,3.367L88.489,25.676C83.252,6.155 64.752,1.258 47.61,0.986C26.73,0.713 4.829,9.76 4.023,37.374L32.919,37.374C32.919,29.041 39.313,24.271 46.522,24.384C55.365,24.316 59.446,28.09 59.65,33.974C59.344,39.076 56.328,42.631 46.59,42.631L36.872,42.631L36.872,62.678L45.697,62.678C50.698,62.678 57.677,65.398 57.953,72.538C58.29,81.042 52.372,84.783 45.094,84.852C32.103,84.375 29.995,74.387 29.995,65.807L0,65.807C0.134,71.588 -1.292,109.269 45.707,108.997C68.22,109.201 83.932,99.746 88.557,86.687L88.557,106.684L118.145,106.684L118.145,41.524L134.129,106.684L159.976,106.684L176.027,41.592L176.027,106.752L205.527,106.752L205.527,3.367L161.893,3.367Z" style="fill:rgb(237,27,46);fill-rule:nonzero;"/>
                            </g>
                        </g>
                    </g>
                </g>
            </g>
        </g>
    </g>
</svg>
