<?xml version="1.0" encoding="UTF-8" standalone="no"?>
<!DOCTYPE svg PUBLIC "-//W3C//DTD SVG 1.1//EN" "http://www.w3.org/Graphics/SVG/1.1/DTD/svg11.dtd">
<svg width="100%" height="100%" viewBox="0 0 2000 701" version="1.1" xmlns="http://www.w3.org/2000/svg" xmlns:xlink="http://www.w3.org/1999/xlink" xml:space="preserve" xmlns:serif="http://www.serif.com/" style="fill-rule:evenodd;clip-rule:evenodd;stroke-linejoin:round;stroke-miterlimit:2;">
    <g transform="matrix(2,0,0,2,-1.13687e-13,-166.642)">
        <g transform="matrix(0.729067,0,0,0.729067,281.28,67.3177)">
            <g transform="matrix(2.96009,0,0,2.96009,-589.791,-180.94)">
                <g id="Alcumus_logo_CMYK">
                    <g id="Colour">
                        <g id="Alcumus_logo_CMYK1" serif:id="Alcumus_logo_CMYK">
                            <g>
                                <path d="M524.059,132.933L525.628,132.933C526.642,132.933 527.291,132.723 527.291,131.664C527.291,130.741 526.469,130.471 525.628,130.471L524.059,130.471L524.059,132.933ZM522.741,129.435L525.838,129.435C527.693,129.435 528.609,130.185 528.609,131.721C528.609,133.031 527.786,133.973 526.526,133.973L528.819,137.569L527.422,137.569L525.166,133.973L524.059,133.973L524.059,137.569L522.741,137.569L522.741,129.435ZM525.4,139.413C528.572,139.413 530.962,136.837 530.962,133.511C530.962,130.185 528.572,127.606 525.4,127.606C522.185,127.606 519.794,130.185 519.794,133.511C519.794,136.837 522.185,139.413 525.4,139.413ZM525.38,126.566C529.183,126.566 532.281,129.682 532.281,133.511C532.281,137.336 529.183,140.452 525.38,140.452C521.573,140.452 518.477,137.336 518.477,133.511C518.477,129.682 521.573,126.566 525.38,126.566Z" style="fill:rgb(35,31,32);fill-rule:nonzero;"/>
                                <path d="M190.999,137.851L190.803,137.851L180.953,166.099L200.849,166.099L190.999,137.851ZM183.487,124.119L198.897,124.119L225.618,192.579L210.501,192.579L204.652,176.887L177.053,176.887L171.103,192.579L156.962,192.579L183.487,124.119Z" style="fill:rgb(35,31,32);fill-rule:nonzero;"/>
                                <rect x="229.617" y="119.02" width="13.067" height="73.562" style="fill:rgb(35,31,32);"/>
                                <path d="M285.109,152.955C282.766,151.877 280.233,151.089 276.235,151.089C268.141,151.089 262.972,157.564 262.972,167.077C262.972,176.398 267.361,183.557 276.528,183.557C280.233,183.557 284.328,182.183 286.573,181.204L287.158,192.089C283.352,193.268 279.452,193.756 274.088,193.756C257.608,193.756 249.319,182.476 249.319,167.077C249.319,152.463 257.901,140.89 273.599,140.89C278.866,140.89 282.673,141.479 286.28,142.556L285.109,152.955Z" style="fill:rgb(35,31,32);fill-rule:nonzero;"/>
                                <path d="M338.064,192.581L325.679,192.581L325.679,185.714L325.484,185.714C321.487,190.617 315.829,193.759 309,193.759C297.104,193.759 291.935,185.32 291.935,173.946L291.935,142.067L305.003,142.067L305.003,169.04C305.003,175.218 305.1,183.556 313.487,183.556C322.947,183.556 324.996,173.258 324.996,166.784L324.996,142.067L338.064,142.067L338.064,192.581Z" style="fill:rgb(35,31,32);fill-rule:nonzero;"/>
                                <path d="M347.427,142.067L359.616,142.067L359.616,149.129L359.812,149.129C363.907,142.95 369.857,140.889 374.734,140.889C381.753,140.889 386.728,143.539 389.558,149.816C392.579,143.734 399.112,140.889 405.257,140.889C417.641,140.889 421.151,149.425 421.151,160.702L421.151,192.581L408.083,192.581L408.083,162.47C408.083,157.759 408.083,151.092 400.575,151.092C391.897,151.092 390.822,161.487 390.822,168.06L390.822,192.581L377.755,192.581L377.755,162.47C377.755,157.759 377.755,151.092 370.247,151.092C361.569,151.092 360.494,161.487 360.494,168.06L360.494,192.581L347.427,192.581L347.427,142.067Z" style="fill:rgb(35,31,32);fill-rule:nonzero;"/>
                                <path d="M476.548,192.581L464.164,192.581L464.164,185.714L463.969,185.714C459.971,190.617 454.314,193.759 447.489,193.759C435.589,193.759 430.42,185.32 430.42,173.946L430.42,142.067L443.488,142.067L443.488,169.04C443.488,175.218 443.585,183.556 451.975,183.556C461.431,183.556 463.481,173.258 463.481,166.784L463.481,142.067L476.548,142.067L476.548,192.581Z" style="fill:rgb(35,31,32);fill-rule:nonzero;"/>
                                <path d="M515.948,152.66C511.951,151.287 509.028,150.502 504.249,150.502C500.735,150.502 496.542,151.778 496.542,156.091C496.542,164.136 519.265,159.035 519.265,177.279C519.265,189.047 508.832,193.758 498.201,193.758C493.227,193.758 488.155,192.873 483.377,191.6L484.157,180.811C488.253,182.869 492.544,184.145 497.03,184.145C500.349,184.145 505.612,182.869 505.612,177.965C505.612,168.059 482.889,174.828 482.889,156.583C482.889,145.697 492.349,140.892 502.589,140.892C508.735,140.892 512.732,141.872 516.828,142.754L515.948,152.66Z" style="fill:rgb(35,31,32);fill-rule:nonzero;"/>
                                <path d="M272.801,221.707L265.255,209.931L267.586,209.931L273.792,219.92L280.17,209.931L282.354,209.931L274.809,221.707L274.809,230.379L272.801,230.379L272.801,221.707Z" style="fill:rgb(0,135,176);fill-rule:nonzero;"/>
                                <path d="M288.133,229.15C291.339,229.15 293.058,226.369 293.058,222.912C293.058,219.454 291.339,216.668 288.133,216.668C284.927,216.668 283.212,219.454 283.212,222.912C283.212,226.369 284.927,229.15 288.133,229.15ZM288.133,215.088C292.938,215.088 295.067,218.838 295.067,222.912C295.067,226.981 292.938,230.731 288.133,230.731C283.328,230.731 281.199,226.981 281.199,222.912C281.199,218.838 283.328,215.088 288.133,215.088Z" style="fill:rgb(0,135,176);fill-rule:nonzero;"/>
                                <path d="M310.131,226.865C310.131,228.006 310.131,229.181 310.247,230.382L308.471,230.382L308.471,227.713L308.411,227.713C307.8,229.061 306.692,230.732 303.607,230.732C299.935,230.732 298.535,228.269 298.535,224.988L298.535,215.438L300.374,215.438L300.374,224.519C300.374,227.334 301.362,229.152 303.896,229.152C307.248,229.152 308.295,226.19 308.295,223.701L308.295,215.438L310.131,215.438L310.131,226.865Z" style="fill:rgb(0,135,176);fill-rule:nonzero;"/>
                                <path d="M314.738,218.778C314.738,217.138 314.738,216.522 314.621,215.437L316.457,215.437L316.457,218.309L316.513,218.309C317.185,216.638 318.439,215.088 320.331,215.088C320.767,215.088 321.292,215.174 321.612,215.261L321.612,217.198C321.236,217.078 320.74,217.021 320.275,217.021C317.362,217.021 316.573,220.302 316.573,222.998L316.573,230.381L314.738,230.381L314.738,218.778Z" style="fill:rgb(0,135,176);fill-rule:nonzero;"/>
                                <path d="M336.533,211.687L330.53,211.687L330.53,209.93L344.544,209.93L344.544,211.687L338.541,211.687L338.541,230.382L336.533,230.382L336.533,211.687Z" style="fill:rgb(0,135,176);fill-rule:nonzero;"/>
                                <path d="M344.436,218.778C344.436,217.138 344.436,216.522 344.32,215.437L346.155,215.437L346.155,218.309L346.212,218.309C346.884,216.638 348.134,215.088 350.03,215.088C350.465,215.088 350.99,215.174 351.31,215.261L351.31,217.198C350.931,217.078 350.439,217.021 349.97,217.021C347.057,217.021 346.272,220.302 346.272,222.998L346.272,230.381L344.436,230.381L344.436,218.778Z" style="fill:rgb(0,135,176);fill-rule:nonzero;"/>
                                <path d="M365.733,226.865C365.733,228.006 365.733,229.181 365.85,230.382L364.073,230.382L364.073,227.713L364.014,227.713C363.402,229.061 362.294,230.732 359.208,230.732C355.537,230.732 354.137,228.269 354.137,224.988L354.137,215.438L355.977,215.438L355.977,224.519C355.977,227.334 356.964,229.152 359.497,229.152C362.85,229.152 363.898,226.19 363.898,223.701L363.898,215.438L365.733,215.438L365.733,226.865Z" style="fill:rgb(0,135,176);fill-rule:nonzero;"/>
                                <path d="M369.204,228.212C370.312,228.768 371.652,229.151 373.078,229.151C374.827,229.151 376.37,228.182 376.37,226.486C376.37,222.938 369.234,223.494 369.234,219.158C369.234,216.2 371.621,215.085 374.069,215.085C374.854,215.085 376.43,215.261 377.74,215.76L377.564,217.372C376.603,216.932 375.293,216.669 374.272,216.669C372.38,216.669 371.07,217.254 371.07,219.158C371.07,221.944 378.382,221.59 378.382,226.486C378.382,229.647 375.439,230.731 373.195,230.731C371.768,230.731 370.341,230.559 369.028,230.03L369.204,228.212Z" style="fill:rgb(0,135,176);fill-rule:nonzero;"/>
                                <path d="M388.084,217.02L384.705,217.02L384.705,226.69C384.705,228.038 385.201,229.149 386.684,229.149C387.386,229.149 387.851,229.002 388.377,228.799L388.493,230.324C388.054,230.497 387.153,230.733 386.248,230.733C382.987,230.733 382.869,228.477 382.869,225.751L382.869,217.02L379.956,217.02L379.956,215.439L382.869,215.439L382.869,211.832L384.705,211.19L384.705,215.439L388.084,215.439L388.084,217.02Z" style="fill:rgb(0,135,176);fill-rule:nonzero;"/>
                                <path d="M400.438,221.854C400.438,219.246 399.386,216.67 396.65,216.67C393.94,216.67 392.28,219.392 392.28,221.854L400.438,221.854ZM401.338,229.91C400.058,230.439 398.399,230.732 397.029,230.732C392.104,230.732 390.272,227.391 390.272,222.909C390.272,218.336 392.776,215.085 396.533,215.085C400.73,215.085 402.446,218.487 402.446,222.499L402.446,223.435L392.28,223.435C392.28,226.599 393.969,229.152 397.175,229.152C398.516,229.152 400.467,228.592 401.338,228.037L401.338,229.91Z" style="fill:rgb(0,135,176);fill-rule:nonzero;"/>
                                <path d="M411.481,229.15C414.743,229.15 415.881,225.633 415.881,222.912C415.881,220.186 414.743,216.668 411.481,216.668C407.987,216.668 407.081,220.009 407.081,222.912C407.081,225.809 407.987,229.15 411.481,229.15ZM417.716,230.381L415.881,230.381L415.881,228.009L415.821,228.009C414.833,229.913 413.317,230.731 411.192,230.731C407.112,230.731 405.073,227.333 405.073,222.912C405.073,218.369 406.819,215.088 411.192,215.088C414.105,215.088 415.562,217.224 415.821,217.956L415.881,217.956L415.881,208.406L417.716,208.406L417.716,230.381Z" style="fill:rgb(0,135,176);fill-rule:nonzero;"/>
                                <path d="M432.463,219.774L433.859,219.774C436.892,219.774 439.745,219.421 439.745,215.731C439.745,213.152 438.288,211.688 435.725,211.688L432.463,211.688L432.463,219.774ZM430.454,209.931L435.462,209.931C439.28,209.931 441.753,211.865 441.753,215.731C441.753,219.538 438.901,221.531 435.259,221.531L432.463,221.531L432.463,230.379L430.454,230.379L430.454,209.931Z" style="fill:rgb(0,135,176);fill-rule:nonzero;"/>
                                <path d="M453.179,222.85L452.654,222.85C449.478,222.85 445.69,223.173 445.69,226.454C445.69,228.417 447.09,229.149 448.78,229.149C453.093,229.149 453.179,225.369 453.179,223.758L453.179,222.85ZM453.352,227.978L453.295,227.978C452.481,229.765 450.412,230.733 448.576,230.733C444.354,230.733 443.682,227.862 443.682,226.514C443.682,221.502 448.983,221.27 452.83,221.27L453.179,221.27L453.179,220.507C453.179,217.958 452.275,216.667 449.801,216.667C448.254,216.667 446.797,217.02 445.431,217.899L445.431,216.112C446.565,215.556 448.487,215.086 449.801,215.086C453.472,215.086 455.015,216.757 455.015,220.654L455.015,227.246C455.015,228.447 455.015,229.356 455.161,230.38L453.352,230.38L453.352,227.978Z" style="fill:rgb(0,135,176);fill-rule:nonzero;"/>
                                <path d="M459.387,218.778C459.387,217.138 459.387,216.522 459.271,215.437L461.107,215.437L461.107,218.309L461.162,218.309C461.834,216.638 463.084,215.088 464.981,215.088C465.416,215.088 465.942,215.174 466.26,215.261L466.26,217.198C465.881,217.078 465.39,217.021 464.92,217.021C462.007,217.021 461.223,220.302 461.223,222.998L461.223,230.381L459.387,230.381L459.387,218.778Z" style="fill:rgb(0,135,176);fill-rule:nonzero;"/>
                                <path d="M475.499,217.02L472.12,217.02L472.12,226.69C472.12,228.038 472.616,229.149 474.099,229.149C474.801,229.149 475.267,229.002 475.792,228.799L475.908,230.324C475.469,230.497 474.569,230.733 473.663,230.733C470.402,230.733 470.285,228.477 470.285,225.751L470.285,217.02L467.372,217.02L467.372,215.439L470.285,215.439L470.285,211.832L472.12,211.19L472.12,215.439L475.499,215.439L475.499,217.02Z" style="fill:rgb(0,135,176);fill-rule:nonzero;"/>
                                <path d="M478.793,218.954C478.793,217.812 478.793,216.641 478.677,215.436L480.452,215.436L480.452,218.105L480.513,218.105C481.124,216.757 482.232,215.086 485.318,215.086C488.989,215.086 490.389,217.549 490.389,220.831L490.389,230.38L488.554,230.38L488.554,221.299C488.554,218.484 487.563,216.667 485.029,216.667C481.676,216.667 480.629,219.629 480.629,222.118L480.629,230.38L478.793,230.38L478.793,218.954Z" style="fill:rgb(0,135,176);fill-rule:nonzero;"/>
                                <path d="M504.054,221.854C504.054,219.246 503.006,216.67 500.266,216.67C497.559,216.67 495.897,219.392 495.897,221.854L504.054,221.854ZM504.958,229.91C503.674,230.439 502.015,230.732 500.645,230.732C495.724,230.732 493.888,227.391 493.888,222.909C493.888,218.336 496.392,215.085 500.15,215.085C504.346,215.085 506.062,218.487 506.062,222.499L506.062,223.435L495.897,223.435C495.897,226.599 497.585,229.152 500.791,229.152C502.131,229.152 504.083,228.592 504.958,228.037L504.958,229.91Z" style="fill:rgb(0,135,176);fill-rule:nonzero;"/>
                                <path d="M509.563,218.778C509.563,217.138 509.563,216.522 509.447,215.437L511.282,215.437L511.282,218.309L511.338,218.309C512.01,216.638 513.263,215.088 515.156,215.088C515.591,215.088 516.117,215.174 516.437,215.261L516.437,217.198C516.06,217.078 515.565,217.021 515.099,217.021C512.187,217.021 511.399,220.302 511.399,222.998L511.399,230.381L509.563,230.381L509.563,218.778Z" style="fill:rgb(0,135,176);fill-rule:nonzero;"/>
                                <path d="M109.205,99.441C108.691,99 108.243,98.432 107.86,97.681C107.284,96.565 106.876,95.044 106.679,93.294C106.478,91.541 106.482,89.572 106.632,87.581C106.898,83.983 107.623,80.315 108.29,77.581C108.466,76.862 108.636,76.21 108.79,75.634C109.453,75.736 110.092,75.809 110.708,75.856C113.001,76.028 115.013,75.823 116.731,75.378C114.543,82.288 112.144,94.465 117.044,106.24C115.192,104.589 112.607,102.332 109.205,99.441ZM136.232,74.347C124.456,75.616 121.685,68.542 121.685,68.542C121.685,68.542 117.897,75.131 106.438,72.141C106.438,72.141 98.96,94.855 107.01,101.69C115.064,108.53 118.481,111.79 118.481,111.79C118.481,111.79 122.334,109.066 131.307,103.491C140.276,97.917 136.232,74.347 136.232,74.347Z" style="fill:url(#_Linear1);"/>
                                <path d="M95.734,121.71C95.154,122.063 94.476,122.308 93.641,122.446C92.401,122.647 90.83,122.566 89.105,122.213C87.377,121.863 85.503,121.25 83.658,120.492C80.315,119.128 77.052,117.298 74.657,115.822C74.03,115.432 73.457,115.071 72.965,114.746C73.261,114.148 73.53,113.562 73.767,112.989C74.638,110.863 75.065,108.887 75.175,107.115C81.07,111.333 91.909,117.378 104.623,116.351C102.475,117.608 99.532,119.366 95.734,121.71ZM106.413,101.942C103.883,91.686 80.22,88.252 80.22,88.252C77.788,99.842 70.205,100.294 70.205,100.294C70.205,100.294 75.295,105.931 68.911,115.902C68.911,115.902 88.205,130.033 97.192,124.488C106.183,118.946 110.339,116.708 110.339,116.708C110.339,116.708 108.943,112.198 106.413,101.942Z" style="fill:url(#_Linear2);"/>
                                <path d="M112.801,143.618C112.611,144.861 112.046,146.331 111.178,147.865C110.31,149.396 109.151,150.99 107.857,152.51C105.527,155.267 102.781,157.808 100.637,159.627C100.072,160.108 99.551,160.539 99.088,160.907C98.614,160.44 98.14,160.002 97.666,159.602C95.908,158.118 94.162,157.101 92.518,156.444C98.347,152.145 107.448,143.702 110.398,131.298C110.93,133.723 111.688,137.066 112.746,141.405C112.903,142.065 112.931,142.787 112.801,143.618ZM115.844,140.873C113.347,130.609 112.505,125.961 112.505,125.961C112.505,125.961 107.783,125.899 97.25,125.137C97.064,125.123 96.882,125.115 96.696,125.115C86.345,125.115 76.133,145.82 76.133,145.82C86.4,151.719 84.49,159.065 84.49,159.065C84.49,159.065 91.424,155.966 98.938,165.118C98.938,165.118 118.339,151.139 115.844,140.873Z" style="fill:url(#_Linear3);"/>
                                <path d="M144.793,155.197C142.5,148.321 137.282,137.059 126.396,130.42C128.867,130.664 132.284,130.974 136.736,131.31C137.41,131.36 138.103,131.565 138.854,131.94C139.98,132.505 141.205,133.493 142.394,134.798C143.582,136.097 144.738,137.693 145.788,139.389C147.691,142.458 149.256,145.853 150.323,148.459C150.604,149.142 150.852,149.769 151.064,150.326C150.469,150.632 149.912,150.95 149.379,151.274C147.425,152.485 145.919,153.833 144.793,155.197ZM155.023,151.77C155.023,151.77 147.717,128.998 137.184,128.2C126.655,127.401 121.977,126.767 121.977,126.767C121.977,126.767 120.457,131.24 116.475,141.022C112.494,150.804 129.619,167.499 129.619,167.499C138.398,159.55 144.8,163.641 144.8,163.641C144.8,163.641 143.994,156.087 155.023,151.77Z" style="fill:url(#_Linear4);"/>
                                <path d="M130.505,114.932C131.504,112.657 132.853,109.507 134.548,105.373C134.807,104.749 135.212,104.151 135.806,103.55C136.692,102.66 138.008,101.8 139.612,101.071C141.216,100.338 143.09,99.737 145.03,99.259C148.537,98.398 152.249,97.961 155.056,97.749C155.792,97.695 156.467,97.651 157.061,97.622C157.163,98.282 157.298,98.916 157.444,99.518C157.987,101.749 158.804,103.601 159.756,105.092C152.508,105.146 140.184,106.63 130.505,114.932ZM167.787,107.691C167.787,107.691 160.353,106.127 159.661,94.304L159.635,94.304C158.786,94.304 135.671,94.392 131.73,103.984C127.712,113.754 125.667,118.009 125.667,118.009C125.667,118.009 129.447,120.835 137.523,127.645C145.598,134.456 166.763,123.321 166.763,123.321C161.921,112.515 167.787,107.691 167.787,107.691Z" style="fill:url(#_Linear5);"/>
                            </g>
                        </g>
                    </g>
                </g>
            </g>
        </g>
    </g>
    <defs>
        <linearGradient id="_Linear1" x1="0" y1="0" x2="1" y2="0" gradientUnits="userSpaceOnUse" gradientTransform="matrix(72,-56.5,56.5,72,67.8534,127.881)"><stop offset="0" style="stop-color:rgb(0,168,223);stop-opacity:1"/><stop offset="1" style="stop-color:rgb(0,128,166);stop-opacity:1"/></linearGradient>
        <linearGradient id="_Linear2" x1="0" y1="0" x2="1" y2="0" gradientUnits="userSpaceOnUse" gradientTransform="matrix(72,-56.5,56.5,72,65.9696,125.48)"><stop offset="0" style="stop-color:rgb(0,168,223);stop-opacity:1"/><stop offset="1" style="stop-color:rgb(0,128,166);stop-opacity:1"/></linearGradient>
        <linearGradient id="_Linear3" x1="0" y1="0" x2="1" y2="0" gradientUnits="userSpaceOnUse" gradientTransform="matrix(72,-56.5,56.5,72,86.993,152.271)"><stop offset="0" style="stop-color:rgb(0,168,223);stop-opacity:1"/><stop offset="1" style="stop-color:rgb(0,128,166);stop-opacity:1"/></linearGradient>
        <linearGradient id="_Linear4" x1="0" y1="0" x2="1" y2="0" gradientUnits="userSpaceOnUse" gradientTransform="matrix(72,-56.5,56.5,72,101.242,170.43)"><stop offset="0" style="stop-color:rgb(0,168,223);stop-opacity:1"/><stop offset="1" style="stop-color:rgb(0,128,166);stop-opacity:1"/></linearGradient>
        <linearGradient id="_Linear5" x1="0" y1="0" x2="1" y2="0" gradientUnits="userSpaceOnUse" gradientTransform="matrix(72,-56.5,56.5,72,91.6204,158.168)"><stop offset="0" style="stop-color:rgb(0,168,223);stop-opacity:1"/><stop offset="1" style="stop-color:rgb(0,128,166);stop-opacity:1"/></linearGradient>
    </defs>
</svg>
