<?xml version="1.0" encoding="UTF-8" standalone="no"?>
<!DOCTYPE svg PUBLIC "-//W3C//DTD SVG 1.1//EN" "http://www.w3.org/Graphics/SVG/1.1/DTD/svg11.dtd">
<svg width="100%" height="100%" viewBox="0 0 600 300" version="1.1" xmlns="http://www.w3.org/2000/svg" xmlns:xlink="http://www.w3.org/1999/xlink" xml:space="preserve" xmlns:serif="http://www.serif.com/" style="fill-rule:evenodd;clip-rule:evenodd;stroke-linejoin:round;stroke-miterlimit:2;">
    <g transform="matrix(0.24,0,0,0.24,300,150)">
        <g id="Cleaning-Matters-Logo-inc-strap.eps" serif:id="Cleaning Matters Logo inc strap.eps" transform="matrix(1,0,0,1,-1160.42,-268.75)">
            <g transform="matrix(4.16667,0,0,4.16667,0,0)">
                <path d="M308.517,65.875L308.517,51.668C310.298,51.257 312.626,50.846 314.955,50.846C320.572,50.846 323.038,51.943 323.038,57.148L323.038,65.875L353.45,65.875L353.45,49.066C353.45,33.038 344.819,28.106 333.586,28.106C322.079,28.106 313.859,33.586 307.832,39.613C306.735,30.983 304.133,29.475 299.612,29.475L277.967,29.475L277.967,65.875L308.517,65.875Z" style="fill:rgb(0,27,84);fill-rule:nonzero;"/>
                <path d="M391.265,65.875L391.265,43.86C391.265,31.942 389.621,29.475 380.99,29.475L360.853,29.475L360.853,65.875L391.265,65.875Z" style="fill:rgb(0,27,84);fill-rule:nonzero;"/>
                <path d="M51.372,80.985C39.728,80.985 33.289,73.862 33.289,53.449C33.289,34.818 40.823,27.284 52.742,27.284C60.139,27.284 65.619,30.434 68.496,32.901L81.647,32.901L81.647,12.078C74.935,7.557 65.482,4.406 51.783,4.406C19.863,4.406 0,22.489 0,54.82C0,86.191 18.63,103.314 48.906,103.314C64.386,103.314 74.798,98.931 82.058,93.588L82.058,74.272L69.455,74.272C65.756,77.834 60.139,80.985 51.372,80.985Z" style="fill:rgb(0,27,84);fill-rule:nonzero;"/>
                <path d="M108.775,5.913L88.637,5.913L88.637,101.807L119.187,101.807L119.187,20.982C119.187,8.242 117.406,5.913 108.775,5.913Z" style="fill:rgb(0,27,84);fill-rule:nonzero;"/>
                <path d="M153.984,58.244C154.943,48.518 158.368,46.462 162.615,46.462C167.684,46.462 170.286,49.202 170.697,58.244L153.984,58.244ZM162.615,28.106C138.641,28.106 123.571,42.901 123.571,66.053C123.571,88.931 136.449,103.041 163.574,103.041C179.465,103.041 188.506,99.753 195.63,95.917L195.63,79.341L185.903,79.341C182.068,81.67 176.451,83.725 168.368,83.725C159.875,83.725 155.354,81.259 154.121,72.217L198.37,72.217C198.37,71.258 198.644,68.93 198.644,65.504C198.644,40.299 186.726,28.106 162.615,28.106Z" style="fill:rgb(0,27,84);fill-rule:nonzero;"/>
                <path d="M526.48,77.56C524.563,78.656 522.232,79.341 519.63,79.341C513.192,79.341 509.356,77.698 509.356,64.272C509.356,51.805 514.288,50.161 520.042,50.161C522.37,50.161 524.426,50.573 526.48,51.532L526.48,77.56ZM539.358,29.475C533.33,29.475 530.316,32.49 528.535,37.695C523.466,31.393 517.576,28.106 508.672,28.106C494.424,28.106 478.533,36.188 478.533,63.587C478.533,89.479 491.685,97.013 507.713,97.013C515.521,97.013 522.232,95.095 526.48,91.533L526.48,94.274C526.48,101.26 521.138,104.41 509.356,104.41C501.822,104.41 495.931,102.63 491.958,100.574L482.369,100.574L482.369,120.165C489.903,123.315 498.808,125.097 513.328,125.097C540.043,125.097 556.894,115.096 556.894,94.274L556.894,29.475L539.358,29.475Z" style="fill:rgb(0,27,84);fill-rule:nonzero;"/>
                <path d="M454.555,28.106C443.048,28.106 434.828,33.586 428.801,39.613C427.704,30.983 425.102,29.475 420.581,29.475L398.936,29.475L398.936,65.875L429.485,65.875L429.485,51.668C431.267,51.257 433.595,50.846 435.924,50.846C441.541,50.846 444.007,51.943 444.007,57.148L444.007,101.807L474.419,101.807L474.419,49.066C474.419,33.038 465.788,28.106 454.555,28.106Z" style="fill:rgb(0,27,84);fill-rule:nonzero;"/>
                <path d="M240.429,83.998C238.648,85.232 236.319,86.191 234.127,86.191C230.565,86.191 227.551,84.409 227.551,79.478C227.551,74.272 230.154,72.08 234.812,72.08C236.456,72.08 238.648,72.355 240.429,72.628L240.429,83.998ZM236.182,28.106C222.346,28.106 210.975,30.983 204.399,33.722L204.399,53.175L214.126,53.175C217.414,51.257 222.894,49.477 229.333,49.477C237.415,49.477 240.429,51.668 240.429,57.559L240.429,60.162C236.593,59.477 232.346,59.203 227.277,59.203C210.29,59.203 199.194,66.053 199.194,81.396C199.194,95.917 209.742,102.766 221.661,102.766C230.292,102.766 236.867,100.574 241.936,95.369C243.168,99.342 245.635,101.807 250.84,101.807L270.842,101.807L270.842,55.367C270.842,35.915 259.881,28.106 236.182,28.106Z" style="fill:rgb(0,27,84);fill-rule:nonzero;"/>
                <rect x="277.967" y="68.875" width="151.528" height="32.932" style="fill:rgb(0,149,218);fill-rule:nonzero;"/>
                <path d="M287.352,96.901L289.003,96.901L289.003,75.898L289.136,75.898L297.192,96.901L298.481,96.901L306.571,75.898L306.736,75.898L306.736,96.901L308.521,96.901L308.521,73.783L305.846,73.783L298.019,94.226L297.952,94.226L290.094,73.783L287.352,73.783L287.352,96.901ZM312.231,96.901L313.717,96.901L316.294,89.668L326.299,89.668L328.909,96.901L330.46,96.901L330.46,96.174L322.437,73.783L320.355,73.783L312.231,96.174L312.231,96.901ZM321.28,75.733L321.346,75.733L325.805,88.216L316.788,88.216L321.28,75.733ZM338.67,96.901L338.67,75.238L346.199,75.238L346.199,73.783L329.324,73.783L329.324,75.238L336.887,75.238L336.887,96.901L338.67,96.901ZM358.081,96.901L358.081,75.238L365.609,75.238L365.609,73.783L348.735,73.783L348.735,75.238L356.297,75.238L356.297,96.901L358.081,96.901ZM369.172,96.901L383.406,96.901L383.406,95.449L370.923,95.449L370.923,85.706L380.004,85.706L380.004,84.252L370.923,84.252L370.923,75.271L382.943,75.271L382.943,73.783L369.172,73.783L369.172,96.901ZM401.097,96.901L402.615,96.901L402.615,96.207L397.101,85.969C399.709,85.21 401.295,83.394 401.295,80.058C401.295,75.436 398.059,73.783 393.368,73.783L387.193,73.783L387.193,96.901L388.976,96.901L388.976,86.432L393.368,86.432C394.063,86.432 394.756,86.399 395.383,86.332L401.097,96.901ZM388.976,75.238L393.303,75.238C396.969,75.238 399.511,76.394 399.511,80.124C399.511,83.955 397.166,85.012 393.303,85.012L388.976,85.012L388.976,75.238ZM412.449,97.033C416.939,97.033 420.11,95.019 420.11,90.527C420.11,86.498 417.534,85.343 412.879,84.12C409.74,83.294 407.562,82.568 407.562,79.399C407.562,76.954 409.114,75.073 412.879,75.073C415.454,75.073 416.973,75.832 418.195,76.954L419.021,76.954L419.021,75.469C417.601,74.411 415.752,73.652 412.846,73.652C408.321,73.652 405.878,76.196 405.878,79.53C405.878,83.294 408.255,84.616 412.383,85.706C415.719,86.597 418.394,87.258 418.394,90.659C418.394,94.159 415.95,95.613 412.416,95.613C409.146,95.613 407.33,94.523 406.108,93.301L405.316,93.301L405.316,94.854C406.836,96.042 409.015,97.033 412.449,97.033Z" style="fill:white;fill-rule:nonzero;"/>
                <path d="M360.989,13.721C360.989,5.913 367.153,0.845 376.059,0.845C384.963,0.845 391.128,5.913 391.128,13.721C391.128,21.53 384.963,26.462 376.059,26.462C367.153,26.462 360.989,21.53 360.989,13.721Z" style="fill:rgb(0,149,218);fill-rule:nonzero;"/>
                <path d="M14.627,125.078L14.627,115.324L17.741,115.324L17.741,113.036L8.227,113.036L8.227,115.324L11.324,115.324L11.324,125.078L14.627,125.078Z" style="fill:rgb(147,149,152);fill-rule:nonzero;"/>
                <path d="M21.663,114.653C21.663,113.277 21.474,113.036 20.528,113.036L18.566,113.036L18.566,125.079L21.663,125.079L21.663,118.541C22.093,118.404 22.592,118.249 23.16,118.249C23.899,118.249 24.226,118.455 24.226,119.247L24.226,125.079L27.323,125.079L27.323,118.438C27.323,116.425 26.222,115.875 24.863,115.875C23.573,115.875 22.454,116.408 21.663,117.062L21.663,114.653Z" style="fill:rgb(147,149,152);fill-rule:nonzero;"/>
                <path d="M36.957,121.225C36.957,121.122 36.991,120.795 36.991,120.434C36.991,117.371 35.546,115.875 32.725,115.875C29.989,115.875 28.097,117.698 28.097,120.606C28.097,123.461 29.731,125.216 32.879,125.216C34.772,125.216 35.838,124.769 36.63,124.322L36.63,122.481L35.666,122.481C35.133,122.859 34.376,123.152 33.361,123.152C32.105,123.152 31.383,122.756 31.228,121.225L36.957,121.225ZM32.725,117.767C33.55,117.767 34.015,118.214 34.067,119.608L31.245,119.608C31.417,118.128 32.019,117.767 32.725,117.767Z" style="fill:rgb(147,149,152);fill-rule:nonzero;"/>
                <path d="M49.084,121.225C49.084,121.122 49.119,120.795 49.119,120.434C49.119,117.371 47.673,115.875 44.852,115.875C42.117,115.875 40.224,117.698 40.224,120.606C40.224,123.461 41.859,125.216 45.007,125.216C46.899,125.216 47.966,124.769 48.757,124.322L48.757,122.481L47.794,122.481C47.261,122.859 46.504,123.152 45.489,123.152C44.233,123.152 43.51,122.756 43.355,121.225L49.084,121.225ZM44.852,117.767C45.678,117.767 46.142,118.214 46.194,119.608L43.373,119.608C43.545,118.128 44.147,117.767 44.852,117.767Z" style="fill:rgb(147,149,152);fill-rule:nonzero;"/>
                <path d="M52.903,125.199C55.673,125.199 56.946,124.046 56.946,122.12C56.946,120.193 55.931,119.556 53.815,119.298C52.662,119.161 52.267,118.971 52.267,118.593C52.267,118.163 52.594,117.939 53.454,117.939C54.366,117.939 55.036,118.214 55.449,118.49L56.43,118.49L56.43,116.494C55.656,116.133 54.813,115.892 53.368,115.892C51.097,115.892 49.549,116.873 49.549,118.851C49.549,120.743 50.632,121.414 52.559,121.655C53.815,121.827 54.125,121.982 54.125,122.464C54.125,122.928 53.609,123.117 52.783,123.117C51.802,123.117 51.045,122.773 50.684,122.446L49.635,122.446L49.635,124.476C50.374,124.855 51.321,125.199 52.903,125.199Z" style="fill:rgb(147,149,152);fill-rule:nonzero;"/>
                <path d="M60.713,125.199C63.483,125.199 64.756,124.046 64.756,122.12C64.756,120.193 63.741,119.556 61.625,119.298C60.472,119.161 60.077,118.971 60.077,118.593C60.077,118.163 60.404,117.939 61.264,117.939C62.176,117.939 62.847,118.214 63.259,118.49L64.24,118.49L64.24,116.494C63.466,116.133 62.623,115.892 61.178,115.892C58.907,115.892 57.359,116.873 57.359,118.851C57.359,120.743 58.443,121.414 60.369,121.655C61.625,121.827 61.935,121.982 61.935,122.464C61.935,122.928 61.419,123.117 60.593,123.117C59.612,123.117 58.855,122.773 58.494,122.446L57.445,122.446L57.445,124.476C58.184,124.855 59.131,125.199 60.713,125.199Z" style="fill:rgb(147,149,152);fill-rule:nonzero;"/>
                <path d="M73.943,121.225C73.943,121.122 73.977,120.795 73.977,120.434C73.977,117.372 72.532,115.875 69.711,115.875C66.975,115.875 65.083,117.698 65.083,120.606C65.083,123.461 66.717,125.216 69.865,125.216C71.758,125.216 72.824,124.769 73.616,124.322L73.616,122.481L72.652,122.481C72.119,122.859 71.362,123.152 70.347,123.152C69.091,123.152 68.369,122.756 68.214,121.225L73.943,121.225ZM69.711,117.767C70.536,117.767 71.001,118.214 71.052,119.608L68.231,119.608C68.403,118.128 69.005,117.767 69.711,117.767Z" style="fill:rgb(147,149,152);fill-rule:nonzero;"/>
                <path d="M76.953,116.012L74.803,116.012L74.803,125.079L77.899,125.079L77.899,118.541C78.329,118.404 78.828,118.249 79.396,118.249C80.136,118.249 80.463,118.455 80.463,119.247L80.463,125.079L83.559,125.079L83.559,118.438C83.559,116.425 82.458,115.875 81.099,115.875C79.775,115.875 78.639,116.443 77.831,117.113C77.71,116.202 77.435,116.012 76.953,116.012Z" style="fill:rgb(147,149,152);fill-rule:nonzero;"/>
                <path d="M84.195,118.008L85.176,118.008L85.176,122.601C85.176,124.58 86.363,125.233 88.221,125.233C88.995,125.233 89.58,125.113 89.993,124.993L89.993,123.203L89.391,123.203C88.582,123.203 88.272,122.945 88.272,122.137L88.272,118.008L89.958,118.008L89.958,116.012L88.272,116.012L88.272,113.707L85.176,113.707L85.176,116.012L84.195,116.012L84.195,118.008Z" style="fill:rgb(147,149,152);fill-rule:nonzero;"/>
                <path d="M93.897,125.079L93.897,117.75C93.897,116.322 93.743,116.013 92.814,116.013L90.818,116.013L90.818,125.079L93.897,125.079ZM92.366,115.462C93.295,115.462 93.966,114.86 93.966,114.017C93.966,113.174 93.295,112.555 92.366,112.555C91.455,112.555 90.766,113.174 90.766,114.017C90.766,114.86 91.455,115.462 92.366,115.462Z" style="fill:rgb(147,149,152);fill-rule:nonzero;"/>
                <path d="M101.467,125.079L103.153,125.079L103.153,119.006C103.153,116.769 101.829,115.875 99.128,115.875C97.511,115.875 96.289,116.236 95.446,116.597L95.446,118.679L96.375,118.679C96.891,118.335 97.631,118.077 98.526,118.077C99.644,118.077 100.057,118.438 100.057,119.23L100.057,119.849C99.541,119.746 99.007,119.677 98.319,119.677C96.22,119.677 94.758,120.589 94.758,122.498C94.758,124.287 96.031,125.199 97.631,125.199C98.749,125.199 99.592,124.924 100.229,124.218C100.401,124.821 100.745,125.079 101.467,125.079ZM98.852,123.393C98.182,123.393 97.7,123.066 97.7,122.292C97.7,121.535 98.216,121.208 99.042,121.208C99.386,121.208 99.747,121.242 100.057,121.294L100.057,122.894C99.73,123.169 99.317,123.393 98.852,123.393Z" style="fill:rgb(147,149,152);fill-rule:nonzero;"/>
                <path d="M107.54,125.079L107.54,114.653C107.54,113.277 107.368,113.036 106.404,113.036L104.443,113.036L104.443,125.079L107.54,125.079Z" style="fill:rgb(147,149,152);fill-rule:nonzero;"/>
                <path d="M111.152,118.008L112.133,118.008L112.133,122.601C112.133,124.58 113.32,125.234 115.178,125.234C115.952,125.234 116.537,125.113 116.95,124.993L116.95,123.204L116.348,123.204C115.539,123.204 115.229,122.945 115.229,122.137L115.229,118.008L116.915,118.008L116.915,116.013L115.229,116.013L115.229,113.707L112.133,113.707L112.133,116.013L111.152,116.013L111.152,118.008Z" style="fill:rgb(147,149,152);fill-rule:nonzero;"/>
                <path d="M122.11,125.216C124.828,125.216 126.927,123.479 126.927,120.589C126.927,117.681 124.828,115.875 122.11,115.875C119.375,115.875 117.276,117.681 117.276,120.589C117.276,123.479 119.375,125.216 122.11,125.216ZM122.11,123.186C121.095,123.186 120.407,122.412 120.407,120.623C120.407,118.817 121.095,117.991 122.11,117.991C123.108,117.991 123.796,118.817 123.796,120.623C123.796,122.412 123.108,123.186 122.11,123.186Z" style="fill:rgb(147,149,152);fill-rule:nonzero;"/>
                <path d="M132.106,125.216C134.824,125.216 136.923,123.479 136.923,120.589C136.923,117.681 134.824,115.875 132.106,115.875C129.371,115.875 127.272,117.681 127.272,120.589C127.272,123.479 129.371,125.216 132.106,125.216ZM132.106,123.186C131.091,123.186 130.403,122.412 130.403,120.623C130.403,118.817 131.091,117.991 132.106,117.991C133.104,117.991 133.792,118.817 133.792,120.623C133.792,122.412 133.104,123.186 132.106,123.186Z" style="fill:rgb(147,149,152);fill-rule:nonzero;"/>
                <path d="M140.88,125.079L140.88,114.654C140.88,113.277 140.708,113.036 139.744,113.036L137.783,113.036L137.783,125.079L140.88,125.079Z" style="fill:rgb(147,149,152);fill-rule:nonzero;"/>
                <path d="M144.492,118.008L145.473,118.008L145.473,125.079L148.569,125.079L148.569,118.008L150.118,118.008L150.118,116.013L148.569,116.013L148.569,115.583C148.569,114.946 148.931,114.808 149.619,114.808L150.221,114.808L150.221,113.088C149.842,112.95 149.361,112.83 148.569,112.83C146.608,112.83 145.473,113.604 145.473,115.462L145.473,116.013L144.492,116.013L144.492,118.008Z" style="fill:rgb(147,149,152);fill-rule:nonzero;"/>
                <path d="M155.02,125.216C157.738,125.216 159.837,123.479 159.837,120.589C159.837,117.681 157.738,115.875 155.02,115.875C152.285,115.875 150.186,117.681 150.186,120.589C150.186,123.479 152.285,125.216 155.02,125.216ZM155.02,123.186C154.005,123.186 153.317,122.412 153.317,120.623C153.317,118.817 154.005,117.991 155.02,117.991C156.018,117.991 156.706,118.817 156.706,120.623C156.706,122.412 156.018,123.186 155.02,123.186Z" style="fill:rgb(147,149,152);fill-rule:nonzero;"/>
                <path d="M166.323,118.49L166.736,118.49L166.736,116.013C166.563,115.978 166.374,115.944 166.185,115.944C165.084,115.944 164.293,116.494 163.691,117.251C163.587,116.219 163.295,116.013 162.813,116.013L160.663,116.013L160.663,125.079L163.759,125.079L163.759,118.92C164.258,118.714 165.153,118.49 166.323,118.49Z" style="fill:rgb(147,149,152);fill-rule:nonzero;"/>
                <path d="M169.729,118.008L170.709,118.008L170.709,122.601C170.709,124.58 171.896,125.234 173.754,125.234C174.528,125.234 175.113,125.113 175.526,124.993L175.526,123.204L174.924,123.204C174.115,123.204 173.806,122.946 173.806,122.137L173.806,118.008L175.492,118.008L175.492,116.013L173.806,116.013L173.806,113.707L170.709,113.707L170.709,116.013L169.729,116.013L169.729,118.008Z" style="fill:rgb(147,149,152);fill-rule:nonzero;"/>
                <path d="M179.431,114.654C179.431,113.277 179.242,113.036 178.295,113.036L176.334,113.036L176.334,125.079L179.431,125.079L179.431,118.542C179.861,118.404 180.36,118.249 180.927,118.249C181.667,118.249 181.994,118.456 181.994,119.247L181.994,125.079L185.091,125.079L185.091,118.438C185.091,116.426 183.99,115.875 182.631,115.875C181.34,115.875 180.222,116.408 179.431,117.062L179.431,114.654Z" style="fill:rgb(147,149,152);fill-rule:nonzero;"/>
                <path d="M194.724,121.225C194.724,121.122 194.759,120.795 194.759,120.434C194.759,117.372 193.314,115.875 190.492,115.875C187.757,115.875 185.865,117.699 185.865,120.606C185.865,123.462 187.499,125.216 190.647,125.216C192.54,125.216 193.606,124.769 194.398,124.322L194.398,122.481L193.434,122.481C192.901,122.86 192.144,123.152 191.129,123.152C189.873,123.152 189.151,122.756 188.996,121.225L194.724,121.225ZM190.492,117.767C191.318,117.767 191.783,118.215 191.834,119.608L189.013,119.608C189.185,118.129 189.787,117.767 190.492,117.767Z" style="fill:rgb(147,149,152);fill-rule:nonzero;"/>
                <path d="M203.79,124.993C205.802,124.993 207.695,123.754 207.695,120.296C207.695,116.993 205.992,115.875 204.271,115.875C203.033,115.875 202.155,116.357 201.484,116.993C201.364,116.185 201.089,116.013 200.624,116.013L198.474,116.013L198.474,127.866L201.57,127.866L201.57,124.356C202.104,124.769 202.809,124.993 203.79,124.993ZM202.878,118.18C203.807,118.18 204.564,118.628 204.564,120.572C204.564,122.567 203.772,122.997 202.826,122.997C202.31,122.997 201.914,122.877 201.57,122.636L201.57,118.473C201.983,118.301 202.499,118.18 202.878,118.18Z" style="fill:rgb(147,149,152);fill-rule:nonzero;"/>
                <path d="M214.232,118.49L214.645,118.49L214.645,116.013C214.473,115.978 214.284,115.944 214.095,115.944C212.994,115.944 212.202,116.494 211.6,117.251C211.497,116.219 211.205,116.013 210.723,116.013L208.572,116.013L208.572,125.079L211.669,125.079L211.669,118.92C212.168,118.714 213.062,118.49 214.232,118.49Z" style="fill:rgb(147,149,152);fill-rule:nonzero;"/>
                <path d="M219.548,125.216C222.266,125.216 224.365,123.479 224.365,120.589C224.365,117.681 222.266,115.875 219.548,115.875C216.813,115.875 214.714,117.681 214.714,120.589C214.714,123.479 216.813,125.216 219.548,125.216ZM219.548,123.186C218.533,123.186 217.845,122.412 217.845,120.623C217.845,118.817 218.533,117.991 219.548,117.991C220.546,117.991 221.234,118.817 221.234,120.623C221.234,122.412 220.546,123.186 219.548,123.186Z" style="fill:rgb(147,149,152);fill-rule:nonzero;"/>
                <path d="M224.571,118.008L225.552,118.008L225.552,125.079L228.648,125.079L228.648,118.008L230.197,118.008L230.197,116.013L228.648,116.013L228.648,115.583C228.648,114.946 229.01,114.808 229.698,114.808L230.3,114.808L230.3,113.088C229.922,112.951 229.44,112.83 228.648,112.83C226.687,112.83 225.552,113.604 225.552,115.462L225.552,116.013L224.571,116.013L224.571,118.008Z" style="fill:rgb(147,149,152);fill-rule:nonzero;"/>
                <path d="M239.126,121.225C239.126,121.122 239.16,120.795 239.16,120.434C239.16,117.372 237.715,115.875 234.894,115.875C232.158,115.875 230.266,117.699 230.266,120.606C230.266,123.462 231.9,125.216 235.049,125.216C236.941,125.216 238.008,124.769 238.799,124.322L238.799,122.481L237.836,122.481C237.302,122.86 236.545,123.152 235.53,123.152C234.274,123.152 233.552,122.756 233.397,121.225L239.126,121.225ZM234.894,117.767C235.72,117.767 236.184,118.215 236.236,119.608L233.414,119.608C233.586,118.129 234.188,117.767 234.894,117.767Z" style="fill:rgb(147,149,152);fill-rule:nonzero;"/>
                <path d="M242.944,125.199C245.714,125.199 246.987,124.047 246.987,122.12C246.987,120.193 245.972,119.557 243.856,119.299C242.704,119.161 242.308,118.972 242.308,118.593C242.308,118.163 242.635,117.94 243.495,117.94C244.407,117.94 245.078,118.215 245.491,118.49L246.471,118.49L246.471,116.494C245.697,116.133 244.854,115.892 243.409,115.892C241.138,115.892 239.59,116.873 239.59,118.851C239.59,120.744 240.674,121.415 242.6,121.655C243.856,121.827 244.166,121.982 244.166,122.464C244.166,122.928 243.65,123.118 242.824,123.118C241.843,123.118 241.086,122.774 240.725,122.447L239.676,122.447L239.676,124.477C240.416,124.855 241.362,125.199 242.944,125.199Z" style="fill:rgb(147,149,152);fill-rule:nonzero;"/>
                <path d="M250.754,125.199C253.524,125.199 254.797,124.047 254.797,122.12C254.797,120.193 253.782,119.557 251.666,119.299C250.513,119.161 250.118,118.972 250.118,118.593C250.118,118.163 250.444,117.94 251.305,117.94C252.216,117.94 252.887,118.215 253.3,118.49L254.281,118.49L254.281,116.494C253.507,116.133 252.664,115.892 251.219,115.892C248.948,115.892 247.399,116.873 247.399,118.851C247.399,120.744 248.483,121.415 250.41,121.655C251.666,121.827 251.975,121.982 251.975,122.464C251.975,122.928 251.459,123.118 250.634,123.118C249.653,123.118 248.896,122.774 248.535,122.447L247.485,122.447L247.485,124.477C248.225,124.855 249.171,125.199 250.754,125.199Z" style="fill:rgb(147,149,152);fill-rule:nonzero;"/>
                <path d="M258.702,125.079L258.702,117.75C258.702,116.322 258.547,116.013 257.618,116.013L255.623,116.013L255.623,125.079L258.702,125.079ZM257.171,115.462C258.1,115.462 258.771,114.86 258.771,114.017C258.771,113.174 258.1,112.555 257.171,112.555C256.259,112.555 255.571,113.174 255.571,114.017C255.571,114.86 256.259,115.462 257.171,115.462Z" style="fill:rgb(147,149,152);fill-rule:nonzero;"/>
                <path d="M264.396,125.217C267.114,125.217 269.213,123.479 269.213,120.589C269.213,117.682 267.114,115.875 264.396,115.875C261.661,115.875 259.562,117.682 259.562,120.589C259.562,123.479 261.661,125.217 264.396,125.217ZM264.396,123.187C263.381,123.187 262.693,122.412 262.693,120.623C262.693,118.817 263.381,117.991 264.396,117.991C265.394,117.991 266.082,118.817 266.082,120.623C266.082,122.412 265.394,123.187 264.396,123.187Z" style="fill:rgb(147,149,152);fill-rule:nonzero;"/>
                <path d="M272.189,116.013L270.038,116.013L270.038,125.079L273.135,125.079L273.135,118.542C273.565,118.404 274.064,118.249 274.632,118.249C275.371,118.249 275.698,118.456 275.698,119.247L275.698,125.079L278.795,125.079L278.795,118.438C278.795,116.426 277.694,115.875 276.335,115.875C275.01,115.875 273.875,116.443 273.066,117.114C272.946,116.202 272.67,116.013 272.189,116.013Z" style="fill:rgb(147,149,152);fill-rule:nonzero;"/>
                <path d="M286.279,125.079L287.965,125.079L287.965,119.006C287.965,116.77 286.64,115.875 283.939,115.875C282.322,115.875 281.1,116.236 280.257,116.598L280.257,118.679L281.186,118.679C281.703,118.335 282.442,118.077 283.337,118.077C284.455,118.077 284.868,118.438 284.868,119.23L284.868,119.849C284.352,119.746 283.819,119.677 283.13,119.677C281.032,119.677 279.569,120.589 279.569,122.498C279.569,124.288 280.842,125.199 282.442,125.199C283.561,125.199 284.403,124.924 285.04,124.219C285.212,124.821 285.556,125.079 286.279,125.079ZM283.664,123.393C282.993,123.393 282.511,123.066 282.511,122.292C282.511,121.535 283.027,121.208 283.853,121.208C284.197,121.208 284.558,121.243 284.868,121.294L284.868,122.894C284.541,123.169 284.128,123.393 283.664,123.393Z" style="fill:rgb(147,149,152);fill-rule:nonzero;"/>
                <path d="M292.352,125.079L292.352,114.654C292.352,113.278 292.18,113.037 291.217,113.037L289.255,113.037L289.255,125.079L292.352,125.079Z" style="fill:rgb(147,149,152);fill-rule:nonzero;"/>
                <path d="M300.937,125.217C302.416,125.217 303.448,124.769 304.033,124.391L304.033,122.447L303.001,122.447C302.623,122.774 302.124,123.083 301.195,123.083C300.008,123.083 299.251,122.326 299.251,120.606C299.251,118.886 300.077,118.06 301.264,118.06C302.003,118.06 302.554,118.335 302.881,118.628L303.999,118.628L303.999,116.512C303.397,116.185 302.451,115.875 301.126,115.875C298.167,115.875 296.103,117.63 296.103,120.572C296.103,123.565 297.909,125.217 300.937,125.217Z" style="fill:rgb(147,149,152);fill-rule:nonzero;"/>
                <path d="M308.111,125.079L308.111,114.654C308.111,113.278 307.939,113.037 306.975,113.037L305.014,113.037L305.014,125.079L308.111,125.079Z" style="fill:rgb(147,149,152);fill-rule:nonzero;"/>
                <path d="M317.83,121.225C317.83,121.122 317.865,120.795 317.865,120.434C317.865,117.372 316.42,115.875 313.598,115.875C310.863,115.875 308.971,117.699 308.971,120.606C308.971,123.462 310.605,125.217 313.753,125.217C315.646,125.217 316.712,124.769 317.504,124.322L317.504,122.481L316.54,122.481C316.007,122.86 315.25,123.152 314.235,123.152C312.979,123.152 312.257,122.757 312.102,121.225L317.83,121.225ZM313.598,117.768C314.424,117.768 314.889,118.215 314.94,119.608L312.119,119.608C312.291,118.129 312.893,117.768 313.598,117.768Z" style="fill:rgb(147,149,152);fill-rule:nonzero;"/>
                <path d="M324.918,125.079L326.604,125.079L326.604,119.006C326.604,116.77 325.28,115.875 322.579,115.875C320.962,115.875 319.74,116.237 318.897,116.598L318.897,118.679L319.826,118.679C320.342,118.335 321.082,118.077 321.977,118.077C323.095,118.077 323.508,118.439 323.508,119.23L323.508,119.849C322.992,119.746 322.458,119.677 321.77,119.677C319.671,119.677 318.209,120.589 318.209,122.499C318.209,124.288 319.482,125.199 321.082,125.199C322.2,125.199 323.043,124.924 323.68,124.219C323.852,124.821 324.196,125.079 324.918,125.079ZM322.303,123.393C321.632,123.393 321.151,123.066 321.151,122.292C321.151,121.535 321.667,121.208 322.493,121.208C322.837,121.208 323.198,121.243 323.508,121.294L323.508,122.894C323.181,123.169 322.768,123.393 322.303,123.393Z" style="fill:rgb(147,149,152);fill-rule:nonzero;"/>
                <path d="M330.011,116.013L327.861,116.013L327.861,125.079L330.957,125.079L330.957,118.542C331.387,118.404 331.886,118.249 332.454,118.249C333.194,118.249 333.521,118.456 333.521,119.247L333.521,125.079L336.617,125.079L336.617,118.439C336.617,116.426 335.516,115.875 334.157,115.875C332.832,115.875 331.697,116.443 330.888,117.114C330.768,116.202 330.493,116.013 330.011,116.013Z" style="fill:rgb(147,149,152);fill-rule:nonzero;"/>
                <path d="M340.969,125.079L340.969,117.75C340.969,116.323 340.814,116.013 339.885,116.013L337.89,116.013L337.89,125.079L340.969,125.079ZM339.438,115.462C340.367,115.462 341.038,114.86 341.038,114.017C341.038,113.174 340.367,112.555 339.438,112.555C338.526,112.555 337.838,113.174 337.838,114.017C337.838,114.86 338.526,115.462 339.438,115.462Z" style="fill:rgb(147,149,152);fill-rule:nonzero;"/>
                <path d="M344.461,116.013L342.311,116.013L342.311,125.079L345.407,125.079L345.407,118.542C345.838,118.404 346.336,118.249 346.904,118.249C347.644,118.249 347.971,118.456 347.971,119.247L347.971,125.079L351.067,125.079L351.067,118.439C351.067,116.426 349.966,115.875 348.607,115.875C347.283,115.875 346.147,116.443 345.339,117.114C345.218,116.202 344.943,116.013 344.461,116.013Z" style="fill:rgb(147,149,152);fill-rule:nonzero;"/>
                <path d="M361.114,116.013L359.446,116.013C358.826,116.013 358.465,116.357 358.276,116.89C357.639,116.237 356.9,115.875 355.781,115.875C353.855,115.875 351.893,117.045 351.893,120.434C351.893,123.514 353.579,124.632 355.592,124.632C356.59,124.632 357.45,124.322 358.018,123.858L358.018,124.305C358.018,125.389 357.278,125.853 355.713,125.853C354.68,125.853 353.872,125.578 353.321,125.217L352.358,125.217L352.358,127.315C353.218,127.728 354.388,128.004 356.108,128.004C359.239,128.004 361.114,126.782 361.114,124.391L361.114,116.013ZM356.659,122.671C355.575,122.671 355.024,122.223 355.024,120.348C355.024,118.542 355.867,118.181 356.762,118.181C357.295,118.181 357.674,118.301 358.018,118.525L358.018,122.206C357.622,122.481 357.158,122.671 356.659,122.671Z" style="fill:rgb(147,149,152);fill-rule:nonzero;"/>
                <path d="M368.408,125.079L368.408,117.75C368.408,116.323 368.254,116.013 367.325,116.013L365.329,116.013L365.329,125.079L368.408,125.079ZM366.877,115.462C367.806,115.462 368.477,114.86 368.477,114.017C368.477,113.174 367.806,112.555 366.877,112.555C365.966,112.555 365.277,113.174 365.277,114.017C365.277,114.86 365.966,115.462 366.877,115.462Z" style="fill:rgb(147,149,152);fill-rule:nonzero;"/>
                <path d="M371.901,116.013L369.75,116.013L369.75,125.079L372.847,125.079L372.847,118.542C373.277,118.404 373.776,118.249 374.344,118.249C375.083,118.249 375.41,118.456 375.41,119.247L375.41,125.079L378.507,125.079L378.507,118.439C378.507,116.426 377.406,115.875 376.047,115.875C374.722,115.875 373.587,116.443 372.778,117.114C372.658,116.202 372.382,116.013 371.901,116.013Z" style="fill:rgb(147,149,152);fill-rule:nonzero;"/>
                <path d="M386.368,125.079L388.553,125.079L388.553,114.654C388.553,113.295 388.381,113.037 387.418,113.037L385.456,113.037L385.456,116.736C384.906,116.202 384.252,115.875 383.1,115.875C381.293,115.875 379.332,117.097 379.332,120.675C379.332,123.789 380.898,125.234 382.945,125.234C384.183,125.234 385.009,124.735 385.56,124.133C385.697,124.89 385.955,125.079 386.368,125.079ZM384.029,123.187C382.996,123.187 382.463,122.499 382.463,120.606C382.463,118.611 383.323,118.181 384.235,118.181C384.734,118.181 385.13,118.284 385.456,118.49L385.456,122.636C384.992,123.015 384.596,123.187 384.029,123.187Z" style="fill:rgb(147,149,152);fill-rule:nonzero;"/>
                <path d="M394.144,122.946C393.405,122.946 392.975,122.774 392.975,121.914L392.975,116.013L389.878,116.013L389.878,122.619C389.878,124.597 391.031,125.217 392.527,125.217C393.749,125.217 394.798,124.701 395.624,124.064C395.744,124.941 396.002,125.079 396.484,125.079L398.634,125.079L398.634,116.013L395.555,116.013L395.555,122.653C395.142,122.791 394.626,122.946 394.144,122.946Z" style="fill:rgb(147,149,152);fill-rule:nonzero;"/>
                <path d="M402.884,125.2C405.654,125.2 406.927,124.047 406.927,122.12C406.927,120.193 405.912,119.557 403.796,119.299C402.643,119.161 402.248,118.972 402.248,118.593C402.248,118.163 402.574,117.94 403.435,117.94C404.346,117.94 405.017,118.215 405.43,118.49L406.411,118.49L406.411,116.495C405.637,116.133 404.794,115.893 403.349,115.893C401.078,115.893 399.529,116.873 399.529,118.852C399.529,120.744 400.613,121.415 402.54,121.656C403.796,121.828 404.106,121.983 404.106,122.464C404.106,122.929 403.589,123.118 402.764,123.118C401.783,123.118 401.026,122.774 400.665,122.447L399.615,122.447L399.615,124.477C400.355,124.855 401.301,125.2 402.884,125.2Z" style="fill:rgb(147,149,152);fill-rule:nonzero;"/>
                <path d="M407.115,118.009L408.096,118.009L408.096,122.602C408.096,124.58 409.283,125.234 411.141,125.234C411.915,125.234 412.5,125.114 412.913,124.993L412.913,123.204L412.311,123.204C411.502,123.204 411.193,122.946 411.193,122.137L411.193,118.009L412.879,118.009L412.879,116.013L411.193,116.013L411.193,113.708L408.096,113.708L408.096,116.013L407.115,116.013L407.115,118.009Z" style="fill:rgb(147,149,152);fill-rule:nonzero;"/>
                <path d="M419.382,118.49L419.795,118.49L419.795,116.013C419.623,115.979 419.434,115.944 419.244,115.944C418.143,115.944 417.352,116.495 416.75,117.252C416.647,116.219 416.354,116.013 415.872,116.013L413.722,116.013L413.722,125.079L416.819,125.079L416.819,118.92C417.318,118.714 418.212,118.49 419.382,118.49Z" style="fill:rgb(147,149,152);fill-rule:nonzero;"/>
                <path d="M422.29,127.866L425.094,127.866L429.498,116.718L429.498,116.013L426.849,116.013L425.094,121.157L425.042,121.157L423.15,116.013L420.208,116.013L420.208,116.718L423.477,124.649L422.29,127.161L422.29,127.866Z" style="fill:rgb(147,149,152);fill-rule:nonzero;"/>
            </g>
        </g>
        <g id="Cleaning-Matters-Logo-inc-strap.eps1" serif:id="Cleaning Matters Logo inc strap.eps">
        </g>
    </g>
</svg>
