<?xml version="1.0" encoding="UTF-8" standalone="no"?>
<!DOCTYPE svg PUBLIC "-//W3C//DTD SVG 1.1//EN" "http://www.w3.org/Graphics/SVG/1.1/DTD/svg11.dtd">
<svg width="100%" height="100%" viewBox="0 0 600 300" version="1.1" xmlns="http://www.w3.org/2000/svg" xmlns:xlink="http://www.w3.org/1999/xlink" xml:space="preserve" xmlns:serif="http://www.serif.com/" style="fill-rule:evenodd;clip-rule:evenodd;stroke-linejoin:round;stroke-miterlimit:2;">
    <g transform="matrix(1.09593,0,0,1.09593,300,150)">
        <g id="ISSA-Logo.eps" serif:id="ISSA Logo.eps" transform="matrix(1,0,0,1,-202.083,-110.417)">
            <clipPath id="_clip1">
                <rect x="0" y="0" width="404.167" height="220.833"/>
            </clipPath>
            <g clip-path="url(#_clip1)">
                <g transform="matrix(4.16667,0,0,4.16667,0,0)">
                    <path d="M43.359,42.095L45.512,42.095L44.439,39.485L43.359,42.095ZM42.624,43.862L42.034,43.862L44.194,38.896L44.685,38.896L46.845,43.862L46.256,43.862L45.71,42.557L43.17,42.557L42.624,43.862Z" style="fill:rgb(0,131,202);fill-rule:nonzero;"/>
                    <path d="M48.635,43.526C49.393,43.526 49.947,42.958 49.947,42.221C49.947,41.485 49.393,40.917 48.635,40.917C47.87,40.917 47.393,41.485 47.393,42.221C47.393,42.958 47.87,43.526 48.635,43.526ZM50.389,43.863L49.926,43.863L49.926,43.315L49.911,43.315C49.61,43.756 49.07,43.947 48.635,43.947C47.611,43.947 46.888,43.209 46.888,42.221C46.888,41.233 47.611,40.496 48.635,40.496C49.07,40.496 49.61,40.685 49.911,41.127L49.926,41.127L49.926,38.559L50.389,38.559L50.389,43.863Z" style="fill:rgb(0,131,202);fill-rule:nonzero;"/>
                    <path d="M52.606,43.863L52.087,43.863L50.754,40.58L51.308,40.58L52.354,43.343L52.368,43.343L53.413,40.58L53.939,40.58L52.606,43.863Z" style="fill:rgb(0,131,202);fill-rule:nonzero;"/>
                    <path d="M56.169,42.228C55.7,42.228 54.641,42.263 54.641,42.922C54.641,43.357 55.041,43.525 55.413,43.525C56.085,43.525 56.409,43.048 56.409,42.466L56.409,42.228L56.169,42.228ZM56.409,41.849L56.409,41.765C56.409,41.198 56.134,40.917 55.567,40.917C55.18,40.917 54.843,41.05 54.564,41.302L54.283,40.972C54.585,40.665 55.053,40.496 55.672,40.496C56.317,40.496 56.871,40.86 56.871,41.66L56.871,43.126C56.871,43.378 56.899,43.686 56.927,43.863L56.478,43.863C56.451,43.702 56.436,43.504 56.436,43.33L56.422,43.33C56.156,43.764 55.791,43.947 55.264,43.947C54.682,43.947 54.135,43.624 54.135,42.985C54.135,41.919 55.391,41.849 56.177,41.849L56.409,41.849Z" style="fill:rgb(0,131,202);fill-rule:nonzero;"/>
                    <path d="M58.148,40.58C58.169,40.755 58.169,40.93 58.169,41.105L58.183,41.105C58.387,40.749 58.85,40.496 59.285,40.496C60.12,40.496 60.52,40.965 60.52,41.779L60.52,43.863L60.057,43.863L60.057,42.046C60.057,41.315 59.852,40.917 59.165,40.917C59.068,40.917 58.169,40.979 58.169,42.179L58.169,43.863L57.707,43.863L57.707,41.302C57.707,41.127 57.686,40.818 57.67,40.58L58.148,40.58Z" style="fill:rgb(0,131,202);fill-rule:nonzero;"/>
                    <path d="M63.76,41.351C63.606,41.113 63.304,40.917 62.94,40.917C62.175,40.903 61.706,41.47 61.706,42.22C61.706,42.971 62.175,43.54 62.94,43.526C63.304,43.526 63.606,43.33 63.76,43.09L64.139,43.378C63.816,43.756 63.381,43.939 62.94,43.947C61.868,43.96 61.201,43.209 61.201,42.22C61.201,41.233 61.868,40.483 62.94,40.496C63.381,40.503 63.816,40.685 64.139,41.063L63.76,41.351Z" style="fill:rgb(0,131,202);fill-rule:nonzero;"/>
                    <path d="M65.08,43.863L64.617,43.863L64.617,40.58L65.08,40.58L65.08,43.863ZM64.848,39.655C64.68,39.655 64.511,39.514 64.511,39.317C64.511,39.121 64.68,38.981 64.848,38.981C65.016,38.981 65.186,39.121 65.186,39.317C65.186,39.514 65.016,39.655 64.848,39.655Z" style="fill:rgb(0,131,202);fill-rule:nonzero;"/>
                    <path d="M66.398,40.58C66.42,40.755 66.42,40.93 66.42,41.105L66.433,41.105C66.637,40.749 67.1,40.496 67.536,40.496C68.371,40.496 68.77,40.965 68.77,41.779L68.77,43.863L68.307,43.863L68.307,42.046C68.307,41.315 68.102,40.917 67.416,40.917C67.318,40.917 66.42,40.979 66.42,42.179L66.42,43.863L65.958,43.863L65.958,41.302C65.958,41.127 65.936,40.818 65.921,40.58L66.398,40.58Z" style="fill:rgb(0,131,202);fill-rule:nonzero;"/>
                    <path d="M71.176,43.442C71.848,43.442 72.446,42.937 72.418,42.179C72.418,41.492 71.948,40.917 71.176,40.917C70.489,40.917 69.956,41.492 69.956,42.179C69.956,42.867 70.489,43.442 71.176,43.442ZM69.872,44.522C70.145,44.886 70.602,45.125 71.127,45.125C72.067,45.125 72.404,44.542 72.404,43.834L72.404,43.246L72.389,43.246C72.095,43.687 71.638,43.863 71.162,43.863C70.214,43.863 69.451,43.155 69.451,42.193C69.451,41.24 70.153,40.496 71.12,40.496C71.512,40.496 72.01,40.615 72.389,41.127L72.404,41.127L72.404,40.58L72.867,40.58L72.867,43.834C72.867,44.549 72.58,45.546 71.107,45.546C70.454,45.546 69.949,45.335 69.528,44.886L69.872,44.522Z" style="fill:rgb(0,131,202);fill-rule:nonzero;"/>
                    <path d="M79.637,43.077C79.307,43.589 78.62,43.988 77.798,43.988C76.319,43.988 75.21,42.888 75.21,41.38C75.21,39.871 76.319,38.77 77.798,38.77C78.417,38.77 79.083,39.001 79.517,39.556L79.076,39.886C78.878,39.563 78.325,39.233 77.798,39.233C76.522,39.233 75.756,40.236 75.756,41.38C75.756,42.523 76.522,43.526 77.798,43.526C78.318,43.526 78.851,43.358 79.223,42.783L79.637,43.077Z" style="fill:rgb(0,131,202);fill-rule:nonzero;"/>
                    <rect x="80.184" y="38.56" width="0.464" height="5.303" style="fill:rgb(0,131,202);fill-rule:nonzero;"/>
                    <path d="M84.078,41.968C84.078,41.344 83.678,40.917 83.012,40.917C82.408,40.917 81.861,41.428 81.861,41.968L84.078,41.968ZM81.848,42.347C81.903,43.006 82.402,43.526 83.054,43.526C83.544,43.526 83.923,43.251 84.106,42.958L84.462,43.251C84.078,43.744 83.594,43.947 83.054,43.947C82.079,43.947 81.356,43.209 81.356,42.221C81.356,41.233 82.079,40.496 83.012,40.496C84.008,40.502 84.583,41.24 84.583,42.137L84.583,42.347L81.848,42.347Z" style="fill:rgb(0,131,202);fill-rule:nonzero;"/>
                    <path d="M87.052,42.228C86.584,42.228 85.524,42.263 85.524,42.922C85.524,43.357 85.923,43.525 86.295,43.525C86.968,43.525 87.292,43.048 87.292,42.466L87.292,42.228L87.052,42.228ZM87.292,41.849L87.292,41.765C87.292,41.198 87.017,40.917 86.449,40.917C86.063,40.917 85.727,41.05 85.446,41.302L85.166,40.972C85.467,40.665 85.937,40.496 86.555,40.496C87.199,40.496 87.754,40.86 87.754,41.66L87.754,43.126C87.754,43.378 87.782,43.686 87.81,43.863L87.361,43.863C87.334,43.702 87.319,43.504 87.319,43.33L87.305,43.33C87.038,43.764 86.674,43.947 86.148,43.947C85.565,43.947 85.019,43.624 85.019,42.985C85.019,41.919 86.274,41.849 87.059,41.849L87.292,41.849Z" style="fill:rgb(0,131,202);fill-rule:nonzero;"/>
                    <path d="M89.031,40.58C89.052,40.755 89.052,40.93 89.052,41.105L89.066,41.105C89.27,40.749 89.733,40.496 90.168,40.496C91.002,40.496 91.402,40.965 91.402,41.779L91.402,43.863L90.939,43.863L90.939,42.046C90.939,41.315 90.735,40.917 90.048,40.917C89.95,40.917 89.052,40.979 89.052,42.179L89.052,43.863L88.589,43.863L88.589,41.302C88.589,41.127 88.568,40.818 88.554,40.58L89.031,40.58Z" style="fill:rgb(0,131,202);fill-rule:nonzero;"/>
                    <path d="M92.721,43.905C92.497,43.905 92.342,43.722 92.342,43.526C92.342,43.33 92.497,43.148 92.721,43.148C92.946,43.148 93.1,43.33 93.1,43.526C93.1,43.722 92.946,43.905 92.721,43.905Z" style="fill:rgb(0,131,202);fill-rule:nonzero;"/>
                    <path d="M43.142,50.853L44.124,50.853C45.639,50.853 46.348,49.859 46.348,48.833C46.348,47.81 45.639,46.813 44.124,46.813L43.142,46.813L43.142,50.853ZM42.637,46.35L44.285,46.35C45.527,46.35 46.895,47.178 46.895,48.833C46.895,50.49 45.527,51.317 44.285,51.317L42.637,51.317L42.637,46.35Z" style="fill:rgb(0,131,202);fill-rule:nonzero;"/>
                    <path d="M47.534,49.058C47.534,48.763 47.52,48.51 47.505,48.035L47.96,48.035L47.96,48.644L47.976,48.644C48.109,48.293 48.453,47.95 49.028,47.95C49.161,47.95 49.273,47.963 49.372,47.992L49.28,48.448C49.224,48.426 49.14,48.413 49.014,48.413C48.313,48.413 47.997,49.023 47.997,49.464L47.997,51.317L47.534,51.317L47.534,49.058Z" style="fill:rgb(0,131,202);fill-rule:nonzero;"/>
                    <path d="M50.129,51.317L49.667,51.317L49.667,48.035L50.129,48.035L50.129,51.317ZM49.898,47.108C49.73,47.108 49.561,46.967 49.561,46.772C49.561,46.575 49.73,46.435 49.898,46.435C50.066,46.435 50.235,46.575 50.235,46.772C50.235,46.967 50.066,47.108 49.898,47.108Z" style="fill:rgb(0,131,202);fill-rule:nonzero;"/>
                    <path d="M52.437,51.317L51.918,51.317L50.586,48.035L51.14,48.035L52.184,50.797L52.199,50.797L53.244,48.035L53.77,48.035L52.437,51.317Z" style="fill:rgb(0,131,202);fill-rule:nonzero;"/>
                    <path d="M54.69,51.317L54.227,51.317L54.227,48.035L54.69,48.035L54.69,51.317ZM54.458,47.108C54.29,47.108 54.122,46.967 54.122,46.772C54.122,46.575 54.29,46.435 54.458,46.435C54.627,46.435 54.794,46.575 54.794,46.772C54.794,46.967 54.627,47.108 54.458,47.108Z" style="fill:rgb(0,131,202);fill-rule:nonzero;"/>
                    <path d="M55.995,48.034C56.016,48.208 56.016,48.385 56.016,48.56L56.03,48.56C56.233,48.202 56.696,47.95 57.13,47.95C57.965,47.95 58.366,48.42 58.366,49.233L58.366,51.316L57.903,51.316L57.903,49.5C57.903,48.77 57.699,48.371 57.012,48.371C56.914,48.371 56.016,48.433 56.016,49.633L56.016,51.316L55.553,51.316L55.553,48.756C55.553,48.581 55.532,48.272 55.518,48.034L55.995,48.034Z" style="fill:rgb(0,131,202);fill-rule:nonzero;"/>
                    <path d="M60.757,50.896C61.43,50.896 62.028,50.39 61.999,49.633C61.999,48.945 61.53,48.371 60.757,48.371C60.071,48.371 59.538,48.945 59.538,49.633C59.538,50.321 60.071,50.896 60.757,50.896ZM59.454,51.976C59.727,52.341 60.182,52.58 60.709,52.58C61.649,52.58 61.986,51.998 61.986,51.289L61.986,50.7L61.971,50.7C61.676,51.141 61.22,51.316 60.745,51.316C59.796,51.316 59.033,50.608 59.033,49.647C59.033,48.693 59.735,47.951 60.702,47.951C61.094,47.951 61.592,48.068 61.971,48.582L61.986,48.582L61.986,48.035L62.449,48.035L62.449,51.289C62.449,52.004 62.161,53 60.688,53C60.036,53 59.531,52.79 59.11,52.341L59.454,51.976Z" style="fill:rgb(0,131,202);fill-rule:nonzero;"/>
                    <rect x="65.1" y="46.351" width="0.506" height="4.966" style="fill:rgb(0,131,202);fill-rule:nonzero;"/>
                    <path d="M66.973,48.034C66.996,48.208 66.996,48.385 66.996,48.56L67.008,48.56C67.212,48.202 67.675,47.95 68.111,47.95C68.946,47.95 69.345,48.42 69.345,49.233L69.345,51.316L68.882,51.316L68.882,49.5C68.882,48.77 68.677,48.371 67.991,48.371C67.893,48.371 66.996,48.433 66.996,49.633L66.996,51.316L66.533,51.316L66.533,48.756C66.533,48.581 66.511,48.272 66.497,48.034L66.973,48.034Z" style="fill:rgb(0,131,202);fill-rule:nonzero;"/>
                    <path d="M70.623,48.034C70.643,48.208 70.643,48.385 70.643,48.56L70.658,48.56C70.86,48.202 71.324,47.95 71.758,47.95C72.593,47.95 72.994,48.42 72.994,49.233L72.994,51.316L72.531,51.316L72.531,49.5C72.531,48.77 72.327,48.371 71.639,48.371C71.542,48.371 70.643,48.433 70.643,49.633L70.643,51.316L70.18,51.316L70.18,48.756C70.18,48.581 70.16,48.272 70.145,48.034L70.623,48.034Z" style="fill:rgb(0,131,202);fill-rule:nonzero;"/>
                    <path d="M75.4,48.371C74.643,48.371 74.165,48.939 74.165,49.675C74.165,50.413 74.643,50.98 75.4,50.98C76.164,50.98 76.641,50.413 76.641,49.675C76.641,48.939 76.164,48.371 75.4,48.371ZM75.4,51.401C74.382,51.401 73.66,50.665 73.66,49.675C73.66,48.686 74.382,47.951 75.4,47.951C76.423,47.951 77.146,48.686 77.146,49.675C77.146,50.665 76.423,51.401 75.4,51.401Z" style="fill:rgb(0,131,202);fill-rule:nonzero;"/>
                    <path d="M79.181,51.317L78.663,51.317L77.33,48.035L77.884,48.035L78.929,50.797L78.943,50.797L79.988,48.035L80.513,48.035L79.181,51.317Z" style="fill:rgb(0,131,202);fill-rule:nonzero;"/>
                    <path d="M82.731,49.682C82.26,49.682 81.202,49.717 81.202,50.376C81.202,50.811 81.601,50.98 81.972,50.98C82.646,50.98 82.969,50.503 82.969,49.921L82.969,49.682L82.731,49.682ZM82.969,49.304L82.969,49.219C82.969,48.651 82.696,48.37 82.127,48.37C81.742,48.37 81.405,48.504 81.125,48.756L80.843,48.427C81.145,48.118 81.616,47.95 82.234,47.95C82.877,47.95 83.432,48.315 83.432,49.114L83.432,50.58C83.432,50.832 83.46,51.141 83.488,51.316L83.04,51.316C83.011,51.155 82.998,50.959 82.998,50.783L82.984,50.783C82.716,51.219 82.351,51.401 81.827,51.401C81.244,51.401 80.697,51.078 80.697,50.439C80.697,49.374 81.952,49.304 82.738,49.304L82.969,49.304Z" style="fill:rgb(0,131,202);fill-rule:nonzero;"/>
                    <path d="M85.951,48.456L85.004,48.456L85.004,50.39C85.004,50.881 85.193,50.98 85.481,50.98C85.642,50.98 85.818,50.931 85.959,50.853L85.979,51.282C85.81,51.358 85.586,51.401 85.355,51.401C85.004,51.401 84.542,51.247 84.542,50.524L84.542,48.456L83.846,48.456L83.846,48.034L84.542,48.034L84.542,47.108L85.004,47.108L85.004,48.034L85.951,48.034L85.951,48.456Z" style="fill:rgb(0,131,202);fill-rule:nonzero;"/>
                    <path d="M86.898,51.317L86.434,51.317L86.434,48.035L86.898,48.035L86.898,51.317ZM86.667,47.108C86.498,47.108 86.33,46.967 86.33,46.772C86.33,46.575 86.498,46.435 86.667,46.435C86.835,46.435 87.003,46.575 87.003,46.772C87.003,46.967 86.835,47.108 86.667,47.108Z" style="fill:rgb(0,131,202);fill-rule:nonzero;"/>
                    <path d="M89.333,48.371C88.575,48.371 88.098,48.939 88.098,49.675C88.098,50.413 88.575,50.98 89.333,50.98C90.097,50.98 90.574,50.413 90.574,49.675C90.574,48.939 90.097,48.371 89.333,48.371ZM89.333,51.401C88.316,51.401 87.593,50.665 87.593,49.675C87.593,48.686 88.316,47.951 89.333,47.951C90.356,47.951 91.079,48.686 91.079,49.675C91.079,50.665 90.356,51.401 89.333,51.401Z" style="fill:rgb(0,131,202);fill-rule:nonzero;"/>
                    <path d="M92.111,48.034C92.131,48.208 92.131,48.385 92.131,48.56L92.145,48.56C92.349,48.202 92.812,47.95 93.248,47.95C94.082,47.95 94.481,48.42 94.481,49.233L94.481,51.316L94.018,51.316L94.018,49.5C94.018,48.77 93.814,48.371 93.127,48.371C93.03,48.371 92.131,48.433 92.131,49.633L92.131,51.316L91.668,51.316L91.668,48.756C91.668,48.581 91.647,48.272 91.633,48.034L92.111,48.034Z" style="fill:rgb(0,131,202);fill-rule:nonzero;"/>
                    <path d="M95.787,51.359C95.563,51.359 95.408,51.176 95.408,50.98C95.408,50.784 95.563,50.601 95.787,50.601C96.011,50.601 96.166,50.784 96.166,50.98C96.166,51.176 96.011,51.359 95.787,51.359Z" style="fill:rgb(0,131,202);fill-rule:nonzero;"/>
                    <clipPath id="_clip2">
                        <path d="M0.319,-1.222L15.786,1.59L9.645,35.367L-5.822,32.554L0.319,-1.222Z"/>
                    </clipPath>
                    <g clip-path="url(#_clip2)">
                        <path d="M0,0.532L0,33.613L9.963,33.613L9.963,32.082C8.693,31.353 7.506,30.513 6.436,29.554L5.643,28.842L6.327,28.026L9.963,23.681L9.963,17.316C8.508,15.739 7.618,13.655 7.618,10.812L7.618,10.718C7.618,8.028 8.46,5.685 9.963,3.817L9.963,0.532L0,0.532Z" style="fill:url(#_Linear3);"/>
                    </g>
                    <clipPath id="_clip4">
                        <path d="M12.188,-10.68L48.729,6.161L30.799,45.065L-5.741,28.224L12.188,-10.68Z"/>
                    </clipPath>
                    <g clip-path="url(#_clip4)">
                        <path d="M8.717,10.718L8.717,10.812C8.717,17.568 14.114,19.538 21.104,21.131C25.56,22.167 26.64,22.915 26.64,24.277L26.64,24.371C26.64,25.777 25.327,26.623 22.887,26.623C19.085,26.623 15.475,25.263 12.237,22.681L7.168,28.733C11.205,32.346 16.741,34.174 22.557,34.174C27.069,34.174 30.721,32.899 33.045,30.575C32.613,30.247 32.182,29.915 31.78,29.554L30.987,28.842L31.668,28.026L35.819,23.07C35.655,17.161 31.007,14.77 23.589,13.158C19.041,12.126 17.914,11.469 17.914,9.967L17.914,9.873C17.914,8.702 18.992,7.763 21.197,7.763C24.097,7.763 27.371,8.882 30.365,10.981L33.53,3.539C30.237,1.35 26.297,0.21 21.431,0.21C13.55,0.21 8.717,4.619 8.717,10.718Z" style="fill:url(#_Linear5);"/>
                    </g>
                    <clipPath id="_clip6">
                        <rect x="51.396" y="0.539" width="36.732" height="33.074"/>
                    </clipPath>
                    <g clip-path="url(#_clip6)">
                        <path d="M65.377,0.539L51.396,33.613L60.967,33.613L63.314,27.748L75.981,27.748L78.373,33.613L88.128,33.613L74.149,0.539L65.377,0.539ZM69.694,11.327L73.352,20.664L65.987,20.664L69.694,11.327Z" style="fill:url(#_Linear7);"/>
                    </g>
                    <clipPath id="_clip8">
                        <path d="M34.952,-7.429L68.599,3.309L56.453,41.371L22.804,30.632L34.952,-7.429Z"/>
                    </clipPath>
                    <g clip-path="url(#_clip8)">
                        <path d="M34.061,10.718L34.061,10.812C34.061,17.568 39.456,19.538 46.447,21.131C50.905,22.167 51.984,22.915 51.984,24.277L51.984,24.371C51.984,25.777 50.67,26.623 48.23,26.623C44.428,26.623 40.819,25.263 37.579,22.681L32.513,28.733C36.547,32.346 42.299,33.731 48.116,33.731C48.844,33.731 49.543,33.688 50.225,33.623L50.597,32.743L57.508,16.326C55.413,14.89 52.498,13.932 48.934,13.158C44.381,12.126 43.255,11.469 43.255,9.967L43.255,9.873C43.255,8.702 44.335,7.763 46.541,7.763C49.446,7.763 52.727,8.885 55.725,10.993L58.891,3.551C55.594,1.355 51.652,0.21 46.776,0.21C38.891,0.21 34.061,4.619 34.061,10.718Z" style="fill:url(#_Linear9);"/>
                    </g>
                    <path d="M77.778,1.888C77.97,1.888 78.139,1.87 78.139,1.645C78.139,1.456 77.954,1.434 77.8,1.434L77.492,1.434L77.492,1.888L77.778,1.888ZM77.492,2.773L77.237,2.773L77.237,1.215L77.827,1.215C78.203,1.215 78.395,1.347 78.395,1.664C78.395,1.945 78.221,2.062 77.989,2.087L78.425,2.773L78.135,2.773L77.733,2.107L77.492,2.107L77.492,2.773ZM77.77,0.805C77.161,0.805 76.687,1.284 76.687,1.967C76.687,2.607 77.101,3.129 77.77,3.129C78.372,3.129 78.846,2.656 78.846,1.967C78.846,1.284 78.372,0.805 77.77,0.805ZM77.77,3.375C76.962,3.375 76.387,2.769 76.387,1.967C76.387,1.122 77.026,0.562 77.77,0.562C78.507,0.562 79.147,1.122 79.147,1.967C79.147,2.814 78.507,3.375 77.77,3.375Z" style="fill:rgb(0,131,202);fill-rule:nonzero;"/>
                </g>
            </g>
        </g>
        <g id="ISSA-Logo.eps1" serif:id="ISSA Logo.eps">
        </g>
    </g>
    <defs>
        <linearGradient id="_Linear3" x1="0" y1="0" x2="1" y2="0" gradientUnits="userSpaceOnUse" gradientTransform="matrix(12.5223,-2.27684,-2.27684,-12.5223,-0.636719,16.045)"><stop offset="0" style="stop-color:rgb(22,156,216);stop-opacity:1"/><stop offset="1" style="stop-color:rgb(9,84,136);stop-opacity:1"/></linearGradient>
        <linearGradient id="_Linear5" x1="0" y1="0" x2="1" y2="0" gradientUnits="userSpaceOnUse" gradientTransform="matrix(25.4228,-11.7166,-11.7166,-25.4228,9.99609,11.8731)"><stop offset="0" style="stop-color:rgb(22,156,216);stop-opacity:1"/><stop offset="1" style="stop-color:rgb(9,84,136);stop-opacity:1"/></linearGradient>
        <linearGradient id="_Linear7" x1="0" y1="0" x2="1" y2="0" gradientUnits="userSpaceOnUse" gradientTransform="matrix(21.8066,-0,0,-21.8066,58.3867,17.0684)"><stop offset="0" style="stop-color:rgb(22,156,216);stop-opacity:1"/><stop offset="1" style="stop-color:rgb(9,84,136);stop-opacity:1"/></linearGradient>
        <linearGradient id="_Linear9" x1="0" y1="0" x2="1" y2="0" gradientUnits="userSpaceOnUse" gradientTransform="matrix(20.7733,-6.62976,-6.62976,-20.7733,36.2461,13.959)"><stop offset="0" style="stop-color:rgb(22,156,216);stop-opacity:1"/><stop offset="1" style="stop-color:rgb(9,84,136);stop-opacity:1"/></linearGradient>
    </defs>
</svg>
