<?xml version="1.0" encoding="UTF-8" standalone="no"?>
<!DOCTYPE svg PUBLIC "-//W3C//DTD SVG 1.1//EN" "http://www.w3.org/Graphics/SVG/1.1/DTD/svg11.dtd">
<svg width="100%" height="100%" viewBox="0 0 600 310" version="1.1" xmlns="http://www.w3.org/2000/svg" xmlns:xlink="http://www.w3.org/1999/xlink" xml:space="preserve" xmlns:serif="http://www.serif.com/" style="fill-rule:evenodd;clip-rule:evenodd;stroke-linejoin:round;stroke-miterlimit:2;">
    <g id="Colour" transform="matrix(0.87488,0,0,0.87488,37.5359,-74.2187)">
        <g id="HAVi-Logo" serif:id="HAVi Logo" transform="matrix(0.727273,0,0,0.727273,300,260)">
            <g id="Colour1" serif:id="Colour">
                <g id="HAVi-Logo1" serif:id="HAVi Logo" transform="matrix(1,0,0,1,-343.75,-150)">
                    <clipPath id="_clip1">
                        <rect x="0" y="0" width="687.5" height="300"/>
                    </clipPath>
                    <g clip-path="url(#_clip1)">
                        <g transform="matrix(4.16667,0,0,4.16667,0,0)">
                            <path d="M154.162,0.062L10.279,0.062C4.6,0.062 0,4.663 0,10.34L0,61.728C0,67.402 4.6,72.004 10.279,72.004L154.162,72.004C159.836,72.004 164.438,67.402 164.438,61.728L164.438,10.34C164.438,4.663 159.836,0.062 154.162,0.062Z" style="fill:rgb(242,99,52);fill-rule:nonzero;"/>
                            <path d="M87.177,38.852L76.174,38.852C75.587,38.852 75.061,38.304 75.061,37.7C75.061,37.398 75.178,37.155 75.295,36.974L80.916,30.311C81.15,30.067 81.383,29.887 81.734,29.887C82.085,29.887 82.379,30.004 82.552,30.25L88.056,36.974C88.173,37.155 88.291,37.398 88.291,37.7C88.291,38.304 87.764,38.852 87.177,38.852ZM84.311,21.95C83.785,21.343 82.961,20.618 81.793,20.618C80.682,20.618 79.747,21.102 79.104,21.888L60.024,45.333C59.381,46.117 58.853,46.906 58.853,47.999C58.853,48.274 58.886,48.54 58.946,48.796L58.946,48.801C59.289,50.288 60.584,51.392 62.13,51.392C63.477,51.392 64.356,50.481 65.116,49.512L65.666,48.801L67.456,46.482C68.157,45.576 69.212,44.665 70.441,44.665L92.854,44.665C93.847,44.665 95.078,45.576 95.723,46.362L97.74,48.801L98.533,49.755C99.232,50.603 100.111,51.392 101.28,51.392C102.83,51.392 104.12,50.288 104.466,48.796C104.527,48.537 104.559,48.274 104.559,47.999C104.559,46.969 103.97,46.117 103.331,45.333L84.311,21.95ZM140.606,20.618C138.792,20.618 137.328,22.132 137.328,24.01L137.328,48.061C137.328,48.315 137.357,48.564 137.411,48.801C137.752,50.345 139.141,51.392 140.665,51.392C142.214,51.392 143.461,50.288 143.797,48.796C143.855,48.537 143.885,48.274 143.885,47.999L143.885,23.949C143.885,22.074 142.362,20.618 140.606,20.618ZM132.46,20.678C131.172,20.678 130.237,21.404 129.651,22.132L113.628,41.779C113.452,42.02 113.158,42.142 112.81,42.142C112.459,42.142 112.162,42.02 111.989,41.779L95.961,22.132C95.379,21.404 94.444,20.678 93.156,20.678C91.341,20.678 89.878,22.191 89.878,24.071C89.878,25.098 90.462,25.946 91.052,26.672L108.947,48.801L109.717,49.755C110.128,50.298 111.222,51.45 112.8,51.45C114.376,51.45 115.488,50.298 115.897,49.755L116.67,48.801L134.566,26.672C135.151,25.946 135.736,25.098 135.736,24.071C135.736,22.191 134.274,20.678 132.46,20.678ZM54.132,20.678C52.319,20.678 50.856,22.132 50.856,24.01L50.856,32.006C50.856,32.609 50.387,33.097 49.803,33.097L28.162,33.097C27.576,33.097 27.11,32.609 27.11,32.006L27.11,24.01C27.11,22.132 25.646,20.678 23.833,20.678C22.018,20.678 20.556,22.132 20.556,24.01L20.556,48.061C20.556,48.315 20.581,48.564 20.63,48.801C20.963,50.345 22.31,51.392 23.833,51.392C25.379,51.392 26.674,50.288 27.017,48.796L27.02,48.796C27.077,48.537 27.11,48.274 27.11,47.999L27.05,40.123C27.05,39.516 27.576,39.035 28.162,39.035L49.744,38.971C50.33,38.971 50.798,39.516 50.798,40.123L50.856,48.061C50.856,48.313 50.882,48.562 50.932,48.801C51.26,50.306 52.566,51.392 54.132,51.392C55.701,51.392 57.004,50.306 57.332,48.801C57.382,48.56 57.409,48.313 57.409,48.061L57.409,23.949C57.409,22.01 55.888,20.678 54.132,20.678ZM111.879,29.22C112.055,29.463 112.347,29.585 112.697,29.585C113.048,29.585 113.287,29.402 113.516,29.161L119.137,22.498C119.254,22.312 119.37,22.074 119.37,21.767C119.37,21.163 118.845,20.618 118.258,20.618L107.257,20.618C106.673,20.618 106.146,21.163 106.146,21.767C106.146,22.074 106.259,22.312 106.378,22.498L111.879,29.22ZM143.885,17.193L145.282,17.193L145.282,20.618L145.818,20.618L145.818,17.193L147.201,17.193L147.201,16.76L143.885,16.76L143.885,17.193ZM150.791,16.76L149.554,20.042L148.251,16.76L147.442,16.76L147.442,20.618L147.951,20.618L147.951,17.295L149.262,20.618L149.819,20.618L151.107,17.251L151.107,20.618L151.617,20.618L151.617,16.76L150.791,16.76Z" style="fill:white;fill-rule:nonzero;"/>
                        </g>
                    </g>
                </g>
                <g id="HAVi-Logo2" serif:id="HAVi Logo">
                </g>
            </g>
        </g>
    </g>
</svg>
