<?xml version="1.0" encoding="UTF-8" standalone="no"?>
<!DOCTYPE svg PUBLIC "-//W3C//DTD SVG 1.1//EN" "http://www.w3.org/Graphics/SVG/1.1/DTD/svg11.dtd">
<svg width="100%" height="100%" viewBox="0 0 600 310" version="1.1" xmlns="http://www.w3.org/2000/svg" xmlns:xlink="http://www.w3.org/1999/xlink" xml:space="preserve" xmlns:serif="http://www.serif.com/" style="fill-rule:evenodd;clip-rule:evenodd;stroke-linejoin:round;stroke-miterlimit:2;">
    <g id="Colour" transform="matrix(0.892294,0,0,0.892294,60.3118,-58.8958)">
        <g id="Nineteen-Logo" serif:id="Nineteen Logo" transform="matrix(1.36788,0,0,1.36788,268.62,239.715)">
            <g id="Colour1" serif:id="Colour">
                <g id="Nineteen-Logo1" serif:id="Nineteen Logo" transform="matrix(1,0,0,1,-195.833,-54.1667)">
                    <g transform="matrix(4.16667,0,0,4.16667,0,0)">
                        <path d="M91.029,15.14L91.029,13.806L90.542,13.806L90.542,13.643L91.71,13.643L91.71,13.806L91.222,13.806L91.222,15.14L91.029,15.14ZM91.973,15.14L91.973,13.643L92.282,13.643L92.765,14.857L93.234,13.643L93.543,13.643L93.543,15.14L93.351,15.14L93.351,13.817L93.343,13.817L92.812,15.14L92.704,15.14L92.174,13.817L92.165,13.817L92.165,15.14L91.973,15.14Z" style="fill:rgb(0,189,242);fill-rule:nonzero;"/>
                        <path d="M37.089,1.244C36.791,1.124 36.384,1.071 35.871,1.082C35.356,1.094 34.79,1.196 34.168,1.386C33.547,1.579 32.987,1.924 32.484,2.426C31.719,3.192 30.949,4.248 30.172,5.597C29.396,6.948 28.601,8.428 27.79,10.041C26.976,11.655 26.146,13.303 25.298,14.988C24.451,16.671 23.573,18.218 22.665,19.628C21.756,21.038 20.825,22.227 19.87,23.195C18.914,24.162 17.934,24.717 16.93,24.861C16.022,24.981 15.488,24.914 14.89,24.663C14.293,24.413 13.802,24.037 13.42,23.535C13.039,23.034 12.746,22.448 12.543,21.779C12.339,21.111 12.203,20.423 12.13,19.718C12.058,19.013 12.035,18.321 12.058,17.639C12.083,16.959 12.106,16.368 12.13,15.866C12.322,13.333 12.462,10.825 12.989,8.339C13.513,5.855 14.086,3.381 14.709,0.92C13.896,0.611 13.204,0.682 12.629,1.135C12.28,1.414 11.963,1.774 11.68,2.215L11.68,2.214C11.679,2.216 11.678,2.217 11.677,2.219C11.499,2.5 11.332,2.814 11.178,3.161C11.148,3.229 11.123,3.301 11.093,3.371C10.47,4.697 9.83,6.279 8.537,8.3C8.084,9.007 6.914,10.645 6.315,11.393C5.375,12.568 4.208,14.074 3.634,14.934C3.061,15.793 2.536,16.654 2.057,17.514C1.58,18.374 1.173,19.187 0.839,19.951C0.504,20.715 0.278,21.372 0.159,21.922C-0.033,22.687 -0.05,23.356 0.104,23.929C0.259,24.502 0.474,24.951 0.75,25.273C1.023,25.595 1.288,25.781 1.539,25.829C1.789,25.876 1.915,25.734 1.915,25.399C2.201,24.299 2.614,23.164 3.15,21.994C3.688,20.824 4.297,19.442 4.978,18.283C5.66,17.123 6.479,15.749 7.206,14.621C7.805,13.69 8.643,12.357 9.375,11.205C9.34,11.505 9.311,11.816 9.296,12.103C9.225,13.533 9.425,15.98 9.729,17.658C9.907,18.635 10.147,19.598 10.481,20.542C10.816,21.487 11.252,22.334 11.791,23.086C12.328,23.839 12.978,24.472 13.744,24.987C14.507,25.5 15.186,25.817 16.213,25.936C17.91,26.151 19.462,25.823 20.873,24.951C22.283,24.079 23.585,22.889 24.78,21.384C25.973,19.879 27.096,18.171 28.147,16.259C29.199,14.348 30.22,12.456 31.211,10.58C32.204,8.704 33.194,6.965 34.186,5.365C35.177,3.764 36.211,2.522 37.287,1.637C37.454,1.495 37.387,1.364 37.089,1.244Z" style="fill:rgb(0,189,242);fill-rule:nonzero;"/>
                        <path d="M35.028,18.733C35.506,18.302 35.864,18.171 36.103,18.338C36.342,18.505 36.246,18.853 35.816,19.377C35.53,19.736 35.183,20.113 34.777,20.506C34.371,20.901 33.959,21.272 33.542,21.618C33.122,21.964 32.734,22.262 32.376,22.513C32.018,22.764 31.743,22.913 31.552,22.961C31.288,22.986 30.984,22.938 30.638,22.819C30.292,22.699 29.958,22.52 29.634,22.281C29.312,22.042 29.049,21.749 28.846,21.403C28.643,21.056 28.565,20.667 28.613,20.238C28.661,19.831 28.774,19.383 28.953,18.894C29.133,18.405 29.341,17.956 29.581,17.549C29.819,17.144 30.058,16.81 30.297,16.546C30.536,16.284 30.752,16.164 30.942,16.188C31.109,16.237 31.288,16.301 31.48,16.385C31.671,16.469 31.844,16.565 32.001,16.671C32.155,16.78 32.28,16.905 32.376,17.048C32.471,17.192 32.507,17.359 32.483,17.549C32.46,17.742 32.352,18.022 32.161,18.392C31.969,18.762 31.778,19.139 31.587,19.522C31.396,19.904 31.229,20.25 31.086,20.561C30.942,20.872 30.918,21.062 31.014,21.133C31.086,21.181 31.259,21.152 31.534,21.044C31.808,20.937 32.131,20.776 32.501,20.561C32.872,20.345 33.278,20.082 33.72,19.772C34.162,19.461 34.598,19.115 35.028,18.733ZM33.667,15.22C33.523,15.22 33.344,15.185 33.129,15.113C32.913,15.041 32.716,14.946 32.537,14.827C32.358,14.706 32.215,14.57 32.107,14.414C32.001,14.258 31.959,14.097 31.982,13.93C32.005,13.787 32.071,13.595 32.179,13.357C32.286,13.119 32.412,12.885 32.555,12.658C32.699,12.431 32.86,12.235 33.04,12.067C33.218,11.9 33.391,11.792 33.559,11.745C33.725,11.72 33.929,11.751 34.168,11.833C34.406,11.917 34.634,12.037 34.849,12.193C35.064,12.347 35.237,12.514 35.368,12.694C35.5,12.873 35.553,13.023 35.53,13.142C35.53,13.286 35.459,13.47 35.315,13.698C35.171,13.924 35.004,14.146 34.813,14.361C34.621,14.576 34.419,14.767 34.204,14.934C33.989,15.102 33.809,15.197 33.667,15.22Z" style="fill:rgb(0,189,242);fill-rule:nonzero;"/>
                        <path d="M35.996,17.155C36.138,17.012 36.311,16.959 36.515,16.994C36.717,17.03 36.91,17.114 37.088,17.244C37.267,17.376 37.429,17.543 37.573,17.745C37.715,17.948 37.799,18.133 37.824,18.3C37.871,18.467 37.865,18.675 37.805,18.926C37.746,19.176 37.662,19.427 37.554,19.677C37.447,19.927 37.345,20.154 37.25,20.357C37.155,20.56 37.094,20.709 37.071,20.804C37.19,20.732 37.464,20.488 37.894,20.07C38.326,19.653 38.779,19.205 39.256,18.729C39.735,18.252 40.182,17.823 40.6,17.441C41.018,17.06 41.288,16.845 41.408,16.797C41.502,16.751 41.669,16.744 41.909,16.779C42.147,16.815 42.386,16.887 42.626,16.994C42.865,17.101 43.08,17.233 43.27,17.387C43.461,17.543 43.581,17.716 43.629,17.906C43.676,18.097 43.587,18.407 43.361,18.836C43.132,19.266 42.888,19.713 42.626,20.178C42.363,20.643 42.129,21.06 41.926,21.43C41.723,21.8 41.681,22.02 41.801,22.092C41.92,22.163 42.183,22.068 42.589,21.805C42.996,21.543 43.444,21.221 43.933,20.84C44.423,20.459 44.883,20.07 45.313,19.677C45.744,19.283 46.053,19.003 46.246,18.836C46.436,18.67 46.597,18.58 46.729,18.568C46.861,18.556 46.961,18.598 47.034,18.693C47.106,18.788 47.134,18.908 47.124,19.051C47.111,19.194 47.057,19.349 46.961,19.516C46.842,19.683 46.591,19.976 46.21,20.392C45.827,20.81 45.404,21.251 44.937,21.716C44.471,22.181 44.024,22.605 43.593,22.986C43.164,23.368 42.829,23.594 42.589,23.665C42.231,23.809 41.832,23.851 41.389,23.79C40.947,23.732 40.522,23.623 40.117,23.469C39.71,23.314 39.37,23.111 39.095,22.861C38.821,22.61 38.671,22.354 38.647,22.092C38.624,21.997 38.666,21.805 38.772,21.519C38.88,21.233 39.005,20.947 39.15,20.661C39.293,20.375 39.429,20.112 39.561,19.873C39.693,19.636 39.758,19.504 39.758,19.48C39.065,20.22 38.499,20.804 38.056,21.233C37.614,21.662 37.172,22.056 36.731,22.413C36.288,22.771 35.971,22.95 35.781,22.95C35.469,22.95 35.147,22.849 34.812,22.646C34.478,22.444 34.276,22.14 34.204,21.734C34.18,21.567 34.21,21.275 34.293,20.858C34.377,20.44 34.497,19.998 34.652,19.534C34.807,19.069 34.998,18.616 35.224,18.175C35.452,17.734 35.709,17.394 35.996,17.155Z" style="fill:rgb(0,189,242);fill-rule:nonzero;"/>
                        <path d="M55.132,18.768C55.585,18.434 55.836,18.327 55.885,18.447C55.932,18.566 55.849,18.792 55.634,19.126C55.419,19.486 55.115,19.904 54.72,20.381C54.327,20.86 53.89,21.314 53.413,21.744C52.934,22.173 52.432,22.555 51.908,22.889C51.381,23.224 50.891,23.427 50.438,23.499C50.127,23.547 49.72,23.469 49.219,23.266C48.717,23.064 48.234,22.771 47.767,22.388C47.301,22.006 46.914,21.564 46.604,21.063C46.293,20.56 46.186,20.046 46.281,19.522C46.352,19.09 46.532,18.678 46.818,18.285C47.105,17.89 47.427,17.544 47.786,17.246C48.143,16.947 48.507,16.708 48.878,16.529C49.249,16.349 49.566,16.259 49.829,16.259C50.043,16.259 50.289,16.32 50.564,16.44C50.837,16.558 51.088,16.713 51.316,16.905C51.543,17.096 51.721,17.317 51.854,17.568C51.985,17.819 52.039,18.076 52.014,18.338C51.966,18.601 51.788,18.907 51.477,19.252C51.167,19.598 50.82,19.94 50.438,20.274C50.007,20.657 49.505,21.05 48.932,21.456C49.458,21.599 50.299,21.432 51.46,20.955C52.618,20.476 53.842,19.748 55.132,18.768ZM50.904,18.087C50.807,18.015 50.586,18.07 50.241,18.248C49.893,18.427 49.553,18.661 49.219,18.948C48.884,19.235 48.604,19.551 48.377,19.898C48.15,20.245 48.095,20.537 48.215,20.776C48.36,20.704 48.591,20.537 48.915,20.274C49.237,20.01 49.559,19.724 49.882,19.413C50.205,19.103 50.473,18.823 50.689,18.572C50.904,18.321 50.975,18.16 50.904,18.087Z" style="fill:rgb(0,189,242);fill-rule:nonzero;"/>
                        <path d="M55.67,14.683C55.789,14.564 56.542,14.48 57.928,14.432C58.31,14.098 58.668,13.823 59.003,13.608C59.337,13.393 59.66,13.285 59.971,13.285C60.257,13.285 60.568,13.399 60.902,13.626C61.237,13.853 61.499,14.11 61.691,14.396C62.909,14.396 64.211,14.384 65.597,14.36C66.982,14.336 68.393,14.301 69.826,14.252C71.641,14.205 73.422,14.134 75.167,14.038C76.91,13.943 78.487,13.847 79.896,13.751C81.306,13.656 82.477,13.572 83.409,13.499C84.341,13.429 84.914,13.393 85.129,13.393C85.535,13.393 85.983,13.458 86.473,13.59C86.962,13.721 87.41,13.876 87.817,14.056C88.223,14.235 88.539,14.427 88.766,14.629C88.993,14.831 89.035,15.018 88.892,15.185C88.796,15.28 88.33,15.333 87.494,15.346C86.658,15.358 85.553,15.358 84.179,15.346C82.805,15.333 81.216,15.316 79.413,15.291C77.609,15.269 75.697,15.251 73.679,15.238C71.659,15.227 69.599,15.227 67.497,15.238C65.394,15.251 63.351,15.304 61.368,15.4C61.105,15.591 60.771,15.877 60.365,16.26C59.958,16.642 59.54,17.06 59.11,17.514C58.68,17.968 58.256,18.446 57.838,18.948C57.42,19.449 57.068,19.914 56.781,20.345C56.494,20.775 56.297,21.152 56.19,21.474C56.083,21.797 56.112,22.018 56.279,22.137C56.422,22.233 56.757,22.125 57.283,21.815C57.808,21.505 58.377,21.134 58.985,20.704C59.594,20.274 60.18,19.85 60.741,19.432C61.302,19.014 61.691,18.745 61.906,18.624C62.336,18.338 62.646,18.279 62.838,18.446C63.029,18.613 63.017,18.84 62.802,19.126C62.682,19.27 62.395,19.575 61.942,20.04C61.487,20.507 60.956,20.985 60.347,21.474C59.737,21.964 59.104,22.401 58.447,22.782C57.79,23.164 57.223,23.356 56.745,23.356C55.765,23.356 55.127,23.086 54.828,22.549C54.529,22.012 54.44,21.343 54.559,20.542C54.679,19.742 54.966,18.882 55.419,17.961C55.873,17.042 56.387,16.211 56.96,15.471C55.837,15.233 55.407,14.97 55.67,14.683Z" style="fill:rgb(0,189,242);fill-rule:nonzero;"/>
                        <path d="M70.435,18.768C70.888,18.434 71.139,18.327 71.187,18.447C71.235,18.566 71.152,18.792 70.936,19.126C70.722,19.486 70.418,19.904 70.023,20.381C69.629,20.86 69.192,21.314 68.715,21.744C68.236,22.173 67.735,22.555 67.21,22.889C66.684,23.224 66.194,23.427 65.74,23.499C65.429,23.547 65.023,23.469 64.522,23.266C64.02,23.064 63.536,22.771 63.07,22.388C62.604,22.006 62.216,21.564 61.905,21.063C61.595,20.56 61.488,20.046 61.584,19.522C61.655,19.09 61.835,18.678 62.121,18.285C62.407,17.89 62.73,17.544 63.088,17.246C63.447,16.947 63.81,16.708 64.181,16.529C64.551,16.349 64.868,16.259 65.131,16.259C65.346,16.259 65.59,16.32 65.866,16.44C66.14,16.558 66.391,16.713 66.618,16.905C66.845,17.096 67.024,17.317 67.156,17.568C67.288,17.819 67.34,18.076 67.317,18.338C67.269,18.601 67.09,18.907 66.779,19.252C66.469,19.598 66.123,19.94 65.74,20.274C65.31,20.657 64.808,21.05 64.235,21.456C64.76,21.599 65.602,21.432 66.762,20.955C67.92,20.476 69.145,19.748 70.435,18.768ZM66.207,18.087C66.11,18.015 65.889,18.07 65.543,18.248C65.196,18.427 64.856,18.661 64.522,18.948C64.187,19.235 63.906,19.551 63.679,19.898C63.452,20.245 63.398,20.537 63.518,20.776C63.661,20.704 63.895,20.537 64.217,20.274C64.54,20.01 64.862,19.724 65.185,19.413C65.507,19.103 65.776,18.823 65.991,18.572C66.207,18.321 66.277,18.16 66.207,18.087Z" style="fill:rgb(0,189,242);fill-rule:nonzero;"/>
                        <path d="M79.072,18.768C79.526,18.434 79.776,18.327 79.825,18.447C79.872,18.566 79.789,18.792 79.574,19.126C79.359,19.486 79.054,19.904 78.66,20.381C78.266,20.86 77.83,21.314 77.352,21.744C76.874,22.173 76.372,22.555 75.847,22.889C75.321,23.224 74.831,23.427 74.377,23.499C74.067,23.547 73.66,23.469 73.159,23.266C72.657,23.064 72.172,22.771 71.707,22.388C71.241,22.006 70.853,21.564 70.543,21.063C70.232,20.56 70.125,20.046 70.22,19.522C70.292,19.09 70.471,18.678 70.757,18.285C71.043,17.89 71.367,17.544 71.725,17.246C72.084,16.947 72.447,16.708 72.818,16.529C73.188,16.349 73.504,16.259 73.768,16.259C73.983,16.259 74.228,16.32 74.502,16.44C74.777,16.558 75.028,16.713 75.254,16.905C75.482,17.096 75.661,17.317 75.793,17.568C75.924,17.819 75.978,18.076 75.954,18.338C75.906,18.601 75.727,18.907 75.416,19.252C75.106,19.598 74.759,19.94 74.377,20.274C73.947,20.657 73.445,21.05 72.872,21.456C73.397,21.599 74.239,21.432 75.399,20.955C76.557,20.476 77.782,19.748 79.072,18.768ZM74.843,18.087C74.747,18.015 74.526,18.07 74.18,18.248C73.833,18.427 73.493,18.661 73.159,18.948C72.824,19.235 72.543,19.551 72.317,19.898C72.088,20.245 72.035,20.537 72.155,20.776C72.299,20.704 72.532,20.537 72.854,20.274C73.177,20.01 73.499,19.724 73.822,19.413C74.144,19.103 74.413,18.823 74.627,18.572C74.843,18.321 74.915,18.16 74.843,18.087Z" style="fill:rgb(0,189,242);fill-rule:nonzero;"/>
                        <path d="M79.932,17.155C80.075,17.012 80.248,16.959 80.452,16.994C80.654,17.03 80.846,17.114 81.025,17.244C81.204,17.376 81.366,17.543 81.509,17.745C81.652,17.948 81.736,18.133 81.76,18.3C81.808,18.467 81.801,18.675 81.742,18.926C81.682,19.176 81.599,19.427 81.491,19.677C81.384,19.927 81.282,20.154 81.186,20.357C81.091,20.56 81.031,20.709 81.006,20.804C81.126,20.732 81.401,20.488 81.832,20.07C82.261,19.653 82.715,19.205 83.193,18.729C83.67,18.252 84.119,17.823 84.537,17.441C84.955,17.06 85.224,16.845 85.344,16.797C85.439,16.751 85.606,16.744 85.845,16.779C86.084,16.815 86.323,16.887 86.562,16.994C86.801,17.101 87.016,17.233 87.207,17.387C87.398,17.543 87.517,17.716 87.566,17.906C87.613,18.097 87.524,18.407 87.297,18.836C87.069,19.266 86.825,19.713 86.562,20.178C86.299,20.643 86.066,21.06 85.863,21.43C85.66,21.8 85.618,22.02 85.738,22.092C85.857,22.163 86.12,22.068 86.526,21.805C86.932,21.543 87.379,21.221 87.87,20.84C88.36,20.459 88.82,20.07 89.25,19.677C89.68,19.283 89.99,19.003 90.182,18.836C90.373,18.67 90.534,18.58 90.666,18.568C90.797,18.556 90.898,18.598 90.97,18.693C91.042,18.788 91.072,18.908 91.06,19.051C91.047,19.194 90.994,19.349 90.898,19.516C90.779,19.683 90.528,19.976 90.146,20.392C89.763,20.81 89.34,21.251 88.874,21.716C88.408,22.181 87.96,22.605 87.53,22.986C87.1,23.368 86.765,23.594 86.526,23.665C86.168,23.809 85.768,23.851 85.326,23.79C84.883,23.732 84.459,23.623 84.053,23.469C83.647,23.314 83.306,23.111 83.032,22.861C82.756,22.61 82.608,22.354 82.584,22.092C82.56,21.997 82.602,21.805 82.709,21.519C82.817,21.233 82.943,20.947 83.085,20.661C83.229,20.375 83.366,20.112 83.498,19.873C83.628,19.636 83.695,19.504 83.695,19.48C83.002,20.22 82.435,20.804 81.993,21.233C81.55,21.662 81.109,22.056 80.667,22.413C80.224,22.771 79.908,22.95 79.717,22.95C79.406,22.95 79.084,22.849 78.749,22.646C78.415,22.444 78.211,22.14 78.14,21.734C78.117,21.567 78.146,21.275 78.23,20.858C78.314,20.44 78.433,19.998 78.587,19.534C78.744,19.069 78.934,18.616 79.161,18.175C79.388,17.734 79.645,17.394 79.932,17.155Z" style="fill:rgb(0,189,242);fill-rule:nonzero;"/>
                    </g>
                </g>
                <g id="Nineteen-Logo2" serif:id="Nineteen Logo">
                </g>
            </g>
        </g>
    </g>
</svg>
