<?xml version="1.0" encoding="UTF-8" standalone="no"?>
<!DOCTYPE svg PUBLIC "-//W3C//DTD SVG 1.1//EN" "http://www.w3.org/Graphics/SVG/1.1/DTD/svg11.dtd">
<svg width="100%" height="100%" viewBox="0 0 600 310" version="1.1" xmlns="http://www.w3.org/2000/svg" xmlns:xlink="http://www.w3.org/1999/xlink" xml:space="preserve" xmlns:serif="http://www.serif.com/" style="fill-rule:evenodd;clip-rule:evenodd;stroke-linejoin:round;stroke-miterlimit:2;">
    <g id="Colour" transform="matrix(0.892294,0,0,0.892294,60.3118,-58.8958)">
        <g id="Shawcity-Logo" serif:id="Shawcity Logo" transform="matrix(1.00362,0,0,1.00362,268.62,239.715)">
            <g id="Colour1" serif:id="Colour">
                <g id="Shawcity-Logo1" serif:id="Shawcity Logo" transform="matrix(1,0,0,1,-279.167,-79.1667)">
                    <clipPath id="_clip1">
                        <rect x="0" y="0" width="558.333" height="158.333"/>
                    </clipPath>
                    <g clip-path="url(#_clip1)">
                        <g transform="matrix(4.16667,0,0,4.16667,0,0)">
                            <path d="M133.384,15.902C133.326,16.106 133.275,16.311 133.21,16.513C132.932,17.379 132.396,18.078 131.769,18.712C130.547,19.951 129.085,20.849 127.55,21.635C124.524,23.184 121.317,24.252 118.06,25.179C114.108,26.304 110.095,27.15 106.053,27.871C102.112,28.571 98.15,29.132 94.174,29.597C90.456,30.032 86.728,30.38 82.994,30.653C80.218,30.856 77.442,31.014 74.663,31.147C74.511,31.154 74.361,31.148 74.206,31.116C74.706,31.068 75.205,30.997 75.706,30.977C76.405,30.95 77.095,30.873 77.79,30.798C79.481,30.618 81.172,30.457 82.861,30.251C85.231,29.962 87.591,29.617 89.945,29.215C93.713,28.571 97.448,27.777 101.127,26.732C104.17,25.868 107.154,24.84 110.019,23.482C111.871,22.603 113.642,21.588 115.212,20.256C116.003,19.587 116.711,18.841 117.256,17.954C118.458,15.996 118.409,14.054 117.168,12.137C116.277,10.762 115.049,9.734 113.712,8.824C111.496,7.317 109.075,6.218 106.577,5.278C102.582,3.774 98.463,2.705 94.292,1.831C91.686,1.284 89.064,0.835 86.428,0.456C85.888,0.377 85.345,0.317 84.817,0.177L85.796,0.177C85.817,0.248 85.877,0.223 85.923,0.231C86.353,0.301 86.789,0.307 87.22,0.348C89.425,0.559 91.629,0.772 93.831,1.02C97.14,1.394 100.438,1.849 103.726,2.388C107.945,3.08 112.137,3.902 116.274,4.988C119.93,5.949 123.534,7.069 126.95,8.719C128.563,9.499 130.115,10.38 131.438,11.609C132.244,12.36 132.926,13.204 133.248,14.288C133.291,14.43 133.288,14.589 133.384,14.716L133.384,15.902Z" style="fill:rgb(239,61,65);fill-rule:nonzero;"/>
                            <path d="M110.794,12.404C109.915,11.242 108.779,10.369 107.547,9.616C105.285,8.233 102.839,7.256 100.335,6.417C96.756,5.217 93.091,4.35 89.388,3.642C83.969,2.607 78.502,1.934 73.005,1.477C70.251,1.247 67.491,1.082 64.73,0.967C62.31,0.866 59.888,0.813 57.467,0.802C55.594,0.792 53.721,0.786 51.849,0.831C50.587,0.862 49.326,0.895 48.065,0.934C45.457,1.015 42.852,1.168 40.249,1.357C38.244,1.504 36.242,1.681 34.246,1.895C31.352,2.206 28.467,2.586 25.594,3.06C21.925,3.664 18.285,4.404 14.701,5.399C11.621,6.255 8.592,7.26 5.736,8.726C4.179,9.525 2.695,10.435 1.473,11.714C0.756,12.464 0.187,13.3 0,14.349C0,14.799 0,15.25 0.001,15.7C0.077,16.299 0.324,16.832 0.649,17.33C1.445,18.55 2.555,19.441 3.76,20.22C5.615,21.421 7.625,22.308 9.691,23.07C14.591,24.874 19.665,26 24.797,26.883C27.504,27.349 30.226,27.721 32.956,28.034C35.413,28.315 37.875,28.542 40.34,28.73C42.746,28.912 45.154,29.039 47.564,29.136C49.906,29.23 52.251,29.27 54.594,29.29C56.715,29.308 58.836,29.271 60.958,29.223C62.521,29.187 64.082,29.143 65.643,29.064C67.083,28.991 68.523,28.929 69.961,28.823C72.189,28.656 74.402,28.353 76.605,28.002C79.744,27.501 82.853,26.866 85.91,25.988C88.498,25.244 91.03,24.354 93.408,23.072C94.853,22.292 96.196,21.377 97.258,20.099C98.597,18.489 98.653,16.561 97.397,14.892C96.882,14.207 96.262,13.627 95.582,13.112C93.886,11.831 91.986,10.935 90.015,10.181C85.193,8.336 80.168,7.321 75.082,6.568C74.689,6.51 74.291,6.484 73.895,6.353C73.989,6.261 74.075,6.292 74.159,6.297C76.549,6.453 78.93,6.713 81.309,6.998C84.693,7.402 88.062,7.912 91.406,8.58C94.648,9.229 97.858,10.003 100.983,11.1C102.817,11.743 104.608,12.485 106.263,13.522C107.104,14.049 107.885,14.65 108.51,15.432C109.574,16.764 109.606,18.175 108.611,19.548C108.564,19.61 108.466,19.648 108.494,19.762C108.521,19.76 108.546,19.764 108.565,19.755C108.612,19.735 108.657,19.712 108.698,19.683C109.488,19.123 110.188,18.468 110.775,17.7C112.082,15.993 112.09,14.118 110.794,12.404Z" style="fill:rgb(31,79,131);fill-rule:nonzero;"/>
                            <path d="M40.426,10.14C40.534,10.069 40.621,10.074 40.707,10.074C41.479,10.074 42.252,10.079 43.025,10.073C43.223,10.071 43.291,10.156 43.307,10.343C43.427,11.781 43.552,13.216 43.678,14.654C43.721,15.14 43.768,15.625 43.816,16.136C43.936,16.065 43.962,15.964 44.006,15.878C44.94,14.042 45.878,12.209 46.801,10.367C46.914,10.143 47.039,10.057 47.291,10.069C47.763,10.09 48.236,10.082 48.708,10.072C48.891,10.068 48.96,10.131 48.989,10.315C49.291,12.23 49.602,14.144 49.911,16.059C49.915,16.084 49.924,16.108 49.935,16.145C50.067,16.102 50.069,15.974 50.109,15.882C50.921,14.045 51.732,12.209 52.53,10.366C52.631,10.133 52.748,10.045 53.005,10.055C53.734,10.085 54.464,10.085 55.193,10.096C55.278,10.098 55.362,10.108 55.46,10.115C55.401,10.361 55.281,10.56 55.184,10.767C53.676,13.955 52.154,17.136 50.599,20.303C50.502,20.501 50.391,20.582 50.169,20.577C49.612,20.565 49.053,20.569 48.495,20.584C48.306,20.589 48.24,20.519 48.213,20.344C47.974,18.819 47.73,17.293 47.487,15.769C47.412,15.298 47.336,14.828 47.253,14.313C47.108,14.455 47.055,14.599 46.987,14.731C46.025,16.601 45.063,18.47 44.108,20.343C44.021,20.515 43.916,20.579 43.729,20.576C43.188,20.569 42.646,20.56 42.106,20.587C41.835,20.6 41.755,20.499 41.724,20.251C41.591,19.178 41.44,18.108 41.301,17.035C41.066,15.231 40.835,13.426 40.604,11.622C40.541,11.128 40.485,10.635 40.426,10.14Z" style="fill:white;fill-rule:nonzero;"/>
                            <path d="M26.237,20.5C26.352,19.813 26.467,19.129 26.581,18.445C26.837,16.913 27.161,15.391 27.349,13.848C27.452,13 26.953,12.437 26.098,12.433C25.105,12.429 24.396,12.984 24.185,13.959C23.825,15.628 23.572,17.319 23.257,18.997C23.173,19.444 23.077,19.888 23.004,20.337C22.973,20.523 22.883,20.576 22.711,20.574C22.015,20.57 21.319,20.575 20.623,20.572C20.297,20.57 20.279,20.547 20.333,20.232C20.543,18.988 20.75,17.744 20.968,16.5C21.539,13.255 22.116,10.011 22.689,6.766C22.771,6.301 22.767,6.303 23.251,6.28C23.912,6.248 24.572,6.248 25.233,6.281C25.309,6.285 25.388,6.274 25.478,6.348C25.229,7.812 24.978,9.289 24.725,10.777C24.909,10.777 25.008,10.672 25.118,10.599C26.094,9.953 27.158,9.815 28.277,10.076C29.436,10.345 30.168,11.374 30.208,12.654C30.237,13.621 30.004,14.545 29.846,15.482C29.573,17.088 29.267,18.691 28.986,20.296C28.947,20.513 28.871,20.591 28.64,20.585C27.953,20.567 27.265,20.576 26.578,20.572C26.476,20.572 26.371,20.583 26.237,20.5Z" style="fill:white;fill-rule:nonzero;"/>
                            <path d="M35.83,19.905C35.709,19.891 35.64,19.982 35.557,20.035C34.318,20.829 32.995,20.87 31.655,20.39C30.741,20.063 30.284,19.322 30.225,18.368C30.119,16.664 30.913,15.335 32.418,14.657C33.038,14.376 33.701,14.292 34.377,14.29C35.046,14.288 35.716,14.286 36.386,14.283C36.825,14.281 36.828,14.28 36.877,13.854C36.899,13.666 36.918,13.477 36.911,13.289C36.894,12.792 36.67,12.489 36.186,12.39C35.183,12.183 34.214,12.212 33.403,12.957C33.221,13.123 33.107,13.115 32.949,12.922C32.552,12.438 32.14,11.966 31.769,11.469C31.786,11.341 31.878,11.283 31.953,11.217C32.894,10.412 33.977,9.971 35.225,9.973C36.047,9.974 36.872,9.935 37.679,10.168C39.295,10.634 39.917,11.775 39.684,13.316C39.33,15.666 38.899,18.004 38.466,20.34C38.435,20.508 38.38,20.587 38.187,20.584C37.474,20.57 36.761,20.57 36.048,20.576C35.826,20.578 35.752,20.501 35.807,20.284C35.838,20.163 35.869,20.036 35.83,19.905ZM36.462,16.227L35.319,16.227C34.942,16.228 34.565,16.226 34.189,16.23C33.525,16.235 32.993,16.708 32.906,17.367C32.839,17.872 33.079,18.254 33.58,18.358C34.177,18.481 34.774,18.442 35.348,18.22C35.617,18.116 35.843,17.946 36.002,17.701C36.289,17.258 36.377,16.754 36.462,16.227Z" style="fill:white;fill-rule:nonzero;"/>
                            <path d="M83.679,10.096C83.699,10.241 83.634,10.316 83.591,10.396C81.474,14.376 79.306,18.329 77.126,22.274C76.723,23.001 76.241,23.642 75.466,24.013C74.637,24.411 73.752,24.389 72.866,24.374C72.697,24.371 72.669,24.271 72.693,24.131C72.788,23.574 72.876,23.014 72.977,22.458C73.073,21.932 73.08,21.918 73.612,21.922C74.308,21.928 74.816,21.661 75.116,21.012C75.293,20.631 75.502,20.264 75.705,19.896C75.776,19.769 75.756,19.648 75.732,19.523C75.178,16.606 74.622,13.688 74.069,10.771C74.029,10.561 73.995,10.351 73.959,10.133C74.14,10.038 74.325,10.068 74.5,10.067C75.169,10.06 75.839,10.075 76.509,10.073C76.715,10.073 76.802,10.139 76.836,10.361C77.119,12.183 77.418,14.004 77.712,15.826C77.727,15.924 77.752,16.021 77.777,16.148C77.912,16.061 77.954,15.937 78.009,15.83C78.716,14.435 79.42,13.042 80.126,11.646C80.357,11.186 80.589,10.726 80.821,10.266C80.863,10.183 80.893,10.094 81.017,10.095C81.901,10.097 82.785,10.096 83.679,10.096Z" style="fill:white;fill-rule:nonzero;"/>
                            <path d="M14.862,20.68C14.013,20.702 13.204,20.622 12.421,20.362C11.812,20.16 11.302,19.807 10.871,19.334C10.742,19.193 10.727,19.087 10.891,18.954C11.472,18.484 12.046,18.005 12.616,17.522C12.753,17.406 12.852,17.432 12.971,17.537C13.962,18.415 15.121,18.465 16.337,18.2C16.598,18.142 16.837,18.019 17.042,17.839C17.327,17.592 17.404,17.265 17.301,16.927C17.214,16.638 16.942,16.537 16.654,16.495C15.864,16.377 15.063,16.348 14.278,16.197C14.102,16.162 13.925,16.123 13.754,16.066C12.508,15.651 12.016,14.699 12.297,13.283C12.621,11.655 13.684,10.714 15.187,10.231C16.586,9.78 18.001,9.876 19.395,10.292C19.845,10.426 20.235,10.677 20.58,11C20.73,11.142 20.748,11.255 20.586,11.401C20.057,11.878 19.516,12.342 18.966,12.796C18.857,12.886 18.78,12.88 18.676,12.799C17.846,12.151 16.877,12.197 15.916,12.291C15.559,12.326 15.244,12.547 15.056,12.887C14.787,13.377 15.009,13.838 15.562,13.917C16.021,13.981 16.483,14.023 16.943,14.08C17.623,14.165 18.316,14.199 18.936,14.541C19.78,15.006 20.131,15.759 20.08,16.686C19.961,18.865 18.579,20.061 16.573,20.526C16.001,20.659 15.42,20.7 14.862,20.68Z" style="fill:white;fill-rule:nonzero;"/>
                            <path d="M54.185,16.6C54.256,15.095 54.585,13.543 55.54,12.194C56.579,10.726 58.035,10.015 59.822,9.958C60.482,9.937 61.124,10.016 61.743,10.254C62.276,10.46 62.716,10.79 63.085,11.224C63.189,11.347 63.195,11.43 63.069,11.544C62.479,12.081 61.873,12.6 61.248,13.099C61.143,13.183 61.055,13.199 60.959,13.098C60.928,13.067 60.887,13.045 60.862,13.012C60.126,12.052 58.489,12.313 57.778,13.372C57.347,14.016 57.155,14.741 57.029,15.491C56.961,15.899 56.944,16.31 56.972,16.723C57.04,17.792 57.868,18.414 58.916,18.181C59.343,18.087 59.725,17.891 60.053,17.607C60.253,17.434 60.4,17.449 60.564,17.655C60.933,18.119 61.314,18.573 61.691,19.029C61.803,19.164 61.821,19.277 61.668,19.397C60.046,20.665 58.25,21.076 56.3,20.356C55.026,19.885 54.384,18.852 54.235,17.514C54.207,17.25 54.205,16.983 54.185,16.6Z" style="fill:white;fill-rule:nonzero;"/>
                            <path d="M69.09,10.371C69.196,9.772 69.296,9.2 69.399,8.627C69.465,8.263 69.543,7.902 69.604,7.539C69.631,7.376 69.707,7.299 69.871,7.294C70.61,7.264 71.348,7.265 72.087,7.294C72.305,7.301 72.353,7.394 72.314,7.605C72.156,8.458 72.015,9.312 71.869,10.168C71.859,10.224 71.825,10.282 71.878,10.372C72.366,10.372 72.871,10.377 73.377,10.369C73.587,10.365 73.649,10.436 73.608,10.644C73.507,11.158 73.413,11.673 73.334,12.19C73.298,12.417 73.189,12.488 72.97,12.483C72.473,12.472 71.976,12.479 71.46,12.479C71.357,13.042 71.253,13.581 71.162,14.122C70.974,15.221 70.794,16.323 70.609,17.422C70.579,17.603 70.562,17.783 70.645,17.954C70.723,18.113 70.855,18.198 71.034,18.207C71.36,18.221 71.685,18.246 72.011,18.25C72.193,18.251 72.26,18.309 72.225,18.495C72.106,19.109 71.994,19.725 71.881,20.342C71.859,20.458 71.837,20.567 71.687,20.566C70.975,20.565 70.257,20.634 69.555,20.48C68.49,20.248 67.873,19.47 67.801,18.381C67.75,17.595 67.963,16.848 68.086,16.089C68.267,14.971 68.471,13.856 68.671,12.742C68.705,12.552 68.66,12.47 68.455,12.482C68.258,12.494 68.06,12.481 67.862,12.474C67.714,12.468 67.646,12.397 67.676,12.238C67.779,11.682 67.878,11.125 67.977,10.566C68.002,10.424 68.082,10.366 68.226,10.369C68.508,10.375 68.791,10.371 69.09,10.371Z" style="fill:white;fill-rule:nonzero;"/>
                            <path d="M62.452,20.528C62.461,20.192 62.54,19.868 62.598,19.542C63.14,16.466 63.687,13.392 64.229,10.316C64.252,10.19 64.264,10.08 64.431,10.076C65.238,10.06 66.045,10.044 66.852,10.083C66.876,10.084 66.899,10.103 66.939,10.121C66.943,10.432 66.865,10.74 66.812,11.048C66.281,14.134 65.749,17.219 65.173,20.298C65.147,20.438 65.129,20.568 64.935,20.567C64.144,20.563 63.356,20.566 62.566,20.563C62.534,20.563 62.501,20.543 62.452,20.528Z" style="fill:white;fill-rule:nonzero;"/>
                            <path d="M64.542,8.412C64.632,7.681 64.761,7.001 64.889,6.321C64.91,6.211 64.992,6.197 65.084,6.197C65.88,6.197 66.677,6.198 67.474,6.195C67.624,6.195 67.673,6.259 67.65,6.402C67.543,7.017 67.439,7.633 67.334,8.25C67.319,8.337 67.289,8.413 67.174,8.413C66.31,8.411 65.446,8.412 64.542,8.412Z" style="fill:white;fill-rule:nonzero;"/>
                            <path d="M58.597,24.207C58.863,23.782 59.09,23.421 59.317,23.06C59.501,22.769 59.704,22.489 59.859,22.184C60.001,21.907 60.201,21.892 60.475,21.957C60.461,22.315 60.385,22.657 60.325,23C60.192,23.743 60.048,24.483 59.916,25.226C59.887,25.384 59.828,25.479 59.653,25.477C59.498,25.476 59.407,25.429 59.438,25.249C59.522,24.758 59.602,24.267 59.681,23.776C59.701,23.655 59.714,23.533 59.736,23.366C59.576,23.458 59.536,23.575 59.474,23.671C59.268,23.987 59.05,24.298 58.873,24.631C58.735,24.886 58.557,24.965 58.269,24.887C58.117,24.369 57.96,23.84 57.806,23.31C57.782,23.311 57.759,23.313 57.736,23.314C57.654,23.766 57.573,24.218 57.489,24.671C57.455,24.864 57.411,25.056 57.377,25.251C57.337,25.472 57.181,25.491 57.008,25.462C56.827,25.431 56.877,25.292 56.898,25.176C57.077,24.179 57.257,23.184 57.435,22.187C57.46,22.043 57.485,21.923 57.676,21.92C57.858,21.916 57.957,21.973 58.007,22.158C58.189,22.819 58.385,23.476 58.597,24.207Z" style="fill:white;fill-rule:nonzero;"/>
                            <path d="M69.722,21.946C69.936,21.946 70.152,21.93 70.365,21.949C70.864,21.993 71.178,22.302 71.192,22.802C71.21,23.462 71.091,24.107 70.821,24.709C70.628,25.137 70.256,25.369 69.792,25.43C69.424,25.481 69.054,25.489 68.685,25.474C68.339,25.462 68.321,25.445 68.378,25.089C68.497,24.362 68.626,23.634 68.752,22.908C68.792,22.678 68.853,22.454 68.877,22.223C68.903,21.977 69.009,21.88 69.259,21.917C69.41,21.938 69.567,21.921 69.722,21.921L69.722,21.946ZM68.909,24.942C69.18,24.99 69.419,24.975 69.656,24.962C70.035,24.943 70.31,24.757 70.431,24.39C70.588,23.917 70.674,23.426 70.688,22.926C70.695,22.675 70.554,22.496 70.314,22.441C70.003,22.37 69.687,22.382 69.354,22.391C69.205,23.248 69.058,24.087 68.909,24.942Z" style="fill:white;fill-rule:nonzero;"/>
                            <path d="M66.311,22.383C66.249,22.725 66.191,23.052 66.123,23.422C66.419,23.422 66.688,23.421 66.959,23.422C67.043,23.422 67.13,23.421 67.215,23.427C67.593,23.447 67.606,23.465 67.513,23.887C67.108,23.887 66.691,23.898 66.274,23.88C66.081,23.874 66.02,23.95 65.997,24.122C65.96,24.393 65.908,24.662 65.856,24.969C66.234,24.969 66.59,24.969 66.947,24.97C67.059,24.97 67.171,24.966 67.281,24.981C67.398,24.996 67.562,24.957 67.553,25.164C67.546,25.334 67.5,25.456 67.287,25.46C66.695,25.475 66.103,25.489 65.511,25.463C65.365,25.458 65.289,25.405 65.311,25.243C65.459,24.18 65.661,23.126 65.86,22.073C65.877,21.985 65.913,21.917 66.028,21.918C66.704,21.922 67.381,21.921 68.049,21.921C68.122,22.292 68.063,22.376 67.745,22.381C67.274,22.389 66.803,22.383 66.311,22.383Z" style="fill:white;fill-rule:nonzero;"/>
                            <path d="M63.62,22.405C63.304,22.389 63.017,22.376 62.734,22.363C62.658,21.988 62.693,21.932 63.044,21.928C63.636,21.923 64.229,21.924 64.821,21.928C65.202,21.931 65.24,21.996 65.079,22.377L64.142,22.377C64.054,22.874 63.97,23.352 63.882,23.831C63.797,24.293 63.709,24.757 63.62,25.22C63.599,25.33 63.583,25.436 63.437,25.464C63.213,25.506 63.118,25.444 63.152,25.221C63.242,24.62 63.347,24.019 63.447,23.418C63.502,23.091 63.559,22.765 63.62,22.405Z" style="fill:white;fill-rule:nonzero;"/>
                            <path d="M52.439,25.431C52.432,25.034 52.526,24.677 52.588,24.317C52.712,23.599 52.841,22.881 52.974,22.166C52.992,22.067 52.981,21.941 53.145,21.921C53.439,21.885 53.503,21.941 53.453,22.24C53.314,23.06 53.171,23.879 53.031,24.698C53.018,24.773 53.009,24.849 52.992,24.97C53.395,24.97 53.777,24.969 54.159,24.97C54.262,24.97 54.365,24.973 54.468,24.979C54.576,24.986 54.684,25.004 54.673,25.149C54.662,25.283 54.671,25.447 54.478,25.457C53.803,25.494 53.129,25.493 52.439,25.431Z" style="fill:white;fill-rule:nonzero;"/>
                            <path d="M61.986,22.209C61.843,23.212 61.663,24.209 61.452,25.198C61.426,25.323 61.406,25.45 61.232,25.471C61.004,25.5 60.927,25.434 60.967,25.209C61.147,24.195 61.329,23.181 61.512,22.168C61.531,22.059 61.537,21.946 61.691,21.925C61.946,21.888 62.013,21.947 61.986,22.209Z" style="fill:white;fill-rule:nonzero;"/>
                            <path d="M56.394,22.115C56.289,22.741 56.188,23.367 56.076,23.993C56.002,24.415 55.913,24.834 55.835,25.255C55.806,25.41 55.715,25.47 55.567,25.476C55.398,25.48 55.312,25.437 55.348,25.236C55.54,24.207 55.722,23.176 55.9,22.146C55.932,21.957 56.029,21.908 56.202,21.926C56.321,21.94 56.404,21.973 56.394,22.115Z" style="fill:white;fill-rule:nonzero;"/>
                            <path d="M57.74,34.321C57.74,35.41 57.732,36.5 57.746,37.587C57.749,37.828 57.667,37.919 57.442,37.917C57.425,37.917 57.408,37.919 57.391,37.919C56.85,37.947 56.828,37.926 56.828,37.384L56.828,33.495C56.828,33.081 56.915,33.032 57.326,32.987C57.939,32.92 58.308,33.146 58.571,33.716C58.983,34.609 59.499,35.451 59.917,36.34C59.991,36.33 59.972,36.278 59.972,36.242C59.97,35.262 59.973,34.284 59.959,33.304C59.954,33.078 60.043,32.993 60.248,32.983C60.3,32.981 60.351,32.974 60.402,32.973C60.849,32.966 60.879,32.996 60.879,33.445C60.879,34.767 60.879,36.089 60.878,37.413C60.878,37.811 60.782,37.906 60.374,37.907C60.297,37.907 60.219,37.901 60.142,37.908C59.807,37.942 59.588,37.786 59.44,37.498C58.907,36.46 58.318,35.454 57.824,34.398C57.81,34.369 57.794,34.34 57.78,34.312C57.766,34.316 57.753,34.318 57.74,34.321Z" style="fill:rgb(31,79,131);fill-rule:nonzero;"/>
                            <path d="M105.675,36.451L105.675,33.362C105.675,33.033 105.709,32.996 106.031,32.975C106.091,32.971 106.152,32.972 106.212,32.974C106.547,32.987 106.579,33.02 106.579,33.346L106.579,37.443C106.579,37.81 106.486,37.904 106.127,37.907C106.024,37.908 105.921,37.9 105.818,37.908C105.516,37.931 105.309,37.796 105.172,37.536C104.637,36.52 104.07,35.52 103.571,34.486C103.534,34.41 103.497,34.334 103.455,34.25L103.455,36.345C103.455,36.749 103.456,37.153 103.455,37.556C103.455,37.87 103.423,37.903 103.104,37.919C102.562,37.949 102.544,37.932 102.544,37.39L102.544,33.448C102.544,33.082 102.632,33.032 103.002,32.988C103.633,32.914 104.015,33.139 104.287,33.735C104.7,34.635 105.223,35.483 105.675,36.451Z" style="fill:rgb(31,79,131);fill-rule:nonzero;"/>
                            <path d="M101.144,35.355C101.154,35.647 101.124,35.903 101.073,36.156C100.798,37.559 99.788,38.045 98.565,37.987C98.395,37.978 98.224,37.948 98.057,37.915C97.325,37.767 96.847,37.33 96.644,36.614C96.437,35.88 96.428,35.14 96.648,34.408C96.918,33.518 97.643,32.968 98.596,32.914C98.93,32.895 99.265,32.904 99.593,32.98C100.443,33.174 100.972,33.777 101.093,34.697C101.124,34.925 101.165,35.155 101.144,35.355ZM100.075,35.372C100.085,35.207 100.06,34.995 100.024,34.782C99.915,34.129 99.532,33.771 98.912,33.745C98.266,33.716 97.798,34.059 97.646,34.683C97.515,35.216 97.526,35.755 97.654,36.289C97.774,36.787 98.113,37.088 98.571,37.134C99.215,37.201 99.639,36.997 99.882,36.5C100.05,36.159 100.079,35.792 100.075,35.372Z" style="fill:rgb(31,79,131);fill-rule:nonzero;"/>
                            <path d="M78.979,35.375C79.005,35.893 78.92,36.379 78.702,36.835C78.31,37.65 77.407,38.093 76.391,37.984C76.229,37.966 76.067,37.946 75.908,37.914C75.153,37.761 74.678,37.303 74.479,36.566C74.293,35.881 74.284,35.19 74.466,34.505C74.721,33.546 75.467,32.961 76.469,32.914C76.735,32.901 76.999,32.906 77.263,32.95C78.203,33.105 78.771,33.67 78.928,34.619C78.97,34.873 78.993,35.128 78.979,35.375ZM75.41,35.437C75.417,35.698 75.425,35.938 75.474,36.174C75.588,36.751 75.941,37.099 76.458,37.137C77.167,37.189 77.609,36.93 77.801,36.322C77.985,35.743 77.975,35.153 77.82,34.572C77.679,34.042 77.323,33.777 76.774,33.745C76.211,33.711 75.786,33.962 75.575,34.451C75.436,34.773 75.414,35.114 75.41,35.437Z" style="fill:rgb(31,79,131);fill-rule:nonzero;"/>
                            <path d="M65.422,35.879C65.141,35.879 64.891,35.87 64.643,35.882C64.457,35.892 64.38,35.814 64.355,35.638C64.295,35.212 64.38,35.108 64.811,35.108C65.24,35.108 65.67,35.116 66.099,35.106C66.334,35.1 66.433,35.22 66.435,35.431C66.44,36.084 66.439,36.736 66.434,37.389C66.433,37.535 66.38,37.659 66.227,37.713C65.309,38.038 64.387,38.132 63.473,37.718C62.784,37.404 62.426,36.824 62.296,36.101C62.181,35.464 62.223,34.832 62.504,34.238C62.907,33.386 63.628,32.996 64.535,32.92C65.071,32.876 65.599,32.933 66.095,33.163C66.422,33.313 66.565,33.757 66.408,34.081C66.337,34.225 66.247,34.168 66.156,34.119C65.808,33.923 65.441,33.792 65.041,33.75C64.105,33.651 63.376,34.254 63.303,35.196C63.282,35.471 63.287,35.745 63.353,36.014C63.559,36.861 64.353,37.32 65.195,37.084C65.357,37.039 65.438,36.967 65.427,36.782C65.41,36.492 65.422,36.201 65.422,35.879Z" style="fill:rgb(31,79,131);fill-rule:nonzero;"/>
                            <path d="M88.056,34.879C88.033,35.345 88.111,35.915 88.02,36.477C87.886,37.298 87.441,37.753 86.63,37.93C86.169,38.029 85.707,38.016 85.253,37.894C84.5,37.689 84.056,37.089 84.043,36.237C84.031,35.241 84.043,34.244 84.038,33.247C84.037,33.084 84.097,33.005 84.252,32.992C84.294,32.987 84.336,32.978 84.379,32.974C85,32.918 85.059,32.972 85.059,33.577C85.06,34.427 85.05,35.278 85.064,36.128C85.075,36.86 85.588,37.265 86.303,37.129C86.757,37.043 87.037,36.682 87.04,36.152C87.044,35.233 87.041,34.314 87.041,33.394C87.042,33.015 87.06,32.996 87.448,32.971C87.465,32.97 87.482,32.966 87.499,32.965C88.017,32.947 88.056,32.983 88.056,33.49L88.056,34.879Z" style="fill:rgb(31,79,131);fill-rule:nonzero;"/>
                            <path d="M45.975,32.966C46.605,32.966 46.604,32.966 46.807,33.549C47.255,34.835 47.703,36.122 48.151,37.408C48.179,37.489 48.207,37.571 48.231,37.653C48.276,37.808 48.233,37.906 48.055,37.911C48.038,37.911 48.021,37.916 48.004,37.917C47.253,37.986 47.247,37.982 47.011,37.27C46.85,36.786 46.85,36.786 46.334,36.786C45.965,36.786 45.595,36.792 45.226,36.783C45.082,36.779 45.009,36.823 44.97,36.963C44.905,37.195 44.811,37.417 44.753,37.65C44.705,37.843 44.592,37.919 44.405,37.917C44.276,37.917 44.147,37.923 44.019,37.918C43.722,37.907 43.677,37.854 43.77,37.575C43.949,37.039 44.138,36.506 44.323,35.971C44.618,35.122 44.912,34.272 45.208,33.421C45.36,32.987 45.361,32.987 45.82,32.966C45.872,32.964 45.923,32.966 45.975,32.966ZM45.261,35.989L46.608,35.989C46.386,35.328 46.172,34.689 45.958,34.049C45.94,34.052 45.922,34.055 45.904,34.06C45.691,34.698 45.478,35.336 45.261,35.989Z" style="fill:rgb(31,79,131);fill-rule:nonzero;"/>
                            <path d="M50.854,36.878C51.232,35.668 51.603,34.519 51.943,33.361C52.029,33.065 52.168,32.941 52.462,32.967C52.513,32.971 52.565,32.963 52.616,32.965C53.027,32.977 53.067,33.032 52.935,33.428C52.465,34.824 51.989,36.219 51.528,37.619C51.456,37.837 51.336,37.911 51.12,37.921C50.19,37.97 50.192,37.973 49.901,37.103C49.491,35.876 49.077,34.65 48.666,33.423C48.536,33.034 48.567,32.991 48.966,32.971C49.597,32.94 49.598,32.94 49.787,33.538C50.116,34.575 50.442,35.613 50.77,36.65C50.788,36.707 50.811,36.76 50.854,36.878Z" style="fill:rgb(31,79,131);fill-rule:nonzero;"/>
                            <path d="M109.59,32.908C109.985,32.905 110.312,32.972 110.617,33.12C110.829,33.222 110.944,33.825 110.788,33.989C110.696,34.086 110.611,34.005 110.535,33.963C110.238,33.796 109.928,33.691 109.58,33.712C109.325,33.729 109.121,33.821 109.05,34.079C108.979,34.334 109.093,34.526 109.309,34.668C109.517,34.808 109.753,34.891 109.975,35C110.12,35.073 110.268,35.143 110.409,35.222C110.894,35.494 111.147,35.913 111.132,36.465C111.114,37.073 110.838,37.542 110.271,37.791C109.601,38.086 108.919,38.058 108.252,37.763C107.934,37.621 107.797,37.184 107.949,36.867C108.025,36.71 108.13,36.771 108.226,36.83C108.521,37.015 108.839,37.138 109.188,37.165C109.395,37.182 109.6,37.16 109.785,37.057C110.119,36.87 110.174,36.457 109.9,36.189C109.758,36.047 109.577,35.965 109.397,35.885C109.125,35.761 108.848,35.646 108.598,35.476C108.09,35.132 107.934,34.636 108.021,34.061C108.104,33.518 108.442,33.175 108.962,33.01C109.185,32.939 109.411,32.9 109.59,32.908Z" style="fill:rgb(31,79,131);fill-rule:nonzero;"/>
                            <path d="M33.897,33.795L33.897,34.967C34.342,34.967 34.777,34.966 35.213,34.969C35.468,34.969 35.511,35.026 35.513,35.352C35.515,35.682 35.473,35.74 35.221,35.741C34.785,35.743 34.349,35.741 33.897,35.741L33.897,37.098L35.309,37.098C35.758,37.098 35.91,37.32 35.77,37.765C35.733,37.877 35.662,37.902 35.556,37.902C34.774,37.899 33.993,37.903 33.211,37.899C32.96,37.898 32.878,37.805 32.877,37.521C32.874,36.783 32.876,36.043 32.876,35.305C32.876,34.679 32.875,34.052 32.877,33.424C32.877,33.06 32.938,32.997 33.291,32.996C34.021,32.993 34.751,33.001 35.48,32.991C35.702,32.987 35.772,33.084 35.771,33.279C35.77,33.357 35.77,33.434 35.771,33.511C35.773,33.711 35.69,33.804 35.476,33.799C34.955,33.789 34.433,33.795 33.897,33.795Z" style="fill:rgb(31,79,131);fill-rule:nonzero;"/>
                            <path d="M41.471,32.913C41.793,32.91 42.102,32.968 42.395,33.103C42.633,33.211 42.77,33.771 42.611,33.979C42.528,34.087 42.438,34.014 42.361,33.971C42.064,33.803 41.756,33.693 41.408,33.712C41.158,33.728 40.953,33.804 40.87,34.066C40.793,34.305 40.877,34.504 41.131,34.675C41.381,34.844 41.669,34.938 41.939,35.068C42.366,35.275 42.747,35.53 42.888,36.019C43.109,36.788 42.738,37.548 41.981,37.836C41.335,38.081 40.684,38.044 40.055,37.758C39.762,37.625 39.611,37.131 39.768,36.855C39.85,36.709 39.957,36.777 40.052,36.836C40.34,37.017 40.65,37.13 40.989,37.166C41.147,37.181 41.3,37.166 41.447,37.122C41.664,37.056 41.823,36.925 41.871,36.686C41.922,36.433 41.824,36.25 41.627,36.11C41.365,35.924 41.06,35.827 40.777,35.688C40.34,35.471 39.967,35.195 39.852,34.686C39.634,33.73 40.238,32.974 41.265,32.913C41.335,32.909 41.403,32.913 41.471,32.913Z" style="fill:rgb(31,79,131);fill-rule:nonzero;"/>
                            <path d="M71.787,32.913C72.109,32.909 72.418,32.968 72.711,33.103C72.951,33.212 73.089,33.77 72.929,33.979C72.846,34.086 72.754,34.015 72.677,33.971C72.374,33.796 72.055,33.687 71.699,33.714C71.459,33.733 71.264,33.815 71.186,34.066C71.104,34.328 71.218,34.515 71.426,34.661C71.688,34.843 71.994,34.938 72.278,35.078C72.704,35.289 73.079,35.548 73.21,36.043C73.413,36.811 73.047,37.551 72.296,37.836C71.65,38.081 71,38.044 70.371,37.758C70.077,37.625 69.927,37.133 70.084,36.855C70.165,36.709 70.273,36.777 70.368,36.836C70.656,37.016 70.965,37.13 71.305,37.166C71.462,37.181 71.616,37.166 71.763,37.122C71.979,37.056 72.139,36.925 72.187,36.686C72.237,36.433 72.14,36.25 71.942,36.11C71.681,35.924 71.376,35.827 71.093,35.688C70.656,35.471 70.283,35.195 70.167,34.686C69.95,33.73 70.554,32.974 71.581,32.913C71.65,32.909 71.718,32.913 71.787,32.913Z" style="fill:rgb(31,79,131);fill-rule:nonzero;"/>
                            <path d="M29.779,35.123C30.225,35.123 30.663,35.135 31.099,35.118C31.333,35.108 31.406,35.209 31.407,35.415C31.407,35.474 31.41,35.535 31.407,35.594C31.392,35.911 31.36,35.941 31.043,35.941C30.624,35.942 30.205,35.941 29.758,35.941C29.758,36.494 29.759,37.025 29.758,37.554C29.758,37.875 29.737,37.897 29.413,37.917C28.773,37.96 28.751,37.941 28.751,37.301L28.751,33.437C28.751,33.043 28.8,32.996 29.202,32.995C29.872,32.995 30.542,33.001 31.211,32.992C31.429,32.988 31.498,33.077 31.5,33.28C31.505,33.944 31.46,33.825 30.983,33.827C30.589,33.829 30.194,33.828 29.779,33.828L29.779,35.123Z" style="fill:rgb(31,79,131);fill-rule:nonzero;"/>
                            <path d="M91.576,33.828L91.576,34.133C91.576,35.285 91.57,36.435 91.581,37.585C91.583,37.823 91.499,37.9 91.274,37.917C90.593,37.968 90.569,37.953 90.569,37.271L90.569,33.828C90.184,33.828 89.826,33.819 89.467,33.832C89.275,33.838 89.203,33.751 89.195,33.578C89.194,33.551 89.192,33.525 89.191,33.5C89.17,33.02 89.197,32.996 89.673,32.996C90.653,32.996 91.631,32.995 92.611,32.996C92.921,32.996 92.949,33.032 92.948,33.419C92.947,33.788 92.916,33.827 92.621,33.828L91.576,33.828Z" style="fill:rgb(31,79,131);fill-rule:nonzero;"/>
                            <path d="M81.405,37.068C81.879,37.068 82.334,37.08 82.786,37.063C83.02,37.055 83.094,37.158 83.09,37.365C83.088,37.416 83.091,37.467 83.09,37.519C83.085,37.873 83.058,37.9 82.711,37.9C82.059,37.901 81.406,37.902 80.752,37.9C80.476,37.899 80.382,37.809 80.38,37.529C80.378,36.103 80.382,34.677 80.377,33.25C80.377,33.092 80.429,33.005 80.591,32.995C80.642,32.992 80.692,32.978 80.743,32.974C81.346,32.92 81.405,32.974 81.405,33.569L81.405,37.068Z" style="fill:rgb(31,79,131);fill-rule:nonzero;"/>
                            <path d="M23.262,37.068C23.747,37.068 24.2,37.079 24.653,37.063C24.887,37.055 24.964,37.153 24.95,37.365C24.947,37.408 24.95,37.451 24.95,37.494C24.949,37.895 24.943,37.9 24.552,37.9C23.925,37.9 23.299,37.901 22.672,37.9C22.329,37.9 22.256,37.833 22.256,37.5C22.254,36.092 22.259,34.685 22.25,33.277C22.249,33.073 22.329,32.996 22.512,32.983C22.563,32.979 22.615,32.974 22.666,32.97C23.224,32.936 23.262,32.972 23.262,33.525L23.262,37.068Z" style="fill:rgb(31,79,131);fill-rule:nonzero;"/>
                            <path d="M54.189,35.458C54.189,34.736 54.198,34.013 54.184,33.292C54.18,33.079 54.263,32.996 54.456,32.979C54.49,32.977 54.524,32.974 54.558,32.972C55.171,32.927 55.208,32.96 55.208,33.555C55.208,34.896 55.201,36.236 55.214,37.576C55.216,37.832 55.118,37.902 54.888,37.918C54.218,37.966 54.189,37.946 54.189,37.288L54.189,35.458Z" style="fill:rgb(31,79,131);fill-rule:nonzero;"/>
                            <path d="M94.088,35.436C94.088,34.715 94.094,33.994 94.084,33.272C94.082,33.087 94.142,32.999 94.322,32.987C94.373,32.984 94.424,32.975 94.475,32.971C95.06,32.93 95.103,32.97 95.103,33.551C95.103,34.891 95.096,36.231 95.108,37.57C95.111,37.82 95.023,37.901 94.788,37.918C94.115,37.965 94.088,37.948 94.088,37.292L94.088,35.436Z" style="fill:rgb(31,79,131);fill-rule:nonzero;"/>
                            <path d="M27.115,35.441C27.115,36.171 27.11,36.901 27.119,37.631C27.121,37.816 27.058,37.888 26.877,37.911C26.16,37.997 26.1,37.949 26.1,37.233C26.1,35.927 26.107,34.622 26.094,33.316C26.092,33.077 26.184,32.99 26.399,32.976C26.441,32.973 26.484,32.971 26.527,32.969C27.08,32.939 27.115,32.971 27.115,33.509L27.115,35.441Z" style="fill:rgb(31,79,131);fill-rule:nonzero;"/>
                            <path d="M37.752,35.593C37.983,35.593 38.214,35.601 38.445,35.59C38.609,35.583 38.687,35.664 38.701,35.809C38.714,35.936 38.711,36.066 38.699,36.193C38.686,36.331 38.606,36.399 38.457,36.397C37.977,36.392 37.498,36.391 37.019,36.397C36.867,36.4 36.793,36.329 36.779,36.192C36.766,36.074 36.764,35.953 36.773,35.834C36.785,35.663 36.872,35.579 37.059,35.588C37.289,35.603 37.521,35.593 37.752,35.593Z" style="fill:rgb(31,79,131);fill-rule:nonzero;"/>
                        </g>
                    </g>
                </g>
                <g id="Shawcity-Logo2" serif:id="Shawcity Logo">
                </g>
            </g>
        </g>
    </g>
</svg>
