<?xml version="1.0" encoding="UTF-8" standalone="no"?>
<!DOCTYPE svg PUBLIC "-//W3C//DTD SVG 1.1//EN" "http://www.w3.org/Graphics/SVG/1.1/DTD/svg11.dtd">
<svg width="100%" height="100%" viewBox="0 0 600 310" version="1.1" xmlns="http://www.w3.org/2000/svg" xmlns:xlink="http://www.w3.org/1999/xlink" xml:space="preserve" xmlns:serif="http://www.serif.com/" style="fill-rule:evenodd;clip-rule:evenodd;stroke-linejoin:round;stroke-miterlimit:2;">
    <g id="Colour" transform="matrix(0.892294,0,0,0.892294,60.3118,-58.8958)">
        <g id="Univet-Logo" serif:id="Univet Logo" transform="matrix(0.544473,0,0,0.544473,268.62,239.715)">
            <g id="Colour1" serif:id="Colour">
                <g id="Univet-Logo1" serif:id="Univet Logo" transform="matrix(1,0,0,1,-514.583,-70.8333)">
                    <clipPath id="_clip1">
                        <rect x="0" y="0" width="1029.17" height="141.667"/>
                    </clipPath>
                    <g clip-path="url(#_clip1)">
                        <g transform="matrix(4.16667,0,0,4.16667,0,0)">
                            <path d="M102.84,31.961C102.84,32.2 102.96,32.56 103.2,32.801C103.32,32.921 103.56,33.16 103.8,33.28C104.16,33.4 104.4,33.52 104.76,33.52C105.12,33.52 105.48,33.4 105.72,33.28C105.96,33.16 106.2,32.921 106.32,32.801C106.56,32.56 106.68,32.2 106.68,31.961C106.8,31.721 106.8,31.36 106.8,31.12C106.8,30.761 106.8,30.4 106.68,30.16C106.68,29.921 106.56,29.56 106.32,29.32C106.2,29.08 105.96,28.961 105.72,28.841C105.48,28.721 105.12,28.6 104.76,28.6C104.4,28.6 104.16,28.721 103.8,28.841C103.56,28.961 103.32,29.08 103.2,29.32C102.96,29.56 102.84,29.921 102.84,30.16C102.72,30.4 102.72,30.761 102.72,31.12C102.72,31.36 102.72,31.721 102.84,31.961ZM102.36,29.921C102.48,29.56 102.6,29.32 102.84,29.08C102.96,28.721 103.32,28.48 103.68,28.36C103.92,28.24 104.28,28.12 104.76,28.12C105.24,28.12 105.6,28.24 105.96,28.36C106.2,28.48 106.56,28.721 106.68,29.08C106.92,29.32 107.16,29.56 107.16,29.921C107.28,30.28 107.4,30.641 107.4,31.12C107.4,31.48 107.28,31.841 107.16,32.2C107.16,32.56 106.92,32.801 106.68,33.04C106.56,33.4 106.2,33.52 105.96,33.761C105.6,33.881 105.24,34 104.76,34C104.28,34 103.92,33.881 103.68,33.761C103.32,33.52 102.96,33.4 102.84,33.04C102.6,32.801 102.48,32.56 102.36,32.2C102.24,31.841 102.12,31.48 102.12,31.12C102.12,30.641 102.24,30.28 102.36,29.921Z" style="fill:rgb(35,31,32);fill-rule:nonzero;"/>
                            <path d="M112.92,31.001C113.28,31.001 113.52,30.881 113.76,30.761C114,30.52 114.12,30.28 114.12,29.921C114.12,29.44 114,29.2 113.76,28.961C113.52,28.841 113.28,28.721 112.92,28.721L111.12,28.721L111.12,31.001L112.92,31.001ZM113.04,28.24C113.28,28.24 113.52,28.36 113.64,28.36C113.88,28.48 114,28.48 114.24,28.721C114.36,28.841 114.48,28.961 114.6,29.2L114.6,30.52C114.48,30.761 114.36,30.881 114.24,31.001C114,31.12 113.88,31.24 113.64,31.36C113.52,31.36 113.28,31.48 113.04,31.48L111.12,31.48L111.12,33.881L110.52,33.881L110.52,28.24L113.04,28.24Z" style="fill:rgb(35,31,32);fill-rule:nonzero;"/>
                            <path d="M121.56,28.24L121.56,28.721L119.64,28.721L119.64,33.881L119.16,33.881L119.16,28.721L117.24,28.721L117.24,28.24L121.56,28.24Z" style="fill:rgb(35,31,32);fill-rule:nonzero;"/>
                            <path d="M132.36,29.32C132.24,29.2 132.12,29.08 132,28.961C131.88,28.841 131.64,28.721 131.52,28.721C131.28,28.6 131.16,28.6 130.92,28.6C130.56,28.6 130.32,28.721 129.96,28.841C129.72,28.961 129.479,29.08 129.36,29.32C129.119,29.56 129,29.921 129,30.16C128.88,30.4 128.88,30.761 128.88,31.12C128.88,31.36 128.88,31.721 129,31.961C129,32.2 129.119,32.56 129.36,32.801C129.479,32.921 129.72,33.16 129.96,33.28C130.32,33.4 130.56,33.52 130.92,33.52C131.16,33.52 131.4,33.52 131.64,33.4C131.88,33.28 132,33.16 132.12,32.921C132.36,32.801 132.48,32.681 132.48,32.44C132.6,32.2 132.72,31.961 132.72,31.721L133.2,31.721C133.2,32.08 133.08,32.32 132.96,32.681C132.84,32.921 132.72,33.16 132.48,33.4C132.36,33.52 132.12,33.761 131.76,33.761C131.52,33.881 131.28,34 130.92,34C130.44,34 130.08,33.881 129.84,33.761C129.479,33.52 129.24,33.4 129,33.04C128.759,32.801 128.64,32.56 128.52,32.2C128.399,31.841 128.28,31.48 128.28,31.12C128.28,30.641 128.399,30.28 128.52,29.921C128.64,29.56 128.759,29.32 129,29.08C129.24,28.721 129.479,28.48 129.84,28.36C130.08,28.24 130.44,28.12 130.92,28.12C131.16,28.12 131.4,28.24 131.76,28.24C132,28.36 132.12,28.48 132.36,28.6C132.6,28.721 132.72,28.961 132.96,29.2C133.08,29.44 133.08,29.681 133.2,29.921L132.6,29.921C132.6,29.681 132.48,29.56 132.36,29.32Z" style="fill:rgb(35,31,32);fill-rule:nonzero;"/>
                            <path d="M139.32,31.721L138.36,28.841L137.16,31.721L139.32,31.721ZM138.6,28.24L140.76,33.881L140.16,33.881L139.56,32.08L137.04,32.08L136.32,33.881L135.84,33.881L138,28.24L138.6,28.24Z" style="fill:rgb(35,31,32);fill-rule:nonzero;"/>
                            <path d="M144.24,28.24L144.24,33.4L147.24,33.4L147.24,33.881L143.64,33.881L143.64,28.24L144.24,28.24Z" style="fill:rgb(35,31,32);fill-rule:nonzero;"/>
                            <path d="M158.52,28.24L158.52,28.721L156.6,28.721L156.6,33.881L156.12,33.881L156.12,28.721L154.2,28.721L154.2,28.24L158.52,28.24Z" style="fill:rgb(35,31,32);fill-rule:nonzero;"/>
                            <path d="M165.24,28.24L165.24,28.721L161.88,28.721L161.88,30.761L165,30.761L165,31.24L161.88,31.24L161.88,33.4L165.24,33.4L165.24,33.881L161.4,33.881L161.4,28.24L165.24,28.24Z" style="fill:rgb(35,31,32);fill-rule:nonzero;"/>
                            <path d="M172.2,29.32C172.08,29.2 171.96,29.08 171.84,28.961C171.6,28.841 171.48,28.721 171.24,28.721C171.12,28.6 170.88,28.6 170.64,28.6C170.28,28.6 170.04,28.721 169.8,28.841C169.56,28.961 169.32,29.08 169.08,29.32C168.96,29.56 168.84,29.921 168.72,30.16C168.72,30.4 168.6,30.761 168.6,31.12C168.6,31.36 168.72,31.721 168.72,31.961C168.84,32.2 168.96,32.56 169.08,32.801C169.32,32.921 169.56,33.16 169.8,33.28C170.04,33.4 170.28,33.52 170.64,33.52C171,33.52 171.24,33.52 171.36,33.4C171.6,33.28 171.84,33.16 171.96,32.921C172.08,32.801 172.2,32.681 172.32,32.44C172.44,32.2 172.44,31.961 172.44,31.721L173.04,31.721C172.92,32.08 172.92,32.32 172.8,32.681C172.68,32.921 172.44,33.16 172.32,33.4C172.08,33.52 171.84,33.761 171.6,33.761C171.36,33.881 171,34 170.64,34C170.28,34 169.92,33.881 169.56,33.761C169.2,33.52 168.96,33.4 168.72,33.04C168.6,32.801 168.36,32.56 168.24,32.2C168.12,31.841 168.12,31.48 168.12,31.12C168.12,30.641 168.12,30.28 168.24,29.921C168.36,29.56 168.6,29.32 168.72,29.08C168.96,28.721 169.2,28.48 169.56,28.36C169.92,28.24 170.28,28.12 170.64,28.12C171,28.12 171.24,28.24 171.48,28.24C171.72,28.36 171.96,28.48 172.2,28.6C172.32,28.721 172.56,28.961 172.68,29.2C172.8,29.44 172.92,29.681 172.92,29.921L172.44,29.921C172.32,29.681 172.32,29.56 172.2,29.32Z" style="fill:rgb(35,31,32);fill-rule:nonzero;"/>
                            <path d="M176.76,28.24L176.76,30.761L180,30.761L180,28.24L180.48,28.24L180.48,33.881L180,33.881L180,31.12L176.76,31.12L176.76,33.881L176.16,33.881L176.16,28.24L176.76,28.24Z" style="fill:rgb(35,31,32);fill-rule:nonzero;"/>
                            <path d="M184.56,28.24L187.8,32.921L187.8,28.24L188.4,28.24L188.4,33.881L187.8,33.881L184.56,29.08L184.56,33.881L183.96,33.881L183.96,28.24L184.56,28.24Z" style="fill:rgb(35,31,32);fill-rule:nonzero;"/>
                            <path d="M192.12,31.961C192.24,32.2 192.36,32.56 192.48,32.801C192.72,32.921 192.96,33.16 193.2,33.28C193.44,33.4 193.8,33.52 194.16,33.52C194.52,33.52 194.76,33.4 195.12,33.28C195.36,33.16 195.48,32.921 195.72,32.801C195.84,32.56 195.96,32.2 196.08,31.961C196.2,31.721 196.2,31.36 196.2,31.12C196.2,30.761 196.2,30.4 196.08,30.16C195.96,29.921 195.84,29.56 195.72,29.32C195.48,29.08 195.36,28.961 195.12,28.841C194.76,28.721 194.52,28.6 194.16,28.6C193.8,28.6 193.44,28.721 193.2,28.841C192.96,28.961 192.72,29.08 192.48,29.32C192.36,29.56 192.24,29.921 192.12,30.16L192.12,31.961ZM191.64,29.921C191.76,29.56 192,29.32 192.12,29.08C192.36,28.721 192.72,28.48 192.96,28.36C193.32,28.24 193.68,28.12 194.16,28.12C194.64,28.12 195,28.24 195.24,28.36C195.6,28.48 195.84,28.721 196.08,29.08C196.32,29.32 196.44,29.56 196.56,29.921C196.68,30.28 196.68,30.641 196.68,31.12C196.68,31.48 196.68,31.841 196.56,32.2C196.44,32.56 196.32,32.801 196.08,33.04C195.84,33.4 195.6,33.52 195.24,33.761C195,33.881 194.64,34 194.16,34C193.68,34 193.32,33.881 192.96,33.761C192.72,33.52 192.36,33.4 192.12,33.04C192,32.801 191.76,32.56 191.64,32.2C191.64,31.841 191.52,31.48 191.52,31.12C191.52,30.641 191.64,30.28 191.64,29.921Z" style="fill:rgb(35,31,32);fill-rule:nonzero;"/>
                            <path d="M200.4,28.24L200.4,33.4L203.52,33.4L203.52,33.881L199.92,33.881L199.92,28.24L200.4,28.24Z" style="fill:rgb(35,31,32);fill-rule:nonzero;"/>
                            <path d="M206.76,31.961C206.88,32.2 207,32.56 207.24,32.801C207.36,32.921 207.6,33.16 207.84,33.28C208.08,33.4 208.44,33.52 208.8,33.52C209.16,33.52 209.4,33.4 209.76,33.28C210,33.16 210.24,32.921 210.36,32.801C210.48,32.56 210.6,32.2 210.72,31.961C210.84,31.721 210.84,31.36 210.84,31.12C210.84,30.761 210.84,30.4 210.72,30.16C210.6,29.921 210.48,29.56 210.36,29.32C210.24,29.08 210,28.961 209.76,28.841C209.4,28.721 209.16,28.6 208.8,28.6C208.44,28.6 208.08,28.721 207.84,28.841C207.6,28.961 207.36,29.08 207.24,29.32C207,29.56 206.88,29.921 206.76,30.16L206.76,31.961ZM206.4,29.921C206.4,29.56 206.64,29.32 206.76,29.08C207,28.721 207.36,28.48 207.6,28.36C207.96,28.24 208.32,28.12 208.8,28.12C209.16,28.12 209.52,28.24 209.88,28.36C210.24,28.48 210.48,28.721 210.72,29.08C210.96,29.32 211.08,29.56 211.2,29.921C211.32,30.28 211.32,30.641 211.32,31.12C211.32,31.48 211.32,31.841 211.2,32.2C211.08,32.56 210.96,32.801 210.72,33.04C210.48,33.4 210.24,33.52 209.88,33.761C209.52,33.881 209.16,34 208.8,34C208.32,34 207.96,33.881 207.6,33.761C207.36,33.52 207,33.4 206.76,33.04C206.64,32.801 206.4,32.56 206.4,32.2C206.16,31.841 206.16,31.48 206.16,31.12C206.16,30.641 206.16,30.28 206.4,29.921Z" style="fill:rgb(35,31,32);fill-rule:nonzero;"/>
                            <path d="M218.88,33.881L218.88,32.801C218.76,33.04 218.64,33.16 218.52,33.4C218.28,33.52 218.16,33.641 218.04,33.761C217.8,33.761 217.68,33.881 217.44,33.881C217.32,34 217.08,34 216.96,34C216.48,34 216.12,33.881 215.76,33.761C215.4,33.52 215.16,33.4 214.92,33.04C214.8,32.801 214.56,32.56 214.44,32.2C214.32,31.841 214.32,31.48 214.32,31.12C214.32,30.641 214.32,30.28 214.44,29.921C214.56,29.56 214.8,29.32 214.92,29.08C215.16,28.721 215.4,28.48 215.76,28.36C216.12,28.24 216.48,28.12 216.96,28.12C217.2,28.12 217.44,28.24 217.8,28.24C217.92,28.36 218.16,28.48 218.4,28.6C218.64,28.721 218.76,28.961 218.88,29.2C219.12,29.44 219.12,29.681 219.24,30.04L218.76,30.04C218.64,29.801 218.64,29.681 218.52,29.56C218.4,29.32 218.28,29.2 218.16,29.08C218.04,28.961 217.8,28.841 217.56,28.721C217.44,28.6 217.2,28.6 216.96,28.6C216.6,28.6 216.24,28.721 216,28.841C215.76,28.961 215.52,29.08 215.4,29.32C215.16,29.56 215.04,29.921 214.92,30.16C214.92,30.4 214.8,30.761 214.8,31.12C214.8,31.36 214.92,31.721 214.92,31.961C215.04,32.2 215.16,32.56 215.4,32.801C215.52,32.921 215.76,33.16 216,33.28C216.24,33.4 216.6,33.52 216.96,33.52C217.2,33.52 217.44,33.52 217.68,33.4C217.92,33.28 218.16,33.16 218.28,32.921C218.52,32.801 218.64,32.56 218.76,32.32C218.76,32.08 218.88,31.721 218.88,31.48L216.96,31.48L216.96,31.001L219.24,31.001L219.24,33.881L218.88,33.881Z" style="fill:rgb(35,31,32);fill-rule:nonzero;"/>
                            <path d="M230.64,28.24L230.64,28.721L227.28,28.721L227.28,30.761L230.4,30.761L230.4,31.24L227.28,31.24L227.28,33.4L230.64,33.4L230.64,33.881L226.8,33.881L226.8,28.24L230.64,28.24Z" style="fill:rgb(35,31,32);fill-rule:nonzero;"/>
                            <path d="M234.12,32.801C234.24,32.921 234.36,33.04 234.48,33.16C234.72,33.28 234.84,33.4 235.08,33.4C235.32,33.52 235.56,33.52 235.8,33.52C235.92,33.52 236.04,33.52 236.28,33.4C236.4,33.4 236.64,33.4 236.76,33.28C236.88,33.16 237,33.04 237.12,32.921C237.24,32.801 237.24,32.56 237.24,32.32C237.24,32.2 237.24,32.08 237.12,31.961C237.12,31.841 237,31.721 236.88,31.721C236.76,31.6 236.64,31.48 236.52,31.48C236.4,31.48 236.28,31.36 236.04,31.36L234.84,31.12C234.72,31.001 234.6,31.001 234.36,30.881C234.24,30.881 234.12,30.761 234,30.641C233.88,30.52 233.88,30.4 233.76,30.28C233.64,30.16 233.64,29.921 233.64,29.681C233.64,29.56 233.64,29.44 233.76,29.2C233.76,29.08 233.88,28.961 234,28.721C234.12,28.6 234.36,28.48 234.6,28.36C234.84,28.24 235.2,28.12 235.56,28.12C235.8,28.12 236.04,28.24 236.28,28.24C236.52,28.36 236.76,28.48 237,28.6C237.12,28.721 237.36,28.961 237.36,29.08C237.48,29.32 237.6,29.56 237.6,29.921L237,29.921C237,29.681 237,29.56 236.88,29.32C236.88,29.2 236.76,29.08 236.64,28.961C236.4,28.841 236.28,28.721 236.04,28.721C235.92,28.6 235.68,28.6 235.56,28.6C235.32,28.6 235.2,28.6 235.08,28.721C234.84,28.721 234.72,28.721 234.6,28.841C234.48,28.961 234.36,29.08 234.24,29.2C234.24,29.32 234.12,29.56 234.12,29.681C234.12,29.801 234.24,29.921 234.24,30.04C234.24,30.16 234.36,30.28 234.36,30.28C234.48,30.4 234.6,30.4 234.72,30.52L234.96,30.52L236.28,30.881C236.52,30.881 236.76,31.001 236.88,31.12C237,31.12 237.24,31.24 237.36,31.36C237.48,31.48 237.6,31.6 237.6,31.721C237.72,31.961 237.72,32.2 237.72,32.32L237.72,32.56C237.72,32.801 237.72,32.801 237.6,32.921C237.6,33.04 237.6,33.16 237.48,33.28C237.36,33.4 237.24,33.52 237.12,33.641C236.88,33.761 236.76,33.761 236.52,33.881C236.28,34 236.04,34 235.68,34C235.32,34 235.08,33.881 234.72,33.881C234.48,33.761 234.24,33.641 234,33.52C233.88,33.4 233.64,33.16 233.64,32.921C233.52,32.681 233.52,32.32 233.52,31.961L234,31.961C234,32.32 234,32.56 234.12,32.801Z" style="fill:rgb(35,31,32);fill-rule:nonzero;"/>
                            <rect x="222.6" y="28.36" width="0.6" height="5.64" style="fill:rgb(35,31,32);fill-rule:nonzero;"/>
                            <rect x="124.92" y="28.24" width="0.6" height="5.641" style="fill:rgb(35,31,32);fill-rule:nonzero;"/>
                            <path d="M64.439,33.761C64.439,33.4 64.08,32.801 63.359,31.721L45.6,9.281C44.519,7.84 1.08,4 0,4L0,3.161L59.28,3.161L59.28,4C57.6,4.121 56.76,4.601 56.76,5.32C56.76,5.8 57.12,6.4 57.6,7.241L71.28,26.44L84.6,7.48C85.2,6.52 84.12,5.92 83.519,5.44C83.04,5.081 80.519,4 78.839,3.761L78.839,3.04C78.839,3.04 97.2,5.8 96.359,8.32L78.6,31.721C77.76,32.801 77.399,33.4 77.399,33.761L64.439,33.761Z" style="fill:rgb(0,168,81);fill-rule:nonzero;"/>
                            <path d="M121.44,4.721C121.08,4.84 120.84,5.201 120.84,5.681L120.84,15.4C120.84,16.48 120.72,17.44 120.24,18.4C119.76,19.36 119.28,20.2 118.44,20.921C117.6,21.52 116.64,22.12 115.56,22.48C114.48,22.961 113.16,23.2 111.84,23.2C110.76,23.2 109.68,23.08 108.84,22.721C107.88,22.48 106.92,22.12 106.2,21.641C105.36,21.16 104.64,20.681 104.04,19.961C103.44,19.24 102.96,18.641 102.6,17.801C102.48,17.801 102.48,17.681 102.48,17.44C102.36,17.32 102.36,17.08 102.36,16.96C102.24,16.721 102.24,16.6 102.24,16.36L102.24,5.92C102.24,5.561 102.12,5.32 102.12,5.081C102,4.84 101.76,4.721 101.52,4.601L101.04,4.601C100.8,4.601 100.44,4.601 100.2,4.48C99.839,4.36 99.6,4.241 99.6,4.121C99.6,4 99.6,4 99.72,3.88L104.28,3.88C105.36,3.761 106.32,3.761 107.4,3.88C107.64,3.88 107.76,4 107.76,4.121C107.76,4.241 107.64,4.36 107.4,4.36C106.8,4.36 106.32,4.48 106.08,4.721C105.72,4.84 105.6,5.201 105.6,5.681L105.6,11.201C105.48,12.161 105.48,13 105.48,13.96C105.6,14.801 105.6,15.761 105.6,16.6C105.6,17.44 105.72,18.161 105.96,18.761C106.32,19.36 106.8,19.841 107.28,20.32C107.88,20.801 108.6,21.16 109.32,21.4C110.04,21.641 110.88,21.761 111.84,21.761C112.68,21.761 113.64,21.641 114.36,21.28C115.2,21.041 115.92,20.801 116.4,20.32C117,19.841 117.48,19.36 117.84,18.641C118.08,18.04 118.32,17.32 118.32,16.6L118.32,9.88C118.32,9.4 118.2,9.04 118.2,8.561L118.2,5.801C118.2,5.561 118.2,5.32 118.08,5.081C117.96,4.84 117.84,4.601 117.6,4.601C117.48,4.48 117.48,4.48 117.36,4.601C117.36,4.601 117.24,4.601 117.12,4.48C116.76,4.48 116.52,4.48 116.16,4.36C115.92,4.36 115.68,4.241 115.68,4C115.56,4 115.68,3.88 115.68,3.88C115.8,3.761 115.92,3.761 116.04,3.761L122.76,3.761L122.76,4.241C122.28,4.36 121.8,4.48 121.44,4.721Z" style="fill:rgb(35,31,32);fill-rule:nonzero;"/>
                            <path d="M151.44,4.721C151.44,4.721 151.32,4.721 151.2,4.84C150.96,4.84 150.6,4.96 150.24,5.081C149.88,5.201 149.76,5.32 149.76,5.681L149.76,14.201C149.88,17.08 149.76,19.841 149.4,22.721C149.4,22.841 149.4,22.841 149.16,22.961C149.04,22.961 148.92,22.961 148.8,22.841C147.48,22.001 146.16,21.041 144.84,19.961C143.52,18.881 142.2,17.801 140.88,16.721C139.68,15.641 138.36,14.56 137.16,13.36C135.84,12.281 134.64,11.201 133.44,10.121C133.08,9.761 132.84,9.52 132.6,9.281C132.36,9.04 132,8.801 131.64,8.44C131.52,8.92 131.52,9.4 131.52,9.761C131.52,10.721 131.52,11.56 131.64,12.4C131.64,13.241 131.64,14.08 131.76,14.801L131.76,17.44C131.88,18.281 131.88,19.12 131.88,19.961C131.88,20.44 132,20.681 132,20.921C132.12,21.16 132.24,21.4 132.36,21.52C132.48,21.641 132.6,21.761 132.84,21.881C133.08,21.881 133.2,21.881 133.44,22.001C133.68,22.001 133.8,22.12 134.04,22.12C134.28,22.12 134.52,22.24 134.76,22.36C134.88,22.48 135,22.48 134.88,22.6C134.76,22.721 134.64,22.721 134.52,22.721L128.759,22.721C128.28,22.841 127.68,22.841 127.2,22.721C127.08,22.721 126.96,22.6 126.96,22.48C126.96,22.36 127.08,22.24 127.32,22.24L127.8,22.12C128.28,22.12 128.64,21.881 129,21.641C129.24,21.4 129.36,21.041 129.36,20.56L129.36,4.48C129.36,4.36 129.479,4.241 129.479,4.121C129.6,4 129.72,4 129.84,3.761L130.32,3.761C136.2,8.681 141.84,13.6 147.48,18.52L147.48,17.681C147.48,15.88 147.48,13.96 147.36,12.161C147.24,10.241 147.24,8.44 147.24,6.52C147.24,6.161 147.24,5.801 147.12,5.561C147,5.44 146.88,5.201 146.76,5.081C146.52,4.96 146.4,4.96 146.16,4.84L145.56,4.84C145.44,4.721 145.2,4.721 144.96,4.721C144.84,4.601 144.72,4.601 144.6,4.48C144.48,4.36 144.36,4.36 144.48,4.241C144.48,4.121 144.6,4.121 144.84,4.121L151.56,4.121L151.68,4.601C151.56,4.601 151.56,4.601 151.44,4.721Z" style="fill:rgb(35,31,32);fill-rule:nonzero;"/>
                            <path d="M165.48,22.6C165.48,22.721 165.36,22.721 165.12,22.721L162.24,22.721C161.64,22.6 161.04,22.6 160.56,22.6C159.6,22.6 158.76,22.721 158.04,22.721C157.2,22.721 156.84,22.721 156.6,22.6C156.6,22.6 156.48,22.6 156.48,22.48C156.48,22.36 156.6,22.36 156.6,22.24C156.6,22.24 156.72,22.12 156.84,22.12L157.56,22.12C157.92,22.001 158.04,22.001 158.16,22.001C158.4,22.001 158.52,21.881 158.76,21.761C158.88,21.52 159,21.28 159.12,21.041C159.12,20.921 159.24,20.681 159.24,20.32C159.24,20.08 159.36,19.841 159.36,19.721L159.36,5.801C159.36,5.201 159.12,4.84 158.76,4.721C158.28,4.48 157.8,4.36 157.32,4.36C157.08,4.36 156.96,4.241 156.96,4.121C156.96,4 157.08,3.88 157.32,3.88C157.92,3.761 158.52,3.761 159.12,3.761L164.52,3.761C164.64,3.88 164.88,3.88 164.88,4C164.88,4.121 164.76,4.241 164.52,4.241C164.04,4.36 163.56,4.48 163.2,4.721C162.84,4.84 162.6,5.201 162.6,5.681L162.6,19.841C162.6,19.961 162.6,20.08 162.72,20.32C162.72,20.44 162.84,20.681 162.84,20.921C162.96,21.16 162.96,21.28 163.08,21.52C163.2,21.761 163.2,21.881 163.32,21.881C163.32,22.001 163.56,22.001 163.68,22.001C163.8,22.12 163.92,22.12 164.16,22.12L164.76,22.12C165,22.12 165.24,22.24 165.48,22.36C165.48,22.48 165.6,22.48 165.48,22.6Z" style="fill:rgb(35,31,32);fill-rule:nonzero;"/>
                            <path d="M194.16,4.36C193.92,4.48 193.68,4.48 193.44,4.601C193.2,4.601 193.08,4.721 192.96,4.84C192.72,5.081 192.48,5.32 192.36,5.681C192.12,6.04 191.88,6.4 191.64,6.761C191.52,7.121 191.28,7.601 191.04,7.96C190.8,8.32 190.68,8.801 190.44,9.161C190.32,9.4 190.2,9.641 190.08,9.761C189.96,10 189.84,10.241 189.72,10.36L188.28,13.241C187.44,14.801 186.6,16.48 185.76,18.161C184.92,19.841 184.08,21.4 183.12,22.961C183.12,23.08 183,23.08 182.88,23.08L182.28,23.08C182.28,23.08 182.16,23.08 182.16,22.961C181.2,21.52 180.36,19.961 179.64,18.281C178.8,16.6 177.96,15.04 177.24,13.36C176.64,11.92 176.04,10.6 175.32,9.161C174.6,7.84 173.88,6.52 173.16,5.32C173.04,5.081 172.8,4.84 172.56,4.84C172.2,4.601 171.96,4.601 171.6,4.48C171.36,4.48 171.24,4.36 171,4.36C170.76,4.36 170.64,4.241 170.4,4.121C170.16,4 170.16,4 170.16,3.88C170.28,3.761 170.4,3.761 170.52,3.761L178.44,3.761C178.68,3.761 178.8,3.761 178.8,4C178.68,4.121 178.68,4.121 178.44,4.121L177.84,4.241C177.6,4.241 177.48,4.241 177.48,4.36C177.36,4.36 177.24,4.48 177.12,4.601C177.6,6.52 178.32,8.32 179.16,10C180,11.801 180.84,13.48 181.68,15.161C181.8,15.52 181.92,15.88 182.04,16.121C182.28,16.48 182.4,16.721 182.52,16.96C182.64,17.201 182.76,17.44 182.88,17.681C183,18.04 183.12,18.281 183.36,18.641C183.48,18.4 183.6,18.161 183.72,17.92C183.84,17.681 184.08,17.32 184.2,17.08C184.68,16 185.28,14.92 186,13.721C186.6,12.52 187.2,11.44 187.68,10.241C188.28,9.04 188.76,7.96 189.12,7C189.48,6.04 189.6,5.201 189.6,4.601C189.6,4.601 189.6,4.48 189.36,4.48C189.12,4.36 188.88,4.36 188.64,4.36C188.4,4.36 188.28,4.241 188.04,4.241C187.92,4.241 187.8,4.121 187.8,4C187.8,3.88 187.92,3.761 188.16,3.761L194.76,3.761L194.88,4.241L194.16,4.36Z" style="fill:rgb(35,31,32);fill-rule:nonzero;"/>
                            <path d="M213.84,20.681C213.72,21.041 213.6,21.4 213.6,21.881L213.48,22.48C213.48,22.6 213.36,22.6 213.24,22.6L212.64,22.721L207.12,22.721C206.64,22.841 206.16,22.841 205.68,22.841C204.84,22.841 203.88,22.721 203.04,22.721C202.2,22.721 201.36,22.721 200.64,22.6C200.4,22.6 200.28,22.6 200.28,22.48C200.4,22.24 200.4,22.24 200.64,22.24C201,22.24 201.36,22.12 201.6,22.001C201.84,21.881 202.08,21.761 202.2,21.52C202.32,21.28 202.44,21.041 202.44,20.801L202.44,5.201C202.32,4.96 202.2,4.96 202.08,4.84C201.96,4.721 201.84,4.721 201.72,4.721C201.6,4.601 201.48,4.601 201.36,4.601C201.12,4.601 200.88,4.48 200.64,4.36C200.4,4.36 200.28,4.241 200.04,4.121C199.8,4.121 199.8,4 199.8,3.88C199.92,3.761 200.04,3.761 200.16,3.761L212.4,3.761C212.52,3.761 212.64,3.641 212.88,3.52L213.36,3.52C213.48,3.641 213.48,3.641 213.48,3.761C213.36,4.241 213.24,4.721 213.24,5.201C213.12,5.681 213,6.161 212.88,6.641C212.76,6.641 212.76,6.641 212.76,6.761L212.76,7C212.64,7.121 212.52,7.121 212.4,7.121C212.16,7.121 212.04,7.121 211.92,7C211.92,6.161 211.56,5.681 211.08,5.44C210.48,5.201 209.76,5.081 208.92,5.081L205.8,5.081L205.8,11.92L210.48,11.92C210.48,11.92 210.72,11.92 210.84,11.801C211.08,11.801 211.32,11.681 211.56,11.681C211.8,11.56 211.92,11.44 212.16,11.44C212.4,11.32 212.52,11.32 212.52,11.32C212.76,11.201 212.88,11.32 212.88,11.32C213,11.44 213.12,11.44 213.12,11.56C213,11.801 213,12.04 212.88,12.281C212.88,12.641 212.88,12.88 212.76,13.121C212.64,13.721 212.52,14.44 212.52,15.04C212.52,15.161 212.4,15.281 212.28,15.281C212.16,15.281 212.04,15.281 211.92,15.161C211.8,15.04 211.68,14.92 211.56,14.801C211.56,14.681 211.44,14.56 211.44,14.44C211.32,14.32 211.32,14.201 211.2,13.96C211.2,13.84 211.08,13.721 210.96,13.6C210.84,13.6 210.6,13.48 210.24,13.48C209.76,13.36 209.4,13.36 208.92,13.241L205.8,13.241L205.8,20.2C206.16,20.681 206.76,21.041 207.48,21.28C208.2,21.52 209.04,21.641 209.64,21.641C210.6,21.641 211.32,21.52 212.04,21.041C212.76,20.681 213.12,20.08 213.36,19.36C213.36,19.24 213.48,19.24 213.48,19.24L214.08,19.24L214.08,19.48C213.96,19.841 213.84,20.2 213.84,20.681Z" style="fill:rgb(35,31,32);fill-rule:nonzero;"/>
                            <path d="M238.44,5.801C238.44,6.281 238.32,6.761 238.2,7.241C238.2,7.36 238.08,7.36 237.84,7.36C237.6,7.36 237.48,7.36 237.48,7.241C237.24,6.4 236.88,5.92 236.28,5.681C235.68,5.44 234.84,5.201 234,5.201C233.76,5.201 233.52,5.32 233.4,5.32L232.08,5.32C231.84,5.32 231.6,5.44 231.48,5.44L231,5.44C230.76,5.44 230.64,5.32 230.52,5.32L230.52,20.32C230.52,20.44 230.64,20.681 230.64,20.921C230.64,21.041 230.64,21.28 230.76,21.4C230.76,21.641 230.76,21.641 230.88,21.761C231,21.881 231.24,22.001 231.48,22.001C231.72,22.12 231.84,22.12 232.08,22.12L232.8,22.12C233.04,22.24 233.16,22.24 233.28,22.48C233.4,22.6 233.4,22.6 233.28,22.721C233.28,22.721 233.16,22.841 232.92,22.841L225.24,22.841C225.12,22.721 225,22.721 225,22.6C224.88,22.48 225,22.36 225.24,22.36C225.72,22.24 225.96,22.24 226.32,22.12C226.56,22.12 226.68,21.881 226.8,21.761C226.92,21.641 227.04,21.4 227.04,21.16C227.16,20.921 227.16,20.681 227.16,20.2L227.16,5.32L222.24,5.32C221.64,5.32 221.04,5.44 220.56,5.801C220.2,6.161 219.84,6.52 219.48,7C219.48,7.121 219.36,7.121 219.12,7.121C219,7.121 218.88,7.121 218.88,7C218.88,6.88 218.76,6.761 218.76,6.761L218.76,6.52C218.76,6.281 218.88,5.92 219,5.561C219.12,5.201 219.24,4.84 219.36,4.36C219.48,4.241 219.48,4.121 219.48,4C219.6,3.88 219.6,3.761 219.6,3.52C219.72,3.52 219.72,3.4 219.84,3.4L220.2,3.4C220.32,3.52 220.56,3.52 220.8,3.641C220.92,3.641 221.16,3.761 221.52,3.761C221.76,3.761 222,3.88 222.24,3.88C222.48,3.88 222.6,4 222.84,4L236.28,4C236.52,4 236.64,3.88 236.88,3.88C237,3.761 237.24,3.761 237.36,3.761C237.48,3.761 237.6,3.761 237.72,3.641L238.44,3.641C238.56,3.761 238.56,3.761 238.56,3.88L238.56,4.36C238.56,4.84 238.56,5.44 238.44,5.801Z" style="fill:rgb(35,31,32);fill-rule:nonzero;"/>
                            <path d="M242.64,2.92L243.24,2.92C243.48,2.92 243.72,2.92 243.72,2.8C243.84,2.681 243.96,2.561 243.96,2.44C243.96,2.32 243.96,2.32 243.84,2.201C243.84,2.201 243.72,2.081 243.6,2.081C243.6,2.081 243.36,1.96 243.24,1.96L242.64,1.96L242.64,2.92ZM242.16,4.601L242.16,1.601L243.24,1.601C243.48,1.601 243.72,1.601 243.96,1.721C244.08,1.721 244.2,1.84 244.32,1.96C244.32,2.081 244.44,2.32 244.44,2.44C244.44,2.681 244.32,2.8 244.2,2.92C244.08,3.161 243.84,3.281 243.6,3.281C243.72,3.281 243.72,3.4 243.84,3.4C243.96,3.52 244.08,3.761 244.32,4L244.68,4.601L244.08,4.601L243.84,4.121C243.6,3.761 243.36,3.52 243.36,3.4C243.24,3.4 243.12,3.281 242.88,3.281L242.64,3.281L242.64,4.601L242.16,4.601ZM243.36,0.761C243,0.761 242.64,0.88 242.28,1C241.92,1.241 241.56,1.601 241.44,1.96C241.2,2.32 241.08,2.681 241.08,3.04C241.08,3.4 241.2,3.88 241.44,4.241C241.56,4.601 241.92,4.84 242.28,5.081C242.64,5.201 243,5.32 243.36,5.32C243.72,5.32 244.08,5.201 244.56,5.081C244.92,4.84 245.16,4.601 245.28,4.241C245.52,3.88 245.64,3.4 245.64,3.04C245.64,2.681 245.52,2.32 245.28,1.96C245.16,1.601 244.8,1.241 244.44,1C244.08,0.88 243.72,0.761 243.36,0.761ZM243.36,0.4C243.84,0.4 244.32,0.4 244.68,0.641C245.16,0.88 245.52,1.241 245.76,1.721C246,2.081 246.12,2.561 246.12,3.04C246.12,3.52 246,4 245.76,4.36C245.52,4.84 245.16,5.201 244.68,5.44C244.32,5.681 243.84,5.8 243.36,5.8C242.88,5.8 242.4,5.681 242.04,5.44C241.56,5.201 241.2,4.84 240.96,4.36C240.72,4 240.6,3.52 240.6,3.04C240.6,2.561 240.72,2.081 240.96,1.721C241.32,1.241 241.56,0.88 242.04,0.641C242.4,0.4 242.88,0.4 243.36,0.4Z" style="fill:rgb(35,31,32);fill-rule:nonzero;"/>
                        </g>
                    </g>
                </g>
                <g id="Univet-Logo2" serif:id="Univet Logo">
                </g>
            </g>
        </g>
    </g>
</svg>
