<?xml version="1.0" encoding="UTF-8" standalone="no"?>
<!DOCTYPE svg PUBLIC "-//W3C//DTD SVG 1.1//EN" "http://www.w3.org/Graphics/SVG/1.1/DTD/svg11.dtd">
<svg width="100%" height="100%" viewBox="0 0 852 387" version="1.1" xmlns="http://www.w3.org/2000/svg" xmlns:xlink="http://www.w3.org/1999/xlink" xml:space="preserve" xmlns:serif="http://www.serif.com/" style="fill-rule:evenodd;clip-rule:evenodd;stroke-linejoin:round;stroke-miterlimit:2;">
    <g transform="matrix(0.500923,0,0,0.500923,425.917,193.75)">
        <g id="BSIF-Logo-white-2" serif:id="BSIF Logo white 2" transform="matrix(1,0,0,1,-850,-258.333)">
            <clipPath id="_clip1">
                <rect x="0" y="0" width="1700" height="516.667"/>
            </clipPath>
            <g clip-path="url(#_clip1)">
                <g transform="matrix(4.16667,0,0,4.16667,0,0)">
                    <path d="M64.612,100.693L0,100.693L23.331,1.545L86.656,1.545C116.405,1.545 138.829,6.761 134.207,26.404C131.802,36.621 121.247,44.077 112.046,48.128C125.698,50.886 131.225,60.122 128.695,70.873C123.487,93.005 99.127,100.693 64.612,100.693ZM76.698,24.609L61.356,24.609L57.488,41.045L75.521,41.045C84.169,41.045 91.103,38.169 92.457,32.416C94.262,24.746 85.83,24.609 76.698,24.609ZM67.109,59.072L53.246,59.072L48.879,77.63L67.917,77.63C78.637,77.63 87.164,75.955 88.937,68.421C91.006,59.63 80.97,59.072 67.109,59.072Z" style="fill:white;fill-rule:nonzero;"/>
                    <path d="M266.721,26.243C271.426,30.733 281.61,29.467 289.466,23.418C297.322,17.367 299.876,8.823 295.171,4.335C290.466,-0.154 280.282,1.111 272.426,7.16C264.569,13.21 262.015,21.754 266.721,26.243Z" style="fill:white;fill-rule:nonzero;"/>
                    <path d="M214.542,31.534C214.614,28.246 212.802,26.273 210.098,24.94C207.385,23.756 203.814,23.229 199.768,23.229C190.619,23.229 186.108,25.204 185.303,28.625C181.958,42.837 256.798,34.021 248.683,68.498C243.538,90.366 216.632,100.969 181.824,100.969C148.434,100.969 130.082,86.439 133.212,69.42L172.893,69.42C172.97,72.823 174.844,75.31 178.114,76.901C181.071,78.476 185.266,79.264 189.295,79.264C199.63,79.264 207.05,76.769 208.101,72.3C211.462,58.016 136.385,67.846 144.869,31.798C149.604,11.674 175.168,1.545 206.806,1.545C241.96,1.545 254.785,14.962 253.87,31.534L214.542,31.534Z" style="fill:white;fill-rule:nonzero;"/>
                    <path d="M259.289,45.254L259.104,45.299L261.29,36.139L292.157,36.139L278.396,100.194L247.112,100.194L259.289,45.254Z" style="fill:white;fill-rule:nonzero;"/>
                    <path d="M292.519,100.194L315.85,1.045L407.056,0.906L400.811,25.836L353.451,25.912L350.008,40.545L382.705,40.825L377.494,64.732L344.451,64.732L336.884,100.194L292.519,100.194Z" style="fill:white;fill-rule:nonzero;"/>
                    <path d="M4.871,120.815L7.7,120.815C8.917,120.815 9.423,120.534 9.423,119.391C9.423,118.229 8.992,118.06 7.775,118.06L4.871,118.06L4.871,120.815ZM4.871,115.457L7.569,115.457C8.88,115.457 9.198,115.232 9.198,114.108C9.198,113.263 9.068,112.946 8.018,112.909L4.871,112.909L4.871,115.457ZM1.124,109.836L8.506,109.836C11.297,109.836 12.946,110.36 12.946,113.433C12.946,115.213 12.59,116.375 10.735,116.674L10.735,116.824C12.814,116.955 13.17,118.211 13.17,119.972C13.17,123.419 11.559,123.887 8.58,123.887L1.124,123.887L1.124,109.836Z" style="fill:white;fill-rule:nonzero;"/>
                    <path d="M21.546,116.899C23.157,116.899 23.101,116.3 23.101,114.707C23.101,113.452 22.782,113.095 21.546,113.095L18.642,113.095L18.642,116.899L21.546,116.899ZM14.895,109.836L22.127,109.836C25.368,109.892 26.96,110.586 26.96,114.089C26.96,116.43 26.96,117.799 24.3,118.416L24.3,118.567C25.836,118.622 26.829,119.466 26.829,121.058L26.829,123.887L23.082,123.887L23.082,121.921C23.12,120.871 22.67,120.159 21.546,120.159L18.642,120.159L18.642,123.887L14.895,123.887L14.895,109.836Z" style="fill:white;fill-rule:nonzero;"/>
                    <rect x="28.89" y="109.836" width="3.747" height="14.051" style="fill:white;fill-rule:nonzero;"/>
                    <path d="M41.163,123.887L37.416,123.887L37.416,113.095L33.818,113.095L33.818,109.836L44.947,109.836L44.947,113.095L41.163,113.095L41.163,123.887Z" style="fill:white;fill-rule:nonzero;"/>
                    <rect x="46.109" y="109.836" width="3.747" height="14.051" style="fill:white;fill-rule:nonzero;"/>
                    <path d="M58.568,115.344C62.728,115.644 63.758,116.169 63.758,119.391C63.758,121.715 63.852,124 57.668,124C54.09,124 51.71,123.925 51.71,119.316L55.308,119.316C55.308,120.778 55.833,120.927 57.668,120.927C59.43,120.927 60.011,120.815 60.011,119.635C60.011,118.416 59.805,118.435 58.043,118.323L57.219,118.266C53.753,118.022 51.73,118.042 51.73,114.013C51.73,109.985 53.997,109.723 57.668,109.723C60.741,109.723 63.365,109.78 63.365,113.658L63.365,114.239L59.767,114.239C59.767,112.795 59.168,112.795 57.668,112.795C55.645,112.795 55.477,113.208 55.477,113.995C55.477,115.12 56.02,115.157 57.013,115.232L58.568,115.344Z" style="fill:white;fill-rule:nonzero;"/>
                    <path d="M78.016,123.887L74.269,123.887L74.269,118.38L69.379,118.38L69.379,123.887L65.631,123.887L65.631,109.836L69.379,109.836L69.379,115.12L74.269,115.12L74.269,109.836L78.016,109.836L78.016,123.887Z" style="fill:white;fill-rule:nonzero;"/>
                    <path d="M93.492,115.344C97.651,115.644 98.682,116.169 98.682,119.391C98.682,121.715 98.776,124 92.592,124C89.014,124 86.634,123.925 86.634,119.316L90.232,119.316C90.232,120.778 90.756,120.927 92.592,120.927C94.354,120.927 94.935,120.815 94.935,119.635C94.935,118.416 94.729,118.435 92.967,118.323L92.143,118.266C88.677,118.022 86.654,118.042 86.654,114.013C86.654,109.985 88.92,109.723 92.592,109.723C95.665,109.723 98.288,109.78 98.288,113.658L98.288,114.239L94.691,114.239C94.691,112.795 94.092,112.795 92.592,112.795C90.569,112.795 90.4,113.208 90.4,113.995C90.4,115.12 90.944,115.157 91.937,115.232L93.492,115.344Z" style="fill:white;fill-rule:nonzero;"/>
                    <path d="M106.27,112.646L106.233,112.646L104.528,118.735L108.012,118.735L106.27,112.646ZM103.723,121.47L103.029,123.887L99.131,123.887L103.348,109.836L109.043,109.836L113.315,123.887L109.493,123.887L108.762,121.47L103.723,121.47Z" style="fill:white;fill-rule:nonzero;"/>
                    <path d="M117.868,115.662L123.601,115.662L123.601,118.735L117.868,118.735L117.868,123.887L114.121,123.887L114.121,109.836L124.088,109.836L124.088,112.909L117.868,112.909L117.868,115.662Z" style="fill:white;fill-rule:nonzero;"/>
                    <path d="M129.578,115.474L135.574,115.474L135.574,118.079L129.578,118.079L129.578,120.815L136.098,120.815L136.098,123.887L125.832,123.887L125.832,109.836L135.967,109.836L135.967,112.909L129.578,112.909L129.578,115.474Z" style="fill:white;fill-rule:nonzero;"/>
                    <path d="M144.698,123.887L140.951,123.887L140.951,113.095L137.354,113.095L137.354,109.836L148.483,109.836L148.483,113.095L144.698,113.095L144.698,123.887Z" style="fill:white;fill-rule:nonzero;"/>
                    <path d="M156.914,118.96L156.914,123.887L153.167,123.887L153.167,118.96L148.183,109.836L152.474,109.836L154.984,115.251L155.116,115.251L157.7,109.836L162.047,109.836L156.914,118.96Z" style="fill:white;fill-rule:nonzero;"/>
                    <rect x="169.654" y="109.836" width="3.747" height="14.051" style="fill:white;fill-rule:nonzero;"/>
                    <path d="M179.453,123.887L175.706,123.887L175.706,109.836L182.039,109.836L186.066,120.627L186.217,120.627L185.992,109.836L189.739,109.836L189.739,123.887L183.35,123.887L179.378,113.095L179.229,113.095L179.453,123.887Z" style="fill:white;fill-rule:nonzero;"/>
                    <path d="M195.604,120.627L198.882,120.627C200.269,120.627 200.775,119.71 200.775,118.229L200.775,115.288C200.775,113.469 200.194,113.095 198.882,113.095L195.604,113.095L195.604,120.627ZM191.856,109.836L198.976,109.836C202.891,109.836 204.634,111.298 204.634,115.288L204.634,118.229C204.634,122.07 203.397,123.887 199.481,123.887L191.856,123.887L191.856,109.836Z" style="fill:white;fill-rule:nonzero;"/>
                    <path d="M218.687,109.836L218.687,119.204C218.687,122.951 216.925,124 212.804,124C207.183,124 206.583,122.576 206.583,119.204L206.583,109.836L210.33,109.836L210.33,119.129C210.33,120.721 211.229,120.74 212.804,120.74C214.396,120.74 214.938,120.609 214.938,118.96L214.938,109.836L218.687,109.836Z" style="fill:white;fill-rule:nonzero;"/>
                    <path d="M227.399,115.344C231.558,115.644 232.589,116.169 232.589,119.391C232.589,121.715 232.682,124 226.499,124C222.921,124 220.542,123.925 220.542,119.316L224.139,119.316C224.139,120.778 224.663,120.927 226.499,120.927C228.261,120.927 228.841,120.815 228.841,119.635C228.841,118.416 228.635,118.435 226.874,118.323L226.05,118.266C222.583,118.022 220.56,118.042 220.56,114.013C220.56,109.985 222.827,109.723 226.499,109.723C229.571,109.723 232.194,109.78 232.194,113.658L232.194,114.239L228.598,114.239C228.598,112.795 227.997,112.795 226.499,112.795C224.476,112.795 224.308,113.208 224.308,113.995C224.308,115.12 224.851,115.157 225.843,115.232L227.399,115.344Z" style="fill:white;fill-rule:nonzero;"/>
                    <path d="M240.626,123.887L236.879,123.887L236.879,113.095L233.282,113.095L233.282,109.836L244.411,109.836L244.411,113.095L240.626,113.095L240.626,123.887Z" style="fill:white;fill-rule:nonzero;"/>
                    <path d="M252.13,116.899C253.741,116.899 253.685,116.3 253.685,114.707C253.685,113.452 253.366,113.095 252.13,113.095L249.226,113.095L249.226,116.899L252.13,116.899ZM245.479,109.836L252.71,109.836C255.952,109.892 257.544,110.586 257.544,114.089C257.544,116.43 257.544,117.799 254.884,118.416L254.884,118.567C256.42,118.622 257.413,119.466 257.413,121.058L257.413,123.887L253.666,123.887L253.666,121.921C253.704,120.871 253.254,120.159 252.13,120.159L249.226,120.159L249.226,123.887L245.479,123.887L245.479,109.836Z" style="fill:white;fill-rule:nonzero;"/>
                    <path d="M266.743,118.96L266.743,123.887L262.997,123.887L262.997,118.96L258.014,109.836L262.304,109.836L264.813,115.251L264.945,115.251L267.531,109.836L271.878,109.836L266.743,118.96Z" style="fill:white;fill-rule:nonzero;"/>
                    <path d="M283.101,115.662L288.834,115.662L288.834,118.735L283.101,118.735L283.101,123.887L279.354,123.887L279.354,109.836L289.321,109.836L289.321,112.909L283.101,112.909L283.101,115.662Z" style="fill:white;fill-rule:nonzero;"/>
                    <path d="M294.812,115.474L300.807,115.474L300.807,118.079L294.812,118.079L294.812,120.815L301.331,120.815L301.331,123.887L291.063,123.887L291.063,109.836L301.2,109.836L301.2,112.909L294.812,112.909L294.812,115.474Z" style="fill:white;fill-rule:nonzero;"/>
                    <path d="M307.289,120.627L310.567,120.627C311.954,120.627 312.46,119.71 312.46,118.229L312.46,115.288C312.46,113.469 311.88,113.095 310.567,113.095L307.289,113.095L307.289,120.627ZM303.542,109.836L310.662,109.836C314.577,109.836 316.319,111.298 316.319,115.288L316.319,118.229C316.319,122.07 315.083,123.887 311.167,123.887L303.542,123.887L303.542,109.836Z" style="fill:white;fill-rule:nonzero;"/>
                    <path d="M322.034,115.474L328.03,115.474L328.03,118.079L322.034,118.079L322.034,120.815L328.555,120.815L328.555,123.887L318.288,123.887L318.288,109.836L328.424,109.836L328.424,112.909L322.034,112.909L322.034,115.474Z" style="fill:white;fill-rule:nonzero;"/>
                    <path d="M337.511,116.899C339.122,116.899 339.065,116.3 339.065,114.707C339.065,113.452 338.747,113.095 337.511,113.095L334.606,113.095L334.606,116.899L337.511,116.899ZM330.859,109.836L338.091,109.836C341.333,109.892 342.926,110.586 342.926,114.089C342.926,116.43 342.926,117.799 340.265,118.416L340.265,118.567C341.802,118.622 342.794,119.466 342.794,121.058L342.794,123.887L339.047,123.887L339.047,121.921C339.085,120.871 338.635,120.159 337.511,120.159L334.606,120.159L334.606,123.887L330.859,123.887L330.859,109.836Z" style="fill:white;fill-rule:nonzero;"/>
                    <path d="M350.607,112.646L350.57,112.646L348.864,118.735L352.35,118.735L350.607,112.646ZM348.059,121.47L347.366,123.887L343.469,123.887L347.685,109.836L353.381,109.836L357.651,123.887L353.83,123.887L353.1,121.47L348.059,121.47Z" style="fill:white;fill-rule:nonzero;"/>
                    <path d="M364.246,123.887L360.5,123.887L360.5,113.095L356.902,113.095L356.902,109.836L368.031,109.836L368.031,113.095L364.246,113.095L364.246,123.887Z" style="fill:white;fill-rule:nonzero;"/>
                    <rect x="369.193" y="109.836" width="3.747" height="14.051" style="fill:white;fill-rule:nonzero;"/>
                    <path d="M383.863,118.435L383.863,115.268C383.863,113.19 383.17,112.983 381.222,112.983C379.272,112.983 378.636,113.19 378.58,115.268L378.58,118.435C378.636,120.534 379.272,120.74 381.222,120.74C383.17,120.74 383.863,120.534 383.863,118.435ZM374.721,118.847L374.721,114.875C374.721,110.548 377.418,109.723 381.222,109.723C385.024,109.723 387.723,110.548 387.723,114.875L387.723,118.847C387.723,123.176 385.024,124 381.222,124C377.418,124 374.721,123.176 374.721,118.847Z" style="fill:white;fill-rule:nonzero;"/>
                    <path d="M393.231,123.887L389.484,123.887L389.484,109.836L395.817,109.836L399.845,120.627L399.995,120.627L399.77,109.836L403.518,109.836L403.518,123.887L397.128,123.887L393.156,113.095L393.007,113.095L393.231,123.887Z" style="fill:white;fill-rule:nonzero;"/>
                    <path d="M0,105.464L405.496,105.464" style="fill:none;fill-rule:nonzero;"/>
                    <rect x="0" y="102.964" width="405.496" height="5" style="fill:white;fill-rule:nonzero;"/>
                </g>
            </g>
        </g>
        <g id="BSIF-Logo-white-21" serif:id="BSIF Logo white 2">
        </g>
    </g>
</svg>
