<svg xmlns="http://www.w3.org/2000/svg" viewBox="0 0 371.18 283.39">
  <defs>
    <style>
      .cls-1 {
        fill: #f4a100;
      }

      .cls-2 {
        fill: #a2978a;
      }

      .cls-3 {
        fill: #6c207e;
      }
    </style>
  </defs>
  <title>logo</title>
  <g id="Layer_2" data-name="Layer 2">
    <g id="Layer_1-2" data-name="Layer 1">
      <polyline class="cls-1" points="162.17 8.16 162.17 8.16 133.17 0 159.49 14.64 159.51 14.64 169.28 14.89 162.19 8.17 162.17 8.16"/>
      <polyline class="cls-1" points="211.28 8.16 211.28 8.16 240.28 0 213.96 14.64 213.94 14.64 204.15 14.89 211.27 8.17 211.28 8.16"/>
      <polyline class="cls-1" points="209.94 28.45 209.94 28.45 238.93 36.6 212.62 21.95 212.62 21.95 212.59 21.93 212.59 21.95 202.82 21.71 209.93 28.44 209.91 28.44 209.94 28.45"/>
      <polyline class="cls-1" points="160.82 28.45 160.82 28.45 131.84 36.6 158.15 21.95 158.18 21.93 158.18 21.95 167.95 21.71 160.84 28.44 160.86 28.44 160.82 28.45"/>
      <path class="cls-2" d="M172.26,136.57c-20.32-4.22-33.65-7.89-45.66-3.86a52.53,52.53,0,0,0-4.93,1.9l-.51.27s-11.58,4.92-3.66,4.35h.41c8.85-1,23.78-.61,48.48,4.5,47.49,9.83,71.68-8.39,81.34-19a2.5,2.5,0,0,1,.17-.22l.21-.22c.87-1,1.62-1.87,2.24-2.68.35-.56.42-.87.32-1.06-11.2,10.65-35.13,25-78.4,16"/>
      <path class="cls-1" d="M184.32,79.75a2,2,0,0,0-2-2h-.46a2,2,0,0,0-2,2V85A1.13,1.13,0,0,0,181,86.16h2.17A1.13,1.13,0,0,0,184.32,85V79.75"/>
      <path class="cls-3" d="M171.1,60.51c2.1-3.22,8-5.54,15-5.54a31.51,31.51,0,0,1,4.92.4v0s6.34,1.07,6.53,4.64c0,0,.11,1.83-3.88.77a9,9,0,0,0-.89-.19,33.74,33.74,0,0,0-6.69-.66c-6.23,0-11.55,1.57-13.88,3.8a2.29,2.29,0,0,1-1.13-3.24m-.17,5.59-5.26,42.19q2.66.31,5.33.81l2.82-30.77c.48-5.56,4-8.45,8.86-9.06,0,0,12.37-1.79,13.39,6.36C197.56,87.47,198.7,105,198.7,105a79.15,79.15,0,0,1,1.17,10.4c2.55.35,5.1.61,7.65.83L201.2,65.4a4.16,4.16,0,0,0,1-.66c2.55-1.74,4.07-3.88,4.07-6.2,0-3.17-2.77-6-7.13-7.89l.05-2.52a6.41,6.41,0,0,0,2.06-4.47,6.49,6.49,0,0,0-2-4.47l.13-5.94a6.47,6.47,0,0,0,1.91-4.32c0-4.72-6.06-8.56-13.77-9v-.63a1.41,1.41,0,0,0-2.81,0v.63c-7.71.43-13.77,4.27-13.77,9a6.58,6.58,0,0,0,2.13,4.58c0-.09,0-.18,0-.29,0-4.32,5.86-7.82,13.1-7.82a21.07,21.07,0,0,1,4.07.42c2,.68,4.7,2.2,4.77,5.59,0,0,.28,3.67-6.38,3.26a4.22,4.22,0,0,0-1,0c-.48,0-1-.09-1.46-.09-8.4,0-15.18,4.06-15.18,9.08a6.55,6.55,0,0,0,2.13,4.57c0-.09,0-.18,0-.28,0-4.31,5.86-7.83,13.1-7.83a20,20,0,0,1,3.69.36c2,.52,5.35,1.9,5.32,5.27,0,0,.33,3.22-5.44,2.6-1.17-.11-2.37-.16-3.58-.16-11.16,0-20.21,4.62-20.21,10.35,0,2.58,1.86,4.92,4.91,6.74.12.07.2.14.28.18a3.36,3.36,0,0,0-.13.64Z"/>
      <path class="cls-3" d="M220.52,125.1a159.48,159.48,0,0,1-44.18-6.25,69.79,69.79,0,0,0-19.92-2.8,41.1,41.1,0,0,0-20.62,5.51c-.72.47-2.62,1.89.68,1.43.5-.08,1-.12,1.38-.15,6.77-.74,18.4-.56,33,3.61,13.1,3.73,24.25,5.61,33.88,5.61,15.15,0,26.39-3.85,34.37-8.26a128,128,0,0,1-18.56,1.29"/>
      <path class="cls-3" d="M42,167.09h0a4.37,4.37,0,0,0,3.09-1.3,4.19,4.19,0,0,0,1.37-3.11,4.64,4.64,0,0,0-4.49-4.5,4.21,4.21,0,0,0-3.11,1.36,4.43,4.43,0,0,0-1.31,3.14,4.48,4.48,0,0,0,4.42,4.4"/>
      <path class="cls-3" d="M343.14,182a12.1,12.1,0,0,1,2.86-3.06,13.77,13.77,0,0,1,3.77-2,13,13,0,0,1,4.06-.69,8.48,8.48,0,0,1,6.45,2.79,9.82,9.82,0,0,1,1.83,3,13.59,13.59,0,0,1,.77,2.84H342a7.61,7.61,0,0,1,1.15-2.88m22.27,24.67a16.8,16.8,0,0,1-4.27,2.35,14,14,0,0,1-4.77.81,13.45,13.45,0,0,1-6.32-1.46,15.19,15.19,0,0,1-4.83-3.92,18.16,18.16,0,0,1-3.07-5.57,20,20,0,0,1-1.07-6.49,24.65,24.65,0,0,1,.14-2.65h30l-.07-.91a23.94,23.94,0,0,0-1.4-6.66,17.54,17.54,0,0,0-3.22-5.51,14.8,14.8,0,0,0-5-3.71,16.6,16.6,0,0,0-6.82-1.34,19.8,19.8,0,0,0-8.43,1.82,21.89,21.89,0,0,0-6.81,4.87,22.77,22.77,0,0,0-4.54,7.09,22.2,22.2,0,0,0-1.65,8.43,18.85,18.85,0,0,0,1.87,8.42,20.39,20.39,0,0,0,5,6.47,22.52,22.52,0,0,0,7.19,4.12,24.63,24.63,0,0,0,8.38,1.45,17.32,17.32,0,0,0,6.55-1.27,25.22,25.22,0,0,0,5.72-3.2l.69-.53L366,206.18Z"/>
      <path class="cls-3" d="M45.67,176.28a7.34,7.34,0,0,1,.64-2.69l.52-1.18h-9.6l.48,1.16a8.77,8.77,0,0,1,.62,2.57c.07,1,.12,1.9.12,2.83v28c0,1,0,1.89-.08,2.69a7.1,7.1,0,0,1-.64,2.38l-.53,1.17h9.64L46.31,212a7.48,7.48,0,0,1-.64-2.68c0-1-.08-2-.08-3v-27c0-1,0-2,.08-3"/>
      <path class="cls-3" d="M27.89,208a15,15,0,0,1-3.54.42H9V163.16c0-.89,0-1.8.08-2.72a7.71,7.71,0,0,1,.57-2.52l.48-1.17H0L.55,158a6.65,6.65,0,0,1,.64,2.58c0,1,.08,2,.08,3V207c0,1,0,1.87-.11,2.65A9.43,9.43,0,0,1,.55,212l-.48,1.15H30.84l.19-.57,2-6.23-1.6.56A35,35,0,0,1,27.89,208"/>
      <path class="cls-3" d="M157.12,207.6a13.13,13.13,0,0,1-5.07,1,7.72,7.72,0,0,1-4.67-1.39c-1.18-.86-1.79-2.14-1.8-4.21V177.17h15.64v-4.75H145.58v-7.32l-8.18,2.08.26.83a18.57,18.57,0,0,1,.74,4.41H136v4.75h2.38V201.7a11.26,11.26,0,0,0,12.19,12.18,22.23,22.23,0,0,0,5.7-.78,15.24,15.24,0,0,0,5.29-2.48l.27-.2,0-.34,1.27-7.48-1.91,2.1a12.13,12.13,0,0,1-4.16,2.89"/>
      <path class="cls-3" d="M245.64,200a13.3,13.3,0,0,1-2.39,5.18,10.69,10.69,0,0,1-4.39,3.27,18.36,18.36,0,0,1-7,1.16,11.74,11.74,0,0,1-5.81-1.47,15.31,15.31,0,0,1-4.57-3.88,18.74,18.74,0,0,1-3-5.38,18.13,18.13,0,0,1-1.07-6,30.74,30.74,0,0,1,.75-7,13.13,13.13,0,0,1,2.38-5.23,11,11,0,0,1,4.37-3.31,17.28,17.28,0,0,1,6.88-1.19h0a11.74,11.74,0,0,1,5.83,1.47,16,16,0,0,1,4.6,3.88,17.68,17.68,0,0,1,3,5.42,18.71,18.71,0,0,1,1.07,6.07,30.87,30.87,0,0,1-.74,7m1.79-22.84a24.16,24.16,0,0,0-15.48-5.6,21.85,21.85,0,0,0-8.75,1.72,22.84,22.84,0,0,0-7.09,4.75,21.68,21.68,0,0,0-4.79,7.06,22,22,0,0,0-1.74,8.75,18.31,18.31,0,0,0,1.88,8.39,20.14,20.14,0,0,0,5,6.43,22.74,22.74,0,0,0,7.14,4.12,24.48,24.48,0,0,0,8.34,1.45,22.32,22.32,0,0,0,15.81-6.48,23,23,0,0,0,4.79-7.05,21.7,21.7,0,0,0,1.77-8.75,18.46,18.46,0,0,0-1.88-8.35,19.53,19.53,0,0,0-5-6.42"/>
      <path class="cls-3" d="M131.93,208.48c0-1.41,0-2.71,0-3.93V182.78a11.38,11.38,0,0,0-1.13-5.35,9,9,0,0,0-3.1-3.41,12.43,12.43,0,0,0-4.42-1.74,24.84,24.84,0,0,0-5.13-.5,14.11,14.11,0,0,0-5,1,22.64,22.64,0,0,0-4.62,2.49,24.36,24.36,0,0,0-4,3.45,22.75,22.75,0,0,0-1.5,1.73V160.86c0-1.14,0-2.34.13-3.55a11,11,0,0,1,.69-3.3l.43-1.13H94.56l.53,1.17a7.68,7.68,0,0,1,.65,2.65c0,1,.08,2,.08,3V207a25,25,0,0,1-.12,2.62,8.31,8.31,0,0,1-.61,2.39l-.48,1.15h9.62l-.53-1.18a7.74,7.74,0,0,1-.64-2.65c0-1-.07-2-.07-3V191.21a10.4,10.4,0,0,1,1.29-4.79,20.26,20.26,0,0,1,3.41-4.76,17.8,17.8,0,0,1,4.6-3.55,10.21,10.21,0,0,1,4.8-1.33,7.54,7.54,0,0,1,5.58,2.06,7.37,7.37,0,0,1,2.08,5.52V207q0,1.4-.11,2.62A8.35,8.35,0,0,1,124,212l-.48,1.15h9.58l-.48-1.15a9.73,9.73,0,0,1-.69-3.55"/>
      <path class="cls-3" d="M204.3,208.48c0-1.41,0-2.71,0-3.93V182.78a11.29,11.29,0,0,0-1.12-5.35A9,9,0,0,0,200,174a12.42,12.42,0,0,0-4.43-1.74,24.72,24.72,0,0,0-5.13-.5,14.21,14.21,0,0,0-5,1,22.52,22.52,0,0,0-4.61,2.49,24.16,24.16,0,0,0-4,3.45c-.55.56-1,1.15-1.5,1.73V160.86c0-1.14,0-2.34.12-3.55a11,11,0,0,1,.7-3.29l.44-1.13h-9.66l.52,1.17a7.34,7.34,0,0,1,.65,2.64c.06,1,.08,2,.08,3V207a26.09,26.09,0,0,1-.12,2.62,8.52,8.52,0,0,1-.6,2.39l-.48,1.15h9.61l-.52-1.17a7.36,7.36,0,0,1-.64-2.64c-.06-1-.09-2-.09-3V191.21a10.57,10.57,0,0,1,1.3-4.79,20.43,20.43,0,0,1,3.41-4.76,17.84,17.84,0,0,1,4.59-3.55,10.34,10.34,0,0,1,4.81-1.32,7.52,7.52,0,0,1,5.57,2.06,7.31,7.31,0,0,1,2.09,5.52V207c0,.93,0,1.8-.11,2.62a8.38,8.38,0,0,1-.63,2.39l-.46,1.15h9.57L205,212a9.89,9.89,0,0,1-.7-3.55"/>
      <path class="cls-3" d="M80.56,194.3a11.34,11.34,0,0,1-1,4.37,18,18,0,0,1-2.68,4.48,15.77,15.77,0,0,1-3.81,3.4,7.67,7.67,0,0,1-4.13,1.3,8.41,8.41,0,0,1-4.78-1.29,11.11,11.11,0,0,1-3.29-3.43,16,16,0,0,1-1.92-4.76,22.53,22.53,0,0,1-.61-5.09,26.47,26.47,0,0,1,.8-6.58,16.15,16.15,0,0,1,2.53-5.45A12.73,12.73,0,0,1,66,177.52a13.6,13.6,0,0,1,6.37-1.36,12.52,12.52,0,0,1,4.36.71,40,40,0,0,1,3.86,1.6V194.3M88,175.39q-3.69-1.27-7.54-2.47a27.17,27.17,0,0,0-8-1.22,23.07,23.07,0,0,0-9.15,1.74,19.76,19.76,0,0,0-6.87,4.8,21.14,21.14,0,0,0-4.31,7.25,26.64,26.64,0,0,0-1.48,9.06,26,26,0,0,0,.91,6.81,19.23,19.23,0,0,0,2.81,6.15,15.7,15.7,0,0,0,4.88,4.5,13.59,13.59,0,0,0,6.94,1.73,15.54,15.54,0,0,0,5.32-.85,14.27,14.27,0,0,0,4.17-2.32,21.2,21.2,0,0,0,3.38-3.38c.48-.59,1-1.22,1.42-1.86,0,1.75-.12,3.48-.25,5.21a19.82,19.82,0,0,1-2,7.41c-.1.21-.23.4-.33.59a24.92,24.92,0,0,0,9.52-7.87c0-.58.17-1.12.19-1.71.06-1.34.08-2.78.08-4.33V179.77a7.1,7.1,0,0,1,.77-3.2l.43-.86Z"/>
      <g>
        <path class="cls-3" d="M81.64,250.88c.37-1.56-.56-1-1.2-.48-3.63,3.71-12.71,9.73-31.39,7.38-26.54-3.34-37.83,1.31-43.16,5.7l-.78.64S-.22,268.9,3.89,267l.76-.35c8.69-4.16,27.52-2.27,43.1-.13,29.43,4.07,33.5-14.44,33.5-14.44.15-.4.27-.8.39-1.19"/>
        <path class="cls-3" d="M287,250.1c-.37-1.56.58-1,1.21-.48,3.63,3.72,12.71,9.72,31.39,7.38,26.54-3.33,40.52,2,45.84,6.43l.77.64s5.34,4.77,1.24,2.86l-.76-.34c-8.7-4.16-30.2-3-45.79-.86-29.42,4.07-33.5-14.44-33.5-14.44-.15-.4-.26-.8-.4-1.19"/>
      </g>
      <path class="cls-3" d="M286.58,205.18c0,.83,0,1.66.12,2.51,0,.46.13.91.19,1.36,0,1.84,2.58,4,6,5.23a10.28,10.28,0,0,0,5.1.72l-2.13-3.13a10.48,10.48,0,0,1-1.69-4.35,33.39,33.39,0,0,1-.39-4.88V179.37c0-1.1,0-2.12.08-3.05a8.43,8.43,0,0,1,.66-2.74l.46-1.16h-9.61l.53,1.17a7.59,7.59,0,0,1,.64,2.65c.05,1,.08,2,.08,3v15.18a10.31,10.31,0,0,1-1.29,4.81,21.05,21.05,0,0,1-3.4,4.74,18.59,18.59,0,0,1-4.59,3.54,10.26,10.26,0,0,1-4.81,1.31,7.38,7.38,0,0,1-5.56-2.12,7.48,7.48,0,0,1-2.11-5.53V179.37q0-1.65.08-3.05a8.36,8.36,0,0,1,.67-2.74l.45-1.16h-9.56l.48,1.16a9.57,9.57,0,0,1,.69,3.54c0,1.4,0,2.72,0,3.92V202.8a11.26,11.26,0,0,0,1.13,5.37,8.89,8.89,0,0,0,3.11,3.4,13.18,13.18,0,0,0,4.42,1.76,27.1,27.1,0,0,0,5.15.48,14.13,14.13,0,0,0,5-1,22,22,0,0,0,4.63-2.5,24.67,24.67,0,0,0,4-3.44c.54-.56,1-1.14,1.5-1.73"/>
      <path class="cls-3" d="M328.66,196a18.74,18.74,0,0,0-4.54-3.88,42.88,42.88,0,0,0-5.75-2.92c-2-.83-3.88-1.68-5.59-2.55a18.2,18.2,0,0,1-4.15-2.76,4,4,0,0,1-1.47-3.12,3.61,3.61,0,0,1,.59-2.2,4.66,4.66,0,0,1,1.63-1.39,6.58,6.58,0,0,1,2.27-.7,16.3,16.3,0,0,1,2.63-.2,17.25,17.25,0,0,1,6.85,1.36,13,13,0,0,1,5.34,4.18l1.75,2.3-.76-8.8-.39-.21a30.46,30.46,0,0,0-6.13-2.62,23.37,23.37,0,0,0-6.75-1,22.82,22.82,0,0,0-4.74.51,14.59,14.59,0,0,0-4.56,1.73,10.8,10.8,0,0,0-3.43,3.18,8.44,8.44,0,0,0-1.39,4.89,8.86,8.86,0,0,0,2,5.82,17,17,0,0,0,4.54,3.84,43.73,43.73,0,0,0,5.71,2.85c2,.8,3.86,1.65,5.54,2.5a16.14,16.14,0,0,1,4.12,2.9,5,5,0,0,1,1.5,3.7,4.18,4.18,0,0,1-1,2.8,8.16,8.16,0,0,1-2.59,2,13.37,13.37,0,0,1-3.44,1.12,18.28,18.28,0,0,1-3.39.34,17,17,0,0,1-3.64-.41,21.94,21.94,0,0,1-3.71-1.18,18.5,18.5,0,0,1-3.34-1.86,14.06,14.06,0,0,1-2.66-2.43l-1.71-2,.43,4.76a13.29,13.29,0,0,0,5.38,6.26,21.91,21.91,0,0,0,2.07.75,27.3,27.3,0,0,0,7.41,1,22.63,22.63,0,0,0,5.66-.78,20.36,20.36,0,0,0,5.56-2.36,15.33,15.33,0,0,0,4.28-4,9.61,9.61,0,0,0,1.79-5.76,8.53,8.53,0,0,0-1.94-5.58"/>
      <g>
        <path class="cls-2" d="M167.8,277a10.46,10.46,0,0,1-2.83.39c-.65,0-1.07,0-1.38,0h-6.2V259.29c.08-1.57.12-1.6.92-2.18L161,255.4H147.25l2.72,1.71c.79.58.84.61.9,2.18v19.78c-.06,1.52-.13,1.61-.89,2.13l-2.91,1.74h22.39l3.07-9.17L170,275.9a5.54,5.54,0,0,1-2.2,1.13"/>
        <path class="cls-2" d="M113.05,277.83c-6.32-.07-10-3.36-10-8.74s3.45-8.56,8.93-8.61a11.44,11.44,0,0,1,4,.71,18.25,18.25,0,0,1,2.45,1.12l1.55.78-.91-7.5-.69-.12a28.67,28.67,0,0,0-5.51-.54c-9.75,0-16.73,5.71-16.75,14.25a13.09,13.09,0,0,0,4.73,10.34c3,2.49,7.22,3.87,12.18,3.87a33.63,33.63,0,0,0,5.64-.52l.53-.07.62-.09,2-8-2.27,1.14c-3,1.51-4.56,1.94-6.51,1.94"/>
        <path class="cls-2" d="M215.71,257.11c.79.58.84.61.92,2.17v12.44c0,2.94-.35,3.82-1.31,4.81A6,6,0,0,1,211,278a5.76,5.76,0,0,1-4.86-2.11c-.62-.92-.82-1.67-.84-4.39V259.28c.08-1.56.13-1.59.92-2.17L209,255.4H195.2l2.73,1.71c.79.58.84.61.91,2.17v12.21a15.52,15.52,0,0,0,.85,5.83,8.57,8.57,0,0,0,1.89,2.64,12.2,12.2,0,0,0,9.09,3.43h.07c5,0,9.16-2.23,10.8-6.19a13.2,13.2,0,0,0,.83-5.48V259.28c.08-1.56.13-1.59.92-2.17L226,255.4H213l2.71,1.71"/>
        <path class="cls-2" d="M264.6,277.2a16.86,16.86,0,0,1-3.64.25H259.3v-6.88h2.19c2.43,0,3.36.25,4.32.91a3,3,0,0,1,1.26,2.62,2.92,2.92,0,0,1-2.47,3.1m-5.3-16.33h2.61c2.75.12,3.36.72,3.42,2.12a1.57,1.57,0,0,1-1,1.65c-.79.34-1.41.44-3.88.45h-1.2Zm11,6.42a5.32,5.32,0,0,0,.57-.63,6.25,6.25,0,0,0,1.24-3.84,6.68,6.68,0,0,0-2.63-5.53,11.19,11.19,0,0,0-6.85-1.9H249.15l2.73,1.72c.78.57.84.61.91,2.18v19.77c-.07,1.52-.13,1.61-.89,2.13L249,282.93h13c4.26,0,6.74-.63,8.86-2.36a8.36,8.36,0,0,0,3-6.65,7.07,7.07,0,0,0-3.57-6.62"/>
      </g>
    </g>
    <g id="The_Construction_Industry_Charity" data-name="The Construction Industry Charity">
      <g>
        <path class="cls-2" d="M32.52,228H29.35v12H26.1V228h-3.3v-2.86h10A20.09,20.09,0,0,1,32.52,228Z"/>
        <path class="cls-2" d="M41.25,240v-7.79c0-.75-.15-1.32-1.56-1.32a3.71,3.71,0,0,0-2,.59V240h-3V223.8a25.5,25.5,0,0,1,3-.2v6h.15a4,4,0,0,1,3-1.3c2,0,3.37,1.17,3.37,3.56V240Z"/>
        <path class="cls-2" d="M56.13,235.11H49.79v.13c0,1.45.57,2.16,2.53,2.16a7.5,7.5,0,0,0,3.1-.7,16.83,16.83,0,0,1,.64,2.79,10.87,10.87,0,0,1-3.78.7c-3.63,0-5.68-2-5.68-5.81,0-4,2.11-6.12,5.06-6.12,3.21,0,4.55,2,4.55,5.11A15.9,15.9,0,0,1,56.13,235.11Zm-2.9-2.58c0-1.36-.48-2-1.61-2s-1.8.79-1.8,2.64H53.2A5.57,5.57,0,0,0,53.22,232.54Z"/>
        <path class="cls-2" d="M68.86,240.19c-4.31,0-6.62-2.64-6.62-7.66,0-5.3,2.84-7.61,6.4-7.61a11.14,11.14,0,0,1,4,.7,21.22,21.22,0,0,1-.44,2.9,8.3,8.3,0,0,0-3.43-.75c-1.72,0-3.08,1-3.08,4.73,0,3.59,1.06,4.82,3.21,4.82a7.15,7.15,0,0,0,3.59-1,16.4,16.4,0,0,1,.46,2.9A8.89,8.89,0,0,1,68.86,240.19Z"/>
        <path class="cls-2" d="M79.78,240.19c-3.08,0-5.19-1.85-5.19-6,0-3.72,2.2-6,5.28-6s5.19,1.72,5.19,6C85.06,238.08,82.75,240.19,79.78,240.19Zm.07-9.42c-1.41,0-2.09.95-2.09,3.45s.62,3.46,2,3.46,2.09-.95,2.09-3.46S81.27,230.78,79.84,230.78Z"/>
        <path class="cls-2" d="M94.05,240v-7.79c0-.9-.31-1.32-1.56-1.32a3.67,3.67,0,0,0-2,.59V240h-3V228.6a25.81,25.81,0,0,1,3-.18v1.14h.15a4,4,0,0,1,3-1.3c1.8,0,3.37.95,3.37,3.59V240Z"/>
        <path class="cls-2" d="M103,240.19a8.37,8.37,0,0,1-3.67-.84c.22-1,.4-1.74.68-2.66a8.32,8.32,0,0,0,3.48.81c.75,0,1-.35,1-.92,0-1.56-5.08-.48-5.08-4.49,0-2.62,2.33-3.83,4.86-3.83a12.37,12.37,0,0,1,2.86.35,16.68,16.68,0,0,1-.4,2.64,13.26,13.26,0,0,0-3.17-.44c-.73,0-1.06.33-1.06.92,0,1.59,5.06.44,5.06,4.75C107.63,239.09,105.34,240.19,103,240.19Z"/>
        <path class="cls-2" d="M114.23,240.19c-2.71,0-4-1.32-4-4.11v-5H109v-2.6h1.3v-2.38a22,22,0,0,1,3-.48v2.86h3a21.21,21.21,0,0,1-.15,2.6h-2.82v5.17c0,1.06.46,1.21,1.45,1.21a4.47,4.47,0,0,0,1.65-.35,21,21,0,0,1,.4,2.53A7.26,7.26,0,0,1,114.23,240.19Z"/>
        <path class="cls-2" d="M124.83,231.48a5.14,5.14,0,0,0-1.08-.13,3.43,3.43,0,0,0-2.13.64v8h-3V228.6a25.81,25.81,0,0,1,3-.18v1.47h.15c1.08-1.5,1.78-1.63,2.51-1.63a2.82,2.82,0,0,1,.81.13A20.57,20.57,0,0,1,124.83,231.48Z"/>
        <path class="cls-2" d="M133.5,240v-1h-.15a4.16,4.16,0,0,1-3,1.21c-1.8,0-3.41-.95-3.41-3.61v-8a25.61,25.61,0,0,1,3-.18v7.79c0,.95.42,1.41,1.76,1.41a3.83,3.83,0,0,0,1.8-.42v-8.6a25.61,25.61,0,0,1,3-.18V240Z"/>
        <path class="cls-2" d="M144.41,240.19c-3.48,0-5.48-1.87-5.48-5.76,0-4.34,2.42-6.16,5.15-6.16a10.26,10.26,0,0,1,3.12.42,25.78,25.78,0,0,1-.64,2.84,6.17,6.17,0,0,0-2.27-.42c-1.47,0-2.2.77-2.2,3.06,0,2.57.7,3.19,2.44,3.19a5.25,5.25,0,0,0,2.22-.53,18.71,18.71,0,0,1,.57,2.77A7.63,7.63,0,0,1,144.41,240.19Z"/>
        <path class="cls-2" d="M153.87,240.19c-2.71,0-4-1.32-4-4.11v-5h-1.3v-2.6h1.3v-2.38a22,22,0,0,1,3-.48v2.86h3a21.23,21.23,0,0,1-.15,2.6h-2.82v5.17c0,1.06.46,1.21,1.45,1.21a4.47,4.47,0,0,0,1.65-.35,21,21,0,0,1,.4,2.53A7.26,7.26,0,0,1,153.87,240.19Z"/>
        <path class="cls-2" d="M159.77,227.21a1.59,1.59,0,0,1-1.65-1.69,1.66,1.66,0,1,1,3.32,0A1.59,1.59,0,0,1,159.77,227.21ZM158.29,240V228.49h3V240Z"/>
        <path class="cls-2" d="M168.92,240.19c-3.08,0-5.19-1.85-5.19-6,0-3.72,2.2-6,5.28-6s5.19,1.72,5.19,6C174.2,238.08,171.89,240.19,168.92,240.19Zm.07-9.42c-1.41,0-2.09.95-2.09,3.45s.62,3.46,2,3.46,2.09-.95,2.09-3.46S170.42,230.78,169,230.78Z"/>
        <path class="cls-2" d="M183.2,240v-7.79c0-.9-.31-1.32-1.56-1.32a3.67,3.67,0,0,0-2,.59V240h-3V228.6a25.81,25.81,0,0,1,3-.18v1.14h.15a4,4,0,0,1,3-1.3c1.8,0,3.37.95,3.37,3.59V240Z"/>
        <path class="cls-2" d="M193.56,240V225.14h3.26V240Z"/>
        <path class="cls-2" d="M206.67,240v-7.79c0-.9-.31-1.32-1.56-1.32a3.67,3.67,0,0,0-2,.59V240h-3V228.6a25.8,25.8,0,0,1,3-.18v1.14h.15a4,4,0,0,1,3-1.3c1.8,0,3.37.95,3.37,3.59V240Z"/>
        <path class="cls-2" d="M219,240v-1h-.15a3.64,3.64,0,0,1-2.79,1.19c-2.62,0-4.07-1.91-4.07-5.63,0-4.44,2.09-6.29,5-6.29a8.3,8.3,0,0,1,2,.29V223.8a25.52,25.52,0,0,1,3-.2V240Zm0-8.74a3.47,3.47,0,0,0-1.67-.44c-1.56,0-2.18.9-2.18,3.5s.55,3.3,1.94,3.3a4,4,0,0,0,1.91-.42Z"/>
        <path class="cls-2" d="M231.69,240v-1h-.15a4.17,4.17,0,0,1-3,1.21c-1.8,0-3.41-.95-3.41-3.61v-8a25.6,25.6,0,0,1,3-.18v7.79c0,.95.42,1.41,1.76,1.41a3.84,3.84,0,0,0,1.8-.42v-8.6a25.6,25.6,0,0,1,3-.18V240Z"/>
        <path class="cls-2" d="M240.75,240.19a8.38,8.38,0,0,1-3.67-.84c.22-1,.4-1.74.68-2.66a8.32,8.32,0,0,0,3.48.81c.75,0,1-.35,1-.92,0-1.56-5.08-.48-5.08-4.49,0-2.62,2.33-3.83,4.86-3.83a12.37,12.37,0,0,1,2.86.35,16.77,16.77,0,0,1-.4,2.64,13.26,13.26,0,0,0-3.17-.44c-.73,0-1.06.33-1.06.92,0,1.59,5.06.44,5.06,4.75C245.35,239.09,243.06,240.19,240.75,240.19Z"/>
        <path class="cls-2" d="M251.95,240.19c-2.71,0-4-1.32-4-4.11v-5h-1.3v-2.6H248v-2.38a22.05,22.05,0,0,1,3-.48v2.86h3a21.21,21.21,0,0,1-.15,2.6H251v5.17c0,1.06.46,1.21,1.45,1.21a4.47,4.47,0,0,0,1.65-.35,20.87,20.87,0,0,1,.4,2.53A7.25,7.25,0,0,1,251.95,240.19Z"/>
        <path class="cls-2" d="M262.55,231.48a5.14,5.14,0,0,0-1.08-.13,3.43,3.43,0,0,0-2.13.64v8h-3V228.6a25.79,25.79,0,0,1,3-.18v1.47h.15c1.08-1.5,1.78-1.63,2.51-1.63a2.82,2.82,0,0,1,.81.13A20.64,20.64,0,0,1,262.55,231.48Z"/>
        <path class="cls-2" d="M270.65,239.34c-1.36,4.14-3.17,5.39-5.28,5.39a5.35,5.35,0,0,1-2.22-.42,15.14,15.14,0,0,1,.51-2.71,6,6,0,0,0,1.89.26,1.44,1.44,0,0,0,1.54-1.08l.33-.75a60,60,0,0,1-3.78-11.44,26.49,26.49,0,0,1,2.9-.18l1.94,6.89c.11.35.26,1,.33,1.34H269a13.6,13.6,0,0,1,.33-1.34l2-6.89a21.81,21.81,0,0,1,2.88.18Z"/>
        <path class="cls-2" d="M286.07,240.19c-4.31,0-6.62-2.64-6.62-7.66,0-5.3,2.84-7.61,6.4-7.61a11.14,11.14,0,0,1,4,.7,21.15,21.15,0,0,1-.44,2.9,8.3,8.3,0,0,0-3.43-.75c-1.72,0-3.08,1-3.08,4.73,0,3.59,1.06,4.82,3.21,4.82a7.15,7.15,0,0,0,3.59-1,16.36,16.36,0,0,1,.46,2.9A8.89,8.89,0,0,1,286.07,240.19Z"/>
        <path class="cls-2" d="M299,240v-7.79c0-.75-.15-1.32-1.56-1.32a3.71,3.71,0,0,0-2,.59V240h-3V223.8a25.49,25.49,0,0,1,3-.2v6h.15a4,4,0,0,1,3-1.3c2,0,3.37,1.17,3.37,3.56V240Z"/>
        <path class="cls-2" d="M313.08,240.19A2,2,0,0,1,311,239h-.13a4.39,4.39,0,0,1-3,1.19c-2,0-3.46-1-3.46-3.32,0-2.53,1.56-3.39,4.31-3.5l1.8-.07v-2a4.31,4.31,0,0,0-2.13-.44,7.09,7.09,0,0,0-2.6.48,14.56,14.56,0,0,1-.42-2.66,12,12,0,0,1,3.26-.46,7.89,7.89,0,0,1,4.73,1.34v6.84c0,.57.15.77.68.77h1.19v1C315.18,239.73,314.27,240.19,313.08,240.19Zm-2.62-4.93-1.8.07c-1,0-1.34.31-1.34,1.34,0,.88.37,1.23,1.21,1.23a3.42,3.42,0,0,0,1.94-.53Z"/>
        <path class="cls-2" d="M322.9,231.48a5.13,5.13,0,0,0-1.08-.13,3.43,3.43,0,0,0-2.13.64v8h-3V228.6a25.81,25.81,0,0,1,3-.18v1.47h.15c1.08-1.5,1.78-1.63,2.51-1.63a2.81,2.81,0,0,1,.81.13A20.51,20.51,0,0,1,322.9,231.48Z"/>
        <path class="cls-2" d="M326.55,227.21a1.59,1.59,0,0,1-1.65-1.69,1.66,1.66,0,1,1,3.32,0A1.59,1.59,0,0,1,326.55,227.21ZM325.07,240V228.49h3V240Z"/>
        <path class="cls-2" d="M335.52,240.19c-2.71,0-4-1.32-4-4.11v-5h-1.3v-2.6h1.3v-2.38a22,22,0,0,1,3-.48v2.86h3a21,21,0,0,1-.15,2.6h-2.82v5.17c0,1.06.46,1.21,1.45,1.21a4.47,4.47,0,0,0,1.65-.35,21,21,0,0,1,.4,2.53A7.26,7.26,0,0,1,335.52,240.19Z"/>
        <path class="cls-2" d="M345.86,239.34c-1.36,4.14-3.17,5.39-5.28,5.39a5.35,5.35,0,0,1-2.22-.42,15.14,15.14,0,0,1,.51-2.71,6,6,0,0,0,1.89.26,1.44,1.44,0,0,0,1.54-1.08l.33-.75a60,60,0,0,1-3.78-11.44,26.49,26.49,0,0,1,2.9-.18l1.94,6.89c.11.35.26,1,.33,1.34h.15a13.6,13.6,0,0,1,.33-1.34l2-6.89a21.81,21.81,0,0,1,2.88.18Z"/>
      </g>
    </g>
  </g>
</svg>
