<?xml version="1.0" encoding="UTF-8" standalone="no"?>
<!DOCTYPE svg PUBLIC "-//W3C//DTD SVG 1.1//EN" "http://www.w3.org/Graphics/SVG/1.1/DTD/svg11.dtd">
<svg width="100%" height="100%" viewBox="0 0 600 310" version="1.1" xmlns="http://www.w3.org/2000/svg" xmlns:xlink="http://www.w3.org/1999/xlink" xml:space="preserve" xmlns:serif="http://www.serif.com/" style="fill-rule:evenodd;clip-rule:evenodd;stroke-linejoin:round;stroke-miterlimit:2;">
    <g id="Colour" transform="matrix(0.87488,0,0,0.87488,37.5359,-74.2187)">
        <g id="Diadora-Logo" serif:id="Diadora Logo" transform="matrix(1.56,0,0,1.56,300,260)">
            <g id="Colour1" serif:id="Colour">
                <g id="Diadora-Logo1" serif:id="Diadora Logo" transform="matrix(1,0,0,1,-162.5,-87.5)">
                    <clipPath id="_clip1">
                        <rect x="0" y="0" width="325" height="175"/>
                    </clipPath>
                    <g clip-path="url(#_clip1)">
                        <g transform="matrix(4.16667,0,0,4.16667,0,0)">
                            <path d="M77.127,21.131C77.127,32.657 59.861,42 38.564,42C17.266,42 0,32.657 0,21.131C0,9.606 17.266,0.263 38.564,0.263C59.861,0.263 77.127,9.606 77.127,21.131Z" style="fill-rule:nonzero;"/>
                            <path d="M38.463,40.635C36.154,40.628 33.849,40.495 31.569,40.245C24.281,39.442 16.705,37.409 10.672,33.089C9.536,32.276 8.461,31.373 7.49,30.368C7.034,29.895 6.601,29.4 6.198,28.882C5.65,28.911 4.209,28.97 2.76,29.03C8.515,36.638 22.33,41.999 38.462,41.999L38.465,41.999C54.598,41.999 68.412,36.638 74.167,29.03C72.718,28.97 71.277,28.911 70.729,28.882C70.326,29.4 69.893,29.895 69.438,30.368C68.466,31.373 67.391,32.276 66.254,33.089C60.221,37.409 52.647,39.442 45.358,40.245C43.078,40.495 40.773,40.628 38.464,40.635" style="fill:rgb(250,228,39);fill-rule:nonzero;"/>
                            <path d="M38.554,27.874C38.16,27.873 37.766,27.872 37.372,27.872C29.126,27.872 20.976,28.129 7.583,28.815C13.168,35.364 25.145,39.551 38.536,39.562L38.467,39.562C51.858,39.551 63.834,35.364 69.419,28.815C56.026,28.129 47.877,27.872 39.631,27.872C39.237,27.872 38.843,27.873 38.449,27.874L38.554,27.874Z" style="fill:rgb(250,228,39);fill-rule:nonzero;"/>
                            <path d="M38.463,1.626C36.154,1.633 33.849,1.767 31.569,2.018C24.281,2.819 16.705,4.853 10.672,9.172C9.536,9.985 8.461,10.889 7.49,11.894C7.034,12.366 6.601,12.861 6.198,13.379C5.65,13.351 4.209,13.291 2.76,13.232C8.515,5.624 22.33,0.263 38.462,0.263L38.465,0.263C54.598,0.263 68.412,5.624 74.167,13.232C72.718,13.291 71.277,13.351 70.729,13.379C70.326,12.861 69.893,12.366 69.438,11.894C68.466,10.889 67.391,9.985 66.254,9.172C60.221,4.853 52.647,2.819 45.358,2.018C43.078,1.767 40.773,1.633 38.464,1.626" style="fill:rgb(250,228,39);fill-rule:nonzero;"/>
                            <path d="M38.554,14.388C38.16,14.389 37.766,14.39 37.372,14.39C29.126,14.39 20.976,14.133 7.583,13.447C13.168,6.897 25.145,2.71 38.536,2.7L38.467,2.7C51.858,2.71 63.834,6.897 69.419,13.447C56.026,14.133 47.877,14.39 39.631,14.39C39.237,14.39 38.843,14.389 38.449,14.388L38.554,14.388Z" style="fill:rgb(250,228,39);fill-rule:nonzero;"/>
                            <path d="M32.034,18.34C32.034,18.195 33.095,17.658 33.037,17.507C33.015,17.382 32.738,17.377 32.511,17.377L27.911,17.377C27.684,17.377 27.409,17.382 27.39,17.507C27.33,17.658 28.391,18.195 28.391,18.34L28.391,23.788C28.391,23.933 27.33,24.467 27.39,24.621C27.409,24.748 27.684,24.748 27.911,24.748L32.511,24.748C32.738,24.748 33.015,24.748 33.037,24.621C33.095,24.467 32.034,23.933 32.034,23.788L32.034,18.34Z" style="fill:rgb(250,228,39);fill-rule:nonzero;"/>
                            <path d="M48.872,23.788L48.872,18.34C48.872,18.195 49.618,17.658 49.56,17.507C49.539,17.382 49.262,17.377 49.034,17.377L45.07,17.377C44.841,17.377 44.572,17.382 44.546,17.507C44.487,17.658 45.232,18.195 45.232,18.34L45.232,23.788C45.232,23.933 44.168,24.467 44.229,24.621C44.255,24.748 44.525,24.748 44.752,24.748L49.351,24.748C49.579,24.748 49.856,24.748 49.878,24.621C49.936,24.467 48.872,23.933 48.872,23.788Z" style="fill:rgb(250,228,39);fill-rule:nonzero;"/>
                            <path d="M14.84,17.377L12.201,17.377C11.972,17.377 11.697,17.382 11.678,17.507C11.618,17.658 12.958,18.4 12.958,18.545L12.958,21.849L12.951,22.359C12.951,22.922 12.819,23.352 12.523,23.622C12.25,23.858 11.795,24.024 11.169,24.069L11.16,24.069C11.16,24.116 11.164,24.702 11.164,24.807L11.18,24.806C12.19,24.69 12.87,24.451 13.31,24.044C13.738,23.663 13.998,22.997 13.998,22.121L13.998,18.545C13.998,18.4 15.43,17.658 15.368,17.507C15.346,17.382 15.068,17.377 14.84,17.377Z" style="fill:rgb(250,228,39);fill-rule:nonzero;"/>
                            <path d="M5.983,18.34L5.983,22.716C5.983,23.446 6.277,24.012 6.868,24.362C7.456,24.708 8.373,24.885 9.582,24.885L10.038,24.885C10.212,24.885 10.41,24.865 10.567,24.861L10.567,24.073C10.278,24.056 9.987,23.998 9.845,23.872C9.698,23.743 9.665,23.489 9.647,23.137L9.63,22.716L9.63,18.34C9.63,18.195 10.375,17.658 10.317,17.507C10.297,17.382 10.022,17.377 9.79,17.377L5.822,17.377C5.592,17.377 5.04,17.382 5.021,17.507C4.959,17.658 5.983,18.195 5.983,18.34Z" style="fill:rgb(250,228,39);fill-rule:nonzero;"/>
                            <path d="M68.592,23.788L68.592,23.732L68.598,21.285L67.945,20.265C67.471,19.525 66.856,18.555 66.799,18.467C66.712,18.327 66.699,18.227 66.699,18.227C66.629,18.049 67.354,17.658 67.296,17.507C67.275,17.382 67.001,17.377 66.772,17.377L62.425,17.377C62.195,17.377 61.924,17.382 61.9,17.507C61.874,17.782 62.6,18.017 62.811,18.34L64.935,21.795L64.935,23.663L64.925,23.788C64.925,23.933 63.863,24.467 63.923,24.621C63.945,24.748 64.218,24.748 64.443,24.748L69.07,24.748C69.301,24.748 69.574,24.748 69.598,24.621C69.654,24.467 68.592,23.933 68.592,23.788Z" style="fill:rgb(250,228,39);fill-rule:nonzero;"/>
                            <path d="M68.621,17.507C68.563,17.658 69.648,18.049 69.584,18.227C69.584,18.227 68.947,19.242 68.484,19.987L68.949,20.716L70.451,18.34C70.664,18.017 71.938,17.781 71.904,17.507C71.883,17.382 71.613,17.377 71.383,17.377L69.51,17.377C69.279,17.377 68.645,17.382 68.621,17.507Z" style="fill:rgb(250,228,39);fill-rule:nonzero;"/>
                            <path d="M42.252,22.201C41.881,22.503 41.636,23.034 41.184,23.407C40.617,23.896 40.285,23.978 39.701,23.978L39.701,24.748L42.832,24.748L42.832,22.552C42.832,22.044 42.411,22.073 42.252,22.201Z" style="fill:rgb(250,228,39);fill-rule:nonzero;"/>
                            <path d="M39.243,17.377L35.279,17.377C35.051,17.377 34.781,17.382 34.753,17.507C34.695,17.658 35.44,18.195 35.44,18.34L35.454,18.467L35.454,23.663L35.44,23.788C35.44,23.933 34.377,24.467 34.437,24.621C34.464,24.748 34.733,24.748 34.96,24.748L39.085,24.748L39.08,18.34C39.08,18.195 39.828,17.658 39.769,17.507C39.748,17.382 39.471,17.377 39.243,17.377Z" style="fill:rgb(250,228,39);fill-rule:nonzero;"/>
                            <path d="M18.958,18.141L18.958,17.378L16.764,17.378L16.764,19.888C16.764,20.164 17.664,20.131 17.793,19.894C18.419,18.739 18.316,18.289 18.958,18.141Z" style="fill:rgb(250,228,39);fill-rule:nonzero;"/>
                            <path d="M23.817,18.141L23.817,17.378L25.994,17.378L25.994,19.888C25.994,20.164 25.093,20.131 24.965,19.894C24.338,18.739 24.458,18.289 23.817,18.141Z" style="fill:rgb(250,228,39);fill-rule:nonzero;"/>
                            <path d="M23.204,23.789L23.206,17.378L19.573,17.378L19.564,23.789C19.564,23.934 18.498,24.468 18.559,24.622C18.585,24.749 18.857,24.749 19.084,24.749L23.683,24.749C23.912,24.749 24.184,24.749 24.207,24.622C24.265,24.468 23.204,23.934 23.204,23.789Z" style="fill:rgb(250,228,39);fill-rule:nonzero;"/>
                            <path d="M53.469,18.14L53.469,17.377L51.275,17.377L51.275,19.887C51.275,20.163 52.176,20.13 52.305,19.893C52.932,18.738 52.828,18.289 53.469,18.14Z" style="fill:rgb(250,228,39);fill-rule:nonzero;"/>
                            <path d="M58.328,18.14L58.328,17.377L60.506,17.377L60.506,19.887C60.506,20.163 59.605,20.13 59.477,19.893C58.85,18.738 58.969,18.289 58.328,18.14Z" style="fill:rgb(250,228,39);fill-rule:nonzero;"/>
                            <path d="M57.716,23.788L57.717,17.377L54.084,17.377L54.076,23.788C54.076,23.933 53.01,24.467 53.07,24.621C53.096,24.748 53.369,24.748 53.596,24.748L58.195,24.748C58.423,24.748 58.695,24.748 58.719,24.621C58.777,24.467 57.716,23.933 57.716,23.788Z" style="fill:rgb(250,228,39);fill-rule:nonzero;"/>
                            <path d="M30.882,30.467L31.117,30.467L31.756,32.027L30.243,32.027L30.882,30.467ZM29.742,33.215L32.258,33.215L32.557,33.959L33.869,33.959L31.92,29.319L30.113,29.319L28.167,33.959L29.44,33.959L29.742,33.215Z" style="fill-rule:nonzero;"/>
                            <rect x="26.488" y="29.318" width="1.276" height="4.641" style="fill-rule:nonzero;"/>
                            <path d="M53.254,30.436L53.455,30.436L54.091,31.992L52.584,31.992L53.254,30.436ZM52.08,33.18L54.594,33.147L54.897,33.891L56.206,33.891L54.26,29.248L52.449,29.281L50.504,33.926L51.777,33.891L52.08,33.18Z" style="fill-rule:nonzero;"/>
                            <path d="M46.647,30.504L48.56,30.504C48.725,30.504 48.86,30.637 48.86,30.842L48.86,31.248C48.86,31.418 48.725,31.588 48.56,31.588L46.647,31.588L46.647,30.504ZM46.647,32.711L48.49,32.711C48.894,32.711 48.86,33.18 48.86,33.18L48.86,33.926L50.066,33.926L50.066,32.737C50.066,32.469 49.934,32.228 49.7,32.162L49.7,32.131C49.899,32.062 50.066,31.822 50.066,31.588L50.066,30.842C50.066,29.957 49.396,29.281 48.524,29.281L45.472,29.281L45.472,33.926L46.647,33.926L46.647,32.711Z" style="fill-rule:nonzero;"/>
                            <path d="M40.945,31.211C40.945,30.842 41.248,30.504 41.649,30.504L43.025,30.504C43.393,30.504 43.692,30.807 43.692,31.182L43.692,32.028C43.692,32.403 43.393,32.71 43.025,32.71L41.649,32.71C41.248,32.71 40.945,32.403 40.945,32.028L40.945,31.211ZM41.314,33.959L43.36,33.926C44.196,33.926 44.901,33.215 44.901,32.368L44.901,30.842C44.901,29.957 44.196,29.282 43.36,29.282L41.28,29.318C40.442,29.318 39.74,29.957 39.74,30.842L39.771,32.403C39.771,33.245 40.442,33.959 41.314,33.959Z" style="fill-rule:nonzero;"/>
                            <path d="M22.094,32.737L22.094,30.535L23.975,30.535C24.343,30.535 24.644,30.842 24.644,31.211L24.644,32.028C24.644,32.434 24.343,32.737 23.975,32.737L22.094,32.737ZM25.819,32.403L25.819,30.873C25.819,29.998 25.112,29.318 24.245,29.318L20.921,29.318L20.921,33.959L24.276,33.959C25.112,33.959 25.819,33.244 25.819,32.403Z" style="fill-rule:nonzero;"/>
                            <path d="M35.41,32.711L35.41,30.536L37.287,30.536C37.658,30.536 37.961,30.842 37.992,31.211L37.992,32.028C37.992,32.403 37.658,32.711 37.287,32.711L35.41,32.711ZM39.133,32.403L39.133,30.842C39.133,29.957 38.429,29.281 37.589,29.318L34.236,29.318L34.236,33.959L37.623,33.959C38.462,33.959 39.133,33.245 39.133,32.403Z" style="fill-rule:nonzero;"/>
                        </g>
                    </g>
                </g>
                <g id="Diadora-Logo2" serif:id="Diadora Logo">
                </g>
            </g>
        </g>
    </g>
</svg>
