<?xml version="1.0" encoding="UTF-8" standalone="no"?>
<!DOCTYPE svg PUBLIC "-//W3C//DTD SVG 1.1//EN" "http://www.w3.org/Graphics/SVG/1.1/DTD/svg11.dtd">
<svg width="100%" height="100%" viewBox="0 0 600 310" version="1.1" xmlns="http://www.w3.org/2000/svg" xmlns:xlink="http://www.w3.org/1999/xlink" xml:space="preserve" xmlns:serif="http://www.serif.com/" style="fill-rule:evenodd;clip-rule:evenodd;stroke-linejoin:round;stroke-miterlimit:2;">
    <g id="Colour" transform="matrix(0.87488,0,0,0.87488,37.5359,-74.2187)">
        <g id="Lyreco-Logo" serif:id="Lyreco Logo" transform="matrix(0.952381,0,0,0.952381,300,250)">
            <g id="Colour1" serif:id="Colour">
                <g id="Lyreco-Logo1" serif:id="Lyreco Logo" transform="matrix(1,0,0,1,-262.5,-118.75)">
                    <clipPath id="_clip1">
                        <rect x="0" y="0" width="525" height="237.5"/>
                    </clipPath>
                    <g clip-path="url(#_clip1)">
                        <g transform="matrix(4.16667,0,0,4.16667,0,0)">
                            <path d="M47.72,0.817C25.905,2.932 8.106,9.564 0,18.288L4.496,28.871L4.518,28.881C4.543,15.592 22.864,4.417 47.72,1.155L47.72,0.817Z" style="fill:rgb(146,200,61);fill-rule:nonzero;"/>
                            <path d="M120.91,28.881L120.911,28.909C120.911,42.21 102.582,53.398 77.708,56.662L77.708,57C99.526,54.884 117.328,48.252 125.433,39.525L120.91,28.881Z" style="fill:rgb(146,200,61);fill-rule:nonzero;"/>
                            <path d="M16.318,36.96L16.318,17.332L21.196,15.255L21.196,32.527L28.557,32.527L30.444,36.96L16.318,36.96Z" style="fill:rgb(40,56,150);fill-rule:nonzero;"/>
                            <path d="M47.597,36.96L47.597,21.002L52.317,21.002L52.317,23.187C53.044,21.572 54.753,20.654 56.939,20.654C57.255,20.654 58.259,20.72 59.188,20.891L57.411,25.07C55.652,24.435 52.317,25.511 52.317,29.171L52.317,36.96L47.597,36.96Z" style="fill:rgb(40,56,150);fill-rule:nonzero;"/>
                            <path d="M71.62,27.144C71.62,25.657 70.069,24.484 68.169,24.484C66.111,24.484 64.432,25.657 64.306,27.144L71.62,27.144ZM59.525,28.95C59.525,26.449 60.348,24.421 61.963,22.901C63.578,21.351 65.668,20.589 68.169,20.589C70.607,20.589 72.57,21.382 74.089,22.934C75.609,24.484 76.37,26.384 76.37,28.695C76.37,29.234 76.337,29.742 76.306,30.216L64.242,30.216C64.337,32.116 65.984,33.351 68.486,33.351C69.974,33.351 71.272,32.844 72.381,31.798L75.134,34.427C73.266,36.359 70.956,37.339 68.264,37.339C65.636,37.339 63.547,36.581 61.931,35.091C60.316,33.572 59.525,31.578 59.525,29.077L59.525,28.95Z" style="fill:rgb(40,56,150);fill-rule:nonzero;"/>
                            <path d="M99.346,31.956C100.139,32.749 101.12,33.162 102.292,33.162C103.463,33.162 104.444,32.749 105.236,31.956C106.027,31.134 106.439,30.152 106.439,28.981C106.439,27.81 106.027,26.828 105.236,26.037C104.444,25.213 103.463,24.801 102.292,24.801C101.12,24.801 100.139,25.213 99.346,26.037C98.554,26.828 98.143,27.81 98.143,28.981C98.143,30.152 98.554,31.165 99.346,31.956ZM108.561,22.997C110.303,24.611 111.156,26.606 111.156,28.981C111.156,31.355 110.303,33.35 108.561,34.998C106.818,36.612 104.729,37.435 102.292,37.435C99.821,37.435 97.731,36.612 95.99,34.998C94.28,33.35 93.426,31.355 93.426,28.981C93.426,26.606 94.28,24.611 95.99,22.997C97.731,21.35 99.821,20.527 102.292,20.527C104.729,20.527 106.818,21.35 108.561,22.997Z" style="fill:rgb(40,56,150);fill-rule:nonzero;"/>
                            <path d="M40.973,21.002C39.852,23.593 38.166,27.504 37.339,29.465C37.209,29.777 37.045,30.149 36.854,30.564L32.722,20.931L28.609,22.695L34.096,35.489C33.26,36.708 32.294,37.896 31.211,38.876L33.05,43.156C37.333,39.919 40.13,34.371 41.464,31.202C42.511,28.716 44.963,23.05 45.851,21.002L40.973,21.002Z" style="fill:rgb(40,56,150);fill-rule:nonzero;"/>
                            <path d="M87.015,33.097C84.735,33.097 82.93,31.355 82.93,28.95C82.93,26.543 84.704,24.769 87.015,24.769C88.437,24.769 89.637,25.306 90.68,26.41L92.426,22.317C90.874,21.099 89.071,20.495 87.015,20.495C84.544,20.495 82.456,21.318 80.745,22.933C79.067,24.548 78.211,26.543 78.211,28.95C78.211,31.355 79.067,33.35 80.745,34.964C82.456,36.58 84.544,37.373 87.015,37.373C89.038,37.373 90.815,36.789 92.351,35.61L90.611,31.53C89.584,32.583 88.405,33.097 87.015,33.097Z" style="fill:rgb(40,56,150);fill-rule:nonzero;"/>
                        </g>
                    </g>
                </g>
                <g id="Lyreco-Logo2" serif:id="Lyreco Logo">
                </g>
            </g>
        </g>
    </g>
</svg>
