<?xml version="1.0" encoding="UTF-8" standalone="no"?>
<!DOCTYPE svg PUBLIC "-//W3C//DTD SVG 1.1//EN" "http://www.w3.org/Graphics/SVG/1.1/DTD/svg11.dtd">
<svg width="100%" height="100%" viewBox="0 0 600 310" version="1.1" xmlns="http://www.w3.org/2000/svg" xmlns:xlink="http://www.w3.org/1999/xlink" xml:space="preserve" xmlns:serif="http://www.serif.com/" style="fill-rule:evenodd;clip-rule:evenodd;stroke-linejoin:round;stroke-miterlimit:2;">
    <g id="Colour" transform="matrix(0.892294,0,0,0.892294,60.3118,-58.8958)">
        <g id="Southall-logo---colour" serif:id="Southall logo - colour" transform="matrix(0.945945,0,0,0.945945,269.222,239.715)">
            <g id="Colour1" serif:id="Colour">
                <g id="Southall-logo---colour1" serif:id="Southall logo - colour" transform="matrix(1,0,0,1,-296.823,-44.4685)">
                    <clipPath id="_clip1">
                        <rect x="0" y="0" width="593.646" height="88.937"/>
                    </clipPath>
                    <g clip-path="url(#_clip1)">
                        <g id="Layer-1" serif:id="Layer 1" transform="matrix(4.16667,0,0,4.16667,0,0)">
                            <g transform="matrix(1,0,0,1,29.6919,1.0074)">
                                <path d="M0,19.102C0.082,19.075 0.113,19.07 0.138,19.055C0.201,19.018 0.263,18.981 0.324,18.938C2.812,17.121 3.901,14.686 3.423,11.622C2.959,8.636 0.485,6.195 -2.45,5.734C-2.642,5.703 -2.749,5.628 -2.828,5.432C-3.3,4.258 -3.967,3.206 -4.852,2.302C-7.08,0.026 -9.786,-1.043 -12.961,-0.779C-16.137,-0.512 -18.623,1.002 -20.454,3.609C-20.513,3.692 -20.591,3.789 -20.592,3.882C-20.605,4.514 -20.599,5.149 -20.599,5.78C-20.346,5.815 -20.122,5.818 -19.916,5.879C-19.669,5.955 -19.56,5.893 -19.444,5.653C-17.036,0.727 -10.573,-0.47 -6.567,3.27C-5.422,4.341 -4.636,5.639 -4.249,7.163C-4.179,7.435 -4.096,7.557 -3.782,7.535C-3.423,7.512 -3.055,7.559 -2.698,7.619C-0.372,8.006 1.53,10.184 1.636,12.539C1.708,14.113 1.213,15.469 0.154,16.624C0.089,16.696 0.008,16.794 0.007,16.882C-0.005,17.61 0,18.338 0,19.102M-27.495,16.855L-27.495,7.205C-27.953,7.686 -28.118,8.216 -28.107,8.868C-28.07,11.006 -28.068,13.148 -28.108,15.286C-28.119,15.918 -27.888,16.385 -27.495,16.855M-29.1,9.178C-29.891,11.034 -29.888,12.888 -29.1,14.737L-29.1,9.178ZM-25.597,18.695C-25.597,17.875 -25.596,17.088 -25.598,16.302C-25.6,16.247 -25.632,16.182 -25.668,16.135C-25.833,15.917 -26.005,15.702 -26.219,15.432C-26.219,16.252 -26.179,17.01 -26.234,17.758C-26.273,18.272 -25.989,18.471 -25.597,18.695M-25.596,5.401C-25.623,5.38 -25.648,5.36 -25.676,5.339C-25.858,5.524 -26.181,5.698 -26.193,5.892C-26.25,6.775 -26.218,7.665 -26.218,8.619C-26.043,8.391 -25.905,8.225 -25.785,8.047C-25.707,7.933 -25.607,7.802 -25.604,7.677C-25.588,6.919 -25.596,6.16 -25.596,5.401M-23.722,4.359C-23.877,4.417 -24.008,4.45 -24.124,4.516C-24.21,4.567 -24.333,4.657 -24.337,4.731C-24.354,5.392 -24.347,6.052 -24.347,6.755C-24.171,6.658 -24.031,6.594 -23.908,6.507C-23.832,6.455 -23.732,6.367 -23.73,6.292C-23.716,5.662 -23.722,5.028 -23.722,4.359M-24.347,17.329L-24.347,18.979C-24.347,19.485 -24.258,19.581 -23.722,19.629L-23.722,18.133C-23.722,17.561 -23.722,17.561 -24.347,17.329M-1.875,19.915C-1.734,19.88 -1.617,19.87 -1.519,19.822C-1.42,19.776 -1.265,19.691 -1.261,19.618C-1.242,18.987 -1.25,18.357 -1.25,17.68C-1.413,17.749 -1.547,17.782 -1.652,17.859C-1.745,17.927 -1.861,18.041 -1.864,18.138C-1.884,18.71 -1.875,19.283 -1.875,19.915M-22.445,18.099L-22.445,20.035C-22.24,20.063 -22.06,20.087 -21.864,20.113L-21.864,18.21C-22.065,18.172 -22.256,18.134 -22.445,18.099M-21.866,5.842L-21.866,3.927C-22.076,3.959 -22.265,3.989 -22.46,4.017L-22.46,5.939C-22.26,5.907 -22.079,5.877 -21.866,5.842M-20,18.286L-20.584,18.286L-20.584,20.137L-20,20.137L-20,18.286ZM-18.127,18.288L-18.71,18.288L-18.71,20.139L-18.127,20.139L-18.127,18.288ZM-16.249,18.293L-16.833,18.293L-16.833,20.137L-16.249,20.137L-16.249,18.293ZM-14.381,18.296L-14.968,18.296L-14.968,20.135L-14.381,20.135L-14.381,18.296ZM-12.51,18.286L-13.094,18.286L-13.094,20.137L-12.51,20.137L-12.51,18.286ZM-10.63,18.289L-11.218,18.289L-11.218,20.126L-10.63,20.126L-10.63,18.289ZM-8.763,18.286L-9.347,18.286L-9.347,20.137L-8.763,20.137L-8.763,18.286ZM-6.887,18.293L-7.47,18.293L-7.47,20.145L-6.887,20.145L-6.887,18.293ZM-5.017,18.288L-5.6,18.288L-5.6,20.139L-5.017,20.139L-5.017,18.288ZM-3.14,18.285L-3.731,18.285L-3.731,20.136L-3.14,20.136L-3.14,18.285Z" style="fill:rgb(9,158,150);fill-rule:nonzero;"/>
                            </g>
                            <g transform="matrix(1,0,0,1,29.6915,-0.0359)">
                                <path d="M0,20.145C0,19.381 -0.005,18.653 0.007,17.925C0.008,17.837 0.089,17.739 0.154,17.667C1.214,16.512 1.708,15.156 1.637,13.582C1.53,11.227 -0.372,9.05 -2.698,8.663C-3.054,8.602 -3.423,8.554 -3.78,8.578C-4.096,8.6 -4.179,8.478 -4.249,8.207C-4.636,6.682 -5.422,5.384 -6.567,4.313C-10.571,0.573 -17.036,1.77 -19.444,6.698C-19.56,6.936 -19.669,6.998 -19.916,6.922C-20.122,6.861 -20.346,6.857 -20.599,6.823C-20.599,6.192 -20.605,5.559 -20.592,4.925C-20.591,4.832 -20.511,4.735 -20.454,4.652C-18.623,2.045 -16.136,0.531 -12.96,0.264C-9.786,0 -7.079,1.069 -4.851,3.345C-3.967,4.249 -3.298,5.303 -2.828,6.477C-2.749,6.671 -2.642,6.746 -2.45,6.777C0.485,7.238 2.959,9.679 3.423,12.665C3.901,15.729 2.812,18.164 0.324,19.981C0.266,20.024 0.203,20.061 0.138,20.098C0.114,20.113 0.082,20.118 0,20.145" style="fill:rgb(9,158,150);fill-rule:nonzero;"/>
                            </g>
                            <g transform="matrix(1,0,0,1,27.8181,18.686)">
                                <path d="M0,2.235C0,1.606 -0.009,1.03 0.009,0.458C0.013,0.361 0.13,0.249 0.222,0.179C0.325,0.104 0.461,0.072 0.624,0C0.624,0.677 0.633,1.308 0.611,1.94C0.61,2.013 0.455,2.096 0.356,2.145C0.258,2.192 0.14,2.201 0,2.235" style="fill:rgb(9,158,150);fill-rule:nonzero;"/>
                            </g>
                            <g transform="matrix(1,0,0,1,0,19.0999)">
                                <rect x="9.108" y="0.198" width="0.584" height="1.849" style="fill:rgb(9,158,150);"/>
                            </g>
                            <g transform="matrix(1,0,0,1,0,19.0999)">
                                <rect x="10.983" y="0.198" width="0.583" height="1.849" style="fill:rgb(9,158,150);"/>
                            </g>
                            <g transform="matrix(1,0,0,1,0,19.0969)">
                                <rect x="12.859" y="0.202" width="0.584" height="1.844" style="fill:rgb(9,158,150);"/>
                            </g>
                            <g transform="matrix(1,0,0,1,0,19.1079)">
                                <rect x="14.724" y="0.199" width="0.587" height="1.839" style="fill:rgb(9,158,150);"/>
                            </g>
                            <g transform="matrix(1,0,0,1,0,19.0999)">
                                <rect x="16.598" y="0.198" width="0.584" height="1.849" style="fill:rgb(9,158,150);"/>
                            </g>
                            <g transform="matrix(1,0,0,1,0,19.0899)">
                                <rect x="18.474" y="0.209" width="0.588" height="1.837" style="fill:rgb(9,158,150);"/>
                            </g>
                            <g transform="matrix(1,0,0,1,0,19.0999)">
                                <rect x="20.345" y="0.198" width="0.584" height="1.849" style="fill:rgb(9,158,150);"/>
                            </g>
                            <g transform="matrix(1,0,0,1,0,19.1079)">
                                <rect x="22.222" y="0.193" width="0.583" height="1.851" style="fill:rgb(9,158,150);"/>
                            </g>
                            <g transform="matrix(1,0,0,1,0,19.0999)">
                                <rect x="24.092" y="0.198" width="0.583" height="1.849" style="fill:rgb(9,158,150);"/>
                            </g>
                            <g transform="matrix(1,0,0,1,0,19.0919)">
                                <rect x="25.961" y="0.202" width="0.59" height="1.849" style="fill:rgb(9,158,150);"/>
                            </g>
                            <g transform="matrix(1,0,0,1,0,-0.0001)">
                                <rect x="38.856" y="0" width="0.408" height="21.345" style="fill:rgb(78,78,80);"/>
                            </g>
                            <g transform="matrix(1,0,0,1,43.9082,3.0645)">
                                <path d="M0,8.533L1.152,7.84C1.962,9.338 2.899,10.086 3.96,10.086C4.414,10.086 4.843,9.979 5.242,9.766C5.64,9.555 5.944,9.269 6.154,8.912C6.362,8.555 6.465,8.176 6.465,7.775C6.465,7.318 6.313,6.871 6.006,6.434C5.583,5.83 4.809,5.104 3.684,4.252C2.554,3.396 1.852,2.776 1.575,2.394C1.096,1.753 0.857,1.06 0.857,0.315C0.857,-0.277 0.998,-0.816 1.281,-1.304C1.562,-1.79 1.961,-2.174 2.472,-2.456C2.985,-2.735 3.543,-2.875 4.144,-2.875C4.782,-2.875 5.381,-2.717 5.936,-2.399C6.492,-2.082 7.08,-1.497 7.701,-0.647L6.594,0.195C6.086,-0.483 5.651,-0.931 5.291,-1.147C4.933,-1.362 4.542,-1.47 4.116,-1.47C3.57,-1.47 3.124,-1.304 2.777,-0.971C2.431,-0.638 2.258,-0.229 2.258,0.259C2.258,0.554 2.318,0.84 2.44,1.118C2.564,1.396 2.788,1.698 3.113,2.024C3.292,2.196 3.874,2.651 4.863,3.384C6.037,4.252 6.84,5.026 7.276,5.704C7.713,6.382 7.932,7.064 7.932,7.747C7.932,8.734 7.558,9.591 6.812,10.318C6.065,11.044 5.157,11.408 4.089,11.408C3.267,11.408 2.521,11.187 1.852,10.746C1.182,10.306 0.564,9.568 0,8.533" style="fill:rgb(78,78,80);fill-rule:nonzero;"/>
                            </g>
                            <g transform="matrix(1,0,0,1,61.1558,14.473)">
                                <path d="M0,-14.284C2.051,-14.284 3.77,-13.597 5.152,-12.222C6.535,-10.848 7.225,-9.155 7.225,-7.147C7.225,-5.156 6.536,-3.467 5.156,-2.08C3.778,-0.693 2.095,0 0.109,0C-1.899,0 -3.595,-0.69 -4.977,-2.07C-6.359,-3.45 -7.051,-5.122 -7.051,-7.082C-7.051,-8.388 -6.736,-9.6 -6.107,-10.716C-5.477,-11.831 -4.618,-12.704 -3.531,-13.336C-2.444,-13.967 -1.266,-14.284 0,-14.284M0.059,-12.962C-0.943,-12.962 -1.894,-12.7 -2.791,-12.176C-3.689,-11.65 -4.39,-10.945 -4.895,-10.057C-5.399,-9.169 -5.651,-8.179 -5.651,-7.086C-5.651,-5.471 -5.094,-4.104 -3.977,-2.992C-2.861,-1.879 -1.515,-1.322 0.059,-1.322C1.112,-1.322 2.084,-1.578 2.98,-2.089C3.874,-2.601 4.572,-3.302 5.074,-4.191C5.575,-5.079 5.826,-6.066 5.826,-7.152C5.826,-8.23 5.575,-9.208 5.074,-10.08C4.572,-10.953 3.866,-11.65 2.957,-12.176C2.047,-12.7 1.081,-12.962 0.059,-12.962" style="fill:rgb(78,78,80);fill-rule:nonzero;"/>
                            </g>
                            <g transform="matrix(1,0,0,1,71.1447,14.4733)">
                                <path d="M0,-13.942L1.355,-13.942L1.355,-5.733C1.355,-4.76 1.373,-4.152 1.409,-3.912C1.477,-3.375 1.633,-2.926 1.879,-2.567C2.125,-2.207 2.502,-1.902 3.011,-1.661C3.521,-1.417 4.034,-1.295 4.55,-1.295C4.999,-1.295 5.428,-1.391 5.839,-1.581C6.252,-1.771 6.594,-2.037 6.871,-2.375C7.147,-2.715 7.35,-3.125 7.479,-3.606C7.57,-3.952 7.617,-4.66 7.617,-5.733L7.617,-13.942L8.972,-13.942L8.972,-5.733C8.972,-4.518 8.853,-3.537 8.617,-2.788C8.38,-2.038 7.907,-1.387 7.197,-0.832C6.489,-0.278 5.631,0 4.624,0C3.531,0 2.595,-0.262 1.814,-0.787C1.034,-1.31 0.513,-2.003 0.25,-2.867C0.083,-3.396 0,-4.353 0,-5.733L0,-13.942Z" style="fill:rgb(78,78,80);fill-rule:nonzero;"/>
                            </g>
                            <g transform="matrix(1,0,0,1,82.1057,12.7996)">
                                <path d="M0,-10.937L0,-12.269L7.424,-12.269L7.424,-10.937L4.404,-10.937L4.404,1.332L3.022,1.332L3.022,-10.937L0,-10.937Z" style="fill:rgb(78,78,80);fill-rule:nonzero;"/>
                            </g>
                            <g transform="matrix(1,0,0,1,91.4639,14.1313)">
                                <path d="M0,-13.6L1.355,-13.6L1.355,-7.895L8.253,-7.895L8.253,-13.6L9.608,-13.6L9.608,0L8.253,0L8.253,-6.565L1.355,-6.565L1.355,0L0,0L0,-13.6Z" style="fill:rgb(78,78,80);fill-rule:nonzero;"/>
                            </g>
                            <g transform="matrix(1,0,0,1,109.903,14.1319)">
                                <path d="M0,-13.6L6.319,0L4.856,0L2.725,-4.476L-3.112,-4.476L-5.221,0L-6.732,0L-0.332,-13.6L0,-13.6ZM-0.171,-10.711L-2.493,-5.789L2.139,-5.789L-0.171,-10.711Z" style="fill:rgb(78,78,80);fill-rule:nonzero;"/>
                            </g>
                            <g transform="matrix(1,0,0,1,118.323,14.1313)">
                                <path d="M0,-13.6L1.355,-13.6L1.355,-1.313L6.567,-1.313L6.567,0L0,0L0,-13.6Z" style="fill:rgb(78,78,80);fill-rule:nonzero;"/>
                            </g>
                            <g transform="matrix(1,0,0,1,127.036,14.1313)">
                                <path d="M0,-13.6L1.355,-13.6L1.355,-1.313L6.567,-1.313L6.567,0L0,0L0,-13.6Z" style="fill:rgb(78,78,80);fill-rule:nonzero;"/>
                            </g>
                            <g transform="matrix(1,0,0,1,134.349,3.0645)">
                                <path d="M0,8.533L1.152,7.84C1.962,9.338 2.899,10.086 3.96,10.086C4.414,10.086 4.843,9.979 5.242,9.766C5.641,9.555 5.944,9.269 6.154,8.912C6.362,8.555 6.465,8.176 6.465,7.775C6.465,7.318 6.313,6.871 6.006,6.434C5.583,5.83 4.809,5.104 3.684,4.252C2.554,3.396 1.852,2.776 1.575,2.394C1.096,1.753 0.855,1.06 0.855,0.315C0.855,-0.277 0.998,-0.816 1.281,-1.304C1.562,-1.79 1.961,-2.174 2.472,-2.456C2.985,-2.735 3.543,-2.875 4.144,-2.875C4.782,-2.875 5.381,-2.717 5.936,-2.399C6.492,-2.082 7.08,-1.497 7.699,-0.647L6.594,0.195C6.086,-0.483 5.651,-0.931 5.291,-1.147C4.933,-1.362 4.542,-1.47 4.116,-1.47C3.57,-1.47 3.124,-1.304 2.777,-0.971C2.431,-0.638 2.258,-0.229 2.258,0.259C2.258,0.554 2.318,0.84 2.44,1.118C2.564,1.396 2.788,1.698 3.113,2.024C3.292,2.196 3.874,2.651 4.863,3.384C6.037,4.252 6.84,5.026 7.276,5.704C7.713,6.382 7.932,7.064 7.932,7.747C7.932,8.734 7.558,9.591 6.812,10.318C6.065,11.044 5.157,11.408 4.089,11.408C3.267,11.408 2.521,11.187 1.852,10.746C1.182,10.306 0.564,9.568 0,8.533" style="fill:rgb(78,78,80);fill-rule:nonzero;"/>
                            </g>
                            <g transform="matrix(1,0,0,1,44.9224,17.0343)">
                                <path d="M0,3.809L0.54,3.809C1.187,3.809 1.637,3.769 1.89,3.688C2.242,3.574 2.519,3.368 2.721,3.068C2.923,2.769 3.025,2.403 3.025,1.969C3.025,1.515 2.915,1.127 2.698,0.805C2.479,0.483 2.174,0.264 1.782,0.145C1.487,0.054 1.004,0.009 0.332,0.009L0,0.009L0,3.809ZM-0.449,4.257L-0.449,-0.448L0.521,-0.448C1.223,-0.448 1.733,-0.391 2.051,-0.277C2.504,-0.118 2.858,0.158 3.115,0.553C3.37,0.947 3.499,1.417 3.499,1.963C3.499,2.432 3.397,2.847 3.193,3.206C2.99,3.566 2.727,3.831 2.403,4.001C2.08,4.171 1.626,4.257 1.043,4.257L-0.449,4.257Z" style="fill:rgb(78,78,80);fill-rule:nonzero;"/>
                            </g>
                            <g transform="matrix(1,0,0,1,49.4803,21.304)">
                                <path d="M0,-4.705L2.686,-4.705L2.686,-4.242L0.468,-4.242L0.468,-2.77L2.589,-2.77L2.589,-2.313L0.468,-2.313L0.468,-0.467L2.667,-0.467L2.667,0L0,0L0,-4.705Z" style="fill:rgb(78,78,80);fill-rule:nonzero;"/>
                            </g>
                            <g transform="matrix(1,0,0,1,53.2447,21.304)">
                                <path d="M0,-4.705L2.582,-4.705L2.582,-4.242L0.468,-4.242L0.468,-2.77L2.407,-2.77L2.407,-2.307L0.468,-2.307L0.468,0L0,0L0,-4.705Z" style="fill:rgb(78,78,80);fill-rule:nonzero;"/>
                            </g>
                            <g transform="matrix(1,0,0,1,0,16.5579)">
                                <rect x="56.794" y="0.041" width="0.468" height="4.705" style="fill:rgb(78,78,80);"/>
                            </g>
                            <g transform="matrix(1,0,0,1,58.489,16.5985)">
                                <path d="M0,4.705L0,0L0.101,0L3.217,3.601L3.217,0L3.679,0L3.679,4.705L3.571,4.705L0.487,1.149L0.487,4.705L0,4.705Z" style="fill:rgb(78,78,80);fill-rule:nonzero;"/>
                            </g>
                            <g transform="matrix(1,0,0,1,0,16.5579)">
                                <rect x="63.391" y="0.041" width="0.468" height="4.705" style="fill:rgb(78,78,80);"/>
                            </g>
                            <g transform="matrix(1,0,0,1,65.0857,16.5985)">
                                <path d="M0,4.705L0,0L0.101,0L3.217,3.601L3.217,0L3.679,0L3.679,4.705L3.571,4.705L0.487,1.149L0.487,4.705L0,4.705Z" style="fill:rgb(78,78,80);fill-rule:nonzero;"/>
                            </g>
                            <g transform="matrix(1,0,0,1,74.5771,20.4349)">
                                <path d="M0,-3.021L-0.363,-2.675C-0.625,-2.933 -0.911,-3.128 -1.222,-3.262C-1.532,-3.395 -1.836,-3.462 -2.133,-3.462C-2.5,-3.462 -2.849,-3.371 -3.181,-3.189C-3.513,-3.007 -3.77,-2.761 -3.954,-2.453C-4.137,-2.144 -4.229,-1.85 -4.229,-1.571C-4.229,-1.216 -4.134,-0.879 -3.944,-0.561C-3.755,-0.242 -3.493,0.007 -3.159,0.188C-2.825,0.369 -2.46,0.459 -2.064,0.459C-1.583,0.459 -1.176,0.323 -0.842,0.05C-0.508,-0.223 -0.31,-0.576 -0.247,-1.009L-1.741,-1.009L-1.741,-1.463L0.275,-1.463C0.271,-0.736 0.056,-0.159 -0.368,0.269C-0.793,0.696 -1.363,0.91 -2.08,0.91C-2.944,0.91 -3.628,0.614 -4.134,0.021C-4.524,-0.435 -4.719,-0.963 -4.719,-1.562C-4.719,-2.008 -4.607,-2.405 -4.385,-2.755C-4.163,-3.103 -3.857,-3.387 -3.467,-3.605C-3.077,-3.822 -2.637,-3.931 -2.146,-3.931C-1.75,-3.931 -1.377,-3.858 -1.027,-3.714C-0.677,-3.569 -0.335,-3.338 0,-3.021" style="fill:rgb(78,78,80);fill-rule:nonzero;"/>
                            </g>
                            <g transform="matrix(1,0,0,1,77.3054,17.5099)">
                                <path d="M0,2.842L0.398,2.601C0.678,3.119 1.002,3.378 1.368,3.378C1.526,3.378 1.675,3.341 1.814,3.266C1.953,3.193 2.059,3.095 2.13,2.972C2.202,2.849 2.238,2.718 2.238,2.578C2.238,2.422 2.185,2.268 2.08,2.115C1.932,1.906 1.664,1.693 1.274,1.475C0.882,1.179 0.64,0.964 0.547,0.83C0.38,0.611 0.297,0.371 0.297,0.11C0.297,-0.095 0.346,-0.281 0.442,-0.448C0.539,-0.615 0.677,-0.748 0.855,-0.846C1.033,-0.944 1.226,-0.993 1.435,-0.993C1.654,-0.993 1.859,-0.938 2.051,-0.827C2.243,-0.716 2.446,-0.514 2.661,-0.219L2.279,0.069C2.104,-0.163 1.954,-0.317 1.83,-0.392C1.705,-0.467 1.57,-0.505 1.422,-0.505C1.235,-0.505 1.081,-0.447 0.961,-0.332C0.841,-0.217 0.781,-0.076 0.781,0.091C0.781,0.193 0.802,0.292 0.844,0.39C0.886,0.487 0.964,0.59 1.078,0.701C1.139,0.762 1.341,0.919 1.685,1.173C2.089,1.473 2.367,1.722 2.517,1.919C2.668,2.115 2.743,2.331 2.743,2.566C2.743,2.908 2.614,3.205 2.356,3.457C2.098,3.709 1.784,3.835 1.416,3.835C1.129,3.835 0.87,3.758 0.638,3.606C0.407,3.454 0.194,3.199 0,2.842" style="fill:rgb(12,159,150);fill-rule:nonzero;"/>
                            </g>
                            <g transform="matrix(1,0,0,1,83.0485,20.2953)">
                                <path d="M0,-2.713L-0.809,-1.006L0.796,-1.006L0,-2.713ZM0.057,-3.709L2.241,0.996L1.741,0.996L1.005,-0.556L-1.018,-0.556L-1.748,0.996L-2.272,0.996L-0.057,-3.709L0.057,-3.709Z" style="fill:rgb(12,159,150);fill-rule:nonzero;"/>
                            </g>
                            <g transform="matrix(1,0,0,1,93.0906,20.8467)">
                                <path d="M0,-3.791L0,-4.248L2.573,-4.248L2.573,-3.791L1.523,-3.791L1.523,0.457L1.046,0.457L1.046,-3.791L0,-3.791Z" style="fill:rgb(12,159,150);fill-rule:nonzero;"/>
                            </g>
                            <g transform="matrix(1,0,0,1,96.1186,21.304)">
                                <path d="M0,-4.705L0.544,-4.705L1.741,-2.77L2.917,-4.705L3.458,-4.705L1.975,-2.25L1.975,0L1.514,0L1.514,-2.25L0,-4.705Z" style="fill:rgb(12,159,150);fill-rule:nonzero;"/>
                            </g>
                            <g transform="matrix(1,0,0,1,105.671,21.304)">
                                <path d="M0,-4.705L0.547,-4.705L1.669,-2.871L2.8,-4.705L3.344,-4.705L1.947,-2.427L3.432,0L2.889,0L1.669,-1.974L0.446,0L-0.101,0L1.394,-2.427L0,-4.705Z" style="fill:rgb(12,159,150);fill-rule:nonzero;"/>
                            </g>
                            <g transform="matrix(1,0,0,1,114.407,20.3489)">
                                <path d="M0,-2.849L-0.373,-2.57C-0.575,-2.836 -0.819,-3.038 -1.105,-3.174C-1.39,-3.31 -1.703,-3.379 -2.045,-3.379C-2.42,-3.379 -2.767,-3.289 -3.085,-3.109C-3.403,-2.929 -3.65,-2.688 -3.826,-2.384C-4.002,-2.081 -4.09,-1.739 -4.09,-1.358C-4.09,-0.785 -3.894,-0.323 -3.502,0.027C-3.11,0.377 -2.616,0.552 -2.02,0.552C-1.362,0.552 -0.813,0.294 -0.373,-0.222L0,0.06C-0.234,0.358 -0.526,0.588 -0.875,0.752C-1.225,0.914 -1.615,0.996 -2.045,0.996C-2.867,0.996 -3.514,0.722 -3.988,0.174C-4.385,-0.289 -4.583,-0.814 -4.583,-1.4C-4.583,-2.087 -4.342,-2.666 -3.861,-3.138C-3.379,-3.609 -2.777,-3.845 -2.054,-3.845C-1.616,-3.845 -1.221,-3.758 -0.867,-3.583C-0.515,-3.409 -0.226,-3.164 0,-2.849" style="fill:rgb(12,159,150);fill-rule:nonzero;"/>
                            </g>
                            <g transform="matrix(1,0,0,1,119.262,21.2913)">
                                <path d="M0,-4.705L0.471,-4.705L0.471,-0.454L2.272,-0.454L2.272,0L0,0L0,-4.705Z" style="fill:rgb(12,159,150);fill-rule:nonzero;"/>
                            </g>
                            <g transform="matrix(1,0,0,1,122.426,21.2913)">
                                <path d="M0,-4.705L0.471,-4.705L0.471,-0.454L2.272,-0.454L2.272,0L0,0L0,-4.705Z" style="fill:rgb(12,159,150);fill-rule:nonzero;"/>
                            </g>
                            <g transform="matrix(1,0,0,1,129.361,16.5985)">
                                <path d="M0,4.705L0,0L0.101,0L3.217,3.601L3.217,0L3.679,0L3.679,4.705L3.571,4.705L0.487,1.149L0.487,4.705L0,4.705Z" style="fill:rgb(12,159,150);fill-rule:nonzero;"/>
                            </g>
                            <g transform="matrix(1,0,0,1,138.698,20.3489)">
                                <path d="M0,-2.849L-0.373,-2.57C-0.575,-2.836 -0.819,-3.038 -1.105,-3.174C-1.39,-3.31 -1.703,-3.379 -2.045,-3.379C-2.42,-3.379 -2.767,-3.289 -3.085,-3.109C-3.403,-2.929 -3.65,-2.688 -3.826,-2.384C-4.002,-2.081 -4.09,-1.739 -4.09,-1.358C-4.09,-0.785 -3.894,-0.323 -3.502,0.027C-3.11,0.377 -2.616,0.552 -2.02,0.552C-1.362,0.552 -0.813,0.294 -0.373,-0.222L0,0.06C-0.234,0.358 -0.526,0.588 -0.875,0.752C-1.225,0.914 -1.615,0.996 -2.045,0.996C-2.867,0.996 -3.514,0.722 -3.988,0.174C-4.385,-0.289 -4.583,-0.814 -4.583,-1.4C-4.583,-2.087 -4.342,-2.666 -3.861,-3.138C-3.379,-3.609 -2.777,-3.845 -2.054,-3.845C-1.616,-3.845 -1.22,-3.758 -0.867,-3.583C-0.515,-3.409 -0.226,-3.164 0,-2.849" style="fill:rgb(12,159,150);fill-rule:nonzero;"/>
                            </g>
                            <g transform="matrix(1,0,0,1,86.1681,21.304)">
                                <path d="M0,-4.705L2.582,-4.705L2.582,-4.242L0.468,-4.242L0.468,-2.77L2.407,-2.77L2.407,-2.307L0.468,-2.307L0.468,0L0,0L0,-4.705Z" style="fill:rgb(12,159,150);fill-rule:nonzero;"/>
                            </g>
                            <g transform="matrix(1,0,0,1,89.7357,21.304)">
                                <path d="M0,-4.705L2.686,-4.705L2.686,-4.242L0.468,-4.242L0.468,-2.77L2.589,-2.77L2.589,-2.313L0.468,-2.313L0.468,-0.467L2.667,-0.467L2.667,0L0,0L0,-4.705Z" style="fill:rgb(12,159,150);fill-rule:nonzero;"/>
                            </g>
                            <g transform="matrix(1,0,0,1,102.153,21.304)">
                                <path d="M0,-4.705L2.686,-4.705L2.686,-4.242L0.468,-4.242L0.468,-2.77L2.589,-2.77L2.589,-2.313L0.468,-2.313L0.468,-0.467L2.667,-0.467L2.667,0L0,0L0,-4.705Z" style="fill:rgb(12,159,150);fill-rule:nonzero;"/>
                            </g>
                            <g transform="matrix(1,0,0,1,115.498,21.304)">
                                <path d="M0,-4.705L2.686,-4.705L2.686,-4.242L0.468,-4.242L0.468,-2.77L2.589,-2.77L2.589,-2.313L0.468,-2.313L0.468,-0.467L2.667,-0.467L2.667,0L0,0L0,-4.705Z" style="fill:rgb(12,159,150);fill-rule:nonzero;"/>
                            </g>
                            <g transform="matrix(1,0,0,1,125.594,21.304)">
                                <path d="M0,-4.705L2.686,-4.705L2.686,-4.242L0.468,-4.242L0.468,-2.77L2.589,-2.77L2.589,-2.313L0.468,-2.313L0.468,-0.467L2.667,-0.467L2.667,0L0,0L0,-4.705Z" style="fill:rgb(12,159,150);fill-rule:nonzero;"/>
                            </g>
                            <g transform="matrix(1,0,0,1,139.789,21.304)">
                                <path d="M0,-4.705L2.686,-4.705L2.686,-4.242L0.468,-4.242L0.468,-2.77L2.589,-2.77L2.589,-2.313L0.468,-2.313L0.468,-0.467L2.667,-0.467L2.667,0L0,0L0,-4.705Z" style="fill:rgb(12,159,150);fill-rule:nonzero;"/>
                            </g>
                        </g>
                    </g>
                </g>
                <g id="Southall-logo---colour2" serif:id="Southall logo - colour">
                </g>
            </g>
        </g>
    </g>
</svg>
